<?xml version="1.0" encoding="iso-8859-1"?>
<!-- Generator: Adobe Illustrator 19.0.0, SVG Export Plug-In . SVG Version: 6.00 Build 0)  -->
<svg version="1.1" id="Layer_1" xmlns="http://www.w3.org/2000/svg" xmlns:xlink="http://www.w3.org/1999/xlink" x="0px" y="0px"
	 viewBox="0 0 512 512" style="enable-background:new 0 0 512 512;" xml:space="preserve">
<g>
	<g>
		<path d="M394.667,192c-0.764,0-1.518,0.172-2.283,0.188C366.75,128.096,304.552,85.333,234.667,85.333
			c-88.733,0-161.798,67.512-169.565,154.888C27.368,253.164,0,288.599,0,330.667c0,52.938,43.063,96,96,96h298.667
			c64.698,0,117.333-52.635,117.333-117.333S459.365,192,394.667,192z M394.667,405.333H96c-41.167,0-74.667-33.5-74.667-74.667
			S54.833,256,96,256c5.896,0,10.667-4.771,10.667-10.667c0-5.896-4.771-10.667-10.667-10.667c-3.094,0-6.016,0.625-9.035,0.913
			c9.742-73.219,72.289-128.913,147.702-128.913c59.223,0,112.049,35.141,135.69,88.258c-16.503,3.552-32.367,10.339-46.055,20.513
			c-4.729,3.521-5.708,10.198-2.198,14.927c3.5,4.698,10.167,5.688,14.927,2.198c16.677-12.396,37.146-19.229,57.635-19.229
			c52.938,0,96,43.063,96,96C490.667,362.271,447.604,405.333,394.667,405.333z"/>
	</g>
</g>
<g>
</g>
<g>
</g>
<g>
</g>
<g>
</g>
<g>
</g>
<g>
</g>
<g>
</g>
<g>
</g>
<g>
</g>
<g>
</g>
<g>
</g>
<g>
</g>
<g>
</g>
<g>
</g>
<g>
</g>
</svg>
