<?xml version="1.0" encoding="utf-8"?>
<!-- Generator: Adobe Illustrator 19.2.0, SVG Export Plug-In . SVG Version: 6.00 Build 0)  -->
<svg version="1.1" id="Layer_1" xmlns="http://www.w3.org/2000/svg" xmlns:xlink="http://www.w3.org/1999/xlink" x="0px" y="0px"
	 viewBox="0 0 512 512" style="enable-background:new 0 0 512 512;" xml:space="preserve">
<g>
	<path d="M245.3,114c15.5,0,19,2.1,24.5,7.5c5.5,5.5,7.5,9,7.5,24.5c0,5.9,4.8,10.7,10.7,10.7s10.7-4.8,10.7-10.7
		c0-15.5,2.1-19,7.5-24.5c5.5-5.5,9-7.5,24.5-7.5c5.9,0,10.7-4.8,10.7-10.7s-4.8-10.7-10.7-10.7c-15.5,0-19-2.1-24.5-7.5
		c-5.5-5.5-7.5-9-7.5-24.5c0-5.9-4.8-10.7-10.7-10.7s-10.7,4.8-10.7,10.7c0,15.5-2.1,19-7.5,24.5c-5.5,5.5-9,7.5-24.5,7.5
		c-5.9,0-10.7,4.8-10.7,10.7C234.7,109.2,239.4,114,245.3,114z M284.9,100.2c1.1-1.1,2.2-2.2,3.1-3.3c1,1.1,2,2.2,3.1,3.3
		s2.2,2.2,3.3,3.1c-1.1,1-2.2,2-3.3,3.1s-2.2,2.2-3.1,3.3c-1-1.1-2-2.2-3.1-3.3s-2.2-2.2-3.3-3.1
		C282.6,102.4,283.8,101.3,284.9,100.2z"/>
	<path d="M85.3,455.3h277.3c58.8,0,106.7-47.9,106.7-106.7c0-14.3-2.9-28-8.1-40.5C493.5,278.9,512,237.8,512,194
		c0-64-40.4-120.3-103-143.3c-3.9-1.4-8.3-0.5-11.2,2.5c-2.9,2.9-3.9,7.3-2.5,11.2c5.5,14.9,10,28.5,10,44.3
		c0,51.7-29.5,97.5-75.6,119.7c-26.8-43.7-74.7-71.7-127-71.7c-76.8,0-140.4,58.3-148.2,134C22.7,303.1,0,333.9,0,370
		C0,417.1,38.3,455.3,85.3,455.3z M426.7,108.7c0-10.1-1.5-19.3-3.7-28.1c41.8,23.6,67.7,66.1,67.7,113.5c0,36-14.4,69.8-39.8,94.8
		c-19.2-28.2-51.6-46.8-88.2-46.8c-4.9,0-9.8,0.4-14.6,1.1C396.3,215.9,426.7,165.2,426.7,108.7z M85.3,306
		c5.9,0,10.7-4.8,10.7-10.7s-4.8-10.7-10.7-10.7c-3,0-5.9,0.6-8.8,0.9C86.3,224.3,139.3,178,202.7,178c49.6,0,94.5,29.4,115.4,73.8
		c-5.2,2.4-10.2,5.1-14.9,8.3c-4.9,3.3-6.2,9.9-2.9,14.8c3.3,4.9,9.9,6.2,14.8,2.9c14.1-9.5,30.5-14.5,47.6-14.5
		c47.1,0,85.3,38.3,85.3,85.3c0,47.1-38.3,85.3-85.3,85.3H85.3c-35.3,0-64-28.7-64-64S50,306,85.3,306z"/>
</g>
</svg>
