<?xml version="1.0" encoding="iso-8859-1"?>
<!-- Generator: Adobe Illustrator 19.0.0, SVG Export Plug-In . SVG Version: 6.00 Build 0)  -->
<svg version="1.1" id="Layer_1" xmlns="http://www.w3.org/2000/svg" xmlns:xlink="http://www.w3.org/1999/xlink" x="0px" y="0px"
	 viewBox="0 0 512 512" style="enable-background:new 0 0 512 512;" xml:space="preserve">
<g>
	<g>
		<g>
			<path d="M501.333,170.667c-34.021,0-51.781,12.344-67.448,23.24c-15,10.427-27.948,19.427-55.292,19.427
				c-27.333,0-40.281-9-55.271-19.427c-15.677-10.896-33.427-23.24-67.458-23.24c-34.01,0-51.75,12.344-67.417,23.24
				c-14.979,10.427-27.917,19.427-55.24,19.427c-27.292,0-40.208-9-55.177-19.417c-15.646-10.896-33.385-23.25-67.365-23.25
				C4.771,170.667,0,175.438,0,181.333C0,187.229,4.771,192,10.667,192c27.292,0,40.208,9,55.177,19.417
				c15.646,10.896,33.385,23.25,67.365,23.25c34.01,0,51.76-12.354,67.427-23.25C215.615,201,228.552,192,255.865,192
				c27.333,0,40.281,9,55.271,19.427c15.677,10.896,33.427,23.24,67.458,23.24s51.792-12.344,67.469-23.24
				C461.052,201,474,192,501.333,192c5.896,0,10.667-4.771,10.667-10.667C512,175.438,507.229,170.667,501.333,170.667z"/>
			<path d="M501.333,384c-34.021,0-51.781,12.344-67.448,23.24c-15,10.427-27.948,19.427-55.292,19.427
				c-27.333,0-40.281-9-55.271-19.427C307.646,396.344,289.896,384,255.865,384c-5.896,0-10.667,4.771-10.667,10.667
				s4.771,10.667,10.667,10.667c27.333,0,40.281,9,55.271,19.427c15.677,10.896,33.427,23.24,67.458,23.24
				s51.792-12.344,67.469-23.24c14.99-10.427,27.938-19.427,55.271-19.427c5.896,0,10.667-4.771,10.667-10.667
				S507.229,384,501.333,384z"/>
			<path d="M133.208,426.667c-27.292,0-40.208-9-55.177-19.417C62.385,396.354,44.646,384,10.667,384C4.771,384,0,388.771,0,394.667
				s4.771,10.667,10.667,10.667c27.292,0,40.208,9,55.177,19.417C81.49,435.646,99.229,448,133.208,448
				c5.896,0,10.667-4.771,10.667-10.667C143.875,431.438,139.104,426.667,133.208,426.667z"/>
			<path d="M501.333,277.333c-34.021,0-51.781,12.344-67.448,23.24C418.885,311,405.938,320,378.594,320
				c-5.896,0-10.667,4.771-10.667,10.667c0,5.896,4.771,10.667,10.667,10.667c34.031,0,51.792-12.344,67.469-23.24
				c14.99-10.427,27.938-19.427,55.271-19.427c5.896,0,10.667-4.771,10.667-10.667S507.229,277.333,501.333,277.333z"/>
			<path d="M266.531,288c0-5.896-4.771-10.667-10.667-10.667c-34.01,0-51.75,12.344-67.417,23.24
				C173.469,311,160.531,320,133.208,320c-27.292,0-40.208-9-55.177-19.417c-15.646-10.896-33.385-23.25-67.365-23.25
				C4.771,277.333,0,282.104,0,288s4.771,10.667,10.667,10.667c27.292,0,40.208,9,55.177,19.417
				c15.646,10.896,33.385,23.25,67.365,23.25c34.01,0,51.76-12.354,67.427-23.25c14.979-10.417,27.917-19.417,55.229-19.417
				C261.76,298.667,266.531,293.896,266.531,288z"/>
			<path d="M378.594,128c34.031,0,51.792-12.344,67.469-23.24c14.99-10.427,27.938-19.427,55.271-19.427
				c5.896,0,10.667-4.771,10.667-10.667C512,68.771,507.229,64,501.333,64c-34.021,0-51.781,12.344-67.448,23.24
				c-15,10.427-27.948,19.427-55.292,19.427c-5.896,0-10.667,4.771-10.667,10.667C367.927,123.229,372.698,128,378.594,128z"/>
			<path d="M10.667,85.333c27.292,0,40.208,9,55.177,19.417C81.49,115.646,99.229,128,133.208,128
				c34.01,0,51.76-12.354,67.427-23.25c14.979-10.417,27.917-19.417,55.229-19.417c5.896,0,10.667-4.771,10.667-10.667
				c0-5.896-4.771-10.667-10.667-10.667c-34.01,0-51.75,12.344-67.417,23.24c-14.979,10.427-27.917,19.427-55.24,19.427
				c-27.292,0-40.208-9-55.177-19.417C62.385,76.354,44.646,64,10.667,64C4.771,64,0,68.771,0,74.667
				C0,80.563,4.771,85.333,10.667,85.333z"/>
		</g>
	</g>
</g>
<g>
</g>
<g>
</g>
<g>
</g>
<g>
</g>
<g>
</g>
<g>
</g>
<g>
</g>
<g>
</g>
<g>
</g>
<g>
</g>
<g>
</g>
<g>
</g>
<g>
</g>
<g>
</g>
<g>
</g>
</svg>
