<?xml version="1.0" encoding="iso-8859-1"?>
<!-- Generator: Adobe Illustrator 19.0.0, SVG Export Plug-In . SVG Version: 6.00 Build 0)  -->
<svg version="1.1" id="Layer_1" xmlns="http://www.w3.org/2000/svg" xmlns:xlink="http://www.w3.org/1999/xlink" x="0px" y="0px"
	 viewBox="0 0 512 512" style="enable-background:new 0 0 512 512;" xml:space="preserve">
<g>
	<g>
		<g>
			<path d="M355.125,419.125l-32.082,32.082c-4.172-1.996-8.784-3.207-13.71-3.207c-17.646,0-32,14.354-32,32
				c0,17.646,14.354,32,32,32c17.646,0,32-14.354,32-32c0-4.926-1.211-9.538-3.207-13.71l32.082-32.082
				c4.167-4.167,4.167-10.917,0-15.083C366.042,414.958,359.292,414.958,355.125,419.125z M309.333,490.667
				c-5.875,0-10.667-4.781-10.667-10.667c0-5.885,4.792-10.667,10.667-10.667S320,474.115,320,480
				C320,485.885,315.208,490.667,309.333,490.667z"/>
			<path d="M472.458,387.125l-42.749,42.749c-4.172-1.996-8.784-3.207-13.71-3.207c-17.646,0-32,14.354-32,32s14.354,32,32,32
				c17.646,0,32-14.354,32-32c0-4.926-1.211-9.538-3.207-13.71l42.749-42.749c4.167-4.167,4.167-10.917,0-15.083
				C483.375,382.958,476.625,382.958,472.458,387.125z M416,469.333c-5.875,0-10.667-4.781-10.667-10.667S410.125,448,416,448
				s10.667,4.781,10.667,10.667S421.875,469.333,416,469.333z"/>
			<path d="M163.125,419.125l-32.082,32.082c-4.172-1.996-8.784-3.207-13.71-3.207c-17.646,0-32,14.354-32,32
				c0,17.646,14.354,32,32,32c17.646,0,32-14.354,32-32c0-4.926-1.211-9.538-3.207-13.71l32.082-32.082
				c4.167-4.167,4.167-10.917,0-15.083C174.042,414.958,167.292,414.958,163.125,419.125z M117.333,490.667
				c-5.875,0-10.667-4.781-10.667-10.667c0-5.885,4.792-10.667,10.667-10.667S128,474.115,128,480
				C128,485.885,123.208,490.667,117.333,490.667z"/>
			<path d="M397.844,298.667h7.49C464.146,298.667,512,250.813,512,192S464.146,85.333,405.333,85.333
				c-8.275,0-16.366,1.224-24.289,3.074C357.124,35.29,303.995,0,245.333,0C168.098,0,104.276,58.389,97.044,134.022
				c-31.755,12.44-54.378,43.202-54.378,79.311c0,4.918,0.717,9.997,1.783,15.283C17.802,245.694,0,275.4,0,309.333
				c0,45.066,31.323,82.708,73.264,92.986L45.71,429.874c-4.172-1.996-8.784-3.207-13.71-3.207c-17.646,0-32,14.354-32,32
				s14.354,32,32,32s32-14.354,32-32c0-4.926-1.211-9.538-3.207-13.71l39.624-39.624H262.25l-24.54,24.54
				c-4.172-1.996-8.784-3.207-13.71-3.207c-17.646,0-32,14.354-32,32s14.354,32,32,32s32-14.354,32-32
				c0-4.926-1.211-9.538-3.207-13.71l39.624-39.624h38.25c41.167,0,74.667-33.5,74.667-74.667
				C405.333,319.172,402.505,308.404,397.844,298.667z M32,469.333c-5.875,0-10.667-4.781-10.667-10.667S26.125,448,32,448
				s10.667,4.781,10.667,10.667S37.875,469.333,32,469.333z M224,469.333c-5.875,0-10.667-4.781-10.667-10.667S218.125,448,224,448
				s10.667,4.781,10.667,10.667S229.875,469.333,224,469.333z M128,149.333c5.896,0,10.667-4.771,10.667-10.667
				c0-5.896-4.771-10.667-10.667-10.667c-3.087,0-6.012,0.59-9.016,0.911c9.375-61.255,62.595-107.578,126.349-107.578
				c49.551,0,94.474,29.395,115.391,73.837c-5.147,2.374-10.152,5.087-14.911,8.288c-4.875,3.292-6.188,9.917-2.896,14.813
				c3.313,4.906,9.938,6.156,14.813,2.896c14.083-9.49,30.563-14.5,47.604-14.5c47.063,0,85.333,38.281,85.333,85.333
				s-38.271,85.333-85.333,85.333h-22.577c-6.13-5.988-13.323-10.841-21.21-14.452c-7.229-64.189-61.578-113.548-126.88-113.548
				c-47.431,0-90.457,26.488-112.605,67.944c-8.462-2.397-17.181-3.944-26.061-3.944c-11.1,0-21.599,2.268-31.525,5.749
				c-0.217-1.941-0.475-3.898-0.475-5.749C64,178.042,92.708,149.333,128,149.333z M330.667,384H96
				c-41.167,0-74.667-33.5-74.667-74.667c0-41.167,33.5-74.667,74.667-74.667c17.146,0,33.292,5.656,46.646,16.354
				c4.563,3.698,11.271,2.979,15-1.656c3.667-4.594,2.938-11.313-1.667-14.99c-4.384-3.513-9.078-6.576-13.978-9.247
				c18.785-33.302,53.978-54.461,92.665-54.461c51.465,0,94.466,36.908,104.111,86.154c-2.699-0.297-5.333-0.82-8.111-0.82
				c-5.896,0-10.667,4.771-10.667,10.667c0,5.896,4.771,10.667,10.667,10.667c29.417,0,53.333,23.927,53.333,53.333
				S360.083,384,330.667,384z"/>
		</g>
	</g>
</g>
<g>
</g>
<g>
</g>
<g>
</g>
<g>
</g>
<g>
</g>
<g>
</g>
<g>
</g>
<g>
</g>
<g>
</g>
<g>
</g>
<g>
</g>
<g>
</g>
<g>
</g>
<g>
</g>
<g>
</g>
</svg>
