<?xml version="1.0" encoding="iso-8859-1"?>
<!-- Generator: Adobe Illustrator 19.0.0, SVG Export Plug-In . SVG Version: 6.00 Build 0)  -->
<svg version="1.1" id="Layer_1" xmlns="http://www.w3.org/2000/svg" xmlns:xlink="http://www.w3.org/1999/xlink" x="0px" y="0px"
	 viewBox="0 0 512 512" style="enable-background:new 0 0 512 512;" xml:space="preserve">
<g>
	<g>
		<g>
			<path d="M79.396,427.771c-3.646-1.823-8-1.396-11.208,1.094L35,454.229c-8.688,6.198-13.667,15.573-13.667,25.771
				c0,17.646,14.354,32,32,32c17.646,0,32-14.354,32-32v-42.667C85.333,433.271,83.021,429.573,79.396,427.771z M64,480
				c0,5.885-4.792,10.667-10.667,10.667S42.667,485.885,42.667,480c0-4.417,3-7.188,4.792-8.448c0.125-0.083,0.25-0.167,0.354-0.26
				L64,458.917V480z"/>
			<path d="M250.063,427.771c-3.667-1.823-8-1.396-11.208,1.094l-33.188,25.365C196.979,460.427,192,469.802,192,480
				c0,17.646,14.354,32,32,32s32-14.354,32-32v-42.667C256,433.271,253.688,429.573,250.063,427.771z M234.667,480
				c0,5.885-4.792,10.667-10.667,10.667s-10.667-4.781-10.667-10.667c0-4.417,3-7.188,4.792-8.448
				c0.125-0.083,0.25-0.167,0.354-0.26l16.188-12.375V480z"/>
			<path d="M420.729,427.771c-3.667-1.823-8-1.396-11.208,1.094l-33.167,25.375c-8.708,6.177-13.688,15.552-13.688,25.76
				c0,17.646,14.354,32,32,32s32-14.354,32-32v-42.667C426.667,433.271,424.354,429.573,420.729,427.771z M405.333,480
				c0,5.885-4.792,10.667-10.667,10.667S384,485.885,384,480c0-4.417,3-7.177,4.792-8.427c0.125-0.094,0.229-0.177,0.354-0.271
				l16.188-12.375V480z"/>
			<path d="M405.333,85.333c-8.275,0-16.366,1.224-24.289,3.074C357.124,35.29,303.995,0,245.333,0
				C168.098,0,104.276,58.389,97.044,134.022c-31.755,12.44-54.378,43.202-54.378,79.311c0,4.918,0.717,9.997,1.783,15.283
				C17.802,245.694,0,275.4,0,309.333c0,52.938,43.063,96,96,96h32.483l-8.15,6.229c-8.688,6.198-13.667,15.573-13.667,25.771
				c0,17.646,14.354,32,32,32c17.646,0,32-14.354,32-32v-32H299.15l-8.15,6.229c-8.688,6.198-13.667,15.573-13.667,25.771
				c0,17.646,14.354,32,32,32c17.646,0,32-14.354,32-32v-33.078c36.089-5.232,64-36.074,64-73.589c0-11.495-2.828-22.263-7.49-32
				h7.49C464.146,298.667,512,250.813,512,192S464.146,85.333,405.333,85.333z M149.333,437.333c0,5.885-4.792,10.667-10.667,10.667
				S128,443.219,128,437.333c0-4.417,3-7.188,4.792-8.448c0.125-0.083,0.25-0.167,0.354-0.26l16.188-12.375V437.333z M320,437.333
				c0,5.885-4.792,10.667-10.667,10.667s-10.667-4.781-10.667-10.667c0-4.417,3-7.188,4.792-8.448
				c0.125-0.083,0.25-0.167,0.354-0.26L320,416.25V437.333z M330.667,384H96c-41.167,0-74.667-33.5-74.667-74.667
				c0-41.167,33.5-74.667,74.667-74.667c17.146,0,33.292,5.656,46.646,16.354c4.563,3.698,11.271,2.979,15-1.656
				c3.667-4.594,2.938-11.313-1.667-14.99c-4.384-3.513-9.078-6.576-13.978-9.247c18.785-33.302,53.978-54.461,92.665-54.461
				c51.465,0,94.466,36.908,104.111,86.154c-2.699-0.297-5.333-0.82-8.111-0.82c-5.896,0-10.667,4.771-10.667,10.667
				c0,5.896,4.771,10.667,10.667,10.667c29.417,0,53.333,23.927,53.333,53.333S360.083,384,330.667,384z M405.333,277.333h-22.577
				c-6.13-5.988-13.323-10.841-21.21-14.452c-7.229-64.189-61.578-113.548-126.88-113.548c-47.431,0-90.457,26.488-112.605,67.944
				c-8.462-2.397-17.181-3.944-26.061-3.944c-11.1,0-21.599,2.268-31.525,5.749c-0.217-1.941-0.475-3.898-0.475-5.749
				c0-35.292,28.708-64,64-64c5.896,0,10.667-4.771,10.667-10.667c0-5.896-4.771-10.667-10.667-10.667
				c-3.087,0-6.012,0.59-9.016,0.911c9.375-61.255,62.595-107.578,126.349-107.578c49.551,0,94.474,29.395,115.391,73.837
				c-5.147,2.374-10.152,5.087-14.911,8.288c-4.875,3.292-6.188,9.917-2.896,14.813c3.313,4.906,9.938,6.156,14.813,2.896
				c14.083-9.49,30.563-14.5,47.604-14.5c47.063,0,85.333,38.281,85.333,85.333S452.396,277.333,405.333,277.333z"/>
		</g>
	</g>
</g>
<g>
</g>
<g>
</g>
<g>
</g>
<g>
</g>
<g>
</g>
<g>
</g>
<g>
</g>
<g>
</g>
<g>
</g>
<g>
</g>
<g>
</g>
<g>
</g>
<g>
</g>
<g>
</g>
<g>
</g>
</svg>
