<?xml version="1.0" encoding="iso-8859-1"?>
<!-- Generator: Adobe Illustrator 19.0.0, SVG Export Plug-In . SVG Version: 6.00 Build 0)  -->
<svg version="1.1" id="Layer_1" xmlns="http://www.w3.org/2000/svg" xmlns:xlink="http://www.w3.org/1999/xlink" x="0px" y="0px"
	 viewBox="0 0 512.009 512.009" style="enable-background:new 0 0 512.009 512.009;" xml:space="preserve">
<g>
	<g>
		<g>
			<path d="M512.004,144.009c0-64.042-40.427-120.302-102.979-143.344c-3.906-1.448-8.313-0.49-11.229,2.469
				c-2.938,2.938-3.906,7.323-2.469,11.229c5.479,14.875,10.01,28.479,10.01,44.313c0,51.691-29.538,97.544-75.65,119.714
				c-26.79-43.665-74.723-71.714-127.017-71.714c-76.845,0-140.443,58.293-148.191,133.992
				c-31.801,12.417-54.475,43.198-54.475,79.341c0,47.052,38.281,85.333,85.333,85.333h43.174l-8.143,6.229
				c-8.708,6.188-13.698,15.573-13.698,25.771c0,17.646,14.354,32,32,32c17.646,0,32-14.354,32-32v-32h128.517l-8.152,6.24
				c-8.708,6.177-13.698,15.552-13.698,25.76c0,17.646,14.354,32,32,32c17.646,0,32-14.354,32-32v-32h21.333
				c58.813,0,106.667-47.854,106.667-106.667c0-14.34-2.934-27.987-8.089-40.49C493.497,228.858,512.004,187.823,512.004,144.009z
				 M149.338,437.342c0,5.885-4.781,10.667-10.667,10.667c-5.885,0-10.667-4.781-10.667-10.667c0-4.417,3.01-7.188,4.802-8.448
				c0.125-0.083,0.24-0.167,0.354-0.26l16.177-12.365V437.342z M320.004,437.342c0,5.885-4.781,10.667-10.667,10.667
				c-5.885,0-10.667-4.781-10.667-10.667c0-4.417,3-7.177,4.792-8.427c0.125-0.083,0.25-0.177,0.365-0.271l16.177-12.375V437.342z
				 M362.671,384.009H85.338c-35.292,0-64-28.708-64-64c0-35.292,28.708-64,64-64c5.896,0,10.667-4.771,10.667-10.667
				c0-5.896-4.771-10.667-10.667-10.667c-3.016,0-5.87,0.583-8.806,0.891c9.811-61.302,62.76-107.557,126.139-107.557
				c49.551,0,94.48,29.395,115.409,73.835c-5.151,2.376-10.16,5.092-14.919,8.301c-4.885,3.292-6.177,9.917-2.885,14.802
				c3.292,4.896,9.938,6.167,14.802,2.885c14.073-9.479,30.531-14.49,47.594-14.49c47.052,0,85.333,38.281,85.333,85.333
				C448.004,345.727,409.723,384.009,362.671,384.009z M362.671,192.009c-4.926,0-9.799,0.415-14.618,1.077
				c48.286-27.189,78.618-77.872,78.618-134.41c0-10.094-1.458-19.323-3.708-28.146c41.771,23.594,67.708,66.094,67.708,113.479
				c0,35.964-14.41,69.819-39.785,94.818C431.674,210.602,399.31,192.009,362.671,192.009z"/>
			<path d="M245.338,64.009c15.458,0,18.979,2.073,24.458,7.542c5.469,5.479,7.542,9,7.542,24.458
				c0,5.896,4.771,10.667,10.667,10.667s10.667-4.771,10.667-10.667c0-15.458,2.073-18.979,7.542-24.458
				c5.479-5.469,9-7.542,24.458-7.542c5.896,0,10.667-4.771,10.667-10.667c0-5.896-4.771-10.667-10.667-10.667
				c-15.458,0-18.979-2.073-24.458-7.542c-5.469-5.479-7.542-9-7.542-24.458c0-5.896-4.771-10.667-10.667-10.667
				s-10.667,4.771-10.667,10.667c0,15.458-2.073,18.979-7.542,24.458c-5.479,5.469-9,7.542-24.458,7.542
				c-5.896,0-10.667,4.771-10.667,10.667C234.671,59.238,239.442,64.009,245.338,64.009z M284.879,50.217
				c1.125-1.125,2.167-2.229,3.125-3.344c0.958,1.115,2,2.219,3.125,3.344s2.229,2.167,3.344,3.125
				c-1.115,0.958-2.219,2-3.344,3.125s-2.167,2.229-3.125,3.344c-0.958-1.115-2-2.219-3.125-3.344s-2.229-2.167-3.344-3.125
				C282.65,52.384,283.754,51.342,284.879,50.217z"/>
			<path d="M79.4,427.78c-3.635-1.781-7.969-1.385-11.208,1.094l-33.156,25.365c-8.708,6.188-13.698,15.573-13.698,25.771
				c0,17.646,14.354,32,32,32c17.646,0,32-14.354,32-32v-42.667C85.338,433.28,83.036,429.582,79.4,427.78z M64.004,480.009
				c0,5.885-4.781,10.667-10.667,10.667c-5.885,0-10.667-4.781-10.667-10.667c0-4.417,3.01-7.188,4.802-8.448
				c0.125-0.083,0.24-0.167,0.354-0.26l16.177-12.365V480.009z"/>
			<path d="M250.067,427.78c-3.635-1.781-7.969-1.385-11.208,1.094l-33.156,25.365c-8.708,6.188-13.698,15.573-13.698,25.771
				c0,17.646,14.354,32,32,32s32-14.354,32-32v-42.667C256.004,433.28,253.702,429.582,250.067,427.78z M234.671,480.009
				c0,5.885-4.781,10.667-10.667,10.667s-10.667-4.781-10.667-10.667c0-4.417,3.01-7.188,4.802-8.448
				c0.125-0.083,0.24-0.167,0.354-0.26l16.177-12.365V480.009z"/>
		</g>
	</g>
</g>
<g>
</g>
<g>
</g>
<g>
</g>
<g>
</g>
<g>
</g>
<g>
</g>
<g>
</g>
<g>
</g>
<g>
</g>
<g>
</g>
<g>
</g>
<g>
</g>
<g>
</g>
<g>
</g>
<g>
</g>
</svg>
