<?xml version="1.0" encoding="iso-8859-1"?>
<!-- Generator: Adobe Illustrator 19.0.0, SVG Export Plug-In . SVG Version: 6.00 Build 0)  -->
<svg version="1.1" id="Layer_1" xmlns="http://www.w3.org/2000/svg" xmlns:xlink="http://www.w3.org/1999/xlink" x="0px" y="0px"
	 viewBox="0 0 512 512" style="enable-background:new 0 0 512 512;" xml:space="preserve">
<g>
	<g>
		<g>
			<path d="M438.552,346.781c-5.573,9.917-33.365,60.406-33.365,79.885c0,23.531,19.135,42.667,42.667,42.667
				s42.667-19.135,42.667-42.667c0-19.479-27.792-69.969-33.365-79.885C453.385,340.052,442.323,340.052,438.552,346.781z
				 M447.854,448c-11.76,0-21.333-9.573-21.333-21.333c0-7.25,9.906-29.979,21.333-52.135
				c11.427,22.156,21.333,44.885,21.333,52.135C469.188,438.427,459.615,448,447.854,448z"/>
			<path d="M108.552,431.271c-6.979,10.115-23.219,35.094-23.219,48.729c0,17.646,14.354,32,32,32c17.646,0,32-14.354,32-32
				c0-13.635-16.24-38.615-23.219-48.729C122.115,425.5,112.552,425.5,108.552,431.271z M117.333,490.667
				c-5.885,0-10.667-4.781-10.667-10.656c0.083-3.26,4.521-12.552,10.667-22.906C123.469,467.438,127.906,476.729,128,480
				C128,485.885,123.208,490.667,117.333,490.667z"/>
			<path d="M405.333,330.667c0-11.495-2.828-22.263-7.49-32h7.49C464.146,298.667,512,250.813,512,192
				S464.146,85.333,405.333,85.333c-8.276,0-16.366,1.224-24.288,3.073C357.135,35.289,304.005,0,245.333,0
				c-77.227,0-141.06,58.392-148.299,134.026c-31.746,12.443-54.367,43.203-54.367,79.307c0,4.926,0.721,10.003,1.789,15.279
				C17.806,245.689,0,275.398,0,309.333c0,52.938,43.063,96,96,96h99.458c-10.161,19.436-24.792,49.842-24.792,64
				c0,23.531,19.135,42.667,42.667,42.667S256,492.865,256,469.333c0-14.158-14.63-44.564-24.792-64h58.671
				c-6.37,10.888-12.546,23.594-12.546,32c0,17.646,14.354,32,32,32c17.646,0,32-14.354,32-32c0-8.406-6.176-21.112-12.546-32h1.879
				C371.833,405.333,405.333,371.833,405.333,330.667z M128,149.333c5.896,0,10.667-4.771,10.667-10.667
				c0-5.896-4.771-10.667-10.667-10.667c-3.083,0-6.005,0.59-9.005,0.91c9.375-61.255,62.594-107.577,126.339-107.577
				c49.551,0,94.48,29.395,115.409,73.835c-5.151,2.376-10.16,5.092-14.919,8.301c-4.885,3.292-6.177,9.917-2.885,14.802
				c3.302,4.896,9.927,6.177,14.802,2.885c14.073-9.479,30.531-14.49,47.594-14.49c47.052,0,85.333,38.281,85.333,85.333
				s-38.281,85.333-85.333,85.333h-22.577c-6.128-5.986-13.318-10.837-21.201-14.448c-7.246-64.201-61.595-113.552-126.889-113.552
				c-47.432,0-90.46,26.492-112.599,67.947c-8.466-2.4-17.188-3.947-26.068-3.947c-11.099,0-21.598,2.268-31.523,5.749
				c-0.217-1.94-0.477-3.893-0.477-5.749C64,178.042,92.708,149.333,128,149.333z M234.667,469.333
				c0,11.76-9.573,21.333-21.333,21.333c-11.76,0-21.333-9.573-21.333-21.333c0-7.25,9.906-29.979,21.333-52.135
				C224.76,439.354,234.667,462.083,234.667,469.333z M309.333,448c-5.885,0-10.667-4.781-10.667-10.656
				c0.083-3.26,4.521-12.552,10.667-22.906c6.135,10.333,10.573,19.625,10.667,22.896C320,443.219,315.208,448,309.333,448z M96,384
				c-41.167,0-74.667-33.5-74.667-74.667c0-41.167,33.5-74.667,74.667-74.667c17.156,0,33.281,5.656,46.646,16.354
				c4.635,3.729,11.333,2.938,14.99-1.656c3.688-4.594,2.948-11.313-1.656-14.99c-4.385-3.514-9.083-6.578-13.987-9.25
				c18.788-33.302,53.979-54.458,92.674-54.458c51.454,0,94.456,36.908,104.116,86.154c-2.702-0.297-5.337-0.82-8.116-0.82
				c-5.896,0-10.667,4.771-10.667,10.667c0,5.896,4.771,10.667,10.667,10.667c29.406,0,53.333,23.927,53.333,53.333
				S360.073,384,330.667,384H96z"/>
		</g>
	</g>
</g>
<g>
</g>
<g>
</g>
<g>
</g>
<g>
</g>
<g>
</g>
<g>
</g>
<g>
</g>
<g>
</g>
<g>
</g>
<g>
</g>
<g>
</g>
<g>
</g>
<g>
</g>
<g>
</g>
<g>
</g>
</svg>
