<?xml version="1.0" encoding="iso-8859-1"?>
<!-- Generator: Adobe Illustrator 19.0.0, SVG Export Plug-In . SVG Version: 6.00 Build 0)  -->
<svg version="1.1" id="Layer_1" xmlns="http://www.w3.org/2000/svg" xmlns:xlink="http://www.w3.org/1999/xlink" x="0px" y="0px"
	 viewBox="0 0 512 512" style="enable-background:new 0 0 512 512;" xml:space="preserve">
<g>
	<g>
		<path d="M474.667,288.771l-69.611,40.264l-52.158-29.857l67.831-33.616c0.178-0.089,0.28-0.254,0.452-0.35
			c0.355-0.199,0.609-0.49,0.941-0.729c1.199-0.871,2.154-1.909,2.879-3.133c0.148-0.246,0.43-0.349,0.561-0.611
			c0.112-0.227,0.092-0.474,0.188-0.704c0.279-0.673,0.414-1.358,0.551-2.074c0.125-0.664,0.264-1.298,0.263-1.961
			c0.001-0.663-0.138-1.297-0.263-1.961c-0.137-0.716-0.272-1.401-0.551-2.074c-0.095-0.23-0.076-0.478-0.188-0.704
			c-0.199-0.4-0.548-0.65-0.789-1.012c-0.401-0.616-0.81-1.189-1.339-1.715c-0.513-0.508-1.069-0.9-1.663-1.288
			c-0.372-0.247-0.632-0.604-1.043-0.809l-67.831-33.616l52.158-29.857l69.611,40.264c1.667,0.979,3.521,1.438,5.333,1.438
			c3.667,0,7.25-1.906,9.229-5.323c2.958-5.104,1.208-11.625-3.896-14.573l-58.87-34.06l49.12-28.117
			c5.125-2.927,6.896-9.448,3.958-14.563c-2.938-5.135-9.521-6.885-14.542-3.958l-49.328,28.237l-0.318-67.695
			C415.333,78.74,410.563,74,404.688,74c-0.021,0-0.042,0-0.042,0c-5.896,0.031-10.646,4.823-10.625,10.719l0.367,79.775
			l-53.672,30.723l0.617-77.799c0.003-0.393-0.177-0.729-0.216-1.112c-0.072-0.742-0.19-1.445-0.421-2.168
			c-0.217-0.681-0.506-1.286-0.85-1.901c-0.198-0.358-0.249-0.759-0.492-1.1c-0.173-0.242-0.435-0.361-0.624-0.583
			c-0.457-0.544-0.97-0.986-1.526-1.428c-0.553-0.439-1.086-0.853-1.702-1.168c-0.565-0.293-1.156-0.473-1.775-0.661
			c-0.725-0.22-1.424-0.398-2.18-0.46c-0.277-0.025-0.514-0.165-0.798-0.168c-0.021,0-0.063,0-0.083,0
			c-0.397,0-0.734,0.184-1.12,0.225c-0.702,0.076-1.368,0.197-2.055,0.413c-0.717,0.228-1.362,0.525-2.004,0.892
			c-0.335,0.188-0.71,0.233-1.03,0.46l-57.792,41.286V91.522l69.292-39.595c5.125-2.917,6.896-9.438,3.979-14.552
			c-2.958-5.135-9.521-6.885-14.563-3.969l-58.708,33.551v-56.29C266.667,4.771,261.896,0,256,0s-10.667,4.771-10.667,10.667v56.29
			l-58.708-33.551c-5.063-2.917-11.625-1.167-14.563,3.969c-2.917,5.115-1.146,11.635,3.979,14.552l69.292,39.595v58.421
			l-57.792-41.286c-0.154-0.108-0.336-0.121-0.492-0.22c-0.717-0.423-1.479-0.779-2.346-1.046c-0.799-0.271-1.578-0.428-2.401-0.504
			c-0.375-0.044-0.656-0.202-1.052-0.22c-0.284,0.003-0.521,0.143-0.798,0.168c-0.755,0.061-1.454,0.24-2.18,0.46
			c-0.619,0.189-1.21,0.369-1.775,0.661c-0.616,0.315-1.148,0.729-1.702,1.168c-0.556,0.443-1.069,0.884-1.526,1.428
			c-0.189,0.223-0.451,0.341-0.624,0.583c-0.243,0.341-0.294,0.742-0.492,1.1c-0.344,0.615-0.633,1.22-0.85,1.901
			c-0.23,0.723-0.349,1.426-0.421,2.168c-0.039,0.383-0.219,0.719-0.216,1.112l0.617,77.799l-53.672-30.723l0.367-79.775
			C118,78.823,113.25,74.031,107.354,74c0,0-0.021,0-0.042,0c-5.875,0-10.646,4.74-10.667,10.615l-0.318,67.695L47,124.073
			c-5.083-2.927-11.625-1.177-14.542,3.958c-2.937,5.115-1.167,11.635,3.958,14.563l49.12,28.117l-58.87,34.06
			c-5.104,2.948-6.854,9.469-3.896,14.573c1.979,3.417,5.563,5.323,9.229,5.323c1.812,0,3.667-0.458,5.333-1.438l69.611-40.264
			l52.158,29.857l-67.831,33.616c-0.413,0.204-0.672,0.561-1.046,0.81c-0.592,0.388-1.146,0.779-1.658,1.285
			c-0.53,0.529-0.94,1.102-1.342,1.719c-0.24,0.362-0.589,0.611-0.788,1.009c-0.112,0.227-0.092,0.474-0.188,0.704
			c-0.279,0.673-0.414,1.358-0.551,2.074c-0.125,0.664-0.264,1.298-0.263,1.961c-0.001,0.663,0.138,1.297,0.263,1.961
			c0.137,0.716,0.272,1.401,0.551,2.074c0.095,0.23,0.076,0.478,0.188,0.704c0.132,0.262,0.413,0.365,0.561,0.611
			c0.725,1.224,1.68,2.262,2.879,3.133c0.332,0.24,0.586,0.53,0.941,0.729c0.172,0.096,0.273,0.262,0.452,0.35l67.831,33.616
			l-52.158,29.857l-69.611-40.264c-5.021-2.927-11.604-1.208-14.562,3.885c-2.958,5.104-1.208,11.625,3.896,14.573l58.87,34.06
			l-49.12,28.117c-5.125,2.927-6.896,9.448-3.958,14.563c1.958,3.438,5.563,5.365,9.25,5.365c1.813,0,3.625-0.448,5.292-1.406
			l49.328-28.237l0.318,67.695C96.667,433.26,101.437,438,107.312,438c0.021,0,0.042,0,0.042,0
			c5.896-0.031,10.646-4.823,10.625-10.719l-0.367-79.775l53.672-30.723l-0.617,77.799c-0.003,0.393,0.177,0.729,0.216,1.112
			c0.072,0.742,0.191,1.444,0.421,2.167c0.219,0.681,0.508,1.289,0.852,1.904c0.198,0.358,0.249,0.758,0.491,1.099
			c0.173,0.242,0.435,0.361,0.624,0.585c0.457,0.543,0.967,0.982,1.522,1.424c0.556,0.441,1.092,0.857,1.712,1.174
			c0.557,0.288,1.141,0.466,1.75,0.654c0.736,0.225,1.447,0.406,2.215,0.467c0.272,0.023,0.504,0.161,0.781,0.164
			c0.021,0,0.063,0,0.083,0c0.387,0,0.716-0.178,1.092-0.219c0.717-0.076,1.398-0.199,2.099-0.422
			c0.71-0.225,1.345-0.523,1.98-0.885c0.337-0.189,0.714-0.234,1.036-0.464l57.792-41.286v58.421l-69.292,39.595
			c-5.125,2.917-6.896,9.438-3.979,14.552c2.938,5.135,9.5,6.865,14.563,3.969l58.708-33.551v56.29
			c0,5.896,4.771,10.667,10.667,10.667s10.667-4.771,10.667-10.667v-56.29l58.708,33.551c1.667,0.958,3.479,1.406,5.292,1.406
			c3.688,0,7.292-1.927,9.271-5.375c2.917-5.115,1.146-11.635-3.979-14.552l-69.292-39.595v-58.421l57.792,41.286
			c0.202,0.143,0.453,0.083,0.66,0.211c1.642,1.029,3.471,1.779,5.548,1.779c0.021,0,0.063,0,0.083,0
			c1.602-0.014,3.081-0.431,4.438-1.073c0.38-0.178,0.669-0.483,1.029-0.706c0.983-0.618,1.857-1.326,2.59-2.22
			c0.159-0.193,0.401-0.264,0.548-0.47c0.242-0.341,0.293-0.741,0.491-1.099c0.344-0.615,0.633-1.223,0.852-1.904
			c0.229-0.723,0.349-1.424,0.421-2.167c0.039-0.383,0.219-0.719,0.216-1.112l-0.617-77.799l53.672,30.723l-0.367,79.775
			C394,433.177,398.75,437.969,404.646,438c0,0,0.021,0,0.042,0c5.875,0,10.646-4.74,10.667-10.615l0.318-67.695L465,387.927
			c1.667,0.958,3.479,1.406,5.292,1.406c3.688,0,7.292-1.927,9.25-5.365c2.938-5.115,1.167-11.635-3.958-14.563l-49.12-28.117
			l58.87-34.06c5.104-2.948,6.854-9.469,3.896-14.573C486.25,287.552,479.688,285.813,474.667,288.771z M181.402,286.413
			L120.027,256l61.375-30.413L234.531,256L181.402,286.413z M245.333,335.841l-53.165,37.975l0.556-69.306l52.609-30.115V335.841z
			 M245.333,237.604l-52.609-30.115l-0.556-69.306l53.165,37.975V237.604z M266.667,176.159l53.165-37.975l-0.556,69.306
			l-52.609,30.115V176.159z M266.667,335.841v-61.445l52.609,30.115l0.556,69.306L266.667,335.841z M330.598,286.413L277.469,256
			l53.129-30.413L391.973,256L330.598,286.413z"/>
	</g>
</g>
<g>
</g>
<g>
</g>
<g>
</g>
<g>
</g>
<g>
</g>
<g>
</g>
<g>
</g>
<g>
</g>
<g>
</g>
<g>
</g>
<g>
</g>
<g>
</g>
<g>
</g>
<g>
</g>
<g>
</g>
</svg>
