<?xml version="1.0" encoding="iso-8859-1"?>
<!-- Generator: Adobe Illustrator 19.0.0, SVG Export Plug-In . SVG Version: 6.00 Build 0)  -->
<svg version="1.1" id="Layer_1" xmlns="http://www.w3.org/2000/svg" xmlns:xlink="http://www.w3.org/1999/xlink" x="0px" y="0px"
	 viewBox="0 0 512 512" style="enable-background:new 0 0 512 512;" xml:space="preserve">
<g>
	<g>
		<g>
			<path d="M58.063,427.771c-3.646-1.823-8-1.396-11.208,1.094l-33.188,25.365C4.979,460.427,0,469.802,0,480
				c0,17.646,14.354,32,32,32s32-14.354,32-32v-42.667C64,433.271,61.688,429.573,58.063,427.771z M42.667,480
				c0,5.885-4.792,10.667-10.667,10.667S21.333,485.885,21.333,480c0-4.417,3-7.188,4.792-8.448c0.125-0.083,0.25-0.167,0.354-0.26
				l16.188-12.375V480z"/>
			<path d="M271.396,427.771c-3.646-1.823-8-1.396-11.208,1.094L227,454.229c-8.688,6.198-13.667,15.573-13.667,25.771
				c0,17.646,14.354,32,32,32c17.646,0,32-14.354,32-32v-42.667C277.333,433.271,275.021,429.573,271.396,427.771z M256,480
				c0,5.885-4.792,10.667-10.667,10.667s-10.667-4.781-10.667-10.667c0-4.417,3-7.188,4.792-8.448
				c0.125-0.083,0.25-0.167,0.354-0.26L256,458.917V480z"/>
			<path d="M463.396,406.438c-3.667-1.813-8-1.396-11.208,1.094l-33.167,25.375c-8.708,6.177-13.688,15.552-13.688,25.76
				c0,17.646,14.354,32,32,32c17.646,0,32-14.354,32-32V416C469.333,411.938,467.021,408.24,463.396,406.438z M448,458.667
				c0,5.885-4.792,10.667-10.667,10.667s-10.667-4.781-10.667-10.667c0-4.417,3-7.177,4.792-8.427
				c0.125-0.094,0.229-0.177,0.354-0.271L448,437.594V458.667z"/>
			<path d="M405.333,85.333c-8.275,0-16.366,1.224-24.289,3.074C357.124,35.29,303.995,0,245.333,0
				C168.098,0,104.276,58.389,97.044,134.022c-31.755,12.44-54.378,43.202-54.378,79.311c0,4.918,0.717,9.997,1.783,15.283
				C17.802,245.694,0,275.4,0,309.333c0,52.938,43.063,96,96,96h8.323L85.542,499.24c-1,5,1.667,10,6.375,11.948
				C93.25,511.74,94.625,512,96,512c3.479,0,6.854-1.708,8.875-4.75l58.771-88.167l34.25,17.125c2.792,1.385,6.083,1.521,8.958,0.26
				c2.896-1.229,5.083-3.667,6-6.667l7.529-24.469h100.1l-8.15,6.229c-8.688,6.198-13.667,15.573-13.667,25.771
				c0,17.646,14.354,32,32,32c17.646,0,32-14.354,32-32v-39.49c25.134-12.033,42.667-37.505,42.667-67.177
				c0-11.495-2.828-22.263-7.49-32h7.49C464.146,298.667,512,250.813,512,192S464.146,85.333,405.333,85.333z M196.167,411.5
				l-31.396-15.708c-4.792-2.385-10.646-0.875-13.646,3.625l-34.083,51.135l18.688-93.438l30.167,15.094
				c3.125,1.552,6.792,1.479,9.875-0.167c3.063-1.667,5.104-4.729,5.5-8.198l9.208-82.885l41.604,13.865L196.167,411.5z
				 M341.333,437.333c0,5.885-4.792,10.667-10.667,10.667S320,443.219,320,437.333c0-4.417,3-7.188,4.792-8.448
				c0.125-0.083,0.25-0.167,0.354-0.26l16.188-12.375V437.333z M330.667,384h-103.72l28.574-92.865
				c1.708-5.542-1.313-11.427-6.813-13.25l-64-21.333c-3.083-1.042-6.417-0.604-9.125,1.125c-2.708,1.74-4.5,4.615-4.854,7.813
				l-8.979,80.792l-28.979-14.49c-2.979-1.49-6.479-1.49-9.458-0.042c-2.979,1.458-5.125,4.229-5.771,7.49L108.59,384H96
				c-41.167,0-74.667-33.5-74.667-74.667c0-41.167,33.5-74.667,74.667-74.667c17.146,0,33.292,5.656,46.646,16.354
				c4.563,3.698,11.292,2.979,15-1.656c3.667-4.594,2.938-11.313-1.667-14.99c-4.384-3.513-9.078-6.576-13.978-9.247
				c18.785-33.302,53.978-54.461,92.665-54.461c51.465,0,94.466,36.908,104.111,86.154c-2.699-0.297-5.333-0.82-8.111-0.82
				c-5.896,0-10.667,4.771-10.667,10.667c0,5.896,4.771,10.667,10.667,10.667c29.417,0,53.333,23.927,53.333,53.333
				S360.083,384,330.667,384z M405.333,277.333h-22.577c-6.13-5.988-13.323-10.841-21.21-14.452
				c-7.229-64.189-61.578-113.548-126.88-113.548c-47.431,0-90.457,26.488-112.605,67.944c-8.462-2.397-17.181-3.944-26.061-3.944
				c-11.1,0-21.599,2.268-31.525,5.749c-0.217-1.941-0.475-3.898-0.475-5.749c0-35.292,28.708-64,64-64
				c5.896,0,10.667-4.771,10.667-10.667c0-5.896-4.771-10.667-10.667-10.667c-3.087,0-6.012,0.59-9.016,0.911
				c9.375-61.255,62.595-107.578,126.349-107.578c49.551,0,94.474,29.395,115.391,73.837c-5.147,2.374-10.152,5.087-14.911,8.288
				c-4.875,3.292-6.188,9.917-2.896,14.813c3.313,4.906,9.938,6.156,14.813,2.896c14.083-9.49,30.563-14.5,47.604-14.5
				c47.063,0,85.333,38.281,85.333,85.333S452.396,277.333,405.333,277.333z"/>
		</g>
	</g>
</g>
<g>
</g>
<g>
</g>
<g>
</g>
<g>
</g>
<g>
</g>
<g>
</g>
<g>
</g>
<g>
</g>
<g>
</g>
<g>
</g>
<g>
</g>
<g>
</g>
<g>
</g>
<g>
</g>
<g>
</g>
</svg>
