<?xml version="1.0" encoding="iso-8859-1"?>
<!-- Generator: Adobe Illustrator 19.0.0, SVG Export Plug-In . SVG Version: 6.00 Build 0)  -->
<svg version="1.1" id="Layer_1" xmlns="http://www.w3.org/2000/svg" xmlns:xlink="http://www.w3.org/1999/xlink" x="0px" y="0px"
	 viewBox="0 0 512 512" style="enable-background:new 0 0 512 512;" xml:space="preserve">
<g>
	<g>
		<path d="M480,74.667c-5.896,0-10.667,4.771-10.667,10.667c0,9.734-9.582,19.826-26.508,29.053
			C446.128,96.328,448,76.206,448,53.333C448,11.229,313.896,0,234.667,0S21.333,11.229,21.333,53.333
			c0,22.552,20.125,39.969,43.438,60.146C94.396,139.135,128,168.219,128,213.333c0,39.833-9.688,56.771-19.938,74.708
			c-10.68,18.708-21.604,38.281-22.548,79.728c-26.965-10.297-42.848-24.068-42.848-37.103c0-11.219,12.271-23.281,33.688-33.104
			c5.354-2.458,7.688-8.792,5.229-14.146c-2.458-5.375-8.771-7.688-14.146-5.25c-29.729,13.656-46.104,32.302-46.104,52.5
			c0,25.246,25.135,46.745,65.154,60.115c10.135,79.161,86.594,118.353,90.076,120.094c1.5,0.75,3.146,1.125,4.771,1.125
			c1.688,0,3.354-0.396,4.896-1.188c3.021-1.573,5.125-4.49,5.646-7.854c6.146-39.926,15.876-72.104,27.974-99.023
			C297.103,397.369,352,368.065,352,330.667c0-8.344-2.813-16.521-8.375-24.323c-3.417-4.813-10.083-5.906-14.875-2.5
			c-4.792,3.417-5.917,10.083-2.5,14.875c2.938,4.115,4.417,8.135,4.417,11.948c0,20.525-39.154,42.949-99.443,50.599
			c27.764-49.395,64.44-78.689,100.401-107.297c43.535-34.633,85.194-68.021,104.736-132.846
			c32.964-13.935,54.306-32.594,54.306-55.789C490.667,79.438,485.896,74.667,480,74.667z M173.437,484.073
			c-19.185-12.967-54.169-42.289-63.97-86.87c22.81,5.193,48.927,8.13,77.199,8.13c3.24,0,6.38-0.129,9.563-0.204
			C186.91,427.805,179.069,453.71,173.437,484.073z M418.665,125.081C380.229,139.19,322.805,149.333,256,149.333
			c-25.167,0-49.875-1.406-73.438-4.177c-6.021-0.698-11.167,3.49-11.833,9.344c-0.708,5.854,3.479,11.156,9.333,11.844
			c24.396,2.865,49.938,4.323,75.938,4.323c54.633,0,110.772-6.966,154.516-20.273c-19.361,48.737-53.999,76.518-92.161,106.878
			c-39.152,31.145-81.758,65.076-112.376,126.176c-6.292,0.327-12.691,0.553-19.311,0.553c-30.495,0-57.586-3.668-79.889-9.49
			c-0.004-0.409-0.111-0.766-0.111-1.177c0-39.833,9.688-56.771,19.938-74.708c11.167-19.563,22.729-39.792,22.729-85.292
			c0-54.865-39.146-88.75-70.604-115.99c-3.23-2.797-6.384-5.553-9.465-8.288c46.273,13.281,116.333,17.611,165.402,17.611
			c59.355,0,149.497-6.305,190.991-27.171C424.447,96.363,422.077,111.477,418.665,125.081z M234.667,85.333
			c-118.069,0-187.32-20.824-191.917-31.48c-0.004-0.096-0.046-0.197-0.047-0.292c4.35-11.32,73.663-32.228,191.964-32.228
			c117.479,0,186.708,20.635,191.896,32C421.375,64.698,352.146,85.333,234.667,85.333z"/>
	</g>
</g>
<g>
</g>
<g>
</g>
<g>
</g>
<g>
</g>
<g>
</g>
<g>
</g>
<g>
</g>
<g>
</g>
<g>
</g>
<g>
</g>
<g>
</g>
<g>
</g>
<g>
</g>
<g>
</g>
<g>
</g>
</svg>
