<?xml version="1.0" encoding="iso-8859-1"?>
<!-- Generator: Adobe Illustrator 19.0.0, SVG Export Plug-In . SVG Version: 6.00 Build 0)  -->
<svg version="1.1" id="Layer_1" xmlns="http://www.w3.org/2000/svg" xmlns:xlink="http://www.w3.org/1999/xlink" x="0px" y="0px"
	 viewBox="0 0 469.335 469.335" style="enable-background:new 0 0 469.335 469.335;" xml:space="preserve">
<g>
	<g>
		<g>
			<path d="M276.771,170.668c58.229,0,128.563-42.333,128.563-94.896c0-13.505-5.232-25.699-15.294-36.362
				c10.039-7.499,20.391-14.03,30.732-19.201c5.271-2.635,7.396-9.042,4.771-14.312c-2.646-5.281-9.042-7.396-14.313-4.771
				c-13.125,6.563-26.207,15.263-38.801,25.172c-6.753-3.212-13.923-4.964-21.533-4.964C298.334,21.335,256,91.668,256,149.897
				C256,161.345,265.313,170.668,276.771,170.668z M350.896,42.668c0.789,0,1.533,0.18,2.306,0.24
				c-22.046,20.832-41.189,45.227-53.41,69.656c-2.625,5.271-0.5,11.677,4.771,14.313c1.542,0.76,3.167,1.125,4.771,1.125
				c3.896,0,7.667-2.156,9.542-5.896c12.25-24.505,32.066-49.044,54.732-69.184c0.026,0.026,0.055,0.043,0.081,0.069
				C380.625,59.939,384,67.387,384,75.772c0,38.771-59.479,73.292-106.667,73.563C277.605,102.158,312.125,42.668,350.896,42.668z"
				/>
			<path d="M4.271,317.866c1.917,1.438,4.167,2.135,6.396,2.135c3.229,0,6.438-1.469,8.542-4.271
				c0.604-0.802,62.437-81.063,204.792-81.063c5.896,0,10.667-4.771,10.667-10.667c0-5.896-4.771-10.667-10.667-10.667
				c-152.917,0-219.125,85.938-221.875,89.604C-1.395,307.647-0.437,314.335,4.271,317.866z"/>
			<path d="M405.334,170.668c-47.875,0-61.479,24.438-62.875,27.229c-2.583,5.167-0.5,11.313,4.583,14.042
				c5.125,2.75,11.5,0.76,14.375-4.25c0.354-0.646,9.354-15.688,43.917-15.688c38.5,0,42.667,29.833,42.667,42.667
				c0,16.604-17.646,64-96,64c-46.396,0-73.438-6.5-97.313-12.24c-19.479-4.677-37.875-9.094-62.688-9.094
				c-54.875,0-156.521,43.854-190.875,112.563c-2.625,5.271-0.5,11.677,4.771,14.313c1.542,0.76,3.167,1.125,4.771,1.125
				c3.896,0,7.667-2.156,9.542-5.896C50.5,338.855,143.667,298.668,192,298.668c22.292,0,38.688,3.948,57.708,8.51
				c25.021,6.01,53.375,12.823,102.292,12.823c95.771,0,117.333-63.198,117.333-85.333
				C469.334,205.147,452.563,170.668,405.334,170.668z"/>
			<path d="M224,341.335c-113.063,0-137.146,68.385-138.125,71.292c-1.854,5.594,1.167,11.635,6.75,13.49
				c5.625,1.896,11.625-1.135,13.5-6.74c0.188-0.573,20.021-56.708,117.875-56.708c95.792,0,138.667,26.792,138.667,53.333
				c0,26.448-17.396,32-32,32c-13.771,0-30.021-13.156-35.146-18.219c-4.167-4.146-10.896-4.156-15.063,0.031
				c-4.167,4.167-4.167,10.906,0,15.063c2.5,2.5,25.188,24.458,50.208,24.458c25.792,0,53.333-14.01,53.333-53.333
				C384,379.908,341.959,341.335,224,341.335z"/>
		</g>
	</g>
</g>
<g>
</g>
<g>
</g>
<g>
</g>
<g>
</g>
<g>
</g>
<g>
</g>
<g>
</g>
<g>
</g>
<g>
</g>
<g>
</g>
<g>
</g>
<g>
</g>
<g>
</g>
<g>
</g>
<g>
</g>
</svg>
