<svg width="240" height="296" xmlns="http://www.w3.org/2000/svg" xmlns:svg="http://www.w3.org/2000/svg">
 <style type="text/css">.st0{fill:#213D3C;stroke:#231F20;stroke-miterlimit:10;}
  .st1{fill:#FFFFFF;}
  .st2{font-family:&#x27;OpenSans-Bold';}
  .st3{font-size:69.571px;}
  .st4{font-size:26.0893px;}
  .st5{font-size:17.3927px;}
  .st6{font-family:'OpenSans';}
  .st7{font-size:53.1951px;}
  .st8{fill:#FDE34C;}
  .st9{fill:#F89E1B;}
  .st10{fill:#FCC10F;}
  .st11{fill:#F9F184;}
  .st12{fill:#99D6D6;}</style>
 <g>
  <title>Layer 1</title>
  <rect height="49.3" width="97.2" class="st0" y="52.9" x="59" id="XMLID_1_"/>
  <rect fill="black" height="296" width="240" y="0" x="-0.5" id="XMLID_1100_"/>
  <text x="-2" y="2" fill="black" class="st1 st2 st3" transform="matrix(1,0,0,1,145.0764,104.425) " id="txt_temp">75</text>
  <g id="XMLID_1093_">
   <path d="m200.8,25.7c0,1 -0.3,1.7 -1,2.3c-0.6,0.6 -1.5,0.9 -2.5,0.9c-1,0 -1.8,-0.3 -2.4,-0.9s-0.9,-1.3 -0.9,-2.3c0,-1 0.3,-1.7 0.9,-2.3c0.6,-0.6 1.4,-0.9 2.4,-0.9c1,0 1.8,0.3 2.4,0.9c0.8,0.6 1.1,1.4 1.1,2.3zm-2.1,0c0,-0.4 -0.1,-0.7 -0.4,-0.9c-0.2,-0.2 -0.5,-0.3 -0.9,-0.3c-0.4,0 -0.7,0.1 -0.9,0.3c-0.2,0.2 -0.4,0.5 -0.4,0.9s0.1,0.7 0.3,1c0.2,0.2 0.5,0.3 1,0.3c0.4,0 0.7,-0.1 0.9,-0.3s0.4,-0.6 0.4,-1z" class="st1" id="XMLID_1096_"/>
   <path d="m216.1,29.1c-1.6,0 -2.8,0.6 -3.6,1.8c-0.9,1.2 -1.3,2.8 -1.3,4.9c0,4.4 1.6,6.6 4.9,6.6c1.4,0 3,-0.3 5,-1l0,3.5c-1.6,0.7 -3.4,1 -5.4,1c-2.8,0 -5,-0.9 -6.5,-2.6c-1.5,-1.7 -2.3,-4.2 -2.3,-7.4c0,-2 0.4,-3.8 1.1,-5.4c0.7,-1.5 1.8,-2.7 3.2,-3.5c1.4,-0.8 3,-1.2 4.9,-1.2c1.9,0 3.8,0.5 5.7,1.4l-1.3,3.4c-0.7,-0.3 -1.5,-0.7 -2.2,-0.9c-0.7,-0.5 -1.5,-0.6 -2.2,-0.6z" class="st1" id="XMLID_1094_"/>
  </g>
  <text fill="black" transform="matrix(1,0,0,1,116.7493,160.7176) " id="XMLID_1092_">
   <tspan id="svg_1" class="st1 st2 st4" y="0" x="0">Tuesday</tspan>
   <tspan id="svg_2" class="st1 st2 st4" y="31.3" x="28.5">Sept 4</tspan>
  </text>
  <text fill="black" class="st1 st2 st5" transform="matrix(1,0,0,1,111.7275,235.4014) " id="XMLID_1090_">Precipitation</text>
  <text fill="black" class="st1 st6 st7" transform="matrix(1,0,0,1,119.875,282.4987) " id="XMLID_1089_">80%</text>
  <g id="img_weather_icon">
   <g id="XMLID_1084_">
    <path d="m27.8,119.1c-0.4,-0.7 -0.9,-1.4 -1.4,-2c-0.6,-0.6 -1.2,-1.1 -2,-1.4l-2.9,-1.5l2.9,-1.5c0.7,-0.4 1.4,-0.9 2,-1.4c0.6,-0.6 1.1,-1.2 1.4,-2l1.5,-2.9l1.5,2.9c0.4,0.7 0.9,1.4 1.4,2c0.6,0.6 1.2,1.1 2,1.4l2.9,1.5l-2.9,1.5c-0.7,0.4 -1.4,0.9 -2,1.4c-0.6,0.6 -1.1,1.2 -1.4,2l-1.5,2.9l-1.5,-2.9z" class="st8" id="XMLID_1088_"/>
    <path d="m112.2,34.7c-0.4,-0.7 -0.9,-1.4 -1.4,-2c-0.6,-0.6 -1.2,-1.1 -2,-1.4l-2.9,-1.5l2.9,-1.5c0.7,-0.4 1.4,-0.9 2,-1.4c0.6,-0.6 1.1,-1.2 1.4,-2l1.5,-2.9l1.5,2.9c0.4,0.7 0.9,1.4 1.4,2c0.6,0.6 1.2,1.1 2,1.4l2.9,1.5l-2.9,1.5c-0.7,0.4 -1.4,0.9 -2,1.4c-0.6,0.6 -1.1,1.2 -1.4,2l-1.5,2.9l-1.5,-2.9z" class="st8" id="XMLID_1085_"/>
   </g>
   <polygon points="71.6,109.5 62.3,113.3 55.5,105.8 45.4,105.2 42.5,95.5 33.8,90.6 35.3,80.6    29.6,72.3 35.3,64 33.8,54.1 42.5,49.1 45.4,39.5 55.5,38.8 62.3,31.4 71.6,35.1 81,31.4 87.7,38.8 97.8,39.5 100.7,49.1    109.5,54.1 107.9,64 113.6,72.3 107.9,80.6 109.5,90.6 100.7,95.5 97.8,105.2 87.7,105.8 81,113.3  " class="st9" id="XMLID_501_"/>
   <path d="m71.6,102.1c-16.4,0 -29.8,-13.4 -29.8,-29.8s13.4,-29.8 29.8,-29.8s29.8,13.4 29.8,29.8s-13.4,29.8 -29.8,29.8z" class="st10" id="XMLID_500_"/>
   <path d="m71.6,93.3c-11.6,0 -21,-9.4 -21,-21s9.4,-21 21,-21s21,9.4 21,21s-9.4,21 -21,21z" class="st8" id="XMLID_335_"/>
   <path d="m71.6,84.3c-6.6,0 -12,-5.4 -12,-12c0,-6.6 5.4,-12 12,-12s12,5.4 12,12c0,6.6 -5.4,12 -12,12z" class="st11" id="XMLID_334_"/>
   <path d="m32.9,32.2c-0.3,-0.4 -0.6,-0.7 -1,-1l-1.9,-1.4l1.9,-1.4c0.4,-0.3 0.7,-0.6 1,-1l1.4,-1.9l1.4,1.9c0.3,0.4 0.6,0.7 1,1l1.9,1.4l-1.9,1.4c-0.4,0.3 -0.7,0.6 -1,1l-1.4,1.8l-1.4,-1.8z" class="st8" id="XMLID_332_"/>
   <path d="m85.5,78.4c-0.1,-0.2 -0.3,-0.3 -0.4,-0.4l-1.6,-1.3l1.6,-1.3c0.2,-0.1 0.3,-0.3 0.4,-0.4l1.3,-1.6l1.3,1.6c0.1,0.2 0.3,0.3 0.4,0.4l1.6,1.3l-1.5,1.3c-0.2,0.1 -0.3,0.3 -0.4,0.4l-1.3,1.6l-1.4,-1.6z" class="st1" id="XMLID_331_"/>
   <path d="m112.6,115.1c-0.1,-0.2 -0.3,-0.3 -0.4,-0.4l-1.6,-1.3l1.6,-1.3c0.2,-0.1 0.3,-0.3 0.4,-0.4l1.3,-1.6l1.3,1.6c0.1,0.2 0.3,0.3 0.4,0.4l1.6,1.3l-1.6,1.3c-0.2,0.1 -0.3,0.3 -0.4,0.4l-1.3,1.6l-1.3,-1.6z" class="st8" id="XMLID_330_"/>
  </g>
  <g id="XMLID_306_">
   <path d="m30.3,254.1c-1.1,0 -2.2,-0.3 -3.1,-1c-2.5,-1.8 -3,-5.4 -1.1,-8l0.1,-0.1l0.1,-0.1c0.4,-0.4 1.2,-1.5 5.5,-3.4l2.2,-1c1.5,-0.6 3.1,0.5 3,2.1l-0.2,2.4c-0.4,4.6 -1.1,5.8 -1.4,6.3l-0.1,0.1l-0.1,0.1c-0.9,1.3 -2.2,2.1 -3.7,2.4c-0.5,0.2 -0.9,0.2 -1.2,0.2l0,0z" class="st12" id="XMLID_320_"/>
   <path d="m71.7,254.1c-1.1,0 -2.2,-0.3 -3.1,-1c-2.5,-1.8 -3,-5.4 -1.1,-8l0.1,-0.1l0.1,-0.1c0.4,-0.4 1.2,-1.5 5.5,-3.4l2.2,-0.9c1.5,-0.7 3.2,0.5 3,2.2l-0.2,2.3c-0.4,4.6 -1.1,5.8 -1.4,6.3l-0.1,0.1l-0.1,0.1c-0.9,1.3 -2.2,2.1 -3.7,2.4c-0.5,0.1 -0.9,0.1 -1.2,0.1l0,0z" class="st12" id="XMLID_317_"/>
   <path d="m47.6,277.7c-1.1,0 -2.2,-0.3 -3.1,-1c-2.5,-1.8 -3,-5.4 -1.1,-8l0.1,-0.1l0.1,-0.1c0.4,-0.4 1.2,-1.5 5.5,-3.4l2.2,-1c1.5,-0.6 3.1,0.5 3,2.1l-0.2,2.4c-0.4,4.6 -1.1,5.8 -1.4,6.3l-0.1,0.1l-0.1,0.1c-0.9,1.3 -2.2,2.1 -3.7,2.4c-0.4,0.2 -0.8,0.2 -1.2,0.2l0,0z" class="st12" id="XMLID_313_"/>
  </g>
 </g>
</svg>