<?xml version="1.0" encoding="utf-8"?>
<!-- Generator: Adobe Illustrator 19.2.0, SVG Export Plug-In . SVG Version: 6.00 Build 0)  -->
<svg version="1.1" id="Layer_1" xmlns="http://www.w3.org/2000/svg" xmlns:xlink="http://www.w3.org/1999/xlink" x="0px" y="0px"
	 viewBox="0 0 240 320" style="enable-background:new 0 0 240 320;" xml:space="preserve">
<style type="text/css">
	.st0{fill:#E64C3B;}
	.st1{fill:#ED6129;}
	.st2{fill:#E9B91F;}
	.st3{fill:#EECD49;}
	.st4{fill:#FFFFFF;}
	.st5{fill:#546DE5;}
	.st6{fill:#F5CD79;}
	.st7{fill:#4EB96F;}
	.st8{fill:#C44569;}
	.st9{display:none;}
	.st10{display:inline;}
	.st11{display:inline;fill:none;stroke:#FFFFFF;stroke-width:2;stroke-linecap:round;stroke-miterlimit:10;}
	.st12{display:inline;fill:#ED6129;}
</style>
<rect y="24" width="240" height="296"/>
<rect class="st0" width="240" height="24"/>
<g id="XMLID_1_">
	<rect id="XMLID_10_" x="49.3" y="116" class="st1" width="141.4" height="154.9"/>
	<g id="XMLID_7_">
		<rect id="XMLID_9_" x="190.7" y="129.4" class="st2" width="13.5" height="128"/>
		<rect id="XMLID_8_" x="35.8" y="129.4" class="st2" width="13.5" height="128"/>
	</g>
	<g id="XMLID_4_">
		<rect id="XMLID_6_" x="204.2" y="142.9" class="st3" width="13.5" height="101"/>
		<rect id="XMLID_5_" x="22.3" y="142.9" class="st3" width="13.5" height="101"/>
	</g>
	<path id="XMLID_3_" class="st4" d="M169.3,137c-0.7-0.6-1.7-0.9-2.7-0.8l-64,10.1c-1.6,0.3-2.8,1.7-2.8,3.3v11.1v9.1v46.1
		c-3.9-3.5-9.3-5.7-15.2-5.7c-12.1,0-21.9,9.1-21.9,20.2c0,11.1,9.8,20.2,21.9,20.2c11.9,0,21.6-8.8,21.9-19.7c0,0,0-0.1,0-0.1
		v-58.1l57.3-9v32c-3.9-3.5-9.3-5.7-15.2-5.7c-12.1,0-21.9,9.1-21.9,20.2c0,11.1,9.8,20.2,21.9,20.2s21.9-9.1,21.9-20.2v-50.5v-16.8
		v-3.4C170.5,138.6,170.1,137.6,169.3,137z"/>
</g>
<g>
	<g>
		<g>
			<path class="st5" d="M214.7,44.9c-0.2-0.2-0.5-0.3-0.7-0.3c-0.3,0-0.5,0.1-0.7,0.3l-5.5,5.5h-4.3c-0.3,0-0.5,0.1-0.7,0.3
				c-0.2,0.2-0.3,0.5-0.3,0.7v6.3c0,0.3,0.1,0.5,0.3,0.7c0.2,0.2,0.5,0.3,0.7,0.3h4.3l5.5,5.5c0.2,0.2,0.5,0.3,0.7,0.3
				c0.3,0,0.5-0.1,0.7-0.3c0.2-0.2,0.3-0.5,0.3-0.7V45.6C215,45.4,214.9,45.1,214.7,44.9z"/>
		</g>
		<g>
			<path id="XMLID_20_" class="st5" d="M224,57.9c0,1-0.8,1.9-1.9,1.9l0,0c-1,0-1.9-0.8-1.9-1.9v-6.7c0-1,0.8-1.9,1.9-1.9l0,0
				c1,0,1.9,0.8,1.9,1.9V57.9z"/>
			<path id="XMLID_19_" class="st5" d="M218.7,56.5c-1,0-1.9-0.8-1.9-1.9l0,0c0-1,0.8-1.9,1.9-1.9h6.7c1,0,1.9,0.8,1.9,1.9l0,0
				c0,1-0.8,1.9-1.9,1.9H218.7z"/>
		</g>
	</g>
	<g>
		<g>
			<path class="st6" d="M152.7,44.9c-0.2-0.2-0.5-0.3-0.7-0.3c-0.3,0-0.5,0.1-0.7,0.3l-5.5,5.5h-4.3c-0.3,0-0.5,0.1-0.7,0.3
				c-0.2,0.2-0.3,0.5-0.3,0.7v6.3c0,0.3,0.1,0.5,0.3,0.7c0.2,0.2,0.5,0.3,0.7,0.3h4.3l5.5,5.5c0.2,0.2,0.5,0.3,0.7,0.3
				c0.3,0,0.5-0.1,0.7-0.3c0.2-0.2,0.3-0.5,0.3-0.7V45.6C153,45.4,152.9,45.1,152.7,44.9z"/>
		</g>
		<g>
			<path id="XMLID_18_" class="st6" d="M156.8,56.3c-0.9,0-1.7-0.8-1.7-1.7l0,0c0-0.9,0.8-1.7,1.7-1.7h6c0.9,0,1.7,0.8,1.7,1.7l0,0
				c0,0.9-0.8,1.7-1.7,1.7H156.8z"/>
		</g>
	</g>
	<g>
		<g id="XMLID_15_">
			<path id="XMLID_16_" class="st7" d="M31.7,63.9c-1.4,0-2.6-1.2-2.6-2.6v-5.9c-0.1,0.1-0.2,0.2-0.4,0.3l-12.2,7
				c-0.5,0.3-1.1,0.3-1.6,0c-0.5-0.3-0.8-0.8-0.8-1.4V47.3c0-0.6,0.3-1.1,0.8-1.3c0.2-0.1,0.5-0.2,0.8-0.2c0.3,0,0.5,0.1,0.8,0.2
				l12.2,7c0.1,0.1,0.3,0.2,0.4,0.3v-5.4c0-1.4,1.2-2.6,2.6-2.6c1.4,0,2.6,1.2,2.6,2.6v13.4C34.3,62.7,33.2,63.9,31.7,63.9z"/>
		</g>
		<path id="XMLID_17_" class="st7" d="M40.9,60.9c0,1.4-1.1,2.6-2.6,2.6l0,0c-1.4,0-2.6-1.1-2.6-2.6V47.9c0-1.4,1.1-2.6,2.6-2.6l0,0
			c1.4,0,2.6,1.1,2.6,2.6V60.9z"/>
	</g>
	<g>
		<path class="st8" d="M89.5,54.6c0,0.5-0.5,0.9-0.5,0.9l-12.9,8.8c-1,0.7-1.9,0.2-1.9-1.1V46c0-1.3,0.8-1.8,1.9-1.1L89,53.7
			C89,53.7,89.5,54.1,89.5,54.6z M105.2,53.7l-13.3-8.8c-1-0.7-1.9-0.2-1.9,1.1v17.2c0,1.3,0.8,1.8,1.9,1.1l13.3-8.8
			c0,0,0.5-0.4,0.5-0.9C105.7,54.1,105.2,53.7,105.2,53.7z"/>
	</g>
</g>
<g id="XMLID_11_" class="st9">
	<g id="XMLID_14_" class="st10">
		<path id="XMLID_21_" class="st4" d="M32,78.1c-0.3,0-0.5,0.1-0.8,0.2c0,0,0,0-0.1,0l-6.8,5.7H19c-0.3,0-0.5,0.2-0.5,0.5v9.5
			c0,0.3,0.2,0.5,0.5,0.5h5.3l6.8,6.2c0,0,0.1,0,0.1,0.1c0.2,0.1,0.5,0.2,0.8,0.2c0.9,0,1.6-0.7,1.6-1.6V79.7
			C33.5,78.8,32.8,78.1,32,78.1z M25,93.6c0,0.3-0.2,0.5-0.5,0.5c-0.3,0-0.5-0.2-0.5-0.5v-2c0-0.3,0.2-0.5,0.5-0.5
			c0.3,0,0.5,0.2,0.5,0.5V93.6z M25,87.1c0,0.3-0.2,0.5-0.5,0.5c-0.3,0-0.5-0.2-0.5-0.5v-2c0-0.3,0.2-0.5,0.5-0.5
			c0.3,0,0.5,0.2,0.5,0.5V87.1z"/>
	</g>
	<line id="XMLID_13_" class="st11" x1="53.9" y1="91.7" x2="229" y2="91.7"/>
	<circle id="XMLID_12_" class="st12" cx="92.3" cy="91.7" r="6.7"/>
</g>
</svg>
