<?xml version="1.0" encoding="iso-8859-1"?>
<!-- Generator: Adobe Illustrator 19.0.0, SVG Export Plug-In . SVG Version: 6.00 Build 0)  -->
<svg version="1.1" id="Capa_1" xmlns="http://www.w3.org/2000/svg" xmlns:xlink="http://www.w3.org/1999/xlink" x="0px" y="0px"
	 viewBox="0 0 512 512" style="enable-background:new 0 0 512 512;" xml:space="preserve">
<path style="fill:#FF977B;" d="M53.113,355.84c0-51.12,21.798-100.071,59.804-134.299l10.563-9.661l53.074,76.301l-8.451,9.896
	c-14.061,15.929-21.805,36.443-21.805,57.763v33.115l-5.709,1.816c-28.957,9.211-54.531,22.867-73.957,39.49l-13.518,11.568
	C53.113,441.828,53.113,355.84,53.113,355.84z"/>
<path style="fill:#F95948;" d="M67.242,355.84c0-51.12,21.798-100.071,59.804-134.299l1.927-1.763l-5.494-7.898l-10.563,9.661
	C74.91,255.769,53.113,304.72,53.113,355.84v85.989l13.518-11.568c0.2-0.171,0.41-0.337,0.611-0.507V355.84z"/>
<path style="fill:#FF977B;" d="M401.072,430.326c-4.15-3.545-8.587-6.971-13.186-10.182c-17.369-12.126-37.819-21.988-60.782-29.312
	l-5.703-1.819V355.84c0-21.538-7.888-42.215-22.212-58.22l-5.648-6.31l6.494-5.435c10.555-8.834,17.769-21.824,24.747-34.385
	c1.6-2.883,3.114-5.607,4.705-8.359c1.65-2.849,3.386-5.705,5.065-8.467c2.296-3.78,4.664-7.677,6.88-11.657l4.972-8.93l7.633,6.797
	c38.479,34.261,60.548,83.454,60.548,134.966v86.032L401.072,430.326z"/>
<path style="fill:#AEEF66;" d="M341.994,396.087c-4.92-1.905-9.93-3.673-14.891-5.255l-5.703-1.819V355.84
	c0-21.538-7.889-42.215-22.212-58.22l-5.648-6.31l6.494-5.435c3.259-2.727,6.347-5.968,9.441-9.907l5.964-7.594l6.521,7.123
	c20.109,21.967,31.184,50.5,31.184,80.343v44.565L341.994,396.087z"/>
<path style="fill:#8EC155;" d="M329.698,357.53c0-23.823-7.889-46.695-22.212-64.398l-5.648-6.98l6.494-6.012
	c3.012-2.787,5.877-6.068,8.736-9.987l-1.628-1.779l-5.964,7.594c-3.093,3.939-6.182,7.18-9.441,9.907l-6.494,5.435l5.648,6.31
	c14.323,16.005,22.212,36.682,22.212,58.22v33.173l5.703,1.819c0.863,0.275,1.73,0.563,2.595,0.85V357.53z"/>
<path style="fill:#AEEF66;" d="M114.553,355.84c0-29.525,10.858-57.824,30.576-79.683l12.857-14.201l18.567,26.225l-8.451,9.896
	c-14.061,15.929-21.805,36.443-21.805,57.763v33.115l-5.709,1.816c-4.926,1.566-9.935,3.332-14.889,5.247l-11.146,4.309
	C114.553,400.327,114.553,355.84,114.553,355.84z"/>
<g>
	<path style="fill:#FFF873;" d="M83.833,355.84c0-39.818,16.319-78.746,44.772-106.802l11.519-11.207l16.578,28.168l-8.498,8.352
		c-21.039,22.038-32.626,50.978-32.626,81.489v44.291l-4.731,2.205c-5.12,2.386-10.102,4.937-14.808,7.581l-12.205,6.857V355.84
		H83.833z"/>
	<path style="fill:#FFF873;" d="M371.661,409.991c-4.733-2.658-9.715-5.21-14.808-7.584l-4.732-2.205V355.84
		c0-30.818-11.805-59.981-33.239-82.116l-4.388-4.532l3.26-5.401c2.431-4.027,4.768-8.233,7.028-12.301l5.912-10.619l7.666,7.454
		c28.919,28.12,45.504,67.308,45.504,107.515v61.007L371.661,409.991z"/>
</g>
<path style="fill:#FFE44C;" d="M449.913,76.8c-21.174,0-38.4-17.226-38.4-38.4S428.738,0,449.913,0s38.4,17.226,38.4,38.4
	S471.087,76.8,449.913,76.8z"/>
<path style="fill:#FFC84D;" d="M472.448,48.827c-21.174,0-38.4-17.226-38.4-38.4c0-2.497,0.248-4.937,0.706-7.302
	c-13.656,5.891-23.241,19.483-23.241,35.275c0,21.174,17.226,38.4,38.4,38.4c18.677,0,34.274-13.405,37.695-31.098
	C482.954,47.709,477.83,48.827,472.448,48.827z"/>
<path style="fill:#8BB240;" d="M216.284,298.841c-16.626,0-30.071-1.373-41.651-8.075c-14.936-8.641-23.725-24.466-32.225-39.77
	l-0.055-0.1c-1.514-2.728-3.082-5.548-4.644-8.247c-1.622-2.803-3.367-5.673-5.053-8.449c-8.499-13.986-18.133-29.837-18.133-47.582
	c0-17.747,9.633-33.597,18.132-47.582c1.696-2.79,3.44-5.661,5.052-8.448c1.588-2.745,3.169-5.592,4.698-8.345
	c8.5-15.306,17.29-31.132,32.227-39.775c11.581-6.7,25.028-8.073,41.654-8.073c3.057,0,6.161,0.043,9.296,0.087
	c3.065,0.042,6.124,0.063,9.183,0.063c3.06,0,6.118-0.022,9.183-0.063c3.128-0.043,6.224-0.086,9.274-0.086
	c16.64,0,30.095,1.373,41.675,8.072c14.938,8.643,23.728,24.469,32.229,39.777c1.53,2.754,3.112,5.602,4.697,8.341
	c1.599,2.764,3.328,5.611,5.001,8.364c8.55,14.069,18.184,29.92,18.184,47.667c0,17.745-9.633,33.596-18.131,47.581
	c-1.699,2.794-3.442,5.663-5.053,8.449c-1.588,2.745-3.169,5.592-4.698,8.345c-8.5,15.306-17.29,31.132-32.227,39.775
	c-11.582,6.7-25.028,8.073-41.654,8.073c-3.057,0-6.161-0.043-9.296-0.087c-3.065-0.042-6.132-0.084-9.183-0.084
	s-6.118,0.042-9.183,0.084c-3.134,0.044-6.237,0.087-9.296,0.087C216.287,298.841,216.285,298.841,216.284,298.841z"/>
<path style="fill:#6D961D;" d="M299.04,253.047c-3.057,0-6.161-0.043-9.296-0.087c-3.065-0.042-6.132-0.084-9.183-0.084
	c-3.051,0-6.118,0.042-9.183,0.084c-3.134,0.044-6.237,0.087-9.296,0.087c-0.001,0-0.002,0-0.004,0
	c-16.626,0-30.071-1.373-41.651-8.075c-14.936-8.641-23.725-24.466-32.225-39.77l-0.055-0.1c-1.515-2.728-3.082-5.548-4.644-8.247
	c-1.622-2.803-3.367-5.673-5.053-8.449c-8.499-13.986-18.133-29.837-18.133-47.582c0-17.747,9.633-33.597,18.132-47.582
	c1.696-2.79,3.44-5.661,5.052-8.448c1.453-2.511,2.895-5.101,4.301-7.632c-4.664,1.214-9.039,2.916-13.169,5.306
	c-14.937,8.643-23.727,24.47-32.227,39.775c-1.529,2.753-3.11,5.6-4.698,8.345c-1.613,2.787-3.357,5.658-5.052,8.448
	c-8.499,13.985-18.132,29.835-18.132,47.582c0,17.745,9.633,33.596,18.133,47.582c1.687,2.776,3.431,5.646,5.053,8.449
	c1.562,2.699,3.128,5.519,4.644,8.247l0.055,0.1c8.5,15.304,17.289,31.129,32.225,39.77c11.58,6.702,25.026,8.075,41.651,8.075
	c0.001,0,0.003,0,0.004,0c3.058,0,6.161-0.043,9.296-0.087c3.065-0.042,6.132-0.084,9.183-0.084s6.118,0.042,9.183,0.084
	c3.134,0.044,6.239,0.087,9.296,0.087c16.626,0,30.072-1.373,41.654-8.073c14.937-8.643,23.727-24.469,32.227-39.775
	c0.13-0.234,0.266-0.477,0.397-0.713C319.11,252.469,309.735,253.047,299.04,253.047z"/>
<g>
	<path style="fill:#F95948;" d="M299.385,200.704c-9.316,0-16.896-7.58-16.896-16.896s7.58-16.896,16.896-16.896
		s16.896,7.58,16.896,16.896S308.701,200.704,299.385,200.704z"/>
	<path style="fill:#F95948;" d="M232.825,128c-9.316,0-16.896-7.58-16.896-16.896s7.58-16.896,16.896-16.896
		s16.896,7.58,16.896,16.896S242.141,128,232.825,128z"/>
	<path style="fill:#F95948;" d="M232.825,94.208c-9.316,0-16.896,7.58-16.896,16.896S223.508,128,232.825,128
		s16.896-7.58,16.896-16.896S242.141,94.208,232.825,94.208z"/>
	<path style="fill:#F95948;" d="M158.073,212.992c-7.058,0-12.8-5.742-12.8-12.8c0-7.058,5.742-12.8,12.8-12.8
		c7.058,0,12.8,5.742,12.8,12.8C170.873,207.25,165.131,212.992,158.073,212.992z"/>
</g>
<g>
	<path style="fill:#E03A32;" d="M310.002,190.086c-9.316,0-16.896-7.58-16.896-16.896c0-1.883,0.324-3.691,0.895-5.383
		c-6.682,2.255-11.512,8.569-11.512,16.001c0,9.316,7.58,16.896,16.896,16.896c7.432,0,13.746-4.831,16.001-11.512
		C313.692,189.764,311.886,190.086,310.002,190.086z"/>
	<path style="fill:#E03A32;" d="M243.442,117.382c-9.316,0-16.896-7.58-16.896-16.896c0-1.883,0.324-3.69,0.895-5.383
		c-6.682,2.255-11.512,8.569-11.512,16.001c0,9.316,7.58,16.896,16.896,16.896c7.432,0,13.746-4.831,16.001-11.512
		C247.132,117.06,245.326,117.382,243.442,117.382z"/>
	<path style="fill:#E03A32;" d="M168.69,202.374c-7.058,0-12.8-5.742-12.8-12.8c0-0.685,0.07-1.353,0.173-2.009
		c-6.104,0.969-10.791,6.254-10.791,12.627c0,7.058,5.742,12.8,12.8,12.8c6.373,0,11.657-4.687,12.627-10.791
		C170.043,202.305,169.376,202.374,168.69,202.374z"/>
</g>
<path style="fill:#78A530;" d="M445.792,500.749c-3.064-30.886-22.689-60.414-55.261-83.145
	c-34.489-24.069-81.303-39.332-131.819-42.977l-11.304-0.816l-24.361-0.032l-11.245,0.777
	c-51.086,3.533-98.369,18.903-133.137,43.281c-32.365,22.693-51.872,52.138-54.927,82.911l0,0C23.142,506.774,27.875,512,33.93,512
	h401.671C441.657,512,446.39,506.775,445.792,500.749L445.792,500.749z"/>
<g>
	<path style="fill:#729328;" d="M74.461,500.748c3.055-30.773,22.562-60.218,54.927-82.911
		c34.224-23.996,80.574-39.255,130.74-43.097c-0.472-0.036-0.942-0.079-1.415-0.113l-11.304-0.816l-24.361-0.032l-11.245,0.777
		c-51.086,3.533-98.369,18.903-133.137,43.281c-32.365,22.693-51.872,52.138-54.927,82.911C23.142,506.774,27.875,512,33.93,512
		h50.721C78.596,512,73.863,506.774,74.461,500.748z"/>
	<path style="fill:#729328;" d="M156.127,478.72c-9.316,0-16.896-7.58-16.896-16.896s7.58-16.896,16.896-16.896
		s16.896,7.58,16.896,16.896S165.442,478.72,156.127,478.72z"/>
	<path style="fill:#729328;" d="M307.679,483.84c-9.316,0-16.896-7.58-16.896-16.896s7.58-16.896,16.896-16.896
		s16.896,7.58,16.896,16.896S316.994,483.84,307.679,483.84z"/>
	<path style="fill:#729328;" d="M243.167,456.192c-12.14,0-22.016-9.876-22.016-22.016s9.876-22.016,22.016-22.016
		s22.016,9.876,22.016,22.016S255.307,456.192,243.167,456.192z"/>
	<path style="fill:#729328;" d="M253.219,411.263l-18.096-18.096c-1.397-1.396-3.67-1.363-5.025,0.073L122.473,507.335
		c-0.624,0.661-1.481,1.054-2.389,1.095l-36.811,1.67c-1.282,0.057-2.391,0.808-2.952,1.9h71.85l100.98-95.717
		C254.583,414.926,254.613,412.657,253.219,411.263z"/>
</g>
<path style="fill:#A88D68;" d="M216.865,413.47l4.56-170.403c0.023-0.83-0.279-1.638-0.839-2.252l-31.022-33.968
	c-1.036-1.135-1.123-2.846-0.208-4.08l10.562-14.234c1.204-1.622,3.589-1.744,4.951-0.252l12.422,13.602
	c1.941,2.126,5.485,0.82,5.582-2.057l0.409-12.082c0.029-0.839-0.272-1.655-0.839-2.274l-18.903-20.7
	c-1.036-1.135-1.123-2.846-0.208-4.08l10.562-14.233c1.204-1.622,3.589-1.744,4.951-0.252l14.429,15.8
	c1.274,1.395,3.47,1.395,4.743,0l32.133-35.187c1.363-1.492,3.748-1.37,4.951,0.253l10.56,14.236
	c0.915,1.235,0.828,2.945-0.208,4.08l-37.773,41.362c-0.566,0.62-0.866,1.436-0.839,2.274l0.769,22.721
	c0.097,2.877,3.64,4.183,5.582,2.057l7.073-7.745c1.362-1.492,3.747-1.37,4.951,0.252l10.565,14.231
	c0.916,1.235,0.829,2.945-0.207,4.081l-25.67,28.108c-0.562,0.615-0.863,1.426-0.839,2.26l4.624,158.474
	c0.053,1.809-1.4,3.305-3.21,3.305h-30.404C218.268,416.768,216.816,415.277,216.865,413.47z"/>
<g>
	<path style="fill:#F95948;" d="M163.193,464.896c-9.316,0-16.896-7.58-16.896-16.896s7.58-16.896,16.896-16.896
		s16.896,7.58,16.896,16.896S172.509,464.896,163.193,464.896z"/>
	<path style="fill:#F95948;" d="M314.745,470.016c-9.316,0-16.896-7.58-16.896-16.896s7.58-16.896,16.896-16.896
		s16.896,7.58,16.896,16.896S324.061,470.016,314.745,470.016z"/>
</g>
<path style="fill:#916F47;" d="M234.766,162.913c-0.552-0.157-1.073-0.45-1.492-0.907l-14.429-15.8
	c-1.363-1.492-3.747-1.37-4.951,0.252l-10.561,14.233c-0.916,1.235-0.829,2.945,0.208,4.08l18.903,20.7
	c0.565,0.62,0.866,1.436,0.839,2.274l-0.409,12.082c-0.097,2.877-3.64,4.183-5.582,2.057l-12.422-13.602
	c-1.363-1.492-3.747-1.37-4.951,0.252l-10.562,14.234c-0.916,1.235-0.829,2.945,0.208,4.08l31.022,33.967
	c0.56,0.614,0.861,1.421,0.839,2.252l-4.56,170.403c-0.048,1.807,1.403,3.298,3.21,3.298h14.69L234.766,162.913L234.766,162.913z"/>
<path style="fill:#F95948;" d="M250.233,442.368c-12.14,0-22.016-9.876-22.016-22.016s9.876-22.016,22.016-22.016
	c12.14,0,22.016,9.876,22.016,22.016S262.372,442.368,250.233,442.368z"/>
<g>
	<path style="fill:#E03A32;" d="M177.743,450.346c-9.316,0-16.896-7.58-16.896-16.896c0-0.743,0.065-1.47,0.159-2.188
		c-8.284,1.078-14.709,8.165-14.709,16.738c0,9.316,7.58,16.896,16.896,16.896c8.573,0,15.659-6.425,16.737-14.709
		C179.213,450.281,178.486,450.346,177.743,450.346z"/>
	<path style="fill:#E03A32;" d="M329.295,455.466c-9.316,0-16.896-7.58-16.896-16.896c0-0.743,0.064-1.47,0.159-2.188
		c-8.284,1.078-14.709,8.165-14.709,16.738c0,9.316,7.58,16.896,16.896,16.896c8.573,0,15.659-6.425,16.737-14.709
		C330.765,455.401,330.038,455.466,329.295,455.466z"/>
	<path style="fill:#E03A32;" d="M264.783,427.818c-12.14,0-22.016-9.876-22.016-22.016c0-2.258,0.344-4.436,0.978-6.488
		c-8.983,2.776-15.528,11.155-15.528,21.038c0,12.14,9.876,22.016,22.016,22.016c9.883,0,18.262-6.545,21.038-15.529
		C269.219,427.474,267.041,427.818,264.783,427.818z"/>
</g>
<g>
</g>
<g>
</g>
<g>
</g>
<g>
</g>
<g>
</g>
<g>
</g>
<g>
</g>
<g>
</g>
<g>
</g>
<g>
</g>
<g>
</g>
<g>
</g>
<g>
</g>
<g>
</g>
<g>
</g>
</svg>
