<?xml version="1.0" encoding="iso-8859-1"?>
<!-- Generator: Adobe Illustrator 19.0.0, SVG Export Plug-In . SVG Version: 6.00 Build 0)  -->
<svg version="1.1" id="Capa_1" xmlns="http://www.w3.org/2000/svg" xmlns:xlink="http://www.w3.org/1999/xlink" x="0px" y="0px"
	 viewBox="0 0 512 512" style="enable-background:new 0 0 512 512;" xml:space="preserve">
<path style="fill:#FFE44C;" d="M472.519,76.8c-21.174,0-38.4-17.226-38.4-38.4S451.344,0,472.519,0s38.4,17.226,38.4,38.4
	S493.693,76.8,472.519,76.8z"/>
<path style="fill:#FFC84D;" d="M495.054,48.827c-21.174,0-38.4-17.226-38.4-38.4c0-2.497,0.248-4.937,0.706-7.302
	c-13.656,5.891-23.241,19.483-23.241,35.275c0,21.174,17.226,38.4,38.4,38.4c18.677,0,34.274-13.405,37.695-31.098
	C505.56,47.709,500.436,48.827,495.054,48.827z"/>
<g>
	<path style="fill:#C3FFF9;" d="M438.329,264.192c-20.327,0-36.864-16.537-36.864-36.864s16.537-36.864,36.864-36.864
		c17.115,0,32.108,11.974,35.926,28.575c3.724-2.195,7.959-3.351,12.296-3.351c13.373,0,24.252,10.879,24.252,24.252
		c0,13.373-10.879,24.251-24.252,24.251H438.329z"/>
	<path style="fill:#C3FFF9;" d="M37.945,114.688c-20.327,0-36.864-16.537-36.864-36.864S17.618,40.96,37.945,40.96
		c17.115,0,32.109,11.974,35.926,28.575c3.724-2.195,7.958-3.351,12.296-3.351c13.373,0,24.252,10.879,24.252,24.252
		s-10.879,24.251-24.252,24.251H37.945z"/>
</g>
<g>
	<path style="fill:#8BF2E6;" d="M435.694,227.328c0-14.141,8.008-26.441,19.723-32.622c-5.154-2.713-10.983-4.242-17.087-4.242
		c-20.327,0-36.864,16.537-36.864,36.864s16.537,36.864,36.864,36.864h34.227C452.23,264.192,435.694,247.655,435.694,227.328z"/>
	<path style="fill:#8BF2E6;" d="M35.31,77.824c0-14.141,8.008-26.441,19.723-32.622c-5.154-2.713-10.983-4.242-17.087-4.242
		c-20.327,0-36.864,16.537-36.864,36.864s16.537,36.864,36.864,36.864h34.227C51.846,114.688,35.31,98.151,35.31,77.824z"/>
</g>
<path style="fill:#78A530;" d="M237.46,302.937c-16.626,0-30.071-1.373-41.651-8.075c-14.936-8.641-23.725-24.466-32.225-39.77
	l-0.055-0.1c-1.515-2.728-3.082-5.548-4.644-8.247c-1.622-2.803-3.367-5.673-5.053-8.449c-8.499-13.986-18.133-29.837-18.133-47.582
	c0-17.747,9.633-33.597,18.132-47.582c1.696-2.79,3.44-5.661,5.052-8.448c1.588-2.745,3.169-5.592,4.698-8.345
	c8.5-15.306,17.29-31.132,32.227-39.775c11.581-6.7,25.028-8.073,41.654-8.073c3.057,0,6.161,0.043,9.296,0.087
	c3.065,0.042,6.124,0.063,9.183,0.063s6.118-0.022,9.183-0.063c3.128-0.043,6.224-0.086,9.274-0.086
	c16.64,0,30.095,1.373,41.675,8.072c14.938,8.643,23.728,24.469,32.229,39.777c1.53,2.754,3.112,5.602,4.697,8.341
	c1.599,2.764,3.328,5.611,5.001,8.364c8.55,14.069,18.184,29.92,18.184,47.667c0,17.745-9.633,33.596-18.131,47.581
	c-1.699,2.795-3.442,5.663-5.053,8.449c-1.588,2.745-3.169,5.592-4.698,8.345c-8.5,15.306-17.29,31.132-32.227,39.775
	c-11.582,6.7-25.028,8.073-41.654,8.073c-3.057,0-6.161-0.043-9.296-0.087c-3.065-0.042-6.132-0.084-9.183-0.084
	s-6.118,0.042-9.183,0.084c-3.134,0.044-6.237,0.087-9.296,0.087C237.464,302.937,237.462,302.937,237.46,302.937z"/>
<path style="fill:#6D961D;" d="M321.775,255.584c-3.057,0-6.161-0.043-9.296-0.087c-3.065-0.042-6.132-0.084-9.183-0.084
	c-3.051,0-6.118,0.042-9.183,0.084c-3.134,0.044-6.237,0.087-9.296,0.087c-0.001,0-0.002,0-0.004,0
	c-16.626,0-30.071-1.373-41.651-8.075c-14.936-8.641-23.725-24.466-32.225-39.77l-0.055-0.1c-1.514-2.728-3.082-5.548-4.644-8.247
	c-1.622-2.803-3.367-5.673-5.053-8.449c-8.499-13.986-18.133-29.837-18.133-47.582c0-17.747,9.633-33.597,18.132-47.582
	c1.696-2.79,3.44-5.661,5.052-8.448c1.197-2.068,2.382-4.186,3.551-6.287c-4.972,1.224-9.608,2.992-13.979,5.52
	c-14.937,8.643-23.727,24.47-32.227,39.775c-1.529,2.753-3.11,5.6-4.698,8.345c-1.613,2.787-3.357,5.658-5.052,8.448
	c-8.499,13.985-18.132,29.835-18.132,47.582c0,17.745,9.633,33.596,18.133,47.582c1.687,2.776,3.431,5.646,5.053,8.449
	c1.562,2.699,3.128,5.519,4.644,8.247l0.055,0.1c8.5,15.304,17.289,31.129,32.225,39.77c11.58,6.702,25.026,8.075,41.651,8.075
	c0.001,0,0.003,0,0.004,0c3.058,0,6.161-0.043,9.296-0.087c3.065-0.042,6.132-0.084,9.183-0.084s6.118,0.042,9.183,0.084
	c3.134,0.044,6.239,0.087,9.296,0.087c16.626,0,30.072-1.373,41.654-8.073c14.937-8.643,23.727-24.47,32.227-39.775
	c0.377-0.679,0.765-1.371,1.147-2.058C341.246,255.05,332.127,255.584,321.775,255.584z"/>
<g>
	<path style="fill:#B8D150;" d="M334.351,206.764c-2.81,0-5.077-0.648-6.929-1.98c-3.158-2.27-5.445-5.365-6.439-8.713
		c-1.008-3.398-0.57-6.65,1.234-9.159c1.802-2.506,4.743-3.957,8.281-4.086c0.211-0.006,0.359-0.009,0.507-0.009
		c3.332,0,6.816,1.186,9.81,3.339c2.847,2.046,4.545,5.652,5.191,11.024l0.9,7.48l-7.379,1.521
		C337.654,206.568,335.913,206.764,334.351,206.764L334.351,206.764z"/>
	<path style="fill:#B8D150;" d="M187.096,179.2c-4.109,0-8.543-1.324-12.485-3.728c-5.12-3.121-7.472-9.618-8.544-14.518
		l-1.673-7.65l7.567-2.016c2.038-0.543,5.13-1.19,8.287-1.19c3.341,0,6.213,0.72,8.538,2.14c4.355,2.655,7.734,6.35,9.509,10.399
		c1.802,4.11,1.742,8.101-0.169,11.235c-1.91,3.132-5.428,5.013-9.908,5.295C187.819,179.19,187.461,179.2,187.096,179.2
		L187.096,179.2z"/>
	<path style="fill:#B8D150;" d="M254.289,124.687c-3.655,0-7.575-1.164-11.038-3.277c-3.729-2.274-6.273-6.772-7.561-13.369
		l-1.434-7.347l7.187-2.089c1.989-0.579,4.988-1.268,7.98-1.268c2.861,0,5.342,0.629,7.373,1.869
		c8.239,5.024,11.908,14.094,8.174,20.216C262.928,122.768,259.035,124.687,254.289,124.687L254.289,124.687z"/>
</g>
<path style="fill:#78A530;" d="M466.969,500.749c-3.064-30.886-22.689-60.414-55.261-83.145
	c-34.489-24.069-81.303-39.332-131.819-42.977l-11.304-0.816l-24.361-0.032l-11.245,0.777
	c-51.086,3.533-98.369,18.903-133.137,43.281c-32.365,22.693-51.872,52.138-54.927,82.911l0,0C44.319,506.774,49.052,512,55.108,512
	H456.78C462.834,512,467.567,506.775,466.969,500.749L466.969,500.749z"/>
<g>
	<path style="fill:#729328;" d="M95.639,500.748L95.639,500.748c3.055-30.773,22.562-60.218,54.927-82.911
		c34.224-23.996,80.574-39.255,130.74-43.097c-0.472-0.036-0.942-0.079-1.415-0.113l-11.304-0.816l-24.361-0.032l-11.245,0.777
		c-51.086,3.533-98.369,18.903-133.137,43.281c-32.365,22.693-51.872,52.138-54.927,82.911l0,0
		C44.319,506.774,49.052,512,55.108,512h50.721C99.773,512,95.041,506.774,95.639,500.748z"/>
	<path style="fill:#729328;" d="M273.956,411.263l-18.096-18.096c-1.397-1.396-3.67-1.363-5.025,0.073L143.211,507.335
		c-0.624,0.661-1.481,1.054-2.389,1.095l-36.811,1.67c-1.282,0.057-2.391,0.808-2.952,1.9h71.85l100.98-95.717
		C275.319,414.926,275.35,412.657,273.956,411.263z"/>
</g>
<path style="fill:#A88D68;" d="M238.042,413.47l4.56-170.403c0.023-0.83-0.279-1.638-0.839-2.252l-31.022-33.968
	c-1.036-1.135-1.123-2.846-0.208-4.08l10.562-14.234c1.204-1.622,3.589-1.744,4.951-0.252l12.422,13.602
	c1.941,2.126,5.485,0.82,5.582-2.057l0.409-12.082c0.029-0.839-0.272-1.655-0.839-2.274l-18.903-20.7
	c-1.036-1.135-1.123-2.846-0.208-4.08l10.562-14.233c1.204-1.622,3.589-1.744,4.951-0.252l14.429,15.8
	c1.274,1.395,3.47,1.395,4.743,0l32.133-35.187c1.363-1.492,3.748-1.37,4.951,0.253l10.56,14.236
	c0.915,1.235,0.828,2.945-0.208,4.08l-37.773,41.362c-0.566,0.62-0.866,1.436-0.839,2.274l0.769,22.721
	c0.097,2.877,3.64,4.183,5.582,2.057l7.073-7.745c1.362-1.492,3.747-1.37,4.951,0.252l10.565,14.231
	c0.916,1.235,0.829,2.945-0.207,4.081l-25.67,28.108c-0.562,0.615-0.863,1.426-0.839,2.26l4.624,158.474
	c0.053,1.809-1.4,3.305-3.21,3.305h-30.404C239.445,416.768,237.993,415.277,238.042,413.47z"/>
<path style="fill:#916F47;" d="M255.943,162.913c-0.552-0.157-1.073-0.45-1.492-0.907l-14.429-15.8
	c-1.363-1.492-3.747-1.37-4.951,0.252L224.51,160.69c-0.916,1.235-0.829,2.945,0.208,4.08l18.903,20.7
	c0.565,0.62,0.866,1.436,0.839,2.274l-0.409,12.082c-0.097,2.877-3.64,4.183-5.582,2.057l-12.422-13.602
	c-1.362-1.492-3.747-1.37-4.951,0.252l-10.562,14.234c-0.916,1.235-0.829,2.945,0.208,4.08l31.022,33.967
	c0.56,0.614,0.861,1.421,0.839,2.252l-4.56,170.403c-0.048,1.807,1.403,3.298,3.21,3.298h14.69L255.943,162.913L255.943,162.913z"/>
<g>
</g>
<g>
</g>
<g>
</g>
<g>
</g>
<g>
</g>
<g>
</g>
<g>
</g>
<g>
</g>
<g>
</g>
<g>
</g>
<g>
</g>
<g>
</g>
<g>
</g>
<g>
</g>
<g>
</g>
</svg>
