<?xml version="1.0" encoding="iso-8859-1"?>
<!-- Generator: Adobe Illustrator 19.0.0, SVG Export Plug-In . SVG Version: 6.00 Build 0)  -->
<svg version="1.1" id="Capa_1" xmlns="http://www.w3.org/2000/svg" xmlns:xlink="http://www.w3.org/1999/xlink" x="0px" y="0px"
	 viewBox="0 0 511.999 511.999" style="enable-background:new 0 0 511.999 511.999;" xml:space="preserve">
<path style="fill:#8EC155;" d="M232.675,297.794c-17.034,0-30.81-1.407-42.675-8.274c-15.303-8.853-24.308-25.068-33.018-40.748
	l-0.057-0.103c-1.552-2.795-3.158-5.684-4.758-8.45c-1.662-2.872-3.45-5.812-5.178-8.657c-8.708-14.33-18.579-30.571-18.579-48.752
	c0-18.183,9.87-34.424,18.578-48.752c1.737-2.859,3.524-5.8,5.177-8.656c1.627-2.813,3.247-5.73,4.814-8.55
	c8.709-15.682,17.715-31.897,33.02-40.753c11.866-6.865,25.643-8.272,42.679-8.272c3.132,0,6.313,0.044,9.524,0.089
	c3.14,0.043,6.274,0.065,9.409,0.065c3.135,0,6.269-0.022,9.409-0.065c3.205-0.044,6.377-0.088,9.502-0.088
	c17.049,0,30.835,1.407,42.7,8.271c15.305,8.855,24.312,25.071,33.022,40.755c1.567,2.821,3.188,5.74,4.813,8.547
	c1.639,2.832,3.41,5.748,5.124,8.57c8.761,14.415,18.631,30.656,18.631,48.839c0,18.181-9.87,34.423-18.577,48.751
	c-1.741,2.863-3.526,5.802-5.178,8.657c-1.627,2.813-3.247,5.73-4.814,8.55c-8.709,15.682-17.715,31.897-33.02,40.753
	c-11.867,6.865-25.643,8.272-42.679,8.272c-3.132,0-6.313-0.044-9.524-0.089c-3.14-0.043-6.282-0.086-9.409-0.086
	s-6.269,0.043-9.409,0.086c-3.212,0.045-6.391,0.089-9.524,0.089C232.678,297.794,232.677,297.794,232.675,297.794z"/>
<path style="fill:#89A534;" d="M324.607,243.733c-3.132,0-6.313-0.044-9.524-0.089c-3.14-0.043-6.283-0.086-9.409-0.086
	c-3.127,0-6.269,0.043-9.409,0.086c-3.212,0.045-6.391,0.089-9.524,0.089c-0.001,0-0.002,0-0.004,0
	c-17.034,0-30.81-1.407-42.675-8.274c-15.303-8.853-24.308-25.068-33.018-40.748l-0.057-0.103c-1.552-2.795-3.158-5.684-4.758-8.45
	c-1.662-2.872-3.45-5.812-5.178-8.657c-8.708-14.33-18.579-30.571-18.579-48.752c0-18.183,9.87-34.424,18.578-48.752
	c1.737-2.859,3.524-5.8,5.177-8.656c0.289-0.498,0.574-1.01,0.861-1.514c-6.152,1.25-11.812,3.219-17.089,6.273
	c-15.304,8.855-24.311,25.071-33.02,40.753c-1.566,2.82-3.186,5.738-4.814,8.55c-1.652,2.856-3.439,5.797-5.177,8.656
	c-8.708,14.329-18.578,30.569-18.578,48.752c0,18.181,9.87,34.423,18.579,48.752c1.728,2.844,3.516,5.785,5.178,8.657
	c1.6,2.766,3.205,5.655,4.758,8.45l0.057,0.103c8.709,15.68,17.714,31.894,33.018,40.748c11.865,6.867,25.641,8.274,42.675,8.274
	c0.001,0,0.003,0,0.004,0c3.133,0,6.313-0.044,9.524-0.089c3.14-0.043,6.282-0.086,9.409-0.086s6.269,0.043,9.409,0.086
	c3.212,0.045,6.393,0.089,9.524,0.089c17.034,0,30.811-1.407,42.679-8.272c15.304-8.855,24.311-25.071,33.02-40.753
	c1.289-2.321,2.618-4.697,3.953-7.037C342.517,243.294,334.066,243.733,324.607,243.733z"/>
<path style="fill:#8EC155;" d="M467.827,500.471c-3.139-31.645-23.247-61.9-56.62-85.189
	c-35.337-24.661-83.302-40.299-135.06-44.034l-11.582-0.836l-24.96-0.033l-11.521,0.796c-52.343,3.62-100.787,19.368-136.411,44.346
	c-33.16,23.251-53.147,53.42-56.278,84.95l0,0c-0.611,6.173,4.239,11.528,10.444,11.528h411.549
	C463.59,511.999,468.44,506.644,467.827,500.471L467.827,500.471z"/>
<g>
	<path style="fill:#6DA02B;" d="M87.366,500.469L87.366,500.469c3.131-31.53,23.117-61.699,56.278-84.95
		c35.066-24.586,82.556-40.22,133.955-44.157c-0.484-0.037-0.965-0.081-1.45-0.115l-11.582-0.836l-24.96-0.033l-11.521,0.796
		c-52.343,3.62-100.787,19.368-136.411,44.346c-33.16,23.251-53.147,53.42-56.278,84.95l0,0
		c-0.613,6.173,4.237,11.528,10.441,11.528h51.968C91.602,511.999,86.753,506.644,87.366,500.469z"/>
	<path style="fill:#6DA02B;" d="M269.663,408.785l-18.541-18.541c-1.431-1.43-3.76-1.396-5.148,0.074L135.703,507.219
		c-0.639,0.678-1.517,1.08-2.449,1.122l-37.716,1.711c-1.314,0.059-2.45,0.828-3.025,1.946h73.617l103.463-98.071
		C271.06,412.538,271.091,410.213,269.663,408.785z"/>
</g>
<path style="fill:#A88D68;" d="M233.271,411.046l4.672-174.593c0.023-0.851-0.285-1.679-0.859-2.307l-31.785-34.803
	c-1.062-1.162-1.151-2.916-0.213-4.18l10.821-14.584c1.234-1.662,3.677-1.787,5.073-0.258l12.728,13.936
	c1.989,2.178,5.619,0.84,5.719-2.108l0.419-12.379c0.029-0.859-0.279-1.695-0.859-2.33l-19.368-21.209
	c-1.062-1.163-1.151-2.916-0.213-4.18l10.821-14.583c1.234-1.662,3.677-1.787,5.073-0.258l14.784,16.189
	c1.305,1.429,3.556,1.429,4.86,0l32.923-36.052c1.396-1.529,3.84-1.404,5.073,0.259l10.819,14.586
	c0.938,1.265,0.849,3.017-0.213,4.18l-38.702,42.38c-0.58,0.635-0.888,1.471-0.859,2.33l0.788,23.279
	c0.1,2.948,3.73,4.286,5.719,2.108l7.247-7.935c1.395-1.529,3.839-1.404,5.073,0.258l10.824,14.58
	c0.939,1.265,0.85,3.017-0.212,4.181l-26.301,28.799c-0.576,0.631-0.884,1.462-0.859,2.316l4.738,162.371
	c0.055,1.854-1.434,3.387-3.289,3.387H236.56C234.708,414.425,233.222,412.898,233.271,411.046z"/>
<g>
	<path style="fill:#DDDD4A;" d="M332.648,176.722c-2.014,0-4.028-0.768-5.565-2.305l-12.83-12.831
		c-3.073-3.073-3.073-8.056,0.001-11.128c3.073-3.073,8.056-3.072,11.128,0.001l12.83,12.831c3.073,3.073,3.073,8.056-0.001,11.128
		C336.676,175.954,334.662,176.722,332.648,176.722z"/>
	<path style="fill:#DDDD4A;" d="M165.108,170.674c-3.091,0-6.023-1.833-7.276-4.868c-1.659-4.016,0.253-8.617,4.269-10.277
		l24.562-10.142c4.019-1.66,8.618,0.252,10.277,4.269c1.659,4.016-0.253,8.617-4.269,10.277l-24.562,10.142
		C167.126,170.482,166.108,170.674,165.108,170.674z"/>
	<path style="fill:#DDDD4A;" d="M251.598,108.799c-0.827,0-1.668-0.131-2.495-0.408l-23.529-7.865
		c-4.122-1.378-6.346-5.837-4.969-9.958c1.379-4.121,5.837-6.345,9.958-4.968l23.529,7.865c4.121,1.378,6.346,5.837,4.968,9.958
		C257.959,106.716,254.89,108.799,251.598,108.799z"/>
	<path style="fill:#DDDD4A;" d="M302.712,252.003c-3.001,0-5.868-1.727-7.181-4.643c-1.783-3.963-0.016-8.621,3.948-10.405
		l17.11-7.699c3.961-1.78,8.62-0.017,10.405,3.948c1.783,3.963,0.016,8.621-3.948,10.405l-17.11,7.699
		C304.888,251.779,303.792,252.003,302.712,252.003z"/>
	<path style="fill:#DDDD4A;" d="M207.755,256.278c-2.094,0-4.183-0.831-5.732-2.476l-13.687-14.543
		c-2.979-3.164-2.828-8.145,0.337-11.123c3.164-2.978,8.145-2.828,11.123,0.338l13.687,14.543c2.979,3.164,2.828,8.145-0.337,11.123
		C211.628,255.569,209.69,256.278,207.755,256.278z"/>
</g>
<g>
	<path style="fill:#8BF2E6;" d="M431.999,59.802c-2.013,0-4.028-0.768-5.565-2.304c-3.073-3.074-3.073-8.056,0-11.129l34.623-34.623
		c3.074-3.072,8.056-3.072,11.129,0c3.073,3.074,3.073,8.056,0,11.129l-34.623,34.623C436.027,59.033,434.013,59.802,431.999,59.802
		z"/>
	<path style="fill:#8BF2E6;" d="M361.704,129.048c-2.013,0-4.028-0.768-5.565-2.304c-3.073-3.074-3.073-8.056,0-11.129
		l43.016-43.016c3.074-3.072,8.056-3.072,11.129,0c3.073,3.074,3.073,8.056,0,11.129l-43.016,43.016
		C365.732,128.279,363.718,129.048,361.704,129.048z"/>
	<path style="fill:#8BF2E6;" d="M416.786,257.573c-2.013,0-4.028-0.768-5.565-2.304c-3.073-3.074-3.073-8.056,0-11.129
		l62.426-62.426c3.074-3.072,8.056-3.072,11.129,0c3.073,3.074,3.073,8.056,0,11.129l-62.426,62.426
		C420.814,256.804,418.8,257.573,416.786,257.573z"/>
	<path style="fill:#8BF2E6;" d="M354.36,327.343c-2.013,0-4.028-0.768-5.565-2.304c-3.073-3.074-3.073-8.056,0-11.129l28.328-28.328
		c3.074-3.072,8.056-3.072,11.129,0c3.073,3.074,3.073,8.056,0,11.129l-28.328,28.328
		C358.388,326.574,356.374,327.343,354.36,327.343z"/>
	<path style="fill:#8BF2E6;" d="M110.95,237.114c-2.013,0-4.028-0.768-5.564-2.304c-3.073-3.074-3.073-8.056,0-11.129l46.164-46.164
		c3.073-3.072,8.056-3.072,11.128,0c3.073,3.074,3.073,8.056,0,11.129l-46.164,46.164
		C114.978,236.345,112.964,237.114,110.95,237.114z"/>
	<path style="fill:#8BF2E6;" d="M32.786,314.228c-2.013,0-4.028-0.768-5.564-2.304c-3.073-3.074-3.073-8.056,0-11.129l58.229-58.23
		c3.073-3.072,8.056-3.072,11.128,0c3.073,3.074,3.073,8.056,0,11.129l-58.23,58.23C36.814,313.459,34.8,314.228,32.786,314.228z"/>
	<path style="fill:#8BF2E6;" d="M77.901,151.605c-2.013,0-4.028-0.768-5.564-2.304c-3.073-3.074-3.073-8.056,0-11.129l99.148-99.148
		c3.073-3.072,8.056-3.072,11.128,0c3.073,3.074,3.073,8.056,0,11.129l-99.148,99.148C81.929,150.836,79.914,151.605,77.901,151.605
		z"/>
	<path style="fill:#8BF2E6;" d="M32.786,190.425c-2.013,0-4.028-0.768-5.564-2.304c-3.073-3.074-3.073-8.056,0-11.129l19.41-19.41
		c3.073-3.072,8.056-3.072,11.128,0c3.073,3.074,3.073,8.056,0,11.129l-19.41,19.41C36.814,189.656,34.8,190.425,32.786,190.425z"/>
	<path style="fill:#8BF2E6;" d="M36.983,63.474c-2.013,0-4.028-0.768-5.564-2.304c-3.073-3.074-3.073-8.056,0-11.129L79.157,2.304
		c3.073-3.072,8.056-3.072,11.128,0c3.073,3.074,3.073,8.056,0,11.129L42.547,61.17C41.011,62.705,38.996,63.474,36.983,63.474z"/>
	<path style="fill:#8BF2E6;" d="M126.163,354.097c-2.013,0-4.028-0.768-5.564-2.304c-3.073-3.074-3.073-8.056,0-11.129
		l46.689-46.689c3.073-3.072,8.056-3.072,11.128,0c3.073,3.074,3.073,8.056,0,11.129l-46.689,46.689
		C130.191,353.328,128.177,354.097,126.163,354.097z"/>
</g>
<path style="fill:#916F47;" d="M252.065,154.425c-0.732-0.101-1.439-0.433-1.981-1.026L235.3,137.21
	c-1.395-1.529-3.839-1.404-5.073,0.258l-10.821,14.583c-0.939,1.265-0.85,3.017,0.213,4.18l19.368,21.209
	c0.58,0.635,0.888,1.471,0.859,2.33l-0.42,12.379c-0.1,2.948-3.73,4.286-5.719,2.108L220.98,180.32
	c-1.395-1.529-3.839-1.404-5.073,0.258l-10.821,14.584c-0.939,1.265-0.849,3.017,0.213,4.18l31.785,34.802
	c0.574,0.63,0.882,1.456,0.859,2.307l-4.672,174.593c-0.049,1.852,1.437,3.379,3.29,3.379h15.504V154.425z"/>
<g>
</g>
<g>
</g>
<g>
</g>
<g>
</g>
<g>
</g>
<g>
</g>
<g>
</g>
<g>
</g>
<g>
</g>
<g>
</g>
<g>
</g>
<g>
</g>
<g>
</g>
<g>
</g>
<g>
</g>
</svg>
