<?xml version="1.0" encoding="iso-8859-1"?>
<!-- Generator: Adobe Illustrator 19.0.0, SVG Export Plug-In . SVG Version: 6.00 Build 0)  -->
<svg version="1.1" id="Capa_1" xmlns="http://www.w3.org/2000/svg" xmlns:xlink="http://www.w3.org/1999/xlink" x="0px" y="0px"
	 viewBox="0 0 512 512" style="enable-background:new 0 0 512 512;" xml:space="preserve">
<path style="fill:#B8D150;" d="M235.139,282.207c-16.469,0-29.787-1.36-41.258-7.999c-14.795-8.559-23.501-24.235-31.921-39.394
	l-0.055-0.099c-1.5-2.702-3.053-5.496-4.6-8.169c-1.607-2.776-3.335-5.619-5.006-8.369c-8.419-13.854-17.962-29.555-17.962-47.133
	c0-17.579,9.542-33.28,17.961-47.133c1.68-2.764,3.407-5.607,5.005-8.368c1.573-2.719,3.139-5.539,4.654-8.266
	c8.42-15.161,17.127-30.838,31.923-39.4c11.472-6.637,24.791-7.997,41.261-7.997c3.028,0,6.103,0.043,9.208,0.086
	c3.036,0.042,6.066,0.063,9.096,0.063c3.031,0,6.061-0.021,9.097-0.063c3.099-0.043,6.165-0.085,9.187-0.085
	c16.483,0,29.811,1.36,41.281,7.996c14.797,8.561,23.504,24.238,31.925,39.402c1.515,2.728,3.083,5.549,4.653,8.263
	c1.584,2.738,3.297,5.558,4.954,8.285c8.47,13.936,18.012,29.638,18.012,47.217c0,17.577-9.542,33.279-17.96,47.132
	c-1.683,2.768-3.409,5.609-5.006,8.369c-1.573,2.719-3.139,5.539-4.654,8.266c-8.42,15.161-17.127,30.838-31.923,39.4
	c-11.473,6.637-24.791,7.997-41.261,7.997c-3.028,0-6.103-0.043-9.208-0.086c-3.036-0.042-6.074-0.083-9.096-0.083
	c-3.023,0-6.061,0.042-9.096,0.083c-3.105,0.044-6.178,0.086-9.208,0.086C235.142,282.207,235.14,282.207,235.139,282.207z"/>
<path style="fill:#ACBF37;" d="M322.793,245.447c-3.028,0-6.103-0.043-9.208-0.086c-3.036-0.042-6.074-0.083-9.096-0.083
	s-6.061,0.042-9.096,0.083c-3.105,0.044-6.178,0.086-9.208,0.086c-0.001,0-0.002,0-0.004,0c-16.469,0-29.787-1.36-41.258-7.999
	c-14.795-8.559-23.501-24.235-31.921-39.394l-0.055-0.099c-1.5-2.702-3.053-5.496-4.6-8.169c-1.607-2.776-3.335-5.619-5.006-8.369
	c-8.419-13.854-17.962-29.555-17.962-47.133c0-17.579,9.542-33.28,17.961-47.133c1.68-2.764,3.407-5.607,5.005-8.368
	c1.573-2.719,3.139-5.539,4.654-8.266c1.84-3.313,3.698-6.647,5.625-9.929c-9.238,0.946-17.375,3.026-24.745,7.289
	c-14.796,8.561-23.503,24.238-31.923,39.4c-1.514,2.727-3.081,5.547-4.654,8.266c-1.598,2.761-3.325,5.604-5.005,8.368
	c-8.419,13.853-17.961,29.553-17.961,47.133c0,17.577,9.542,33.279,17.962,47.133c1.671,2.75,3.399,5.593,5.006,8.369
	c1.547,2.674,3.099,5.467,4.6,8.169l0.055,0.099c8.42,15.159,17.126,30.835,31.921,39.394c11.471,6.639,24.789,7.999,41.258,7.999
	c0.001,0,0.003,0,0.004,0c3.029,0,6.103-0.043,9.208-0.086c3.036-0.042,6.074-0.083,9.096-0.083c3.023,0,6.061,0.042,9.096,0.083
	c3.105,0.044,6.18,0.086,9.208,0.086c16.469,0,29.788-1.36,41.261-7.997c11.563-6.691,19.403-17.73,26.297-29.47
	C334.165,245.267,328.684,245.447,322.793,245.447z"/>
<path style="fill:#B8D150;" d="M462.48,478.15c-3.035-30.594-22.474-59.843-54.739-82.359
	c-34.164-23.842-80.535-38.96-130.573-42.571l-11.197-0.808l-24.131-0.031l-11.138,0.77c-50.604,3.499-97.439,18.724-131.88,42.873
	c-32.059,22.479-51.382,51.645-54.409,82.128l0,0c-0.592,5.969,4.096,11.145,10.094,11.145h397.878
	C458.384,489.295,463.072,484.119,462.48,478.15L462.48,478.15z"/>
<g>
	<path style="fill:#9AAD2A;" d="M94.657,478.149L94.657,478.149c3.026-30.483,22.349-59.65,54.409-82.128
		c33.901-23.77,79.813-38.884,129.505-42.69c-0.468-0.035-0.933-0.078-1.402-0.112l-11.197-0.808l-24.131-0.031l-11.138,0.77
		c-50.604,3.499-97.439,18.724-131.88,42.873c-32.059,22.479-51.382,51.645-54.409,82.128l0,0
		c-0.592,5.969,4.096,11.145,10.094,11.145h50.242C98.752,489.295,94.064,484.119,94.657,478.149z"/>
	<path style="fill:#9AAD2A;" d="M270.785,389.509l-17.925-17.925c-1.384-1.383-3.635-1.35-4.977,0.072L141.275,484.674
		c-0.618,0.655-1.467,1.044-2.366,1.084l-36.463,1.654c-1.27,0.057-2.368,0.8-2.924,1.882h71.171l100.026-94.813
		C272.136,393.138,272.165,390.89,270.785,389.509z"/>
</g>
<path style="fill:#A88D68;" d="M235.714,391.695l4.517-168.793c0.022-0.823-0.276-1.623-0.831-2.231l-30.729-33.647
	c-1.026-1.124-1.113-2.819-0.206-4.041l10.462-14.099c1.193-1.607,3.555-1.727,4.904-0.25l12.305,13.473
	c1.923,2.106,5.433,0.812,5.529-2.038l0.405-11.968c0.028-0.831-0.27-1.639-0.831-2.253l-18.724-20.505
	c-1.026-1.124-1.113-2.819-0.206-4.041l10.462-14.098c1.193-1.607,3.555-1.727,4.904-0.25l14.293,15.651
	c1.262,1.382,3.438,1.382,4.698,0l31.83-34.854c1.35-1.478,3.712-1.357,4.904,0.251l10.46,14.101
	c0.907,1.223,0.821,2.917-0.206,4.041l-37.417,40.972c-0.561,0.614-0.858,1.422-0.831,2.253l0.762,22.506
	c0.096,2.85,3.606,4.144,5.529,2.038l7.006-7.671c1.349-1.478,3.711-1.357,4.904,0.25l10.465,14.096
	c0.908,1.223,0.822,2.917-0.205,4.042l-25.427,27.842c-0.557,0.61-0.855,1.413-0.831,2.239l4.581,156.977
	c0.053,1.792-1.387,3.274-3.18,3.274h-30.116C237.105,394.962,235.667,393.486,235.714,391.695z"/>
<g>
	<path style="fill:#A88662;" d="M330.36,168.229c-1.947,0-3.894-0.742-5.379-2.227l-12.405-12.405
		c-2.971-2.972-2.971-7.788,0-10.759c2.971-2.97,7.788-2.97,10.758,0l12.405,12.405c2.971,2.972,2.971,7.788,0,10.759
		C334.254,167.485,332.308,168.229,330.36,168.229z"/>
	<path style="fill:#A88662;" d="M168.384,162.382c-2.988,0-5.823-1.772-7.034-4.706c-1.604-3.883,0.244-8.331,4.127-9.935
		l23.746-9.806c3.884-1.605,8.332,0.243,9.935,4.127c1.604,3.883-0.244,8.331-4.127,9.935l-23.746,9.806
		C170.336,162.197,169.352,162.382,168.384,162.382z"/>
	<path style="fill:#A88662;" d="M252.003,102.562c-0.799,0-1.613-0.127-2.413-0.395l-22.746-7.603
		c-3.984-1.332-6.135-5.643-4.803-9.627c1.332-3.984,5.641-6.134,9.627-4.803l22.746,7.603c3.984,1.332,6.135,5.643,4.803,9.627
		C258.151,100.549,255.186,102.562,252.003,102.562z"/>
	<path style="fill:#A88662;" d="M301.42,241.009c-2.902,0-5.674-1.67-6.942-4.487c-1.724-3.831-0.016-8.336,3.816-10.06
		l16.541-7.443c3.831-1.722,8.335-0.016,10.059,3.816c1.724,3.832,0.016,8.336-3.816,10.06l-16.541,7.443
		C303.523,240.793,302.462,241.009,301.42,241.009z"/>
	<path style="fill:#A88662;" d="M209.616,245.142c-2.025,0-4.044-0.803-5.541-2.393l-13.233-14.06
		c-2.88-3.06-2.734-7.875,0.326-10.755c3.059-2.879,7.873-2.733,10.754,0.326l13.233,14.06c2.88,3.06,2.734,7.875-0.326,10.755
		C213.36,244.456,211.486,245.142,209.616,245.142z"/>
</g>
<g>
	<path style="fill:#B8D150;" d="M446.226,298.094c-11.322,0-20.533-9.211-20.533-20.533s9.211-20.533,20.533-20.533h58.167
		c4.201,0,7.607,3.405,7.607,7.607s-3.406,7.607-7.607,7.607h-39.801c1.341,1.372,2.168,3.248,2.168,5.318
		C466.76,288.883,457.548,298.094,446.226,298.094z M446.226,272.243c-2.932,0-5.318,2.387-5.318,5.318s2.386,5.318,5.318,5.318
		c2.933,0,5.319-2.387,5.319-5.318c0-2.07,0.827-3.947,2.168-5.318H446.226z"/>
	<path style="fill:#B8D150;" d="M481.772,250.914h-64.63c-11.322,0-20.533-9.211-20.533-20.533s9.211-20.533,20.533-20.533
		c11.322,0,20.533,9.211,20.533,20.533c0,2.07-0.827,3.947-2.168,5.318h46.264c4.201,0,7.607,3.405,7.607,7.607
		S485.973,250.914,481.772,250.914z M417.142,225.063c-2.932,0-5.318,2.387-5.318,5.318c0,2.931,2.386,5.318,5.318,5.318h7.486
		c-1.341-1.372-2.168-3.248-2.168-5.318C422.461,227.449,420.076,225.063,417.142,225.063z"/>
</g>
<path style="fill:#916F47;" d="M253.447,143.506c-0.547-0.155-1.063-0.445-1.478-0.899l-14.293-15.651
	c-1.349-1.478-3.711-1.357-4.904,0.25l-10.462,14.098c-0.908,1.223-0.822,2.917,0.206,4.041l18.724,20.505
	c0.561,0.614,0.858,1.422,0.831,2.253l-0.405,11.968c-0.096,2.85-3.606,4.144-5.529,2.038l-12.305-13.473
	c-1.349-1.478-3.711-1.357-4.904,0.25l-10.462,14.099c-0.908,1.223-0.822,2.917,0.206,4.041l30.729,33.646
	c0.555,0.609,0.853,1.408,0.831,2.231l-4.517,168.793c-0.048,1.79,1.39,3.267,3.181,3.267h14.552V143.506H253.447z"/>
<path style="fill:#C3FFF9;" d="M108.305,71.712c0,13.247-10.777,24.023-24.023,24.023H36.516C16.38,95.736,0,79.355,0,59.22
	s16.38-36.516,36.516-36.516c16.954,0,31.805,11.861,35.586,28.305c3.69-2.175,7.884-3.319,12.181-3.319
	C97.529,47.69,108.305,58.466,108.305,71.712L108.305,71.712z"/>
<path style="fill:#8BF2E6;" d="M37.577,59.22c0-13.257,7.102-24.884,17.701-31.283c-5.535-3.33-11.979-5.233-18.762-5.233
	C16.38,22.704,0,39.085,0,59.22s16.38,36.516,36.516,36.516h37.577C53.957,95.736,37.577,79.355,37.577,59.22z"/>
<g>
</g>
<g>
</g>
<g>
</g>
<g>
</g>
<g>
</g>
<g>
</g>
<g>
</g>
<g>
</g>
<g>
</g>
<g>
</g>
<g>
</g>
<g>
</g>
<g>
</g>
<g>
</g>
<g>
</g>
</svg>
