<?xml version="1.0" encoding="iso-8859-1"?>
<!-- Generator: Adobe Illustrator 19.0.0, SVG Export Plug-In . SVG Version: 6.00 Build 0)  -->
<svg version="1.1" id="Capa_1" xmlns="http://www.w3.org/2000/svg" xmlns:xlink="http://www.w3.org/1999/xlink" x="0px" y="0px"
	 viewBox="0 0 512 512" style="enable-background:new 0 0 512 512;" xml:space="preserve">
<path style="fill:#A3400F;" d="M350.398,294.491c-1.122,0-2.26-0.058-3.382-0.17c-12.764-1.289-29.937-19.313-36.728-27.002l0,0
	c-3.089-3.497-2.545-8.885,1.18-11.694h0.001c7.657-5.775,26.841-19.205,39.572-19.205c0.62,0,1.232,0.03,1.821,0.09
	c8.273,0.836,15.757,4.625,21.066,10.666c5.318,6.054,7.817,13.643,7.037,21.372C379.469,283.338,366.328,294.491,350.398,294.491
	C350.397,294.491,350.399,294.491,350.398,294.491z"/>
<path style="fill:#FF7E45;" d="M467.457,81.829c-20.698,0-37.537-16.838-37.537-37.537s16.838-37.537,37.537-37.537
	c20.698,0,37.537,16.838,37.537,37.537S488.155,81.829,467.457,81.829z"/>
<path style="fill:#ED5E26;" d="M490.802,58.484c-20.698,0-37.537-16.838-37.537-37.537c0-4.255,0.722-8.342,2.032-12.158
	c-14.746,5.063-25.378,19.061-25.378,35.504c0,20.698,16.838,37.537,37.537,37.537c16.443,0,30.441-10.631,35.505-25.379
	C499.144,57.762,495.057,58.484,490.802,58.484z"/>
<path style="fill:#D3C04F;" d="M459.539,496.445c-2.959-29.87-22.127-58.419-53.974-80.388c-33.851-23.353-79.703-38-129.108-41.244
	l-8.786-0.578h-27.939l-0.088,0.134l-8.759,0.662c-48.555,3.674-93.552,18.429-126.704,41.549
	c-31.385,21.886-50.285,50.25-53.22,79.866l0,0c-0.467,4.712,3.234,8.798,7.969,8.798h392.641
	C456.305,505.243,460.006,501.157,459.539,496.445L459.539,496.445z"/>
<g>
	<path style="fill:#C6A812;" d="M100.541,496.445c2.936-29.616,21.836-57.98,53.22-79.866
		c33.041-23.044,77.853-37.774,126.224-41.509c-1.175-0.09-2.35-0.18-3.529-0.257l-8.786-0.578h-27.939l-0.088,0.134l-8.759,0.662
		c-48.555,3.674-93.552,18.429-126.704,41.549c-31.385,21.886-50.285,50.25-53.22,79.866c-0.467,4.712,3.234,8.798,7.969,8.798
		h49.58C103.775,505.243,100.075,501.157,100.541,496.445z"/>
	<path style="fill:#C6A812;" d="M346.796,470.43c-4.089,0-7.474-0.944-10.064-2.805c-4.456-3.203-7.699-7.541-9.133-12.214
		c-1.448-4.721-0.88-9.221,1.601-12.67c2.546-3.541,6.938-5.572,12.049-5.572c4.695,0,9.644,1.7,13.939,4.786
		c5.719,4.112,7.338,12.491,7.69,18.795l0.017,0.307c0.2,3.592-2.136,6.834-5.605,7.782l-0.296,0.081
		C354.47,469.609,350.655,470.43,346.796,470.43L346.796,470.43z"/>
	<path style="fill:#C6A812;" d="M289.738,494.617c-0.205,0-0.41-0.005-0.613-0.015c-11.389-0.579-20.278-8.129-19.836-16.834
		c0.215-4.244,2.581-8.115,6.659-10.901c3.661-2.499,8.415-3.876,13.388-3.876c0.457,0,0.916,0.012,1.376,0.035
		c7.028,0.357,12.929,6.522,16.64,11.63l0.181,0.249c2.114,2.91,1.908,6.902-0.495,9.579l-0.205,0.229
		C302.777,489.231,296.518,494.617,289.738,494.617L289.738,494.617z"/>
	<path style="fill:#C6A812;" d="M147.668,486.519c-3.398,0-6.959-0.779-10.298-2.255c-6.444-2.851-9.751-10.72-11.39-16.821
		l-0.079-0.295c-0.932-3.467,0.681-7.116,3.872-8.761l0.272-0.14c2.952-1.521,8.719-4.072,14.179-4.072
		c2.169,0,4.163,0.394,5.925,1.172c5.024,2.22,9.09,5.798,11.452,10.076c2.388,4.323,2.757,8.845,1.038,12.73
		C160.358,483.312,154.621,486.519,147.668,486.519z"/>
	<path style="fill:#C6A812;" d="M169.957,505.243l98.709-93.565c1.398-1.326,1.428-3.544,0.066-4.907l-17.689-17.689
		c-1.365-1.364-3.588-1.332-4.912,0.071l-105.205,111.53c-0.61,0.647-1.447,1.03-2.335,1.07l-35.983,1.633
		c-1.253,0.056-2.337,0.79-2.886,1.857L169.957,505.243L169.957,505.243z"/>
</g>
<g>
	<path style="fill:#A3400F;" d="M355.182,459.824c-4.089,0-7.474-0.944-10.064-2.805c-4.456-3.203-7.7-7.541-9.133-12.214
		c-1.448-4.721-0.88-9.221,1.601-12.67c2.545-3.541,6.938-5.572,12.049-5.572c4.695,0,9.644,1.7,13.939,4.786
		c5.719,4.112,7.338,12.491,7.69,18.795l0.017,0.307c0.2,3.592-2.136,6.834-5.605,7.782l-0.296,0.081
		C362.857,459.003,359.042,459.824,355.182,459.824C355.183,459.824,355.183,459.824,355.182,459.824z"/>
	<path style="fill:#A3400F;" d="M298.125,484.01c-0.205,0-0.41-0.005-0.613-0.015c-11.389-0.579-20.278-8.129-19.836-16.834
		c0.215-4.244,2.581-8.115,6.659-10.901c3.661-2.499,8.415-3.876,13.388-3.876c0.457,0,0.916,0.012,1.376,0.035
		c7.028,0.357,12.929,6.522,16.64,11.63l0.181,0.249c2.114,2.91,1.908,6.902-0.495,9.579l-0.205,0.229
		C311.163,478.624,304.905,484.01,298.125,484.01L298.125,484.01z"/>
	<path style="fill:#A3400F;" d="M230.178,445.107c-5.223,0-10.655-2.28-14.293-4.194l-0.271-0.142
		c-3.178-1.672-4.761-5.333-3.799-8.794l0.082-0.296c1.693-6.088,5.068-13.931,11.535-16.723c3.284-1.418,6.785-2.168,10.121-2.168
		c7.046,0,12.83,3.255,15.095,8.495c1.685,3.901,1.277,8.418-1.147,12.721c-2.399,4.257-6.496,7.8-11.535,9.976
		C234.237,444.728,232.29,445.107,230.178,445.107z"/>
	<path style="fill:#A3400F;" d="M156.055,475.911c-3.398,0-6.959-0.779-10.298-2.255c-6.444-2.851-9.751-10.72-11.39-16.821
		l-0.079-0.295c-0.932-3.467,0.681-7.116,3.872-8.761l0.272-0.14c2.952-1.521,8.719-4.072,14.179-4.072
		c2.169,0,4.163,0.394,5.925,1.172c5.024,2.22,9.09,5.798,11.452,10.076c2.388,4.323,2.757,8.845,1.038,12.73
		C168.745,472.706,163.007,475.911,156.055,475.911z"/>
</g>
<g>
	<path style="fill:#7F2B05;" d="M362.394,457.019c-4.456-3.203-7.7-7.541-9.133-12.214c-1.448-4.721-0.88-9.221,1.601-12.67
		c1.033-1.438,2.383-2.612,3.95-3.516c-3.002-1.335-6.141-2.056-9.176-2.056c-5.111,0-9.502,2.031-12.049,5.572
		c-2.48,3.449-3.048,7.95-1.601,12.67c1.433,4.673,4.677,9.011,9.133,12.214c2.589,1.86,5.975,2.805,10.064,2.805l0,0
		c3.646,0,7.238-0.732,9.751-1.394C364.021,458.038,363.168,457.574,362.394,457.019z"/>
	<path style="fill:#7F2B05;" d="M294.951,467.161c0.215-4.244,2.581-8.115,6.659-10.901c1.146-0.783,2.41-1.441,3.745-1.996
		c-1.952-1.046-4.048-1.732-6.256-1.845c-0.459-0.023-0.918-0.035-1.376-0.035c-4.973,0-9.727,1.376-13.388,3.876
		c-4.079,2.785-6.443,6.655-6.659,10.901c-0.441,8.706,8.447,16.256,19.836,16.834c0.202,0.01,0.407,0.015,0.613,0.015
		c2.661,0,5.239-0.837,7.637-2.118C299.073,478.967,294.637,473.365,294.951,467.161z"/>
	<path style="fill:#7F2B05;" d="M233.16,440.912l-0.271-0.143c-3.178-1.672-4.761-5.333-3.799-8.794l0.082-0.295
		c1.693-6.088,5.068-13.931,11.535-16.723c0.362-0.156,0.729-0.301,1.095-0.441c-2.392-1.115-5.202-1.727-8.249-1.727
		c-3.336,0-6.837,0.75-10.121,2.168c-6.468,2.793-9.843,10.635-11.535,16.723l-0.082,0.295c-0.961,3.46,0.621,7.122,3.799,8.794
		l0.271,0.143c3.638,1.914,9.071,4.194,14.293,4.194c2.112,0,4.06-0.379,5.787-1.125c0.653-0.281,1.287-0.589,1.907-0.915
		C236.121,442.389,234.515,441.626,233.16,440.912z"/>
	<path style="fill:#7F2B05;" d="M163.032,473.656c-6.444-2.851-9.751-10.72-11.39-16.821l-0.079-0.295
		c-0.932-3.467,0.681-7.116,3.872-8.761l0.272-0.14c1.157-0.596,2.75-1.349,4.582-2.046c-0.571-0.302-1.154-0.59-1.754-0.855
		c-1.762-0.778-3.756-1.172-5.925-1.172c-5.46,0-11.227,2.552-14.179,4.072l-0.272,0.14c-3.192,1.645-4.805,5.293-3.872,8.761
		l0.079,0.295c1.64,6.101,4.946,13.971,11.39,16.821c3.339,1.476,6.901,2.255,10.298,2.255c3.041,0,5.849-0.614,8.237-1.735
		C163.87,474.014,163.45,473.84,163.032,473.656z"/>
</g>
<path style="fill:#A88D68;" d="M237.813,408.637l4.412-164.918c0.024-0.886-0.297-1.747-0.895-2.4l-29.521-32.324
	c-1.105-1.21-1.198-3.034-0.221-4.349l7.547-10.172c1.283-1.73,3.826-1.859,5.278-0.268l13.114,14.359
	c2.07,2.266,5.847,0.875,5.951-2.193l0.567-16.721c0.03-0.894-0.29-1.765-0.894-2.425l-17.679-19.361
	c-1.105-1.21-1.198-3.034-0.221-4.35l7.548-10.169c1.283-1.729,3.826-1.858,5.278-0.268l13.501,14.782
	c1.358,1.486,3.7,1.486,5.057,0l30.806-33.732c1.452-1.591,3.995-1.461,5.278,0.268l7.548,10.169c0.977,1.316,0.884,3.14-0.221,4.35
	l-36.126,39.559c-0.604,0.661-0.924,1.531-0.894,2.425l0.919,27.121c0.104,3.068,3.881,4.46,5.951,2.193l7.886-8.634
	c1.452-1.591,3.995-1.461,5.278,0.268l7.547,10.171c0.977,1.316,0.884,3.14-0.221,4.35l-24.29,26.598
	c-0.6,0.657-0.92,1.52-0.894,2.409l4.472,153.254c0.056,1.93-1.492,3.524-3.422,3.524h-25.017
	C239.309,412.152,237.761,410.562,237.813,408.637z"/>
<g>
	<path style="fill:#D3C04F;" d="M67.953,293.026c-14.395,0-26.106-11.71-26.106-26.105c0-14.395,11.711-26.106,26.106-26.106h83.695
		c4.146,0,7.507,3.36,7.507,7.507c0,4.147-3.361,7.507-7.507,7.507H67.953c-6.116,0-11.092,4.976-11.092,11.092
		c0,6.115,4.976,11.091,11.092,11.091s11.092-4.976,11.092-11.091c0-4.147,3.361-7.507,7.507-7.507c4.146,0,7.507,3.36,7.507,7.507
		C94.06,281.315,82.348,293.026,67.953,293.026z"/>
	<path style="fill:#D3C04F;" d="M119.1,225.14H26.106C11.711,225.14,0,213.429,0,199.034s11.711-26.105,26.106-26.105
		s26.106,11.71,26.106,26.105c0,4.147-3.361,7.507-7.507,7.507s-7.507-3.36-7.507-7.507c0-6.115-4.976-11.091-11.092-11.091
		s-11.092,4.975-11.092,11.091c0,6.116,4.976,11.092,11.092,11.092H119.1c4.146,0,7.507,3.36,7.507,7.507
		C126.608,221.78,123.246,225.14,119.1,225.14z"/>
</g>
<path style="fill:#A3400F;" d="M131.17,113.313c-1.116,0-2.248-0.057-3.364-0.169c-12.769-1.289-29.943-19.313-36.734-27.002l0,0
	c-3.089-3.497-2.544-8.886,1.181-11.694l0,0c7.656-5.774,26.842-19.203,39.59-19.203c0.608,0,1.209,0.029,1.786,0.087
	c8.289,0.837,15.773,4.626,21.083,10.667c5.318,6.054,7.817,13.643,7.037,21.372C160.255,102.16,147.109,113.313,131.17,113.313
	C131.17,113.313,131.171,113.313,131.17,113.313z"/>
<g>
	<path style="fill:#7F2B05;" d="M370.379,274.511C370.378,274.511,370.38,274.511,370.379,274.511c-1.123,0-2.261-0.058-3.383-0.17
		c-12.764-1.289-29.937-19.313-36.728-27.002l0,0c-0.808-0.915-1.36-1.959-1.68-3.051c-7.043,3.983-13.425,8.55-17.121,11.337l0,0
		c-3.726,2.81-4.269,8.197-1.18,11.694l0,0c6.791,7.69,23.963,25.713,36.728,27.002c1.122,0.112,2.26,0.17,3.382,0.17
		c0.001,0,0,0,0,0c14.265,0,26.287-8.947,29.717-21.438C377.054,273.998,373.781,274.511,370.379,274.511z"/>
	<path style="fill:#7F2B05;" d="M151.152,93.333C151.151,93.333,151.152,93.333,151.152,93.333c-1.116,0-2.248-0.057-3.364-0.169
		c-12.769-1.289-29.943-19.313-36.734-27.002l0,0c-0.807-0.914-1.359-1.957-1.679-3.048c-7.045,3.982-13.426,8.548-17.121,11.334
		c-3.726,2.81-4.27,8.197-1.181,11.694l0,0c6.791,7.69,23.963,25.713,36.734,27.002c1.116,0.112,2.248,0.169,3.364,0.169
		c0.001,0,0,0,0,0c14.273,0,26.301-8.949,29.731-21.44C157.836,92.819,154.559,93.333,151.152,93.333z"/>
</g>
<path style="fill:#D3C04F;" d="M504.493,293.036h-48.047c-4.146,0-7.507-3.36-7.507-7.507s3.361-7.507,7.507-7.507h48.047
	c4.146,0,7.507,3.36,7.507,7.507S508.639,293.036,504.493,293.036z"/>
<path style="fill:#916F47;" d="M253.077,168.797c-0.554-0.175-1.076-0.476-1.498-0.939l-13.501-14.783
	c-1.452-1.59-3.994-1.46-5.278,0.268l-7.548,10.169c-0.977,1.315-0.884,3.14,0.221,4.35l17.679,19.361
	c0.604,0.661,0.924,1.531,0.894,2.424l-0.567,16.722c-0.104,3.067-3.881,4.46-5.951,2.193l-13.114-14.359
	c-1.452-1.591-3.995-1.46-5.278,0.269l-7.547,10.172c-0.977,1.315-0.884,3.139,0.221,4.349l29.521,32.324
	c0.598,0.655,0.918,1.515,0.895,2.4l-4.412,164.917c-0.052,1.927,1.496,3.516,3.423,3.516h11.841V168.797z"/>
<g>
</g>
<g>
</g>
<g>
</g>
<g>
</g>
<g>
</g>
<g>
</g>
<g>
</g>
<g>
</g>
<g>
</g>
<g>
</g>
<g>
</g>
<g>
</g>
<g>
</g>
<g>
</g>
<g>
</g>
</svg>
