<?xml version="1.0" encoding="iso-8859-1"?>
<!-- Generator: Adobe Illustrator 19.0.0, SVG Export Plug-In . SVG Version: 6.00 Build 0)  -->
<svg version="1.1" id="Capa_1" xmlns="http://www.w3.org/2000/svg" xmlns:xlink="http://www.w3.org/1999/xlink" x="0px" y="0px"
	 viewBox="0 0 512.001 512.001" style="enable-background:new 0 0 512.001 512.001;" xml:space="preserve">
<g>
	<path style="fill:#8EC155;" d="M282.892,359.576c-7.563,0-14.896-3.322-19.715-6.108l-7.284-4.212l4.475-7.124
		c3.989-6.348,10.671-14.394,19.86-16.679c1.79-0.444,3.692-0.67,5.654-0.67c7.571,0,14.901,3.322,19.718,6.111l3.028,1.753
		c2.322,1.344,3.065,4.346,1.638,6.618l-1.861,2.962c-3.987,6.348-10.667,14.393-19.859,16.679
		C286.76,359.351,284.856,359.576,282.892,359.576L282.892,359.576z"/>
	<path style="fill:#8EC155;" d="M231.767,359.575c-1.962-0.001-3.863-0.226-5.649-0.669c-9.23-2.295-15.901-10.342-19.871-16.689
		l-1.856-2.968c-1.423-2.275-0.674-5.278,1.653-6.616l3.033-1.747c4.833-2.782,12.182-6.098,19.741-6.098
		c1.948,0,3.834,0.223,5.608,0.661c9.239,2.297,15.91,10.345,19.879,16.692l4.45,7.117l-7.264,4.203
		C246.673,356.251,239.339,359.575,231.767,359.575C231.768,359.575,231.768,359.575,231.767,359.575z"/>
</g>
<g>
	<path style="fill:#84AB4F;" d="M275.254,353.468l-7.284-4.212l4.475-7.124c3.968-6.315,10.605-14.308,19.722-16.639
		c-2.043-0.441-4.152-0.711-6.284-0.711c-1.963,0-3.865,0.226-5.654,0.67c-9.189,2.285-15.871,10.331-19.86,16.679l-4.475,7.124
		l7.284,4.212c4.819,2.786,12.151,6.109,19.715,6.109c0,0,0,0,0.001,0c1.963,0,3.866-0.226,5.654-0.671
		c0.047-0.011,0.091-0.028,0.137-0.041C283.476,357.74,278.715,355.469,275.254,353.468z"/>
	<path style="fill:#84AB4F;" d="M218.322,342.217l-1.856-2.968c-1.423-2.275-0.674-5.278,1.653-6.616l3.033-1.747
		c3.469-1.997,8.238-4.263,13.447-5.387c-0.059-0.015-0.115-0.035-0.173-0.051c-1.773-0.439-3.66-0.661-5.608-0.661
		c-7.559,0-14.908,3.316-19.741,6.098l-3.033,1.747c-2.326,1.339-3.076,4.341-1.653,6.616l1.856,2.968
		c3.969,6.347,10.639,14.394,19.871,16.689c1.787,0.444,3.688,0.668,5.649,0.669c0.001,0,0.001,0,0.001,0
		c2.131,0,4.241-0.27,6.284-0.711C228.895,356.521,222.271,348.53,218.322,342.217z"/>
</g>
<rect x="248.397" y="274.827" style="fill:#966D3C;" width="15.208" height="140.937"/>
<rect x="248.397" y="274.827" style="fill:#845625;" width="8.182" height="140.937"/>
<path style="fill:#F290A8;" d="M206.342,170.43c-6.958-5.247-13.078-7.907-18.188-7.907c-1.269,0-2.558,0.082-3.944,0.249
	l-6.611,0.803l-2.073-6.33c-3.957-12.08-0.832-25.166,8.156-34.152c6.334-6.335,14.756-9.822,23.714-9.822
	c5.506,0,10.96,1.358,15.771,3.926l0.301,0.169c2.811,1.539,5.381,3.465,7.645,5.728c4.195,4.196,6.868,11.725,7.946,22.381
	l0.551,5.451l-4.851,2.547c-6.74,3.537-12.555,8.733-16.812,15.025l-4.784,7.071L206.342,170.43z"/>
<path style="fill:#FF728D;" d="M239.055,145.476c-1.078-10.656-3.75-18.186-7.946-22.381c-2.264-2.263-4.833-4.19-7.645-5.728
	l-0.301-0.169c-4.811-2.568-10.264-3.926-15.771-3.926c-8.958,0-17.381,3.488-23.714,9.822c-2.66,2.659-4.794,5.684-6.394,8.93
	c4.541-2.233,9.567-3.421,14.776-3.421c5.506,0,10.96,1.358,15.771,3.926l0.301,0.169c2.811,1.539,5.381,3.465,7.645,5.728
	c4.195,4.196,6.868,11.725,7.946,22.381l0.07,0.688c3.235-3.185,6.928-5.907,10.962-8.024l4.851-2.547L239.055,145.476z"/>
<path style="fill:#F290A8;" d="M172.995,224.953c-11.338-5.75-18.38-17.208-18.38-29.905c0-18.493,15.046-33.539,33.539-33.539
	c5.971,0,13.183,3.432,21.439,10.199l4.241,3.476l-1.644,5.231c-1.396,4.436-2.103,9.059-2.103,13.741
	c0,2.911,0.286,5.86,0.851,8.766l1.628,8.39l-8.464,1.188c-8.629,1.212-14.833,3.656-18.441,7.265
	c-0.889,0.889-1.77,1.887-2.618,2.966l-4.111,5.235L172.995,224.953z"/>
<path style="fill:#FF728D;" d="M188.153,183.247c5.971,0,13.183,3.432,21.439,10.199l0.499,0.409c0.029-4.58,0.731-9.1,2.098-13.442
	l1.644-5.231l-4.241-3.476c-8.256-6.768-15.468-10.199-21.439-10.199c-18.493,0-33.539,15.046-33.539,33.539
	c0,3.78,0.637,7.444,1.813,10.885C160.949,192.752,173.458,183.247,188.153,183.247z"/>
<path style="fill:#F290A8;" d="M208.657,276.286c-8.968,0-17.39-3.485-23.717-9.81c-6.335-6.335-9.822-14.757-9.822-23.715
	c0-8.958,3.489-17.382,9.824-23.715c4.194-4.196,11.724-6.87,22.379-7.948l5.453-0.551l2.546,4.852
	c3.537,6.741,8.733,12.556,15.027,16.814l7.072,4.784l-5.139,6.817c-5.249,6.961-7.91,13.08-7.91,18.187
	c0,1.264,0.081,2.554,0.249,3.94l0.799,6.612l-6.33,2.07C215.719,275.727,212.21,276.286,208.657,276.286z"/>
<path style="fill:#FF728D;" d="M207.937,275.475c-6.335-6.335-9.822-14.757-9.822-23.715c0-8.958,3.489-17.382,9.824-23.715
	c2.604-2.605,6.496-4.622,11.621-6.037c-1.592-2.078-3.021-4.284-4.241-6.608l-2.546-4.852l-5.453,0.551
	c-10.655,1.078-18.186,3.751-22.379,7.948c-6.336,6.334-9.824,14.757-9.824,23.715c0,8.958,3.488,17.381,9.822,23.715
	c6.326,6.325,14.75,9.81,23.717,9.81c0.043,0,0.084-0.005,0.127-0.005C208.499,276.016,208.214,275.751,207.937,275.475z"/>
<path style="fill:#F290A8;" d="M256.894,295.541c-18.493,0-33.539-15.046-33.539-33.539c0-5.93,3.428-13.138,10.189-21.424
	l3.475-4.258l5.244,1.649c4.434,1.395,9.056,2.102,13.739,2.102c2.911,0,5.86-0.286,8.766-0.851l8.388-1.628l1.19,8.462
	c1.214,8.632,3.658,14.838,7.265,18.443c0.891,0.892,1.894,1.776,2.981,2.63l5.221,4.099l-2.985,5.929
	C281.115,288.495,269.646,295.541,256.894,295.541z"/>
<path style="fill:#FF728D;" d="M251.158,262.002c0-5.93,3.428-13.138,10.189-21.424l0.759-0.93c-2.036,0.275-4.08,0.423-6.105,0.423
	c-4.683,0-9.305-0.707-13.739-2.102l-5.244-1.649l-3.475,4.258c-6.761,8.286-10.189,15.494-10.189,21.424
	c0,18.493,15.046,33.539,33.539,33.539c4.928,0,9.66-1.063,13.947-3.009C259.244,287.247,251.158,275.555,251.158,262.002z"/>
<path style="fill:#F290A8;" d="M304.607,275.037c-8.958,0-17.382-3.489-23.715-9.824c-4.224-4.221-6.9-11.756-7.954-22.393
	l-0.538-5.44l4.841-2.541c6.744-3.538,12.561-8.736,16.819-15.03l4.783-7.072l6.817,5.138c6.963,5.25,13.082,7.911,18.187,7.911
	c1.265,0,2.555-0.081,3.941-0.249l6.612-0.799l2.07,6.33c3.953,12.085,0.829,25.17-8.15,34.148
	C321.988,271.55,313.566,275.037,304.607,275.037z"/>
<path style="fill:#FF728D;" d="M332.865,239.848c-6.334,6.335-14.756,9.822-23.714,9.822c-8.958,0-17.382-3.489-23.715-9.824
	c-1.796-1.795-3.309-4.194-4.54-7.172c-1.187,0.771-2.399,1.505-3.655,2.164l-4.841,2.541l0.538,5.44
	c1.053,10.637,3.73,18.172,7.954,22.393c6.334,6.336,14.757,9.824,23.715,9.824c8.958,0,17.381-3.488,23.714-9.822
	c8.181-8.178,11.481-19.763,9.019-30.897C336.065,236.285,334.573,238.142,332.865,239.848z"/>
<path style="fill:#F290A8;" d="M323.848,226.8c-5.928,0-13.136-3.429-21.423-10.19l-4.258-3.475l1.649-5.243
	c1.394-4.434,2.101-9.057,2.101-13.739c0-2.907-0.286-5.854-0.85-8.761l-1.627-8.388l8.463-1.188
	c8.623-1.212,14.827-3.658,18.44-7.272c0.889-0.889,1.77-1.887,2.618-2.966l4.111-5.234l5.935,3.01
	c11.338,5.75,18.38,17.208,18.38,29.905C357.387,211.754,342.341,226.8,323.848,226.8z"/>
<path style="fill:#FF728D;" d="M323.848,203.838c-5.928,0-13.136-3.429-21.423-10.19l-0.532-0.434
	c0.007,0.314,0.023,0.629,0.023,0.941c0,4.682-0.707,9.305-2.101,13.739l-1.649,5.243l4.258,3.475
	c8.287,6.761,15.495,10.19,21.423,10.19c18.493,0,33.539-15.046,33.539-33.539c0-4.005-0.704-7.884-2.019-11.502
	C350.676,194.626,338.318,203.838,323.848,203.838z"/>
<path style="fill:#F290A8;" d="M296.684,172.911c-3.537-6.741-8.733-12.556-15.026-16.814l-7.071-4.785l5.139-6.816
	c5.246-6.957,7.906-13.077,7.906-18.189c0-1.272-0.082-2.568-0.251-3.962l-0.802-6.601l6.315-2.081
	c3.387-1.116,6.908-1.681,10.466-1.681c8.931,0,17.347,3.499,23.701,9.852c6.335,6.335,9.822,14.757,9.822,23.715
	c0,5.486-1.349,10.923-3.902,15.724l-0.09,0.169l-0.137,0.231l-0.13,0.239c-1.512,2.698-3.385,5.172-5.567,7.353
	c-4.22,4.223-11.756,6.899-22.394,7.951l-5.44,0.538L296.684,172.911z"/>
<path style="fill:#FF728D;" d="M327.061,121.833c-2.656-2.655-5.677-4.805-8.94-6.416c2.241,4.548,3.433,9.581,3.433,14.8
	c0,5.486-1.349,10.923-3.902,15.724l-0.09,0.169l-0.137,0.231l-0.13,0.239c-1.512,2.698-3.385,5.172-5.567,7.353
	c-4.22,4.223-11.756,6.899-22.394,7.951l-0.672,0.067c3.185,3.235,5.906,6.927,8.023,10.961l2.54,4.841l5.44-0.538
	c10.638-1.051,18.174-3.728,22.394-7.951c2.182-2.181,4.055-4.655,5.567-7.353l0.13-0.239l0.137-0.231l0.09-0.169
	c2.553-4.8,3.902-10.238,3.902-15.724C336.883,136.589,333.396,128.167,327.061,121.833z"/>
<path style="fill:#F290A8;" d="M269.742,150.341c-4.437-1.395-9.06-2.103-13.742-2.103c-2.911,0-5.86,0.286-8.767,0.851
	l-8.389,1.628l-1.188-8.464c-1.212-8.629-3.655-14.834-7.264-18.441c-0.889-0.889-1.887-1.77-2.966-2.618l-5.235-4.111l3.011-5.935
	c5.75-11.338,17.208-18.38,29.905-18.38c18.493,0,33.539,15.046,33.539,33.539c0,5.97-3.431,13.182-10.197,21.439l-3.476,4.241
	L269.742,150.341z"/>
<path style="fill:#FF728D;" d="M255.107,92.768c-3.495,0-6.888,0.552-10.102,1.561c13.566,4.3,23.427,17.008,23.427,31.978
	c0,5.97-3.431,13.182-10.197,21.439l-0.433,0.528c4.066,0.158,8.073,0.852,11.94,2.067l5.232,1.644l3.476-4.241
	c6.767-8.257,10.197-15.469,10.197-21.439C288.646,107.814,273.6,92.768,255.107,92.768z"/>
<path style="fill:#FFC4BC;" d="M256.001,241.084c-25.877,0-46.93-21.053-46.93-46.93s21.053-46.93,46.93-46.93
	s46.93,21.053,46.93,46.93S281.877,241.084,256.001,241.084z"/>
<path style="fill:#FFF2D8;" d="M256.001,216.475c-12.307,0-22.32-10.013-22.32-22.32c0-12.307,10.013-22.32,22.32-22.32
	c12.307,0,22.32,10.013,22.32,22.32C278.321,206.462,268.308,216.475,256.001,216.475z"/>
<path style="fill:#FFE4B8;" d="M274.587,204.681c-12.307,0-22.32-10.013-22.32-22.32c0-3.794,0.954-7.368,2.631-10.5
	c-11.796,0.578-21.217,10.355-21.217,22.293c0,12.307,10.013,22.32,22.32,22.32c8.513,0,15.927-4.793,19.69-11.821
	C275.325,204.672,274.957,204.681,274.587,204.681z"/>
<g>
	<path style="fill:#8BF2E6;" d="M122.171,35.485c-4.2,0-7.604-3.404-7.604-7.604V7.604c0-4.2,3.404-7.604,7.604-7.604
		c4.2,0,7.604,3.404,7.604,7.604v20.277C129.775,32.082,126.371,35.485,122.171,35.485z"/>
	<path style="fill:#8BF2E6;" d="M122.171,124.198c-4.2,0-7.604-3.404-7.604-7.604V67.422c0-4.2,3.404-7.604,7.604-7.604
		c4.2,0,7.604,3.404,7.604,7.604v49.172C129.775,120.794,126.371,124.198,122.171,124.198z"/>
	<path style="fill:#8BF2E6;" d="M122.171,327.477c-4.2,0-7.604-3.404-7.604-7.604v-85.164c0-4.2,3.404-7.604,7.604-7.604
		c4.2,0,7.604,3.404,7.604,7.604v85.164C129.775,324.074,126.371,327.477,122.171,327.477z"/>
	<path style="fill:#8BF2E6;" d="M180.975,90.234c-4.2,0-7.604-3.404-7.604-7.604V7.604c0-4.2,3.404-7.604,7.604-7.604
		c4.2,0,7.604,3.404,7.604,7.604V82.63C188.579,86.83,185.175,90.234,180.975,90.234z"/>
	<path style="fill:#8BF2E6;" d="M387.802,35.485c-4.2,0-7.604-3.404-7.604-7.604V7.604c0-4.2,3.404-7.604,7.604-7.604
		c4.2,0,7.604,3.404,7.604,7.604v20.277C395.406,32.082,392.003,35.485,387.802,35.485z"/>
	<path style="fill:#8BF2E6;" d="M387.802,124.198c-4.2,0-7.604-3.404-7.604-7.604V67.422c0-4.2,3.404-7.604,7.604-7.604
		c4.2,0,7.604,3.404,7.604,7.604v49.172C395.406,120.794,392.003,124.198,387.802,124.198z"/>
	<path style="fill:#8BF2E6;" d="M328.999,90.234c-4.2,0-7.604-3.404-7.604-7.604V7.604c0-4.2,3.404-7.604,7.604-7.604
		s7.604,3.404,7.604,7.604V82.63C336.603,86.83,333.199,90.234,328.999,90.234z"/>
	<path style="fill:#8BF2E6;" d="M254.987,62.352c-4.2,0-7.604-3.404-7.604-7.604V7.604c0-4.2,3.404-7.604,7.604-7.604
		s7.604,3.404,7.604,7.604v47.145C262.591,58.949,259.187,62.352,254.987,62.352z"/>
	<path style="fill:#8BF2E6;" d="M122.171,418.725c-4.2,0-7.604-3.404-7.604-7.604v-42.075c0-4.2,3.404-7.604,7.604-7.604
		c4.2,0,7.604,3.404,7.604,7.604v42.075C129.775,415.321,126.371,418.725,122.171,418.725z"/>
	<path style="fill:#8BF2E6;" d="M122.171,502.875c-4.2,0-7.604-3.404-7.604-7.604v-20.784c0-4.2,3.404-7.604,7.604-7.604
		c4.2,0,7.604,3.404,7.604,7.604v20.784C129.775,499.472,126.371,502.875,122.171,502.875z"/>
	<path style="fill:#8BF2E6;" d="M175.905,352.824c-4.2,0-7.604-3.404-7.604-7.604v-35.485c0-4.2,3.404-7.604,7.604-7.604
		c4.2,0,7.604,3.404,7.604,7.604v35.485C183.509,349.42,180.106,352.824,175.905,352.824z"/>
	<path style="fill:#8BF2E6;" d="M389.83,327.477c-4.2,0-7.604-3.404-7.604-7.604v-85.164c0-4.2,3.404-7.604,7.604-7.604
		s7.604,3.404,7.604,7.604v85.164C397.434,324.074,394.031,327.477,389.83,327.477z"/>
	<path style="fill:#8BF2E6;" d="M389.83,418.725c-4.2,0-7.604-3.404-7.604-7.604v-42.075c0-4.2,3.404-7.604,7.604-7.604
		s7.604,3.404,7.604,7.604v42.075C397.434,415.321,394.031,418.725,389.83,418.725z"/>
	<path style="fill:#8BF2E6;" d="M389.83,502.875c-4.2,0-7.604-3.404-7.604-7.604v-20.784c0-4.2,3.404-7.604,7.604-7.604
		s7.604,3.404,7.604,7.604v20.784C397.434,499.472,394.031,502.875,389.83,502.875z"/>
	<path style="fill:#8BF2E6;" d="M336.096,352.824c-4.2,0-7.604-3.404-7.604-7.604v-35.485c0-4.2,3.404-7.604,7.604-7.604
		c4.2,0,7.604,3.404,7.604,7.604v35.485C343.7,349.42,340.296,352.824,336.096,352.824z"/>
</g>
<path style="fill:#A88D68;" d="M181.366,506.616l-14.584-84.141c-5.705-2.592-9.198-8.548-8.54-14.917
	c0.782-7.56,7.422-13.166,15.023-13.166h163.443c7.601,0,14.241,5.606,15.022,13.166c0.659,6.368-2.834,12.322-8.54,14.917
	l-14.584,84.141c-0.539,3.112-3.239,5.384-6.396,5.384H187.764C184.605,512,181.906,509.728,181.366,506.616z"/>
<path style="fill:#916F47;" d="M304.103,421.951H198.575c-5.081-2.813-8.114-8.421-7.496-14.392
	c0.782-7.561,7.422-13.166,15.023-13.166h-32.837c-7.601,0-14.242,5.606-15.023,13.166c-0.659,6.369,2.835,12.324,8.54,14.917
	l14.584,84.141c0.539,3.111,3.239,5.384,6.396,5.384H220.6c-3.158,0-5.858-2.272-6.397-5.384l-13-74.997h102.9
	c2.671,0,4.835-2.165,4.835-4.835l0,0C308.938,424.115,306.774,421.951,304.103,421.951z"/>
<g>
</g>
<g>
</g>
<g>
</g>
<g>
</g>
<g>
</g>
<g>
</g>
<g>
</g>
<g>
</g>
<g>
</g>
<g>
</g>
<g>
</g>
<g>
</g>
<g>
</g>
<g>
</g>
<g>
</g>
</svg>
