<?xml version="1.0" encoding="iso-8859-1"?>
<!-- Generator: Adobe Illustrator 19.0.0, SVG Export Plug-In . SVG Version: 6.00 Build 0)  -->
<svg version="1.1" id="Capa_1" xmlns="http://www.w3.org/2000/svg" xmlns:xlink="http://www.w3.org/1999/xlink" x="0px" y="0px"
	 viewBox="0 0 512 512" style="enable-background:new 0 0 512 512;" xml:space="preserve">
<rect x="248.5" y="275.46" style="fill:#C1C1C1;" width="15" height="151.82"/>
<path style="fill:#FF7A66;" d="M409.48,297.832c-50.719-11.266-102.357-16.978-153.48-16.978s-102.762,5.712-153.48,16.978l0,0
	c-5.19,1.153-10.04-2.985-9.72-8.292l0,0C98.001,203.442,169.687,136,256,136s157.999,67.442,163.2,153.54l0,0
	C419.521,294.847,414.671,298.985,409.48,297.832L409.48,297.832z"/>
<path style="fill:#EF6759;" d="M142.3,289.54L142.3,289.54c4.695-77.713,63.558-140.219,138.45-151.658
	C272.67,136.648,264.406,136,256,136c-86.313,0-157.999,67.442-163.2,153.54l0,0c-0.321,5.308,4.529,9.445,9.72,8.292
	c13.206-2.933,26.475-5.481,39.78-7.658C142.296,289.963,142.287,289.754,142.3,289.54z"/>
<g>
	<path style="fill:#F95948;" d="M178.823,275.709c2.571-37.05,11.267-71.437,24.484-96.827C217.702,151.229,236.415,136,256,136
		c19.661,0,38.428,15.333,52.845,43.174c13.131,25.357,21.772,59.642,24.332,96.535l0.655,9.441l-9.419-0.926
		c-22.735-2.236-45.753-3.37-68.413-3.37s-45.678,1.134-68.413,3.37l-9.42,0.926L178.823,275.709z"/>
	<path style="fill:#F95948;" d="M225,512c-23.986,0-43.5-19.514-43.5-43.5v-46c0-4.143,3.357-7.5,7.5-7.5h10
		c4.143,0,7.5,3.357,7.5,7.5v46c0,10.201,8.299,18.5,18.5,18.5s18.5-8.299,18.5-18.5v-46c0-4.143,3.357-7.5,7.5-7.5h10
		c4.143,0,7.5,3.357,7.5,7.5v46C268.5,492.486,248.986,512,225,512z"/>
</g>
<g>
	<path style="fill:#8BF2E6;" d="M125,35c-4.143,0-7.5-3.357-7.5-7.5v-20c0-4.143,3.357-7.5,7.5-7.5c4.143,0,7.5,3.357,7.5,7.5v20
		C132.5,31.643,129.143,35,125,35z"/>
	<path style="fill:#8BF2E6;" d="M125,173c-4.143,0-7.5-3.357-7.5-7.5v-20c0-4.143,3.357-7.5,7.5-7.5c4.143,0,7.5,3.357,7.5,7.5v20
		C132.5,169.643,129.143,173,125,173z"/>
	<path style="fill:#8BF2E6;" d="M125,122.5c-4.143,0-7.5-3.357-7.5-7.5V66.5c0-4.143,3.357-7.5,7.5-7.5c4.143,0,7.5,3.357,7.5,7.5
		V115C132.5,119.143,129.143,122.5,125,122.5z"/>
	<path style="fill:#8BF2E6;" d="M183,35c-4.143,0-7.5-3.357-7.5-7.5v-20c0-4.143,3.357-7.5,7.5-7.5s7.5,3.357,7.5,7.5v20
		C190.5,31.643,187.143,35,183,35z"/>
	<path style="fill:#8BF2E6;" d="M183,122.5c-4.143,0-7.5-3.357-7.5-7.5V58c0-4.143,3.357-7.5,7.5-7.5s7.5,3.357,7.5,7.5v57
		C190.5,119.143,187.143,122.5,183,122.5z"/>
	<path style="fill:#8BF2E6;" d="M387,35c-4.143,0-7.5-3.357-7.5-7.5v-20c0-4.143,3.357-7.5,7.5-7.5s7.5,3.357,7.5,7.5v20
		C394.5,31.643,391.143,35,387,35z"/>
	<path style="fill:#8BF2E6;" d="M387,173c-4.143,0-7.5-3.357-7.5-7.5v-20c0-4.143,3.357-7.5,7.5-7.5s7.5,3.357,7.5,7.5v20
		C394.5,169.643,391.143,173,387,173z"/>
	<path style="fill:#8BF2E6;" d="M387,122.5c-4.143,0-7.5-3.357-7.5-7.5V66.5c0-4.143,3.357-7.5,7.5-7.5s7.5,3.357,7.5,7.5V115
		C394.5,119.143,391.143,122.5,387,122.5z"/>
	<path style="fill:#8BF2E6;" d="M329,35c-4.143,0-7.5-3.357-7.5-7.5v-20c0-4.143,3.357-7.5,7.5-7.5s7.5,3.357,7.5,7.5v20
		C336.5,31.643,333.143,35,329,35z"/>
	<path style="fill:#8BF2E6;" d="M329,122.5c-4.143,0-7.5-3.357-7.5-7.5V58c0-4.143,3.357-7.5,7.5-7.5s7.5,3.357,7.5,7.5v57
		C336.5,119.143,333.143,122.5,329,122.5z"/>
	<path style="fill:#8BF2E6;" d="M256,61.5c-4.143,0-7.5-3.357-7.5-7.5V7.5c0-4.143,3.357-7.5,7.5-7.5s7.5,3.357,7.5,7.5V54
		C263.5,58.143,260.143,61.5,256,61.5z"/>
	<path style="fill:#8BF2E6;" d="M256,104c-4.143,0-7.5-3.357-7.5-7.5v-16c0-4.143,3.357-7.5,7.5-7.5s7.5,3.357,7.5,7.5v16
		C263.5,100.643,260.143,104,256,104z"/>
	<path style="fill:#8BF2E6;" d="M93,412.5c-4.143,0-7.5-3.357-7.5-7.5v-73.5c0-4.143,3.357-7.5,7.5-7.5s7.5,3.357,7.5,7.5V405
		C100.5,409.143,97.143,412.5,93,412.5z"/>
	<path style="fill:#8BF2E6;" d="M148,373.5c-4.143,0-7.5-3.357-7.5-7.5v-53c0-4.143,3.357-7.5,7.5-7.5s7.5,3.357,7.5,7.5v53
		C155.5,370.143,152.143,373.5,148,373.5z"/>
	<path style="fill:#8BF2E6;" d="M202,332.5c-4.143,0-7.5-3.357-7.5-7.5v-17.5c0-4.143,3.357-7.5,7.5-7.5s7.5,3.357,7.5,7.5V325
		C209.5,329.143,206.143,332.5,202,332.5z"/>
	<path style="fill:#8BF2E6;" d="M202,399.5c-4.143,0-7.5-3.357-7.5-7.5v-35.5c0-4.143,3.357-7.5,7.5-7.5s7.5,3.357,7.5,7.5V392
		C209.5,396.143,206.143,399.5,202,399.5z"/>
	<path style="fill:#8BF2E6;" d="M148,428.5c-4.143,0-7.5-3.357-7.5-7.5v-26.5c0-4.143,3.357-7.5,7.5-7.5s7.5,3.357,7.5,7.5V421
		C155.5,425.143,152.143,428.5,148,428.5z"/>
	<path style="fill:#8BF2E6;" d="M148,511.5c-4.143,0-7.5-3.357-7.5-7.5v-13c0-4.143,3.357-7.5,7.5-7.5s7.5,3.357,7.5,7.5v13
		C155.5,508.143,152.143,511.5,148,511.5z"/>
	<path style="fill:#8BF2E6;" d="M148,471c-4.143,0-7.5-3.357-7.5-7.5v-13c0-4.143,3.357-7.5,7.5-7.5s7.5,3.357,7.5,7.5v13
		C155.5,467.643,152.143,471,148,471z"/>
	<path style="fill:#8BF2E6;" d="M366,373.5c-4.143,0-7.5-3.357-7.5-7.5v-53c0-4.143,3.357-7.5,7.5-7.5s7.5,3.357,7.5,7.5v53
		C373.5,370.143,370.143,373.5,366,373.5z"/>
	<path style="fill:#8BF2E6;" d="M366,511.5c-4.143,0-7.5-3.357-7.5-7.5v-13c0-4.143,3.357-7.5,7.5-7.5s7.5,3.357,7.5,7.5v13
		C373.5,508.143,370.143,511.5,366,511.5z"/>
	<path style="fill:#8BF2E6;" d="M366,468.461c-4.143,0-7.5-3.357-7.5-7.5v-59.716c0-4.143,3.357-7.5,7.5-7.5s7.5,3.357,7.5,7.5
		v59.716C373.5,465.104,370.143,468.461,366,468.461z"/>
	<path style="fill:#8BF2E6;" d="M311,366.5c-4.143,0-7.5-3.357-7.5-7.5v-53c0-4.143,3.357-7.5,7.5-7.5s7.5,3.357,7.5,7.5v53
		C318.5,363.143,315.143,366.5,311,366.5z"/>
	<path style="fill:#8BF2E6;" d="M311,435c-4.143,0-7.5-3.357-7.5-7.5V401c0-4.143,3.357-7.5,7.5-7.5s7.5,3.357,7.5,7.5v26.5
		C318.5,431.643,315.143,435,311,435z"/>
	<path style="fill:#8BF2E6;" d="M311,504.5c-4.143,0-7.5-3.357-7.5-7.5v-13c0-4.143,3.357-7.5,7.5-7.5s7.5,3.357,7.5,7.5v13
		C318.5,501.143,315.143,504.5,311,504.5z"/>
	<path style="fill:#8BF2E6;" d="M93,512c-4.143,0-7.5-3.357-7.5-7.5V489c0-4.143,3.357-7.5,7.5-7.5s7.5,3.357,7.5,7.5v15.5
		C100.5,508.643,97.143,512,93,512z"/>
	<path style="fill:#8BF2E6;" d="M93,467.5c-4.143,0-7.5-3.357-7.5-7.5v-25c0-4.143,3.357-7.5,7.5-7.5s7.5,3.357,7.5,7.5v25
		C100.5,464.143,97.143,467.5,93,467.5z"/>
	<path style="fill:#8BF2E6;" d="M419,512c-4.143,0-7.5-3.357-7.5-7.5V431c0-4.143,3.357-7.5,7.5-7.5s7.5,3.357,7.5,7.5v73.5
		C426.5,508.643,423.143,512,419,512z"/>
	<path style="fill:#8BF2E6;" d="M419,354.5c-4.143,0-7.5-3.357-7.5-7.5v-15.5c0-4.143,3.357-7.5,7.5-7.5s7.5,3.357,7.5,7.5V347
		C426.5,351.143,423.143,354.5,419,354.5z"/>
	<path style="fill:#8BF2E6;" d="M419,408.5c-4.143,0-7.5-3.357-7.5-7.5v-25c0-4.143,3.357-7.5,7.5-7.5s7.5,3.357,7.5,7.5v25
		C426.5,405.143,423.143,408.5,419,408.5z"/>
</g>
<g>
</g>
<g>
</g>
<g>
</g>
<g>
</g>
<g>
</g>
<g>
</g>
<g>
</g>
<g>
</g>
<g>
</g>
<g>
</g>
<g>
</g>
<g>
</g>
<g>
</g>
<g>
</g>
<g>
</g>
</svg>
