<?xml version="1.0" encoding="iso-8859-1"?>
<!-- Generator: Adobe Illustrator 19.0.0, SVG Export Plug-In . SVG Version: 6.00 Build 0)  -->
<svg version="1.1" id="Capa_1" xmlns="http://www.w3.org/2000/svg" xmlns:xlink="http://www.w3.org/1999/xlink" x="0px" y="0px"
	 viewBox="0 0 512 512" style="enable-background:new 0 0 512 512;" xml:space="preserve">
<path style="fill:#8EC155;" d="M129.814,464.122c-1.102,0-2.16-0.098-3.144-0.291c-6.737-1.313-12.6-4.995-16.505-10.364
	c-3.913-5.381-5.391-11.812-4.163-18.106c2.163-11.082,12.495-19.126,24.569-19.126c1.767,0,3.547,0.173,5.292,0.514
	c9.575,1.867,21.134,15.646,27.172,23.694l0,0c2.844,3.79,1.788,9.208-2.271,11.653l0,0
	C154.762,455.712,139.73,464.122,129.814,464.122C129.814,464.122,129.815,464.122,129.814,464.122z"/>
<path style="fill:#84AB4F;" d="M139.693,453.467c-3.913-5.381-5.391-11.812-4.163-18.106c1.136-5.822,4.541-10.789,9.254-14.208
	c-3.018-2.217-6.058-3.845-8.922-4.404c-1.745-0.341-3.525-0.514-5.292-0.514c-12.074,0-22.406,8.044-24.569,19.126
	c-1.229,6.295,0.25,12.726,4.163,18.106c3.905,5.369,9.768,9.051,16.505,10.364c0.984,0.193,2.042,0.291,3.144,0.291l0,0
	c4.802,0,10.799-1.977,16.394-4.422C143.7,458.014,141.483,455.928,139.693,453.467z"/>
<g>
	<path style="fill:#C3FFF9;" d="M44.5,258c-9.098,0-16.5-7.402-16.5-16.5S35.402,225,44.5,225h30.34
		C68.521,222.686,64,216.61,64,209.5c0-9.098,7.402-16.5,16.5-16.5h28.431l0.632,7.312c1.28,14.812,4.782,29.275,10.411,42.991
		l2.019,4.92l-3.755,3.766C115.11,255.8,110.459,258,105.5,258H44.5z"/>
	<path style="fill:#C3FFF9;" d="M351.038,414.5c-7.582,0-13.75-6.168-13.75-13.75c0-5.763,3.563-10.708,8.602-12.75h-28.579
		c-7.582,0-13.75-6.168-13.75-13.75s6.168-13.75,13.75-13.75h66.651c7.582,0,13.75,6.168,13.75,13.75
		c0,5.763-3.563,10.708-8.602,12.75h28.579c7.582,0,13.75,6.168,13.75,13.75s-6.168,13.75-13.75,13.75H351.038z"/>
</g>
<path style="fill:#8EC155;" d="M256.5,336C174.617,336,108,269.383,108,187.5S174.617,39,256.5,39S405,105.617,405,187.5
	S338.383,336,256.5,336z"/>
<path style="fill:#8BF2E6;" d="M109.563,200.312L108.931,193H88.412c0.748,23.142,6.193,45.115,15.411,65h1.677
	c4.959,0,9.61-2.2,12.737-6.012l3.755-3.766l-2.019-4.92C114.345,229.587,110.843,215.123,109.563,200.312z"/>
<path style="fill:#84AB4F;" d="M295.214,297.286c-81.883,0-148.5-66.617-148.5-148.5c0-31.071,9.599-59.939,25.978-83.809
	C133.657,91.762,108,136.688,108,187.5c0,81.883,66.617,148.5,148.5,148.5c50.812,0,95.738-25.658,122.522-64.691
	C355.153,287.687,326.285,297.286,295.214,297.286z"/>
<g>
	<path style="fill:#C3FFF9;" d="M386,205c-9.374,0-17-7.626-17-17c0-7.357,4.698-13.639,11.252-16H344c-9.374,0-17-7.626-17-17
		s7.626-17,17-17h83c9.374,0,17,7.626,17,17c0,7.357-4.698,13.639-11.252,16H469c9.374,0,17,7.626,17,17s-7.626,17-17,17H386z"/>
	<path style="fill:#C3FFF9;" d="M111.417,138.5c-7.857,0-14.25-6.393-14.25-14.25c0-6.006,3.735-11.156,9.005-13.25H76.417
		c-7.857,0-14.25-6.393-14.25-14.25S68.56,82.5,76.417,82.5h69.167c7.857,0,14.25,6.393,14.25,14.25
		c0,6.006-3.735,11.156-9.005,13.25h29.755c7.857,0,14.25,6.393,14.25,14.25s-6.393,14.25-14.25,14.25H111.417z"/>
</g>
<g>
	<path style="fill:#8BF2E6;" d="M406.554,188c0-7.357,4.698-13.639,11.252-16h-36.252c-9.374,0-17-7.626-17-17s7.626-17,17-17H344
		c-9.374,0-17,7.626-17,17s7.626,17,17,17h36.252c-6.554,2.361-11.252,8.643-11.252,16c0,9.374,7.626,17,17,17h37.554
		C414.18,205,406.554,197.374,406.554,188z"/>
	<path style="fill:#8BF2E6;" d="M134.72,124.25c0-6.006,3.735-11.156,9.005-13.25H113.97c-7.857,0-14.25-6.393-14.25-14.25
		s6.393-14.25,14.25-14.25H76.417c-7.857,0-14.25,6.393-14.25,14.25S68.559,111,76.417,111h29.755
		c-5.27,2.094-9.005,7.244-9.005,13.25c0,7.857,6.393,14.25,14.25,14.25h37.554C141.113,138.5,134.72,132.107,134.72,124.25z"/>
</g>
<path style="fill:#A88D68;" d="M238.875,460.198l0.627-184.096c0.005-1.359-0.47-2.677-1.34-3.721l-43.414-52.093
	c-3.505-4.205-3.882-11.1-0.839-15.37l7.667-10.758c2.227-3.125,6.823-3.254,9.222-0.259l20.814,25.987
	c3.394,4.237,10.228,1.884,10.294-3.544l0.081-6.634c0.039-3.167,1.139-6.148,3.018-8.178l0.659-0.711
	c1.094-1.182,2.632-1.853,4.242-1.853h13.189c1.613,0,3.154,0.674,4.248,1.86l0.659,0.714c1.873,2.028,2.969,5.005,3.007,8.166
	l0.44,36.988c0.064,5.389,6.816,7.767,10.243,3.609l19.082-23.151c2.396-2.907,6.889-2.783,9.12,0.253l7.379,10.038
	c2.968,4.038,2.611,10.56-0.794,14.539l-42.066,49.104c-0.906,1.057-1.4,2.406-1.391,3.799l0.991,155.297
	c0.02,3.208-2.574,5.819-5.782,5.819h-23.574C241.456,466,238.864,463.399,238.875,460.198z"/>
<path style="fill:#C3FFF9;" d="M32,359c-8.271,0-15-6.729-15-15s6.729-15,15-15h61c8.271,0,15,6.729,15,15s-6.729,15-15,15H32z"/>
<g>
	<path style="fill:#8BF2E6;" d="M379.746,400.75c0-5.763,3.563-10.708,8.602-12.75h-28.579c-7.582,0-13.75-6.168-13.75-13.75
		s6.168-13.75,13.75-13.75h-42.458c-7.582,0-13.75,6.168-13.75,13.75s6.168,13.75,13.75,13.75h28.579
		c-5.038,2.042-8.602,6.987-8.602,12.75c0,7.582,6.168,13.75,13.75,13.75h42.458C385.914,414.5,379.746,408.332,379.746,400.75z"/>
	<path style="fill:#8BF2E6;" d="M59.458,344c0-8.271,6.729-15,15-15H32c-8.271,0-15,6.729-15,15s6.729,15,15,15h42.458
		C66.187,359,59.458,352.271,59.458,344z"/>
</g>
<g>
	<path style="fill:#C3FFF9;" d="M148,359c-8.271,0-15-6.729-15-15s6.729-15,15-15h5c8.271,0,15,6.729,15,15s-6.729,15-15,15H148z"/>
	<path style="fill:#C3FFF9;" d="M474,415c-7.72,0-14-6.28-14-14s6.28-14,14-14h6c7.72,0,14,6.28,14,14s-6.28,14-14,14H474z"/>
</g>
<g>
	<path style="fill:#8BF2E6;" d="M154.183,344c0-5.291,2.76-9.939,6.909-12.611C158.754,329.884,155.981,329,153,329h-5
		c-8.271,0-15,6.729-15,15s6.729,15,15,15h5c2.981,0,5.754-0.884,8.091-2.389C156.943,353.939,154.183,349.291,154.183,344z"/>
	<path style="fill:#8BF2E6;" d="M481.183,401c0-4.921,2.558-9.249,6.409-11.746c-2.19-1.42-4.793-2.254-7.591-2.254h-6
		c-7.72,0-14,6.28-14,14s6.28,14,14,14h6c2.798,0,5.402-0.834,7.591-2.254C483.741,410.249,481.183,405.921,481.183,401z"/>
</g>
<path style="fill:#916F47;" d="M256.5,198.968h-6.595c-1.61,0-3.148,0.672-4.242,1.853l-0.659,0.711
	c-1.879,2.029-2.979,5.011-3.018,8.178l-0.081,6.634c-0.066,5.428-6.901,7.781-10.294,3.544L210.797,193.9
	c-2.398-2.995-6.995-2.865-9.222,0.259l-7.667,10.758c-3.043,4.271-2.667,11.165,0.839,15.37l43.414,52.093
	c0.87,1.044,1.345,2.362,1.34,3.721l-0.627,184.096c-0.011,3.201,2.581,5.802,5.782,5.802H256.5V198.968z"/>
<path style="fill:#A88D68;" d="M504.5,473H7.5c-4.142,0-7.5-3.357-7.5-7.5s3.358-7.5,7.5-7.5h497c4.143,0,7.5,3.357,7.5,7.5
	S508.643,473,504.5,473z"/>
<g>
</g>
<g>
</g>
<g>
</g>
<g>
</g>
<g>
</g>
<g>
</g>
<g>
</g>
<g>
</g>
<g>
</g>
<g>
</g>
<g>
</g>
<g>
</g>
<g>
</g>
<g>
</g>
<g>
</g>
</svg>
