<?xml version="1.0" encoding="iso-8859-1"?>
<!-- Generator: Adobe Illustrator 19.0.0, SVG Export Plug-In . SVG Version: 6.00 Build 0)  -->
<svg version="1.1" id="Capa_1" xmlns="http://www.w3.org/2000/svg" xmlns:xlink="http://www.w3.org/1999/xlink" x="0px" y="0px"
	 viewBox="0 0 512 512" style="enable-background:new 0 0 512 512;" xml:space="preserve">
<polygon style="fill:#D4D8D7;" points="363.9,153.47 159.583,352.403 339.192,505.055 405.108,505.055 512,505.055 512,377.669 
	512,304.488 "/>
<g>
	<path style="fill:#8EC155;" d="M208.422,62.853c-4.363,0-8.599-1.208-12.248-3.493c-5.509-3.449-9.244-8.996-10.516-15.615
		c-1.27-6.606,0.064-13.493,3.757-19.394c5.247-8.38,22.478-14.306,32.282-17.094h0.001c4.62-1.313,9.362,1.656,10.198,6.386v0.001
		c1.774,10.037,3.968,28.128-1.279,36.506c-3.695,5.899-9.307,10.108-15.805,11.85C212.702,62.567,210.552,62.853,208.422,62.853z"
		/>
	<path style="fill:#8EC155;" d="M90.986,102.462c-3.387,0-6.88-0.131-10.381-0.388l0,0c-4.79-0.352-8.226-4.768-7.388-9.498v-0.001
		c1.778-10.036,5.926-27.781,13.728-33.85c4.814-3.745,10.72-5.81,16.629-5.81c0.758,0,1.524,0.033,2.279,0.1
		c6.721,0.596,12.617,3.748,16.607,8.88c4.081,5.245,5.662,11.876,4.452,18.672c-1.155,6.482-4.748,12.352-10.116,16.53
		C115.089,98.422,109.894,102.462,90.986,102.462C90.986,102.462,90.988,102.462,90.986,102.462z"/>
</g>
<polygon style="fill:#FF7A66;" points="143.713,358.644 96.581,246.413 142.613,133.729 254.845,86.598 367.531,132.631 
	414.663,244.862 368.63,357.547 256.398,404.678 "/>
<path style="fill:#F45C4D;" d="M367.531,132.631l-47.544-19.423l3.205,7.633c15.089,35.93,15.286,76.382,0.549,112.459l0,0
	c-14.737,36.075-43.201,64.818-79.131,79.907l-0.002,0.001c-35.929,15.089-76.381,15.285-112.457,0.549l-8.799-3.594l20.36,48.483
	l112.686,46.034l112.231-47.131l46.033-112.685L367.531,132.631z"/>
<g>
	<path style="fill:#F95948;" d="M238.061,229.387l-95.508-95.508L96.581,246.413l0.098,0.234l133.784,1.013l1.534-6.211
		c0.579-2.344,1.505-4.572,2.752-6.621L238.061,229.387z"/>
	<path style="fill:#F95948;" d="M242.741,267.493l-5.386-3.295l-94.487,92.434l0.845,2.013l72.921,29.788l38.989,15.927V271.799
		l-6.175-1.515C247.072,269.7,244.815,268.762,242.741,267.493z"/>
</g>
<path style="fill:#E03A32;" d="M255.621,404.359v-96.334c-3.586,1.869-7.256,3.604-11.012,5.181l-0.002,0.001
	c-21.855,9.178-45.383,12.835-68.581,10.984l-33.16,32.439l0.845,2.013l87.757,35.849L255.621,404.359z"/>
<path style="fill:#F95948;" d="M414.663,244.862l-0.101-0.242l-134.827,2.027l-1.476,6.106c-0.57,2.356-1.49,4.596-2.734,6.657
	l-3.337,5.527l95.922,92.829l0.522-0.219L414.663,244.862z"/>
<path style="fill:#E03A32;" d="M414.56,244.619l-96.773,1.455c-7.158,13.626-16.378,25.961-27.256,36.617l77.576,75.074l0.522-0.219
	l46.033-112.685L414.56,244.619z"/>
<path style="fill:#F95948;" d="M367.531,132.631L254.845,86.598l-0.236,0.099v135.82l6.175,1.515
	c2.36,0.579,4.602,1.508,6.661,2.761l5.442,3.311l95.481-95.481L367.531,132.631z"/>
<path style="fill:#E03A32;" d="M323.192,120.842c6.44,15.335,10.158,31.495,11.169,47.787l34.006-34.006l-0.836-1.99l-47.544-19.423
	L323.192,120.842z"/>
<path style="fill:#EFE162;" d="M255.115,271.984c-13.689,0-24.827-11.137-24.827-24.827c0-13.69,11.138-24.827,24.827-24.827
	c13.689,0,24.827,11.137,24.827,24.827C279.942,260.847,268.805,271.984,255.115,271.984z"/>
<path style="fill:#F2C300;" d="M268.033,259.067c-13.689,0-24.827-11.137-24.827-24.827c0-3.503,0.734-6.837,2.048-9.862
	c-8.797,3.823-14.965,12.593-14.965,22.779c0,13.69,11.138,24.827,24.827,24.827c10.187,0,18.957-6.169,22.779-14.966
	C274.87,258.333,271.536,259.067,268.033,259.067z"/>
<g>
	<path style="fill:#8EC155;" d="M443.818,197.671c-6.071-8.4-13.144-20.061-12.364-27.916c0.599-6.017,3.344-11.459,7.729-15.322
		c3.832-3.376,8.65-5.236,13.567-5.236c0.656,0,1.317,0.032,1.966,0.097c5.624,0.561,10.673,3.437,14.217,8.1
		c3.538,4.651,5.156,10.527,4.557,16.544c-0.833,8.378-11.394,19.228-17.614,24.95l-0.001,0.001
		C452.304,202.175,446.662,201.607,443.818,197.671L443.818,197.671z"/>
	<path style="fill:#8EC155;" d="M256.113,481.831c-3.894,0-7.603-1.163-10.725-3.367c-8.777-6.201-10.503-18.9-3.855-28.311
		c4.138-5.856,15.739-9.659,24.743-11.819h0.001c4.76-1.142,9.438,2.164,9.952,7.032l0,0c0.972,9.208,1.263,21.414-2.875,27.269
		c-3.217,4.553-7.895,7.669-13.17,8.773C258.826,481.69,257.46,481.831,256.113,481.831z"/>
	<path style="fill:#8EC155;" d="M426.562,439.513c-5.586,0-11.075-1.644-15.875-4.754c-9.086-5.886-15.132-24.737-17.928-35.449
		v-0.002c-1.203-4.609,1.808-9.256,6.506-10.041h0.001c7.483-1.251,15.023-1.942,21.233-1.942c8.452,0,14.487,1.247,18.449,3.814
		c12.908,8.364,17.07,24.952,9.279,36.976c-4.625,7.138-12.724,11.398-21.661,11.398
		C426.563,439.513,426.562,439.513,426.562,439.513z"/>
	<path style="fill:#8EC155;" d="M23.174,264.743c-8.947,0-17.373-5.528-21.468-14.082c-3.679-7.684-0.718-22.119,2.414-32.876
		v-0.001c1.351-4.638,6.432-7.072,10.893-5.22h0.001c10.336,4.295,23.433,11.033,27.122,18.741
		c2.772,5.788,3.278,12.236,1.428,18.156c-1.853,5.932-5.851,10.625-11.258,13.214C29.445,264.047,26.372,264.743,23.174,264.743
		L23.174,264.743z"/>
	<path style="fill:#8EC155;" d="M71.935,356.011c-6.494-0.001-15.569-6.031-22.039-11.091l0,0c-3.892-3.043-4.18-8.831-0.608-12.245
		l0.001-0.001c8.933-8.539,16.13-13,21.392-13.262c0.346-0.019,0.726-0.028,1.104-0.028c4.809,0,9.434,1.664,13.023,4.685
		c3.887,3.273,6.161,7.77,6.404,12.663c0.501,10.087-7.895,18.73-18.714,19.268c-0.218,0.01-0.387,0.013-0.56,0.013h-0.002V356.011z
		"/>
	<path style="fill:#8EC155;" d="M94.768,465.867c-15.416,0-25.942-2.217-31.283-6.588c-5.725-4.685-9.468-11.165-10.536-18.245
		c-1.115-7.384,0.779-14.516,5.332-20.081c4.803-5.869,12.093-9.235,20.001-9.235c6.675,0,13.28,2.398,18.599,6.752
		c8.521,6.972,12.501,26.737,14.115,37.899l0,0c0.681,4.708-2.82,8.987-7.57,9.254l0,0
		C100.542,465.786,97.629,465.867,94.768,465.867C94.769,465.867,94.769,465.867,94.768,465.867z"/>
	<path style="fill:#8EC155;" d="M478.988,327.337c-4.363,0-8.598-1.207-12.248-3.492c-5.51-3.45-9.245-8.997-10.517-15.616
		c-1.27-6.606,0.064-13.493,3.758-19.394c5.247-8.38,22.478-14.307,32.282-17.094h0.001c4.62-1.313,9.362,1.656,10.198,6.386v0.001
		c1.774,10.037,3.968,28.128-1.279,36.506c-3.695,5.899-9.307,10.108-15.805,11.85C483.268,327.052,481.119,327.337,478.988,327.337
		z"/>
	<path style="fill:#8EC155;" d="M399.053,99.274c-6.291,0-12.492-1.864-17.934-5.389c-10.9-7.062-18.034-31.234-20.595-41.299l0,0
		c-1.165-4.578,1.816-9.178,6.47-9.986l0,0c8.798-1.527,17.721-2.368,25.126-2.368c9.668,0,16.531,1.401,20.982,4.284
		c14.612,9.468,19.324,28.242,10.505,41.851c-4.275,6.601-11.055,11.015-19.087,12.431c-1.795,0.317-3.634,0.477-5.465,0.477
		C399.054,99.274,399.054,99.274,399.053,99.274z"/>
</g>
<g>
	<path style="fill:#84AB4F;" d="M217.342,59.36c-5.509-3.449-9.244-8.996-10.516-15.615c-1.27-6.606,0.064-13.493,3.757-19.394
		c3.461-5.527,12.133-9.986,20.449-13.181c-1.758-3.225-5.587-4.98-9.334-3.914h-0.001c-9.804,2.788-27.035,8.715-32.282,17.094
		c-3.694,5.9-5.028,12.787-3.757,19.394c1.273,6.619,5.007,12.165,10.516,15.615c3.649,2.285,7.885,3.493,12.248,3.493
		c2.13,0,4.279-0.286,6.392-0.852c1.513-0.405,2.974-0.951,4.378-1.613C218.563,60.071,217.942,59.736,217.342,59.36z"/>
	<path style="fill:#84AB4F;" d="M94.385,92.575L94.385,92.575c1.778-10.037,5.926-27.782,13.729-33.851
		c1.84-1.432,3.843-2.613,5.941-3.533c-2.519-1.176-5.283-1.919-8.202-2.178c-0.754-0.066-1.52-0.1-2.279-0.1
		c-5.909,0-11.815,2.064-16.629,5.81c-7.803,6.069-11.949,23.814-13.728,33.85v0.001c-0.838,4.729,2.598,9.147,7.388,9.498l0,0
		c3.502,0.257,6.994,0.388,10.381,0.388c0.001,0,0,0,0.001,0c3.953,0,7.299-0.178,10.147-0.469
		C96.683,101.312,93.585,97.091,94.385,92.575z"/>
	<path style="fill:#84AB4F;" d="M452.623,169.756c0.599-6.017,3.344-11.459,7.729-15.322c0.929-0.819,1.919-1.544,2.952-2.18
		c-2.59-1.62-5.495-2.651-8.587-2.959c-0.649-0.064-1.309-0.097-1.966-0.097c-4.918,0-9.735,1.859-13.567,5.236
		c-4.386,3.864-7.13,9.306-7.729,15.322c-0.781,7.854,6.292,19.516,12.364,27.916l0.001,0.001c2.843,3.934,8.484,4.503,12.057,1.217
		l0.001-0.001c1.736-1.597,3.812-3.602,5.918-5.833C456.706,185.35,451.977,176.253,452.623,169.756z"/>
	<path style="fill:#84AB4F;" d="M266.556,478.464c-8.777-6.201-10.503-18.9-3.855-28.311c2.352-3.328,7.116-5.992,12.441-8.068
		c-1.749-2.949-5.284-4.61-8.866-3.75h-0.001c-9.004,2.159-20.605,5.963-24.743,11.819c-6.65,9.411-4.922,22.11,3.855,28.311
		c3.122,2.204,6.831,3.367,10.725,3.367c1.348,0,2.713-0.142,4.071-0.424c2.396-0.502,4.657-1.436,6.727-2.715
		C266.793,478.616,266.672,478.545,266.556,478.464z"/>
	<path style="fill:#84AB4F;" d="M431.855,434.759c-9.086-5.886-15.132-24.737-17.928-35.449v-0.001
		c-1.203-4.609,1.808-9.256,6.506-10.042h0.001c3.16-0.528,6.323-0.951,9.399-1.269c-2.714-0.442-5.8-0.673-9.334-0.673
		c-6.21,0-13.75,0.69-21.233,1.942h-0.001c-4.697,0.786-7.708,5.434-6.506,10.042v0.001c2.796,10.712,8.844,29.565,17.928,35.449
		c4.8,3.11,10.29,4.754,15.875,4.754h0.001c3.692,0,7.234-0.737,10.454-2.093C435.232,436.707,433.501,435.825,431.855,434.759z"/>
	<path style="fill:#84AB4F;" d="M22.875,250.661c-3.679-7.684-0.718-22.119,2.414-32.876v-0.001
		c0.037-0.128,0.088-0.248,0.131-0.373c-3.485-1.834-7.086-3.467-10.405-4.846h-0.001c-4.461-1.853-9.543,0.582-10.893,5.219v0.001
		c-3.132,10.757-6.093,25.192-2.414,32.876c4.095,8.553,12.521,14.082,21.468,14.082l0,0c3.198,0,6.272-0.696,9.132-2.066
		c0.445-0.213,0.864-0.462,1.29-0.702C29.066,259.535,25.243,255.609,22.875,250.661z"/>
	<path style="fill:#84AB4F;" d="M71.065,344.92L71.065,344.92c-3.892-3.043-4.18-8.831-0.609-12.245l0.001-0.001
		c4.639-4.434,8.805-7.758,12.48-9.976c-3.262-2.14-7.139-3.314-11.153-3.314c-0.378,0-0.758,0.01-1.104,0.028
		c-5.262,0.261-12.459,4.723-21.392,13.262l-0.001,0.001c-3.571,3.414-3.284,9.202,0.608,12.244l0,0
		c6.47,5.06,15.546,11.09,22.039,11.091h0.001c0.173,0,0.343-0.003,0.56-0.013c3.803-0.189,7.294-1.395,10.217-3.297
		C78.614,350.519,74.478,347.588,71.065,344.92z"/>
	<path style="fill:#84AB4F;" d="M84.654,459.28c-5.725-4.685-9.468-11.165-10.536-18.245c-1.115-7.384,0.779-14.516,5.332-20.081
		c2.565-3.134,5.843-5.546,9.542-7.121c-3.418-1.369-7.049-2.114-10.709-2.114c-7.908,0-15.198,3.365-20.001,9.235
		c-4.554,5.564-6.447,12.696-5.332,20.081c1.069,7.08,4.811,13.561,10.536,18.245c5.341,4.371,15.867,6.588,31.283,6.588
		c0,0,0,0,0.001,0c2.86,0,5.773-0.081,8.658-0.243l0,0c0.488-0.027,0.96-0.106,1.419-0.215
		C95.373,464.554,88.597,462.506,84.654,459.28z"/>
	<path style="fill:#84AB4F;" d="M487.908,323.845c-5.51-3.45-9.245-8.997-10.517-15.616c-1.27-6.606,0.064-13.493,3.758-19.394
		c3.461-5.527,12.133-9.986,20.449-13.181c-1.758-3.225-5.587-4.98-9.335-3.914h-0.001c-9.804,2.788-27.035,8.715-32.282,17.094
		c-3.694,5.9-5.028,12.787-3.758,19.394c1.273,6.619,5.007,12.165,10.517,15.616c3.65,2.285,7.886,3.492,12.248,3.492
		c2.131,0,4.279-0.286,6.391-0.852c1.513-0.405,2.974-0.951,4.378-1.613C489.128,324.556,488.508,324.22,487.908,323.845z"/>
	<path style="fill:#84AB4F;" d="M402.288,93.884c-10.9-7.062-18.034-31.234-20.595-41.299l0,0c-1.165-4.578,1.816-9.179,6.47-9.986
		c4.548-0.789,9.125-1.391,13.513-1.793c-2.819-0.384-5.996-0.576-9.555-0.576c-7.406,0-16.328,0.841-25.126,2.368
		c-4.654,0.808-7.635,5.407-6.47,9.986l0,0c2.562,10.066,9.696,34.237,20.595,41.299c5.443,3.525,11.643,5.389,17.934,5.389h0.001
		c1.831,0,3.67-0.16,5.465-0.477c1.754-0.309,3.443-0.769,5.064-1.355C407.05,96.559,404.598,95.381,402.288,93.884z"/>
</g>
<g>
</g>
<g>
</g>
<g>
</g>
<g>
</g>
<g>
</g>
<g>
</g>
<g>
</g>
<g>
</g>
<g>
</g>
<g>
</g>
<g>
</g>
<g>
</g>
<g>
</g>
<g>
</g>
<g>
</g>
</svg>
