<?xml version="1.0" encoding="iso-8859-1"?>
<!-- Generator: Adobe Illustrator 19.0.0, SVG Export Plug-In . SVG Version: 6.00 Build 0)  -->
<svg version="1.1" id="Capa_1" xmlns="http://www.w3.org/2000/svg" xmlns:xlink="http://www.w3.org/1999/xlink" x="0px" y="0px"
	 viewBox="0 0 512 512" style="enable-background:new 0 0 512 512;" xml:space="preserve">
<g>
	<path style="fill:#FFE44C;" d="M45.252,31.96c-1.314-1.76-2.873-3.32-4.635-4.636l-9.098-6.791l9.098-6.791
		c1.763-1.316,3.323-2.877,4.635-4.636L52.045,0l6.794,9.104c1.314,1.76,2.873,3.32,4.635,4.636l9.098,6.791l-9.098,6.791
		c-1.763,1.316-3.323,2.877-4.635,4.636l-6.794,9.104L45.252,31.96z"/>
	<path style="fill:#FFE44C;" d="M453.161,255.516c-1.314-1.76-2.873-3.32-4.635-4.636l-9.098-6.791l9.098-6.791
		c1.763-1.316,3.323-2.877,4.635-4.636l6.794-9.104l6.794,9.104c1.314,1.76,2.873,3.32,4.635,4.636l9.098,6.791l-9.098,6.791
		c-1.763,1.316-3.323,2.877-4.635,4.636l-6.794,9.104L453.161,255.516z"/>
</g>
<path style="fill:#966D3C;" d="M249.792,364.699c-4.388,0-7.946-3.557-7.946-7.946V205.511c0-4.39,3.558-7.946,7.946-7.946
	s7.946,3.557,7.946,7.946v151.241C257.739,361.141,254.181,364.699,249.792,364.699z"/>
<path style="fill:#C3FFF9;" d="M337.052,353.747c-6.718,0-12.184-5.466-12.184-12.184v-9.536c0-6.718,5.466-12.184,12.184-12.184
	s12.184,5.466,12.184,12.184v9.536C349.237,348.281,343.771,353.747,337.052,353.747z"/>
<path style="fill:#5EDDCB;" d="M337.052,341.563v-9.536c0-4.498,2.457-8.425,6.092-10.536c-1.795-1.041-3.871-1.649-6.092-1.649
	c-6.718,0-12.184,5.466-12.184,12.184v9.536c0,6.718,5.466,12.184,12.184,12.184c2.221,0,4.297-0.607,6.092-1.649
	C339.509,349.988,337.052,346.06,337.052,341.563z"/>
<path style="fill:#8EC155;" d="M346.323,100.677c-53.605,0-97.06,43.456-97.06,97.06V239.4c0,4.618,3.744,8.362,8.362,8.362h41.663
	c6.684,0,13.351-0.687,19.895-2.049l6.745-1.405l42.484-25.423c18.015-18.181,27.937-42.396,27.937-68.183v-41.544
	c0-4.683-3.796-8.479-8.479-8.479H346.323z"/>
<path style="fill:#84AB4F;" d="M287.315,239.401v-41.662c0-53.606,43.456-97.06,97.06-97.06h-38.053
	c-53.605,0-97.06,43.456-97.06,97.06v41.662c0,4.618,3.744,8.363,8.362,8.363h38.053
	C291.059,247.763,287.315,244.019,287.315,239.401z"/>
<path style="fill:#C3FFF9;" d="M337.582,295.474c-7.011,0-12.714-5.703-12.714-12.714v-72.115l25.428-2.939v75.054
	C350.296,289.771,344.593,295.474,337.582,295.474z"/>
<path style="fill:#5EDDCB;" d="M324.92,210.638c-0.03,0.003-0.051,0.029-0.051,0.057v17.66v54.015
	c0,6.595,4.86,12.386,11.423,13.038c3.119,0.31,6.037-0.519,8.396-2.115c0.034-0.023,0.034-0.073,0-0.096
	c-3.302-2.299-5.47-6.119-5.47-10.438v-44.232c0-4.691,3.277-8.687,7.844-9.762c1.087-0.255,2.153-0.551,3.195-0.884
	c0.024-0.007,0.041-0.031,0.041-0.056v-18.461v-1.592c0-0.035-0.031-0.061-0.065-0.057L324.92,210.638z"/>
<path style="fill:#C3FFF9;" d="M336.764,218.13c-12.277,0-22.264-8.08-22.264-18.012c0-9.932,9.988-18.012,22.264-18.012
	c12.276,0,22.264,8.08,22.264,18.012C359.029,210.05,349.041,218.13,336.764,218.13z"/>
<path style="fill:#8BF2E6;" d="M333.968,200.118c0-7.106,5.125-13.245,12.53-16.174c-2.945-1.165-6.241-1.837-9.735-1.837
	c-12.277,0-22.264,8.08-22.264,18.012c0,9.932,9.988,18.012,22.264,18.012c3.493,0,6.789-0.673,9.735-1.837
	C339.093,213.363,333.968,207.224,333.968,200.118z"/>
<path style="fill:#8EC155;" d="M221.432,226.033c-65.277,0-118.195-52.918-118.195-118.195v-20.41c0-4.683,3.796-8.479,8.479-8.479
	h20.41c65.277,0,118.195,52.918,118.195,118.195v28.891h-28.89V226.033z"/>
<path style="fill:#84AB4F;" d="M148.6,107.838v-20.41c0-2.79,1.353-5.256,3.432-6.802c-6.473-1.098-13.12-1.677-19.905-1.677h-20.41
	c-4.683,0-8.479,3.796-8.479,8.479v20.41c0,65.277,52.918,118.195,118.195,118.195h28.891v-1.149
	C192.844,216.868,148.6,167.524,148.6,107.838z"/>
<path style="fill:#A88D68;" d="M248.054,512c-20.084,0-39.118-5.589-53.639-15.743c-6.905,3.525-14.325,5.313-22.055,5.313
	c-9.47,0-18.678-2.761-26.665-7.991c-6.699,9.913-17.612,15.814-29.297,15.814c-19.711,0-35.747-16.615-35.747-37.036
	c0-20.421,16.036-37.036,35.747-37.036c2.571,0,5.158,0.292,7.694,0.872c5.883-22.547,25.659-38.248,48.268-38.248
	c0.229,0,0.458,0.006,0.686,0.015l0.092,0.003c9.299-24.594,40.032-41.74,74.916-41.74s65.615,17.145,74.916,41.74l0.084-0.002
	c0.237-0.01,0.465-0.016,0.694-0.016c22.609,0,42.383,15.7,48.268,38.247c2.526-0.576,5.117-0.871,7.694-0.871
	c19.711,0,35.747,16.615,35.747,37.036c0,20.421-16.036,37.036-35.747,37.036c-11.685,0-22.598-5.9-29.297-15.814
	c-7.985,5.23-17.194,7.991-26.665,7.991c-7.73,0-15.149-1.788-22.055-5.313C287.173,506.411,268.139,512,248.054,512z"/>
<path style="fill:#916F47;" d="M152.339,472.356c0-20.421,16.036-37.036,35.747-37.036c2.571,0,5.158,0.292,7.694,0.872
	c5.883-22.547,25.659-38.248,48.268-38.248c0.229,0,0.458,0.006,0.686,0.015l0.092,0.003c5.89-15.575,20.381-28.155,39.071-35.293
	c-10.824-4.133-23.052-6.447-35.844-6.447c-34.882,0-65.615,17.146-74.916,41.74l-0.092-0.003c-0.228-0.008-0.457-0.015-0.686-0.015
	c-22.609,0-42.383,15.7-48.268,38.248c-2.538-0.58-5.123-0.872-7.694-0.872c-19.711,0-35.747,16.615-35.747,37.036
	c0,20.421,16.036,37.036,35.747,37.036c11.685,0,22.598-5.9,29.297-15.814c6.057,3.967,12.819,6.51,19.864,7.508
	C157.5,494.29,152.339,483.938,152.339,472.356z"/>
<g>
</g>
<g>
</g>
<g>
</g>
<g>
</g>
<g>
</g>
<g>
</g>
<g>
</g>
<g>
</g>
<g>
</g>
<g>
</g>
<g>
</g>
<g>
</g>
<g>
</g>
<g>
</g>
<g>
</g>
</svg>
