<?xml version="1.0" encoding="iso-8859-1"?>
<!-- Generator: Adobe Illustrator 19.0.0, SVG Export Plug-In . SVG Version: 6.00 Build 0)  -->
<svg version="1.1" id="Capa_1" xmlns="http://www.w3.org/2000/svg" xmlns:xlink="http://www.w3.org/1999/xlink" x="0px" y="0px"
	 viewBox="0 0 512 512" style="enable-background:new 0 0 512 512;" xml:space="preserve">
<path style="fill:#8BF2E6;" d="M350.5,139.25c-8.271,0-15-7.45-15-16.608c0-1.554,0-6.281,8.839-16.95l3.755-4.533
	c1.247-1.505,3.556-1.506,4.804-0.002l3.758,4.531c8.844,10.661,8.844,15.397,8.844,16.954C365.5,131.8,358.771,139.25,350.5,139.25
	z"/>
<path style="fill:#C3FFF9;" d="M136.5,437.25c-35.797,0-64.919-29.122-64.919-64.919c0-26.996,16.945-51.397,42.206-60.832V90.963
	c0-12.524,10.188-22.713,22.713-22.713s22.713,10.188,22.713,22.713v220.536c25.259,9.436,42.206,33.837,42.206,60.832
	C201.419,408.128,172.297,437.25,136.5,437.25z"/>
<path style="fill:#8BF2E6;" d="M113.787,90.963v220.536c-25.261,9.435-42.206,33.836-42.206,60.832
	c0,35.797,29.122,64.919,64.919,64.919v-369C123.976,68.25,113.787,78.438,113.787,90.963z"/>
<path style="fill:#77D8B1;" d="M136.5,437.25c-35.797,0-64.919-29.122-64.919-64.919c0-26.996,16.945-51.397,42.206-60.832V170.434
	l9.833,2.314c5.591,1.315,9.433,3.737,13.147,6.079c4.219,2.659,8.583,5.409,15.633,6.468l6.813,1.022v125.182
	c25.259,9.436,42.206,33.837,42.206,60.832C201.419,408.128,172.297,437.25,136.5,437.25z"/>
<path style="fill:#53BC8F;" d="M123.62,172.748l-9.833-2.314v141.065c-25.261,9.435-42.206,33.836-42.206,60.832
	c0,35.797,29.122,64.919,64.919,64.919V178.659C132.867,176.37,129.078,174.032,123.62,172.748z"/>
<g>
	<path style="fill:#C3FFF9;" d="M136.5,395.75c-14.061,0-25.5-11.439-25.5-25.5s11.439-25.5,25.5-25.5s25.5,11.439,25.5,25.5
		S150.561,395.75,136.5,395.75z"/>
	<path style="fill:#C3FFF9;" d="M199,123.017h-15.5c-4.143,0-7.5-3.357-7.5-7.5s3.357-7.5,7.5-7.5H199c4.143,0,7.5,3.357,7.5,7.5
		S203.143,123.017,199,123.017z"/>
	<path style="fill:#C3FFF9;" d="M199,171.017h-15.5c-4.143,0-7.5-3.357-7.5-7.5s3.357-7.5,7.5-7.5H199c4.143,0,7.5,3.357,7.5,7.5
		S203.143,171.017,199,171.017z"/>
</g>
<path style="fill:#9CE8C9;" d="M199,219.017h-15.5c-4.143,0-7.5-3.357-7.5-7.5s3.357-7.5,7.5-7.5H199c4.143,0,7.5,3.357,7.5,7.5
	S203.143,219.017,199,219.017z"/>
<g>
	<path style="fill:#77D8B1;" d="M199,267.017h-15.5c-4.143,0-7.5-3.357-7.5-7.5s3.357-7.5,7.5-7.5H199c4.143,0,7.5,3.357,7.5,7.5
		S203.143,267.017,199,267.017z"/>
	<path style="fill:#77D8B1;" d="M504.5,443.75H7.5c-4.143,0-7.5-3.357-7.5-7.5s3.357-7.5,7.5-7.5h497c4.143,0,7.5,3.357,7.5,7.5
		S508.643,443.75,504.5,443.75z"/>
</g>
<g>
	<path style="fill:#8BF2E6;" d="M274.5,333.25c-8.271,0-15-7.45-15-16.608c0-1.554,0-6.281,8.839-16.95l3.755-4.533
		c1.247-1.505,3.556-1.506,4.804-0.002l3.758,4.531c8.844,10.661,8.844,15.397,8.844,16.954
		C289.5,325.8,282.771,333.25,274.5,333.25z"/>
	<path style="fill:#8BF2E6;" d="M350.5,333.25c-8.271,0-15-7.45-15-16.608c0-1.554,0-6.281,8.839-16.95l3.755-4.533
		c1.247-1.505,3.556-1.506,4.804-0.002l3.758,4.531c8.844,10.661,8.844,15.397,8.844,16.954
		C365.5,325.8,358.771,333.25,350.5,333.25z"/>
	<path style="fill:#8BF2E6;" d="M424.5,333.25c-8.271,0-15-7.45-15-16.608c0-1.554,0-6.281,8.839-16.95l3.755-4.533
		c1.247-1.505,3.556-1.506,4.804-0.002l3.758,4.531c8.844,10.661,8.844,15.397,8.844,16.954
		C439.5,325.8,432.771,333.25,424.5,333.25z"/>
	<path style="fill:#8BF2E6;" d="M387.5,233.25c-8.271,0-15-7.45-15-16.608c0-1.554,0-6.281,8.839-16.95l3.755-4.533
		c1.247-1.505,3.556-1.506,4.804-0.002l3.758,4.531c8.844,10.661,8.844,15.397,8.844,16.954
		C402.5,225.8,395.771,233.25,387.5,233.25z"/>
	<path style="fill:#8BF2E6;" d="M312.5,233.25c-8.271,0-15-7.45-15-16.608c0-1.554,0-6.281,8.839-16.95l3.755-4.533
		c1.247-1.505,3.556-1.506,4.804-0.002l3.758,4.531c8.844,10.661,8.844,15.397,8.844,16.954
		C327.5,225.8,320.771,233.25,312.5,233.25z"/>
</g>
<g>
	<path style="fill:#77D8B1;" d="M351.5,122.642c0-1.437,0.016-5.597,7-14.646c-0.572-0.74-1.175-1.502-1.844-2.309l-3.758-4.531
		c-1.248-1.505-3.557-1.504-4.804,0.002l-3.755,4.533c-8.839,10.669-8.839,15.396-8.839,16.95c0,9.158,6.729,16.608,15,16.608
		c2.943,0,5.681-0.957,8-2.584C354.301,133.719,351.5,128.542,351.5,122.642z"/>
	<path style="fill:#77D8B1;" d="M275.5,316.642c0-1.437,0.016-5.597,7-14.646c-0.572-0.74-1.175-1.502-1.844-2.309l-3.758-4.531
		c-1.248-1.505-3.557-1.504-4.804,0.002l-3.755,4.533c-8.839,10.669-8.839,15.396-8.839,16.95c0,9.158,6.729,16.608,15,16.608
		c2.943,0,5.681-0.957,8-2.584C278.301,327.719,275.5,322.542,275.5,316.642z"/>
	<path style="fill:#77D8B1;" d="M351.5,316.642c0-1.437,0.016-5.597,7-14.646c-0.572-0.74-1.175-1.502-1.844-2.309l-3.758-4.531
		c-1.248-1.505-3.557-1.504-4.804,0.002l-3.755,4.533c-8.839,10.669-8.839,15.396-8.839,16.95c0,9.158,6.729,16.608,15,16.608
		c2.943,0,5.681-0.957,8-2.584C354.301,327.719,351.5,322.542,351.5,316.642z"/>
	<path style="fill:#77D8B1;" d="M425.5,316.642c0-1.437,0.016-5.597,7-14.646c-0.572-0.74-1.175-1.502-1.844-2.309l-3.758-4.531
		c-1.248-1.505-3.557-1.504-4.804,0.002l-3.755,4.533c-8.839,10.669-8.839,15.396-8.839,16.95c0,9.158,6.729,16.608,15,16.608
		c2.943,0,5.681-0.957,8-2.584C428.301,327.719,425.5,322.542,425.5,316.642z"/>
	<path style="fill:#77D8B1;" d="M388.5,216.642c0-1.437,0.016-5.597,7-14.646c-0.572-0.74-1.175-1.502-1.844-2.309l-3.758-4.531
		c-1.248-1.505-3.557-1.504-4.804,0.002l-3.755,4.533c-8.839,10.669-8.839,15.396-8.839,16.95c0,9.158,6.729,16.608,15,16.608
		c2.943,0,5.681-0.957,8-2.584C391.301,227.719,388.5,222.542,388.5,216.642z"/>
	<path style="fill:#77D8B1;" d="M313.5,216.642c0-1.437,0.016-5.597,7-14.646c-0.572-0.74-1.175-1.502-1.844-2.309l-3.758-4.531
		c-1.248-1.505-3.557-1.504-4.804,0.002l-3.755,4.533c-8.839,10.669-8.839,15.396-8.839,16.95c0,9.158,6.729,16.608,15,16.608
		c2.943,0,5.681-0.957,8-2.584C316.301,227.719,313.5,222.542,313.5,216.642z"/>
</g>
<g>
</g>
<g>
</g>
<g>
</g>
<g>
</g>
<g>
</g>
<g>
</g>
<g>
</g>
<g>
</g>
<g>
</g>
<g>
</g>
<g>
</g>
<g>
</g>
<g>
</g>
<g>
</g>
<g>
</g>
</svg>
