<?xml version="1.0" encoding="iso-8859-1"?>
<!-- Generator: Adobe Illustrator 19.0.0, SVG Export Plug-In . SVG Version: 6.00 Build 0)  -->
<svg version="1.1" id="Capa_1" xmlns="http://www.w3.org/2000/svg" xmlns:xlink="http://www.w3.org/1999/xlink" x="0px" y="0px"
	 viewBox="0 0 512 512" style="enable-background:new 0 0 512 512;" xml:space="preserve">
<path style="fill:#C5C5C4;" d="M17.507,225.064C7.854,225.064,0,218.074,0,209.483v-3.96c0-24.949,22.862-45.246,50.964-45.246
	H90.39l-0.629,8.812c-0.148,2.065-0.222,4.117-0.222,6.099c0,13.33,3.038,26.093,9.03,37.935l6.044,11.941H17.507z"/>
<g>
	<path style="fill:#F95948;" d="M17.507,225.064C7.854,225.064,0,218.074,0,209.483v-9.1h93.194l2.039,5.246
		c1.01,2.599,2.132,5.12,3.333,7.492l6.049,11.943H17.507z"/>
	<path style="fill:#F95948;" d="M319.398,161.305l40.377-26.851l28.399-61.879c1.546-3.368,4.902-5.537,8.608-5.561l29.611-0.196
		c5.262-0.035,9.56,4.198,9.604,9.46l0.719,85.028H319.398z"/>
</g>
<path style="fill:#EFE162;" d="M403.121,135.596c-7.089,0-12.855-5.766-12.855-12.855s5.766-12.855,12.855-12.855
	s12.855,5.766,12.855,12.855S410.21,135.596,403.121,135.596z"/>
<path style="fill:#C5C5C4;" d="M453.05,160.277h-130.83l4.558,11.303c2.847,7.059,4.289,14.494,4.289,22.099
	c0,6.634-1.109,13.18-3.296,19.455l-5.069,14.544l67.572-17.559l67.397-13.32l4.939-8.602c0.775-1.35,1.185-2.863,1.185-4.376
	v-13.956C463.795,164.577,458.975,160.277,453.05,160.277z"/>
<path style="fill:#C3FFF9;" d="M486.228,255.915H426.26c-20.768,0-37.664-16.896-37.664-37.664s16.896-37.664,37.664-37.664
	c19.178,0,35,14.047,37.358,32.902c5.032-6.945,13.021-11.049,21.645-11.049c14.744,0,26.738,11.994,26.738,26.738
	c0,13.803-10.766,25.504-24.51,26.638l-0.655,0.107L486.228,255.915z"/>
<g>
	<path style="fill:#8BF2E6;" d="M433.824,218.251c0-12.32,5.946-23.276,15.118-30.152c-6.309-4.735-14.163-7.512-22.683-7.512
		c-20.768,0-37.664,16.896-37.664,37.664s16.896,37.664,37.664,37.664h45.229C450.72,255.915,433.824,239.02,433.824,218.251z"/>
	<polygon style="fill:#8BF2E6;" points="486.228,255.915 486.835,255.922 486.878,255.915 	"/>
</g>
<path style="fill:#AFF2D8;" d="M173.864,260.543c-47.065,0-85.355-38.289-85.355-85.355s38.289-85.355,85.355-85.355
	c32.684,0,61.944,18.163,76.478,47.438c6.864-2.608,14.066-3.929,21.415-3.929c33.271,0,60.338,27.067,60.338,60.338
	s-27.067,60.339-60.338,60.339c-12.185,0-23.933-3.625-33.978-10.485l-7.224-4.934l-0.466,0.802l-1.082,0.917
	C213.617,253.361,194.034,260.543,173.864,260.543z"/>
<path style="fill:#87CEB7;" d="M156.863,175.188c0-34.964,21.139-65.067,51.299-78.246c-10.583-4.616-22.205-7.109-34.298-7.109
	c-47.065,0-85.355,38.289-85.355,85.355s38.289,85.355,85.355,85.355c11.836,0,23.461-2.491,34.163-7.17
	C177.939,240.164,156.863,210.099,156.863,175.188z"/>
<g>
	<path style="fill:#8BF2E6;" d="M77.672,350.83c-1.475,0-2.966-0.423-4.283-1.305c-3.54-2.369-4.489-7.16-2.119-10.699
		l20.223-30.216c2.368-3.539,7.158-4.488,10.699-2.119c3.54,2.369,4.489,7.16,2.119,10.699l-20.223,30.216
		C82.601,349.629,80.159,350.83,77.672,350.83z"/>
	<path style="fill:#8BF2E6;" d="M50.374,390.31c-1.476,0-2.966-0.422-4.283-1.305c-3.54-2.369-4.489-7.16-2.119-10.699l11.73-17.524
		c2.369-3.54,7.16-4.49,10.699-2.119c3.54,2.369,4.489,7.16,2.119,10.699l-11.73,17.524C55.303,389.109,52.861,390.31,50.374,390.31
		z"/>
	<path style="fill:#8BF2E6;" d="M105.668,392.807c-1.475,0-2.966-0.422-4.283-1.305c-3.54-2.369-4.489-7.16-2.119-10.699
		l34.783-51.971c2.369-3.539,7.158-4.491,10.699-2.119c3.54,2.369,4.489,7.16,2.119,10.699l-34.783,51.971
		C110.597,391.606,108.156,392.807,105.668,392.807z"/>
	<path style="fill:#8BF2E6;" d="M71.49,445.183c-1.475,0-2.966-0.423-4.283-1.305c-3.54-2.369-4.489-7.16-2.119-10.699
		l16.582-24.777c2.369-3.539,7.158-4.488,10.699-2.119c3.54,2.369,4.489,7.16,2.119,10.699l-16.582,24.777
		C76.419,443.982,73.978,445.183,71.49,445.183z"/>
	<path style="fill:#8BF2E6;" d="M336.571,340.088c-1.475,0-2.966-0.423-4.283-1.305c-3.54-2.369-4.489-7.16-2.119-10.699
		l20.223-30.216c2.369-3.54,7.159-4.488,10.699-2.119c3.54,2.369,4.489,7.16,2.119,10.699l-20.223,30.216
		C341.5,338.887,339.059,340.088,336.571,340.088z"/>
	<path style="fill:#8BF2E6;" d="M309.273,379.568c-1.475,0-2.966-0.423-4.283-1.305c-3.54-2.369-4.489-7.16-2.119-10.699
		l11.729-17.524c2.368-3.54,7.16-4.488,10.699-2.119s4.489,7.16,2.119,10.699l-11.729,17.524
		C314.202,378.366,311.761,379.568,309.273,379.568z"/>
	<path style="fill:#8BF2E6;" d="M373.568,379.468c-1.475,0-2.966-0.422-4.283-1.305c-3.54-2.369-4.489-7.16-2.119-10.699
		l34.783-51.971c2.369-3.539,7.16-4.491,10.699-2.119c3.54,2.369,4.489,7.16,2.12,10.699l-34.783,51.971
		C378.497,378.267,376.056,379.468,373.568,379.468z"/>
	<path style="fill:#8BF2E6;" d="M339.389,431.843c-1.475,0-2.966-0.422-4.283-1.305c-3.54-2.369-4.489-7.16-2.121-10.699
		l16.582-24.778c2.37-3.54,7.16-4.492,10.7-2.119c3.54,2.369,4.489,7.16,2.121,10.699l-16.581,24.779
		C344.318,430.642,341.877,431.843,339.389,431.843z"/>
	<path style="fill:#8BF2E6;" d="M164.382,379.603c-1.475,0-2.966-0.422-4.283-1.305c-3.54-2.369-4.489-7.16-2.119-10.699
		l48.938-73.121c2.369-3.539,7.158-4.492,10.699-2.119c3.54,2.369,4.489,7.16,2.119,10.699l-48.938,73.121
		C169.311,378.401,166.87,379.603,164.382,379.603z"/>
	<path style="fill:#8BF2E6;" d="M128.39,430.765c-1.475,0-2.966-0.423-4.283-1.305c-3.54-2.369-4.489-7.16-2.119-10.699
		l19.818-29.611c2.369-3.54,7.16-4.489,10.699-2.12c3.54,2.369,4.489,7.16,2.119,10.699l-19.818,29.611
		C133.319,429.564,130.878,430.765,128.39,430.765z"/>
	<path style="fill:#8BF2E6;" d="M223.07,379.507c-1.475,0-2.966-0.422-4.283-1.305c-3.54-2.369-4.489-7.16-2.119-10.699
		l30.334-45.323c2.369-3.54,7.158-4.491,10.699-2.119c3.54,2.369,4.489,7.16,2.119,10.699l-30.334,45.323
		C227.999,378.306,225.558,379.507,223.07,379.507z"/>
	<path style="fill:#8BF2E6;" d="M191.528,424.021c-1.475,0-2.966-0.423-4.283-1.305c-3.54-2.369-4.489-7.16-2.119-10.699
		l14.56-21.754c2.369-3.539,7.158-4.488,10.699-2.119c3.54,2.369,4.489,7.16,2.119,10.699l-14.56,21.754
		C196.457,422.82,194.015,424.021,191.528,424.021z"/>
	<path style="fill:#8BF2E6;" d="M425.78,391.662c-1.475,0-2.966-0.423-4.283-1.305c-3.54-2.369-4.489-7.16-2.119-10.699
		l27.908-41.697c2.369-3.539,7.158-4.488,10.699-2.119c3.54,2.369,4.489,7.16,2.119,10.699l-27.908,41.697
		C430.709,390.461,428.268,391.662,425.78,391.662z"/>
</g>
<g>
</g>
<g>
</g>
<g>
</g>
<g>
</g>
<g>
</g>
<g>
</g>
<g>
</g>
<g>
</g>
<g>
</g>
<g>
</g>
<g>
</g>
<g>
</g>
<g>
</g>
<g>
</g>
<g>
</g>
</svg>
