<?xml version="1.0" encoding="iso-8859-1"?>
<!-- Generator: Adobe Illustrator 19.0.0, SVG Export Plug-In . SVG Version: 6.00 Build 0)  -->
<svg version="1.1" id="Capa_1" xmlns="http://www.w3.org/2000/svg" xmlns:xlink="http://www.w3.org/1999/xlink" x="0px" y="0px"
	 viewBox="0 0 512.001 512.001" style="enable-background:new 0 0 512.001 512.001;" xml:space="preserve">
<path style="fill:#16B59E;" d="M337.391,232.689l-5.924-65.313l53.574,28.77c2.991,1.606,5.28,4.265,6.424,7.462l16.799,46.936
	L337.391,232.689z"/>
<polygon style="fill:#6AE5DC;" points="342.158,227.881 326.571,139.661 231.64,63.707 201.298,139.427 156.328,139.427 
	156.018,139.065 155.802,139.427 155.462,139.995 103.437,227.1 103.437,340.65 103.437,358.488 408.265,358.488 408.265,340.717 
	408.265,250.499 "/>
<polygon style="fill:#46D1C3;" points="144.413,227.1 196.438,139.995 196.777,139.427 156.328,139.427 156.018,139.065 
	155.802,139.427 155.462,139.995 103.437,227.1 103.437,340.65 103.437,358.488 144.413,358.488 144.413,340.65 "/>
<g>
	<path style="fill:#16B59E;" d="M270.988,314.09c0,0,8.351-96.45,6.812-89.416l-21.848,82.609c-0.443,2.022-0.607,4.204-0.48,6.363
		l2.645,44.84h15.489L270.988,314.09z"/>
	<path style="fill:#16B59E;" d="M219.147,182.281c1.055-1.295,1.97-2.703,2.729-4.201l24.717-38.031l-14.254-75.78l-0.7-0.561
		l-30.341,75.718l-44.97-0.344l-0.31-0.016l51.376,61.299L219.147,182.281z"/>
</g>
<path style="fill:#9CE8C9;" d="M481.456,354.461c-56.287-15.513-126.869-23.379-209.789-23.379c-29.457,0-59.984,1.011-90.733,3.004
	l-95.201,7.251l49.033,35.482l58.199-8.936l-2.34-15.246c25.823,5.845,48.395,13.562,67.213,22.991
	c30.899,15.48,67.744,23.663,106.552,23.663c15.546,0,31.178-1.342,46.462-3.989c27.927-4.838,53.774-14.055,72.779-25.955
	l15.841-9.919L481.456,354.461z"/>
<path style="fill:#77D8B1;" d="M0,500.959V347.336c0-4.359,3.405-7.96,7.758-8.203l0,0c9.095-0.509,23.862-1.116,42.561-1.116
	c61.473,0,147.455,6.366,207.981,36.694c30.737,15.401,67.455,23.543,106.181,23.543c15.473,0,31.017-1.333,46.198-3.961
	c36.746-6.364,68.66-19.934,87.558-37.229l0.592-0.541c5.045-4.618,13.173-1.038,13.173,5.801v138.637H0z"/>
<g>
	<path style="fill:#C3FFF9;" d="M89.87,100.398c-13.309,0-24.136-10.827-24.136-24.136S76.561,52.125,89.87,52.125
		s24.136,10.827,24.136,24.136S103.179,100.398,89.87,100.398z"/>
	<path style="fill:#C3FFF9;" d="M450.375,178.456c-11.043,0-20.028-8.985-20.028-20.028c0-11.043,8.985-20.028,20.028-20.028
		c11.043,0,20.028,8.985,20.028,20.028C470.403,169.471,461.418,178.456,450.375,178.456z"/>
	<path style="fill:#C3FFF9;" d="M59.057,217.485c-7.646,0-13.866-6.22-13.866-13.866c0-7.646,6.22-13.866,13.866-13.866
		s13.866,6.22,13.866,13.866C72.923,211.265,66.703,217.485,59.057,217.485z"/>
	<path style="fill:#C3FFF9;" d="M343.559,46.989c-9.91,0-17.974-8.064-17.974-17.974s8.064-17.974,17.974-17.974
		c9.91,0,17.974,8.064,17.974,17.974S353.469,46.989,343.559,46.989z"/>
</g>
<g>
	<path style="fill:#8BF2E6;" d="M103.735,86.532c-13.309,0-24.136-10.827-24.136-24.136c0-3.051,0.575-5.969,1.613-8.658
		c-9.043,3.488-15.478,12.266-15.478,22.524c0,13.309,10.827,24.136,24.136,24.136c10.257,0,19.036-6.435,22.524-15.478
		C109.704,85.957,106.787,86.532,103.735,86.532z"/>
	<path style="fill:#8BF2E6;" d="M464.241,164.59c-11.043,0-20.028-8.985-20.028-20.028c0-1.873,0.277-3.68,0.761-5.401
		c-8.424,2.365-14.627,10.097-14.627,19.267c0,11.043,8.985,20.028,20.028,20.028c9.17,0,16.902-6.203,19.267-14.627
		C467.921,164.313,466.114,164.59,464.241,164.59z"/>
	<path style="fill:#8BF2E6;" d="M59.057,189.754c-7.646,0-13.866,6.22-13.866,13.866c0,7.646,6.22,13.866,13.866,13.866
		s13.866-6.22,13.866-13.866C65.277,203.619,59.057,197.399,59.057,189.754z"/>
	<path style="fill:#8BF2E6;" d="M357.424,33.124c-9.91,0-17.974-8.064-17.974-17.974c0-1.275,0.138-2.516,0.391-3.717
		c-8.132,1.717-14.257,8.947-14.257,17.583c0,9.91,8.064,17.974,17.974,17.974c8.636,0,15.865-6.124,17.583-14.257
		C359.941,32.986,358.699,33.124,357.424,33.124z"/>
</g>
<g>
</g>
<g>
</g>
<g>
</g>
<g>
</g>
<g>
</g>
<g>
</g>
<g>
</g>
<g>
</g>
<g>
</g>
<g>
</g>
<g>
</g>
<g>
</g>
<g>
</g>
<g>
</g>
<g>
</g>
</svg>
