<?xml version="1.0" encoding="iso-8859-1"?>
<!-- Generator: Adobe Illustrator 19.0.0, SVG Export Plug-In . SVG Version: 6.00 Build 0)  -->
<svg version="1.1" id="Capa_1" xmlns="http://www.w3.org/2000/svg" xmlns:xlink="http://www.w3.org/1999/xlink" x="0px" y="0px"
	 viewBox="0 0 512 512" style="enable-background:new 0 0 512 512;" xml:space="preserve">
<rect x="261.16" y="42.655" style="fill:#A88D68;" width="15.473" height="66.002"/>
<g>
	<path style="fill:#AFF2D8;" d="M458.186,318.066c-7.964,0-14.442-6.478-14.442-14.442s6.478-14.442,14.442-14.442
		s14.442,6.478,14.442,14.442S466.149,318.066,458.186,318.066z"/>
	<path style="fill:#AFF2D8;" d="M398.355,145.795c-10.238,0-18.568-8.33-18.568-18.568s8.33-18.568,18.568-18.568
		c10.238,0,18.568,8.33,18.568,18.568S408.594,145.795,398.355,145.795z"/>
	<path style="fill:#AFF2D8;" d="M54.845,320.129c-8.532,0-15.473-6.941-15.473-15.473s6.941-15.473,15.473-15.473
		s15.473,6.941,15.473,15.473S63.377,320.129,54.845,320.129z"/>
	<path style="fill:#AFF2D8;" d="M73.414,145.795c-10.238,0-18.568-8.33-18.568-18.568s8.33-18.568,18.568-18.568
		s18.568,8.33,18.568,18.568S83.652,145.795,73.414,145.795z"/>
</g>
<path style="fill:#A88D68;" d="M253.937,504.511V352.85h29.915v151.66c0,4.137-3.354,7.489-7.489,7.489h-14.937
	C257.289,512,253.937,508.647,253.937,504.511z"/>
<path style="fill:#916F47;" d="M283.852,388.792V352.85h-14.958h-14.958v35.942v115.718c0,4.137,3.354,7.489,7.489,7.489h14.936
	c0.003,0,0.007,0,0.01,0c-4.131-0.005-7.479-3.356-7.479-7.489V399.063c0-5.538,4.431-10.079,9.969-10.171
	C280.525,388.865,282.188,388.831,283.852,388.792z"/>
<path style="fill:#8EC155;" d="M268.894,370.7c-45.645,0-91.748-4.917-137.032-14.614l-2.658-0.569
	c-5.078-1.087-7.045-7.288-3.52-11.103l76.604-82.92l4.286,0.61c20.671,2.939,41.639,4.428,62.321,4.428s41.649-1.49,62.321-4.428
	l4.286-0.61l76.604,82.92c3.524,3.815,1.559,10.015-3.52,11.103l-2.658,0.569C360.643,365.782,314.539,370.7,268.894,370.7z"/>
<path style="fill:#84AB4F;" d="M172.564,355.516c-5.078-1.087-7.044-7.288-3.52-11.103l46.639-50.485
	c5.171-5.597,12.608-8.576,20.206-8.003c11.016,0.832,22.029,1.253,33.005,1.253c27.636,0,55.506-2.648,83.074-7.863l-16.467-17.824
	l-4.286,0.61c-20.671,2.939-41.639,4.428-62.321,4.428c-8.997,0-18.049-0.299-27.106-0.859l0,0
	c-2.866-0.177-5.731-0.384-8.596-0.615c-0.131-0.01-0.263-0.021-0.394-0.032c-2.641-0.216-5.281-0.459-7.918-0.721
	c-0.358-0.036-0.717-0.068-1.075-0.105c-2.404-0.244-4.804-0.517-7.203-0.8c-0.523-0.063-1.047-0.117-1.57-0.182
	c-2.823-0.345-5.644-0.714-8.458-1.114l-4.286-0.61l-76.604,82.92c-3.524,3.815-1.559,10.015,3.52,11.103l2.658,0.569
	c45.282,9.697,91.387,14.614,137.032,14.614c7.217,0,14.445-0.137,21.68-0.383c-38.524-1.306-77.228-6.068-115.351-14.231
	L172.564,355.516z"/>
<path style="fill:#8EC155;" d="M268.894,267.557c-33.145,0-66.63-3.795-99.522-11.278l-2.133-0.485
	c-5.066-1.152-7.105-7.266-3.746-11.23l55.819-65.841l4.407,0.528c15.023,1.799,30.222,2.712,45.174,2.712
	c14.954,0,30.153-0.913,45.174-2.712l4.407-0.528l56.055,66.12c3.253,3.836,1.278,9.754-3.626,10.871l-2.488,0.566
	C335.523,263.763,302.04,267.557,268.894,267.557z"/>
<g>
	<path style="fill:#7DA24B;" d="M236.423,310.067c-30.855-10.207-52.367-19.468-58.509-22.192l-10.655,11.534
		c0.656,0.693,1.448,1.28,2.368,1.705c0.979,0.453,24.418,11.232,61.937,23.642l11.4,4.374l4.733-14.197l-10.115-4.367
		C237.212,310.375,236.83,310.203,236.423,310.067z"/>
	<path style="fill:#7DA24B;" d="M412.277,344.629c-41.799-1.902-86.747-9.259-133.73-21.921c-0.301-0.081-0.602-0.138-0.904-0.183
		l-12.307-2.482l-1.805,14.01l10.217,3.341c0.251,0.096,0.508,0.182,0.772,0.253c40.92,11.027,80.393,18.132,117.709,21.207
		c0.005-0.001,0.009-0.002,0.014-0.003c2.214-0.426,4.425-0.86,6.636-1.306c2.35-0.477,4.699-0.958,7.043-1.461l2.658-0.569
		C413.571,354.448,415.543,348.457,412.277,344.629z"/>
</g>
<path style="fill:#EFE162;" d="M254.453,343.855c-11.091,0-20.115-9.024-20.115-20.115c0-11.091,9.024-20.115,20.115-20.115
	s20.115,9.024,20.115,20.115C274.568,334.831,265.544,343.855,254.453,343.855z"/>
<path style="fill:#8EC155;" d="M268.894,182.992c-23.783,0-47.818-2.271-71.437-6.75l-2.805-0.531
	c-5.224-0.99-7.27-7.378-3.594-11.22l72.887-76.163c2.698-2.818,7.2-2.818,9.897,0l72.887,76.163
	c3.676,3.842,1.63,10.229-3.594,11.22l-2.805,0.531C316.712,180.72,292.677,182.992,268.894,182.992z"/>
<g>
	<path style="fill:#84AB4F;" d="M210.599,255.794c-5.066-1.152-7.105-7.266-3.746-11.23l39.234-46.28
		c2.434-2.871,6.047-4.479,9.809-4.343c4.338,0.157,8.671,0.241,12.997,0.241c19.552,0,39.272-1.561,58.794-4.595l-9.213-10.866
		l-4.407,0.528c-15.022,1.799-30.221,2.712-45.174,2.712c-2.947,0-5.906-0.045-8.869-0.117l0,0
		c-5.958-0.142-11.942-0.427-17.925-0.85c-0.117-0.008-0.232-0.015-0.349-0.024c-2.786-0.2-5.572-0.435-8.356-0.696
		c-0.481-0.045-0.962-0.093-1.443-0.14c-2.748-0.268-5.494-0.557-8.233-0.885l-4.407-0.528l-55.819,65.841
		c-3.36,3.963-1.32,10.076,3.746,11.23l2.133,0.485c32.892,7.483,66.377,11.278,99.522,11.278c7.214,0,14.444-0.191,21.68-0.549
		c-26.013-1.288-52.108-4.874-77.842-10.728L210.599,255.794z"/>
	<path style="fill:#84AB4F;" d="M240.816,176.242l-2.805-0.532c-5.224-0.99-7.27-7.378-3.594-11.219l56.155-58.679l-16.732-17.483
		c-2.698-2.818-7.2-2.818-9.897,0l-72.887,76.163c-3.676,3.842-1.63,10.229,3.594,11.219l2.805,0.532
		c23.619,4.478,47.654,6.75,71.437,6.75c7.21,0,14.443-0.234,21.68-0.65C273.937,181.385,257.276,179.362,240.816,176.242z"/>
</g>
<path style="fill:none;stroke:#000000;stroke-width:0.5;stroke-linecap:round;stroke-linejoin:round;" d="M118.802,426.38
	c-5.688,0-10.316,4.628-10.316,10.316c0,5.688,4.628,10.316,10.316,10.316c5.688,0,10.316-4.628,10.316-10.316
	C129.118,431.008,124.49,426.38,118.802,426.38z"/>
<path style="fill:#AFF2D8;" d="M118.802,455.264c-10.238,0-18.568-8.33-18.568-18.568c0-10.238,8.33-18.568,18.568-18.568
	s18.568,8.33,18.568,18.568C137.37,446.934,129.04,455.264,118.802,455.264z"/>
<g>
	<path style="fill:#8BF2E6;" d="M457.67,297.951c0-3.207,1.064-6.165,2.84-8.564c-0.758-0.124-1.531-0.204-2.324-0.204
		c-7.964,0-14.442,6.478-14.442,14.442s6.478,14.442,14.442,14.442c4.755,0,8.969-2.321,11.602-5.878
		C462.928,311.071,457.67,305.121,457.67,297.951z"/>
	<path style="fill:#8BF2E6;" d="M393.713,121.554c0-4.994,1.992-9.525,5.21-12.866c-0.191-0.005-0.376-0.029-0.568-0.029
		c-10.238,0-18.568,8.33-18.568,18.568s8.33,18.568,18.568,18.568c5.244,0,9.978-2.194,13.358-5.702
		C401.739,139.79,393.713,131.6,393.713,121.554z"/>
	<path style="fill:#8BF2E6;" d="M53.298,298.982c0-3.661,1.284-7.023,3.417-9.675c-0.614-0.074-1.236-0.125-1.869-0.125
		c-8.532,0-15.473,6.941-15.473,15.473s6.941,15.473,15.473,15.473c4.872,0,9.218-2.268,12.057-5.798
		C59.249,313.405,53.298,306.881,53.298,298.982z"/>
	<path style="fill:#8BF2E6;" d="M68.771,121.554c0-4.994,1.992-9.525,5.21-12.866c-0.191-0.005-0.377-0.029-0.568-0.029
		c-10.238,0-18.568,8.33-18.568,18.568s8.33,18.568,18.568,18.568c5.244,0,9.978-2.194,13.358-5.702
		C76.797,139.79,68.771,131.6,68.771,121.554z"/>
	<path style="fill:#8BF2E6;" d="M114.16,431.022c0-4.994,1.992-9.524,5.21-12.866c-0.191-0.005-0.377-0.029-0.568-0.029
		c-10.238,0-18.568,8.33-18.568,18.568c0,10.238,8.33,18.568,18.568,18.568c5.244,0,9.978-2.194,13.358-5.702
		C122.186,449.258,114.16,441.069,114.16,431.022z"/>
</g>
<g>
	<path style="fill:#7DA24B;" d="M245.734,233.081c-0.169-1.017-0.532-1.952-1.041-2.778l-1.286-5.267l-6.573,1.681l-67.755,11.261
		l-5.585,6.589c-2.641,3.115-1.935,7.55,0.944,9.869l74.933-12.453l7.851-1.331l-1.408-5.763
		C245.854,234.295,245.835,233.692,245.734,233.081z"/>
	<path style="fill:#7DA24B;" d="M342.239,206.756l-79.704,12.518c-1.28,0.201-2.297,0.408-3.776,1.064l-1.367,0.368l-2.48-1.201
		l-2.607,6.612l5.849,9.664l6.78-1.22l83.767-13.157c1.64-0.258,3.074-1.017,4.181-2.092L342.239,206.756z"/>
</g>
<path style="fill:#FF7A66;" d="M250.326,242.762c-7.679,0-13.926-6.247-13.926-13.926s6.247-13.926,13.926-13.926
	c7.679,0,13.926,6.247,13.926,13.926S258.005,242.762,250.326,242.762z"/>
<path style="fill:#EFE162;" d="M269.041,47.004L252.527,58.99c-1.18,0.857-2.768-0.297-2.318-1.685l6.302-19.403
	c0.201-0.621-0.02-1.301-0.548-1.684l-16.526-12.005c-1.18-0.857-0.574-2.725,0.885-2.725h20.426c0.652,0,1.231-0.42,1.433-1.041
	l6.311-19.407c0.451-1.387,2.414-1.387,2.865,0l6.311,19.407c0.202,0.62,0.78,1.041,1.433,1.041h20.426
	c1.46,0,2.066,1.867,0.885,2.725l-16.526,12.005c-0.528,0.384-0.749,1.064-0.548,1.684l6.301,19.403
	c0.451,1.387-1.137,2.541-2.318,1.685l-16.514-11.986C270.283,46.621,269.569,46.621,269.041,47.004z"/>
<g>
</g>
<g>
</g>
<g>
</g>
<g>
</g>
<g>
</g>
<g>
</g>
<g>
</g>
<g>
</g>
<g>
</g>
<g>
</g>
<g>
</g>
<g>
</g>
<g>
</g>
<g>
</g>
<g>
</g>
</svg>
