<?xml version="1.0" encoding="iso-8859-1"?>
<!-- Generator: Adobe Illustrator 19.0.0, SVG Export Plug-In . SVG Version: 6.00 Build 0)  -->
<svg version="1.1" id="Capa_1" xmlns="http://www.w3.org/2000/svg" xmlns:xlink="http://www.w3.org/1999/xlink" x="0px" y="0px"
	 viewBox="0 0 512 512" style="enable-background:new 0 0 512 512;" xml:space="preserve">
<path style="fill:#8EC155;" d="M360.71,236.904c-7.813-2.518-18.015-7.412-22.242-16.427c-4.244-9.055-1.472-20.017,1.601-27.619
	l2.926-7.238l7.431,2.395c7.813,2.518,18.015,7.412,22.242,16.427c4.244,9.055,1.472,20.017-1.601,27.619l-2.926,7.238
	L360.71,236.904z"/>
<path style="fill:#84AB4F;" d="M371.725,227.022c-7.813-2.518-18.015-7.412-22.242-16.427c-3.43-7.319-2.276-15.882-0.085-22.911
	l-6.404-2.065l-2.926,7.238c-3.073,7.601-5.845,18.563-1.601,27.619c4.226,9.015,14.428,13.909,22.242,16.427l7.431,2.395
	l2.926-7.238c0.59-1.457,1.166-3.039,1.686-4.708L371.725,227.022z"/>
<path style="fill:#E6FFFC;" d="M298.388,406.557c0-25.379-10.7-49.679-29.393-66.849c7.262-1.242,12.606-7.495,12.606-14.988
	c0-8.388-6.825-15.213-15.213-15.213h-7.701c24.894-16.962,39.701-44.874,39.701-75.016c0-21.234-7.494-41.892-21.101-58.164
	l-2.547-3.047l-43.477,0.418l-61.982,0.592l-29.912,0.287l-2.489,3.095c-12.897,16.042-19.999,36.22-19.999,56.818
	c0,30.142,14.808,58.055,39.701,75.016h-7.701c-8.388,0-15.213,6.825-15.213,15.213c0,7.493,5.343,13.746,12.606,14.988
	c-18.694,17.171-29.393,41.469-29.393,66.849c0,30.142,14.808,58.055,39.701,75.016h-7.701c-8.388,0-15.213,6.825-15.213,15.213
	s6.825,15.213,15.213,15.213h117.508c8.388,0,15.213-6.825,15.213-15.213s-6.825-15.213-15.213-15.213h-7.701
	C283.581,464.612,298.388,436.699,298.388,406.557z"/>
<g>
	<path style="fill:#AFF2D8;" d="M267.797,225.623c-0.635,2.852,0.365,5.684,2.377,7.524c0.981,0.897,2.203,1.557,3.595,1.867
		l24.421,5.437c0.129-1.976,0.198-3.962,0.198-5.959c0-3.439-0.217-6.861-0.604-10.254l-20.595-4.585
		C272.946,218.708,268.742,221.381,267.797,225.623z"/>
	<path style="fill:#AFF2D8;" d="M182.026,309.508h7.701c-24.893-16.961-39.701-44.874-39.701-75.016
		c0-20.599,7.103-40.776,19.999-56.818l2.489-3.095l0.216-0.002c0.006-0.126,0.023-0.504,0.026-0.59h-3.483l-29.749,0.177
		l-2.646,3.51c-12.897,16.042-19.999,36.22-19.999,56.818c0,30.142,14.808,58.055,39.701,75.016h-7.701
		c-8.388,0-15.213,6.825-15.213,15.213c0,7.493,5.343,13.746,12.606,14.988c-18.694,17.171-29.393,41.469-29.393,66.849
		c0,30.142,14.808,58.055,39.701,75.016h-7.701c-8.388,0-15.213,6.825-15.213,15.213c0,8.388,6.825,15.213,15.213,15.213h33.148
		c-8.388,0-15.213-6.825-15.213-15.213c0-8.388,6.825-15.213,15.213-15.213h7.701c-24.893-16.961-39.701-44.874-39.701-75.016
		c0-25.379,10.699-49.678,29.393-66.849c-7.262-1.242-12.606-7.495-12.606-14.988C166.813,316.333,173.638,309.508,182.026,309.508z
		"/>
</g>
<path style="fill:#C3FFF9;" d="M148.88,482.098c-8.388,0-15.213,6.825-15.213,15.213c0,7.015,4.684,12.942,11.241,14.689h125.454
	c6.556-1.747,11.241-7.674,11.241-14.689c0-8.388-6.825-15.213-15.213-15.213H148.88z"/>
<path style="fill:#AFF2D8;" d="M170.457,497.311c0-8.388,6.825-15.213,15.213-15.213H148.88c-8.388,0-15.213,6.825-15.213,15.213
	c0,7.015,4.684,12.942,11.241,14.689h36.791C175.141,510.253,170.457,504.326,170.457,497.311z"/>
<path style="fill:#E23C30;" d="M205.75,226.623l-4.988-53.508h31.464l8.513,50.183c0.295,1.738-1.045,3.325-2.809,3.325H205.75z"/>
<path style="fill:#DFF7F3;" d="M207.634,0c-18.058,0-35.116,5.705-49.329,16.497c-14.054,10.671-24.03,25.297-28.854,42.298
	l-4.739,16.704l2.027,22.008l4.951,12.889c2.842,7.399,6.756,14.344,11.632,20.644l2.52,3.257h123.585l2.52-3.257
	c10.961-14.164,16.998-31.824,16.998-49.727C288.945,36.477,252.469,0,207.634,0z"/>
<path style="fill:#AFF2D8;" d="M165.643,110.396l-4.951-12.889l-2.027-22.008l4.739-16.704c4.823-17.001,14.8-31.628,28.854-42.298
	c9.628-7.312,20.566-12.28,32.233-14.728C219.049,0.617,213.412,0,207.634,0c-18.058,0-35.116,5.705-49.329,16.497
	c-14.054,10.671-24.03,25.297-28.854,42.298l-4.739,16.704l2.027,22.008l4.951,12.889c2.842,7.399,6.756,14.344,11.632,20.644
	l2.52,3.257h33.953l-2.52-3.257C172.399,124.74,168.486,117.794,165.643,110.396z"/>
<path style="fill:#FF7E45;" d="M85.663,90.59l77.133-32.052c0.998-0.414,2.131,0.145,2.409,1.189l1.945,7.301
	c2.226,8.354,3.704,17.287,4.391,26.552l0.59,7.944c0.083,1.114-0.868,2.03-1.979,1.905l-84.004-9.416
	C84.317,93.806,83.961,91.298,85.663,90.59z"/>
<path style="fill:#EA581F;" d="M171.082,88.593l-63.486-7.117L85.663,90.59c-1.702,0.707-1.345,3.216,0.486,3.421l84.004,9.416
	c1.111,0.125,2.062-0.791,1.979-1.905l-0.59-7.944C171.417,91.904,171.259,90.244,171.082,88.593z"/>
<path style="fill:#F95948;" d="M162.757,232.953l5.578-59.838h33.48l5.578,59.838c0.155,1.67-1.158,3.113-2.836,3.113h-38.966
	C163.915,236.066,162.602,234.623,162.757,232.953z"/>
<path style="fill:#E23C30;" d="M179.62,232.953l5.578-59.838h-16.862l-5.578,59.838c-0.155,1.67,1.158,3.113,2.836,3.113h16.862
	C180.779,236.066,179.464,234.623,179.62,232.953z"/>
<path style="fill:#F95948;" d="M137.339,174.164c-11.281,0-20.459-9.178-20.459-20.459c0-11.281,9.178-20.459,20.459-20.459h140.59
	c11.281,0,20.459,9.178,20.459,20.459c0,11.281-9.178,20.459-20.459,20.459H137.339z"/>
<path style="fill:#E23C30;" d="M159.149,153.705c0-11.281,9.178-20.459,20.459-20.459h-42.269c-11.281,0-20.459,9.178-20.459,20.459
	c0,11.281,9.178,20.459,20.459,20.459h42.269C168.326,174.164,159.149,164.986,159.149,153.705z"/>
<g>
	<circle style="fill:#AFF2D8;" cx="232.288" cy="49.311" r="12.59"/>
	<circle style="fill:#AFF2D8;" cx="207.633" cy="272.262" r="12.066"/>
	<circle style="fill:#AFF2D8;" cx="207.633" cy="411.803" r="12.066"/>
	<circle style="fill:#AFF2D8;" cx="207.633" cy="455.869" r="12.066"/>
</g>
<g>
	<path style="fill:#A88D68;" d="M275.313,233.444c-2.726,0-5.375-1.417-6.83-3.95c-2.164-3.769-0.865-8.579,2.904-10.743
		l95.603-54.921l8.696-39.616c0.932-4.245,5.131-6.931,9.373-5.998c4.245,0.932,6.931,5.128,5.999,9.373l-9.443,43.016
		c-0.475,2.166-1.843,4.031-3.767,5.136l-98.623,56.656C277.99,233.107,276.642,233.444,275.313,233.444z"/>
	<path style="fill:#A88D68;" d="M419.577,181.509c-0.244,0-0.49-0.012-0.739-0.035l-45.115-4.197
		c-4.327-0.403-7.509-4.237-7.106-8.563c0.403-4.329,4.237-7.514,8.564-7.106l45.115,4.197c4.327,0.403,7.509,4.237,7.106,8.563
		C427.023,178.448,423.594,181.509,419.577,181.509z"/>
</g>
<path style="fill:#C3FFF9;" d="M266.388,309.508H148.88c-8.388,0-15.213,6.825-15.213,15.213c0,7.015,4.684,12.942,11.241,14.689
	h65.932v37.487c0,8.223,6.666,14.889,14.889,14.889c8.222,0,14.889-6.667,14.889-14.889V339.41h29.744
	c6.556-1.747,11.241-7.674,11.241-14.689C281.601,316.333,274.776,309.508,266.388,309.508z"/>
<path style="fill:#AFF2D8;" d="M227.694,376.897v-24.169c0-7.356-5.964-13.319-13.319-13.319h-3.537v37.041
	c0,8.104,6.285,15.058,14.383,15.327c3.323,0.11,6.408-0.873,8.934-2.612C230.255,386.482,227.694,381.991,227.694,376.897z"/>
<g>
</g>
<g>
</g>
<g>
</g>
<g>
</g>
<g>
</g>
<g>
</g>
<g>
</g>
<g>
</g>
<g>
</g>
<g>
</g>
<g>
</g>
<g>
</g>
<g>
</g>
<g>
</g>
<g>
</g>
</svg>
