<?xml version="1.0" encoding="iso-8859-1"?>
<!-- Generator: Adobe Illustrator 19.0.0, SVG Export Plug-In . SVG Version: 6.00 Build 0)  -->
<svg version="1.1" id="Capa_1" xmlns="http://www.w3.org/2000/svg" xmlns:xlink="http://www.w3.org/1999/xlink" x="0px" y="0px"
	 viewBox="0 0 512 512" style="enable-background:new 0 0 512 512;" xml:space="preserve">
<path style="fill:#9CE8C9;" d="M60.832,175.305h-31.43c-4.2,0-7.604-3.404-7.604-7.604c0-4.2,3.404-7.604,7.604-7.604h31.43
	c4.2,0,7.604,3.404,7.604,7.604C68.436,171.901,65.032,175.305,60.832,175.305z"/>
<path style="fill:#77D8B1;" d="M60.832,230.975h-31.43c-4.2,0-7.604-3.404-7.604-7.604c0-4.2,3.404-7.604,7.604-7.604h31.43
	c4.2,0,7.604,3.404,7.604,7.604C68.436,227.571,65.032,230.975,60.832,230.975z"/>
<rect x="248.903" y="119.636" style="fill:#C1C1C1;" width="15.208" height="143.107"/>
<path style="fill:#F95948;" d="M248.903,179.916v-87.77c0-6.29,7.936-9.05,11.839-4.116l69.418,87.769
	c3.441,4.35,0.343,10.751-5.204,10.751h-69.418C251.874,186.551,248.903,183.58,248.903,179.916z"/>
<path style="fill:#E8372A;" d="M275.924,179.916v-72.69l-15.183-19.195c-3.902-4.933-11.839-2.175-11.839,4.116v87.769
	c0,3.665,2.971,6.635,6.635,6.635h27.021C278.895,186.551,275.924,183.58,275.924,179.916z"/>
<path style="fill:#B79C79;" d="M158.99,251.438c-3.811,0-6.695,3.449-6.017,7.2l0.424,2.35c2.238,12.404,8.95,23.523,18.902,31.309
	l7.922,6.198l25.016,6.421c4.989,2.744,10.713,4.312,16.799,4.312h68.943c6.085,0,11.809-1.567,16.8-4.312l25.021-6.423l7.916-6.179
	c9.969-7.781,16.685-18.91,18.911-31.335l0.421-2.348c0.671-3.749-2.21-7.193-6.019-7.193H158.99V251.438z"/>
<path style="fill:#916F47;" d="M236.257,300.996c-6.426-1.65-12.441-4.611-17.666-8.699c-9.951-7.786-16.665-18.904-18.902-31.309
	l-0.424-2.35c-0.676-3.751,2.206-7.2,6.017-7.2H158.99c-3.811,0-6.695,3.449-6.017,7.2l0.424,2.35
	c2.238,12.404,8.95,23.523,18.902,31.309l7.922,6.198l25.016,6.421c4.989,2.744,10.713,4.312,16.799,4.312h46.293
	c-6.085,0-11.809-1.567-16.799-4.312L236.257,300.996z"/>
<path style="fill:#77D8B1;" d="M3.549,512V273.743h45.975l1.219,6.649c2.954,16.121,17.004,27.822,33.409,27.822
	c11.047,0,21.449-5.434,27.828-14.537l6.643-9.479l6.643,9.479c6.379,9.102,16.781,14.537,27.828,14.537s21.449-5.434,27.828-14.537
	l6.643-9.479l6.643,9.479c6.379,9.102,16.781,14.537,27.828,14.537c11.047,0,21.449-5.434,27.828-14.537l6.643-9.479l6.643,9.479
	c6.379,9.102,16.781,14.537,27.828,14.537c11.047,0,21.449-5.434,27.828-14.537l6.643-9.479l6.643,9.479
	c6.379,9.102,16.781,14.537,27.828,14.537s21.449-5.434,27.828-14.537l6.643-9.479l6.643,9.479
	c6.379,9.102,16.781,14.537,27.828,14.537c16.404,0,30.454-11.701,33.409-27.822l1.219-6.649h44.961V512H3.549z"/>
<path style="fill:#C3FFF9;" d="M428.863,369.046c-17.257,0-31.637-12.564-34.471-29.025c-2.835,16.461-17.214,29.025-34.471,29.025
	s-31.637-12.564-34.471-29.025c-2.835,16.461-17.214,29.025-34.471,29.025c-17.257,0-31.637-12.564-34.471-29.025
	c-2.835,16.461-17.214,29.025-34.471,29.025s-31.637-12.564-34.471-29.025c-2.835,16.461-17.214,29.025-34.471,29.025
	s-31.637-12.564-34.471-29.025c-2.835,16.461-17.214,29.025-34.471,29.025c-19.117,0-34.702-15.418-34.974-34.471H3.549v-60.832
	h45.975l1.219,6.649c2.954,16.121,17.004,27.822,33.409,27.822c11.047,0,21.449-5.434,27.828-14.537l6.643-9.479l6.643,9.479
	c6.379,9.102,16.781,14.537,27.828,14.537s21.449-5.434,27.828-14.537l6.643-9.479l6.643,9.479
	c6.379,9.102,16.781,14.537,27.828,14.537c11.047,0,21.449-5.434,27.828-14.537l6.643-9.479l6.643,9.479
	c6.379,9.102,16.781,14.537,27.828,14.537c11.047,0,21.449-5.434,27.828-14.537l6.643-9.479l6.643,9.479
	c6.379,9.102,16.781,14.537,27.828,14.537s21.449-5.434,27.828-14.537l6.643-9.479l6.643,9.479
	c6.379,9.102,16.781,14.537,27.828,14.537c16.404,0,30.454-11.701,33.409-27.822l1.219-6.649h44.961v60.832h-44.614
	C463.566,353.628,447.981,369.046,428.863,369.046z"/>
<path style="fill:#9CE8C9;" d="M428.863,432.919c-17.257,0-31.637-12.564-34.471-29.025c-2.835,16.461-17.214,29.025-34.471,29.025
	s-31.637-12.564-34.471-29.025c-2.835,16.461-17.214,29.025-34.471,29.025c-17.257,0-31.637-12.564-34.471-29.025
	c-2.835,16.461-17.214,29.025-34.471,29.025s-31.637-12.564-34.471-29.025c-2.835,16.461-17.214,29.025-34.471,29.025
	s-31.637-12.564-34.471-29.025c-2.835,16.461-17.214,29.025-34.471,29.025c-19.117,0-34.702-15.418-34.974-34.471H3.549V333.56
	h45.975l1.219,6.649c2.954,16.121,17.004,27.822,33.409,27.822c11.047,0,21.449-5.434,27.828-14.537l6.643-9.479l6.643,9.479
	c6.379,9.102,16.781,14.537,27.828,14.537s21.449-5.434,27.828-14.537l6.643-9.479l6.643,9.479
	c6.379,9.102,16.781,14.537,27.828,14.537c11.047,0,21.449-5.434,27.828-14.537l6.643-9.479l6.643,9.479
	c6.379,9.102,16.781,14.537,27.828,14.537c11.047,0,21.449-5.434,27.828-14.537l6.643-9.479l6.643,9.479
	c6.379,9.102,16.781,14.537,27.828,14.537s21.449-5.434,27.828-14.537l6.643-9.479l6.643,9.479
	c6.379,9.102,16.781,14.537,27.828,14.537c16.404,0,30.454-11.701,33.409-27.822l1.219-6.649h44.961v64.887h-44.614
	C463.566,417.501,447.981,432.919,428.863,432.919z"/>
<path style="fill:#C3FFF9;" d="M60.832,63.967c4.2,0,7.604-3.404,7.604-7.604s-3.404-7.604-7.604-7.604H37.006V15.208h23.826
	c4.2,0,7.604-3.404,7.604-7.604S65.032,0,60.832,0h-31.43c-4.2,0-7.604,3.404-7.604,7.604v264.618c0,4.2,3.404,7.604,7.604,7.604
	s7.604-3.404,7.604-7.604V119.636h23.826c4.2,0,7.604-3.404,7.604-7.604s-3.404-7.604-7.604-7.604H37.006V63.967H60.832z"/>
<g>
</g>
<g>
</g>
<g>
</g>
<g>
</g>
<g>
</g>
<g>
</g>
<g>
</g>
<g>
</g>
<g>
</g>
<g>
</g>
<g>
</g>
<g>
</g>
<g>
</g>
<g>
</g>
<g>
</g>
</svg>
