<?xml version="1.0" encoding="iso-8859-1"?>
<!-- Generator: Adobe Illustrator 19.0.0, SVG Export Plug-In . SVG Version: 6.00 Build 0)  -->
<svg version="1.1" id="Capa_1" xmlns="http://www.w3.org/2000/svg" xmlns:xlink="http://www.w3.org/1999/xlink" x="0px" y="0px"
	 viewBox="0 0 511.999 511.999" style="enable-background:new 0 0 511.999 511.999;" xml:space="preserve">
<path style="fill:#16B59E;" d="M346.988,204.57c0-10.235-3.104-20.452-8.972-29.541l0.037,0.052l-1.572-3.28l-3.484-1.045
	c-4.929-1.478-9.551-4.102-13.366-7.59l-5.55-5.075l-5.55,5.076c-4.362,3.99-9.711,6.804-15.467,8.14l-22.81-5.536l18.745,19.257
	c8.342,8.656,12.752,18.711,12.752,29.077c0,13.901-7.867,27.002-22.154,36.887l-38.38,15.99l49.266,7.059l-2.953-8.481
	C322.107,259.769,346.988,234.41,346.988,204.57z"/>
<path style="fill:#6AE5DC;" d="M206.137,222.586c-8.22,0-14.908-6.688-14.908-14.908s6.688-14.908,14.908-14.908
	s14.908,6.688,14.908,14.908S214.356,222.586,206.137,222.586z"/>
<path style="fill:#38C1B0;" d="M383.745,160.592l-5.721-11.772l-8.124,10.262c-5.538,6.996-13.419,11.534-22.19,12.778
	l-13.607-4.605l7.248,16.093c3.059,6.872,4.609,14.011,4.609,21.221c0,18.067-9.528,35.145-26.139,46.852l-34.38,14.476l2.977,8.142
	l36.137-2.42l0.922-5.301c37.466-4.207,65.719-35.826,65.719-73.547C391.197,181.75,388.619,170.623,383.745,160.592z"/>
<path style="fill:#6AE5DC;" d="M431.293,319.229c-17.499,0-32.081-12.74-34.956-29.433c-2.875,16.692-17.456,29.433-34.956,29.433
	c-17.499,0-32.081-12.74-34.956-29.433c-2.875,16.692-17.456,29.433-34.956,29.433c-17.5,0-32.081-12.74-34.956-29.433
	c-2.875,16.692-17.456,29.433-34.956,29.433c-18.776,0-34.33-14.677-35.406-33.415l-0.078-1.349l0.358-1.303
	c2.812-10.243,12.184-17.397,22.79-17.397h107.952c40.25,0,72.996-32.746,72.996-72.996c0-12.463-3.282-24.842-9.494-35.815
	c-0.023-0.037-8.66-13.992-8.66-13.992l16.268,1.356c1.043,0.087,1.995,0.13,2.914,0.13c7.87,0,15.288-2.605,21.453-7.534l7.98-6.38
	l4.529,9.158c8.163,16.508,12.302,34.367,12.302,53.078c0,17.452-3.672,34.295-10.917,50.06c-2.168,4.719-2.27,10.178-0.278,14.981
	c2.01,4.841,5.992,8.662,10.923,10.48c11.152,4.111,19.812,8.252,25.741,12.307l4.18,2.858l-0.67,5.021
	C464.097,306.009,448.987,319.229,431.293,319.229z"/>
<path style="fill:#71F4E1;" d="M225.633,173.237c-11.488,0-22.315-5.608-28.963-15.002l-0.136-0.192l-0.076-0.122
	c-2.743-3.964-4.615-8.345-5.57-13.028c-2.053,0.386-4.223,0.585-6.379,0.585c-19.558,0-35.47-15.912-35.47-35.47
	s15.912-35.47,35.47-35.47c2.215,0,4.432,0.207,6.598,0.615c3.727-15.877,18.166-27.345,34.526-27.345
	c17.111,0,32.015,12.57,34.941,29.346c4.246-1.735,8.747-2.616,13.38-2.616c19.558,0,35.47,15.912,35.47,35.47
	s-15.912,35.47-35.47,35.47c-4.579,0-9.028-0.858-13.235-2.553C258.194,160.254,243.229,173.237,225.633,173.237z"/>
<path style="fill:#A0F9EE;" d="M286.156,173.237c-11.488,0-22.315-5.608-28.963-15.002l-0.136-0.192l-0.076-0.122
	c-2.743-3.964-4.615-8.345-5.57-13.028c-2.053,0.386-4.223,0.585-6.379,0.585c-19.558,0-35.47-15.912-35.47-35.47
	s15.912-35.47,35.47-35.47c2.215,0,4.432,0.207,6.598,0.615c3.727-15.877,18.166-27.346,34.526-27.346
	c17.111,0,32.015,12.57,34.941,29.346c4.246-1.735,8.747-2.616,13.38-2.616c19.558,0,35.47,15.912,35.47,35.47
	s-15.912,35.47-35.47,35.47c-4.579,0-9.028-0.858-13.235-2.553C318.717,160.254,303.752,173.237,286.156,173.237z"/>
<path style="fill:#C3FFF9;" d="M342.875,173.237c-11.488,0-22.315-5.608-28.963-15.002l-0.136-0.192l-0.076-0.122
	c-2.743-3.964-4.615-8.345-5.57-13.028c-2.053,0.386-4.224,0.585-6.379,0.585c-19.558,0-35.47-15.912-35.47-35.47
	s15.912-35.47,35.47-35.47c2.215,0,4.432,0.207,6.598,0.615c3.727-15.877,18.166-27.345,34.526-27.345
	c17.111,0,32.015,12.57,34.941,29.346c4.246-1.735,8.747-2.616,13.38-2.616c19.558,0,35.47,15.912,35.47,35.47
	s-15.912,35.47-35.47,35.47c-4.579,0-9.028-0.858-13.235-2.553C375.437,160.254,360.471,173.237,342.875,173.237z"/>
<path style="fill:#77D8B1;" d="M0,464.193V293.833c0-5.848,4.741-10.589,10.589-10.589H46.62l1.236,6.742
	c2.997,16.348,17.245,28.213,33.879,28.213c11.202,0,21.751-5.511,28.22-14.741l6.736-9.612l6.736,9.612
	c6.469,9.23,17.018,14.741,28.22,14.741c11.201,0,21.751-5.511,28.22-14.741l6.736-9.612l6.736,9.612
	c6.469,9.23,17.018,14.741,28.22,14.741c11.201,0,21.751-5.511,28.22-14.741l6.736-9.612l6.736,9.612
	c6.469,9.23,17.018,14.741,28.22,14.741c11.201,0,21.751-5.511,28.22-14.741l6.736-9.612l6.736,9.612
	c6.469,9.23,17.018,14.741,28.22,14.741c11.201,0,21.751-5.511,28.22-14.741l6.736-9.612l6.736,9.612
	c6.469,9.23,17.018,14.741,28.22,14.741c16.635,0,30.882-11.865,33.878-28.213l1.236-6.742h35.003
	c5.848,0,10.589,4.741,10.589,10.589v170.359H0z"/>
<path style="fill:#C3FFF9;" d="M431.293,384c-17.499,0-32.081-12.74-34.956-29.433C393.463,371.26,378.881,384,361.382,384
	c-17.499,0-32.081-12.74-34.956-29.433C323.551,371.26,308.969,384,291.47,384c-17.5,0-32.081-12.74-34.956-29.433
	C253.639,371.26,239.058,384,221.558,384s-32.081-12.74-34.956-29.433C183.728,371.26,169.146,384,151.647,384
	s-32.081-12.74-34.956-29.433C113.816,371.26,99.234,384,81.735,384c-19.386,0-35.19-15.634-35.466-34.956H0v-55.211
	c0-5.848,4.741-10.589,10.589-10.589H46.62l1.236,6.742c2.997,16.348,17.245,28.213,33.879,28.213
	c11.202,0,21.751-5.511,28.22-14.741l6.736-9.612l6.736,9.612c6.469,9.23,17.018,14.741,28.22,14.741
	c11.201,0,21.751-5.511,28.22-14.741l6.736-9.612l6.736,9.612c6.469,9.23,17.018,14.741,28.22,14.741
	c11.201,0,21.751-5.511,28.22-14.741l6.736-9.612l6.736,9.612c6.469,9.23,17.018,14.741,28.22,14.741
	c11.201,0,21.751-5.511,28.22-14.741l6.736-9.612l6.736,9.612c6.469,9.23,17.018,14.741,28.22,14.741
	c11.201,0,21.751-5.511,28.22-14.741l6.736-9.612l6.736,9.612c6.469,9.23,17.018,14.741,28.22,14.741
	c16.635,0,30.882-11.865,33.878-28.213l1.236-6.742h35.003c5.848,0,10.589,4.741,10.589,10.589v55.211h-45.241
	C466.483,368.365,450.679,384,431.293,384z"/>
<circle style="fill:#6AE5DC;" cx="249.831" cy="225.671" r="11.309"/>
<g>
</g>
<g>
</g>
<g>
</g>
<g>
</g>
<g>
</g>
<g>
</g>
<g>
</g>
<g>
</g>
<g>
</g>
<g>
</g>
<g>
</g>
<g>
</g>
<g>
</g>
<g>
</g>
<g>
</g>
</svg>
