<?xml version="1.0" encoding="iso-8859-1"?>
<!-- Generator: Adobe Illustrator 19.0.0, SVG Export Plug-In . SVG Version: 6.00 Build 0)  -->
<svg version="1.1" id="Capa_1" xmlns="http://www.w3.org/2000/svg" xmlns:xlink="http://www.w3.org/1999/xlink" x="0px" y="0px"
	 viewBox="0 0 511.997 511.997" style="enable-background:new 0 0 511.997 511.997;" xml:space="preserve">
<circle style="fill:#FFE783;" cx="386.695" cy="224.456" r="125.301"/>
<circle style="fill:#FFC84D;" cx="386.695" cy="224.456" r="96.252"/>
<circle style="fill:#FFA300;" cx="386.695" cy="224.456" r="61.403"/>
<circle style="fill:#FF7F00;" cx="386.695" cy="224.456" r="30.717"/>
<path style="fill:#A88D68;" d="M213.628,390.783c-1.531-2.724-2.74-5.617-3.604-8.62l0,0
	c-15.395-53.573-17.77-116.866-6.197-165.178l1.898-7.926l-7.919-1.93c-2.615-0.637-5.049-1.953-7.036-3.806l-5.578-5.194
	l-5.577,5.194c-2.158,2.01-4.806,3.375-7.66,3.947l-4.394,0.883l-1.622,4.178c-19.394,49.955-32.919,134.638-19.414,211.218
	l1.465,8.305l2.53,7.918l82.58-14.359L213.628,390.783z"/>
<path style="fill:#916F47;" d="M175.744,431.856l-1.465-8.305c-13.505-76.58,0.02-161.263,19.414-211.218l1.622-4.178l3.671-0.737
	l-1.178-0.287c-2.615-0.637-5.049-1.953-7.036-3.806l-5.578-5.194l-5.577,5.194c-2.158,2.01-4.806,3.375-7.66,3.947l-4.394,0.883
	l-1.622,4.178c-19.394,49.955-32.919,134.638-19.414,211.218l1.465,8.305l2.53,7.918l26.292-4.571L175.744,431.856z"/>
<path style="fill:#8EC155;" d="M157.241,175.132l-1.721-2.179c-12.076-15.29-36.929-28.369-64.861-34.136
	c-10.471-2.161-20.799-3.258-30.697-3.258c-24.285,0-44.37,6.671-53.73,17.845l-5.516,6.585c-1.482,1.77-0.538,4.479,1.721,4.946
	l18.353,3.789l13.136-7.184l5.327,6.819c1.839,2.355,5.113,3.031,7.735,1.597l9.211-5.039l6.462,8.273
	c1.839,2.355,5.113,3.031,7.735,1.597l10.02-5.481l7.315,9.364c1.839,2.355,5.113,3.031,7.735,1.597l10.021-5.481l7.598,9.727
	c1.839,2.355,5.114,3.031,7.736,1.597l5.975-3.268l5.327,6.82c1.839,2.355,5.113,3.031,7.735,1.597l7.825-4.28l4.975,0.638
	l3.833,2.026l5.984-6.926L157.241,175.132z"/>
<path style="fill:#84AB4F;" d="M2.06,164.804c9.511-10.914,29.384-17.417,53.355-17.417c9.898,0,20.226,1.095,30.697,3.258
	c27.932,5.767,52.785,18.846,64.861,34.136l1.721,2.179l0.739,1.071l3.056,1.616l5.984-6.926l-5.232-7.589l-1.721-2.179
	c-12.076-15.29-36.929-28.369-64.861-34.136c-10.471-2.161-20.799-3.258-30.697-3.258c-24.285,0-44.37,6.671-53.73,17.845
	l-5.516,6.585C-0.678,161.653,0.089,164.122,2.06,164.804z"/>
<path style="fill:#8EC155;" d="M157.798,137.265l-1.054-8.464l-6.751-0.263c-3.016-0.118-5.504-2.402-5.876-5.398l-1.518-12.195
	l-11.359-0.441c-3.016-0.118-5.504-2.402-5.877-5.398l-1.461-11.737l-11.359-0.441c-3.016-0.118-5.504-2.402-5.877-5.398
	l-1.29-10.366L94.939,76.76c-3.016-0.118-5.504-2.402-5.877-5.398L88,62.829l-14.96-0.581L59.141,49.481
	c-1.658-1.523-1.089-4.264,1.037-5.002l8.239-2.858c3.552-1.232,7.608-1.857,12.053-1.857c20.21,0,45.585,12.224,67.879,32.701
	c20.659,18.974,34.83,41.804,37.906,61.071l1.551,9.709l-24.041-0.582C160.713,142.591,158.176,140.295,157.798,137.265z"/>
<path style="fill:#84AB4F;" d="M70.303,47.419c20.21,0,45.585,12.224,67.879,32.701c20.659,18.974,34.83,41.804,37.906,61.071
	l0.284,1.779l11.434,0.277l-1.551-9.709c-3.077-19.268-17.248-42.097-37.906-61.071c-22.294-20.477-47.67-32.701-67.879-32.701
	c-4.445,0-8.501,0.625-12.053,1.857l-8.239,2.858c-1.961,0.68-2.574,3.053-1.36,4.614C62.234,47.987,66.091,47.419,70.303,47.419z"
	/>
<path style="fill:#8EC155;" d="M373.039,19.358c-7.433-4.966-17.058-7.484-28.611-7.484c-7.786,0-16.325,1.164-25.377,3.459
	c-23.176,5.875-48.434,19.002-71.117,36.96c-32.351,25.611-56.084,58.737-61.937,86.454l-0.118,0.555l-0.033,0.471l-0.153,0.48
	l-0.096,0.529c-1.167,6.44-1.331,12.462-0.489,17.895l0.596,3.846l2.599,28.837l4.175-14.461l0,0l12.767-25.133l13.51,0.466
	c3.874,0.134,7.274-2.558,8.032-6.358l2.626-13.15l10.721,0.369c3.873,0.134,7.273-2.558,8.032-6.358l3.677-18.415l17.427,0.601
	c3.873,0.134,7.273-2.558,8.032-6.358l3.545-17.756l17.426,0.6c3.873,0.134,7.273-2.558,8.032-6.358l3.151-15.783l16.085,0.555
	c3.874,0.134,7.273-2.558,8.032-6.358l2.626-13.151l21.883,0.755l14.849-11.754c1.158-0.915,2.087-2.013,2.763-3.264l0,0
	C377.699,26.334,376.55,21.703,373.039,19.358L373.039,19.358z"/>
<path style="fill:#84AB4F;" d="M200.005,150.1l0.096-0.529l0.153-0.48l0.033-0.471l0.118-0.555
	c5.853-27.718,29.584-60.843,61.937-86.454c22.684-17.958,47.941-31.085,71.117-36.96c9.052-2.295,17.59-3.459,25.377-3.459
	c6.408,0,12.221,0.777,17.398,2.316c-0.563-1.644-1.649-3.119-3.193-4.151l0,0c-7.433-4.966-17.058-7.484-28.611-7.484
	c-7.786,0-16.325,1.164-25.377,3.459c-23.176,5.875-48.434,19.002-71.117,36.96c-32.351,25.611-56.084,58.737-61.937,86.454
	l-0.118,0.555l-0.033,0.471l-0.153,0.48l-0.096,0.529c-1.167,6.44-1.331,12.462-0.489,17.895l0.596,3.846l2.599,28.837l4.175-14.461
	l6.601-12.992C198.816,159.591,199.123,154.966,200.005,150.1z"/>
<path style="fill:#8EC155;" d="M445.553,219.201c-0.305,0-0.623-0.013-0.955-0.043l-18.805-1.471l-15.534-15.434l-11.866,8.58
	c-2.564,1.854-6.093,1.578-8.337-0.653l-12.292-12.213L363.72,208.12c-2.564,1.853-6.093,1.577-8.337-0.653l-13.243-13.159
	l-15.673,11.332c-2.564,1.853-6.093,1.577-8.337-0.653l-13.243-13.159l-16.217,11.726c-2.564,1.853-6.093,1.578-8.337-0.652
	l-8.486-8.429l-11.866,8.58c-2.564,1.853-6.093,1.577-8.337-0.653l-10.465-10.398l-33.669,12.409l14.201-21.033
	c14.763-21.865,54.216-35.993,100.512-35.993c5.918,0,11.938,0.235,17.891,0.703c28.844,2.256,56.288,9.805,77.278,21.256
	c20.6,11.237,33.341,24.952,36.849,39.659l0,0c0.982,4.114-1.334,8.298-5.341,9.651l0,0
	C447.83,219.017,446.704,219.2,445.553,219.201z"/>
<path style="fill:#84AB4F;" d="M454.241,209.005L454.241,209.005c-3.508-14.708-16.25-28.422-36.85-39.66
	c-20.989-11.451-48.434-19-77.278-21.256c-5.953-0.466-11.973-0.703-17.891-0.703c-46.296,0-85.749,14.128-100.512,35.993
	l-14.201,21.033l15.143-5.582c17.174-18.846,53.871-30.741,96.343-30.741c5.918,0,11.938,0.235,17.891,0.703
	c28.844,2.256,56.288,9.805,77.278,21.256c15.562,8.49,26.631,18.394,32.632,29.071c0.718-0.085,1.424-0.234,2.105-0.464
	C452.908,217.302,455.222,213.119,454.241,209.005z"/>
<path style="fill:#EFE162;" d="M43.665,500.124c-4.279,0-6.647-4.962-3.953-8.287l4.082-5.044
	c31.923-39.437,104.69-64.918,185.384-64.918c7.549,0,15.326,0.239,23.114,0.712l4.839,0.294l38.556,4.947l4.773,0.96
	c50.942,10.252,92.525,31.393,114.092,58.001l4.089,5.045c2.695,3.325,0.328,8.29-3.951,8.29H43.665V500.124z"/>
<path style="fill:#EFCE43;" d="M106.654,491.836l4.083-5.044c27.29-33.713,84.432-57.224,150.856-63.34l-4.462-0.573l-4.839-0.294
	c-7.788-0.473-15.564-0.712-23.114-0.712c-80.694,0-153.462,25.482-185.384,64.918l-4.082,5.044
	c-2.692,3.325-0.325,8.287,3.953,8.287h66.944C106.329,500.124,103.962,495.162,106.654,491.836z"/>
<g>
	<ellipse style="fill:#D1BE34;" cx="210.68" cy="430.441" rx="20.874" ry="6.683"/>
	<ellipse style="fill:#D1BE34;" cx="266.764" cy="439.77" rx="20.874" ry="6.683"/>
</g>
<g>
	<path style="fill:#7DA24B;" d="M168.829,210.653c-9.306,0-16.877-7.571-16.877-16.877c0-9.306,7.571-16.877,16.877-16.877
		s16.877,7.571,16.877,16.877C185.706,203.081,178.135,210.653,168.829,210.653z"/>
	<path style="fill:#7DA24B;" d="M201.561,210.653c-9.306,0-16.877-7.571-16.877-16.877c0-9.306,7.571-16.877,16.877-16.877
		s16.877,7.571,16.877,16.877C218.438,203.081,210.867,210.653,201.561,210.653z"/>
</g>
<g>
	<path style="fill:#63842F;" d="M177.71,201.771c-9.306,0-16.877-7.571-16.877-16.877c0-2.355,0.488-4.596,1.362-6.633
		c-6.018,2.583-10.244,8.563-10.244,15.515c0,9.306,7.571,16.877,16.877,16.877c6.952,0,12.932-4.226,15.515-10.244
		C182.306,201.283,180.065,201.771,177.71,201.771z"/>
	<path style="fill:#63842F;" d="M210.442,201.771c-9.306,0-16.877-7.571-16.877-16.877c0-2.355,0.488-4.596,1.362-6.633
		c-6.018,2.583-10.244,8.563-10.244,15.515c0,9.306,7.571,16.877,16.877,16.877c6.952,0,12.932-4.226,15.515-10.244
		C215.038,201.283,212.797,201.771,210.442,201.771z"/>
</g>
<g>
	<path style="fill:#7DA24B;" d="M220.995,426.477c-10.434,0-18.923-8.489-18.923-18.923c0-10.434,8.489-18.923,18.923-18.923
		s18.923,8.489,18.923,18.923C239.918,417.989,231.429,426.477,220.995,426.477z"/>
	<path style="fill:#7DA24B;" d="M277.253,439.775c-11.562,0-20.969-9.406-20.969-20.969c0-11.562,9.406-20.969,20.969-20.969
		s20.969,9.406,20.969,20.969C298.221,430.368,288.815,439.775,277.253,439.775z"/>
</g>
<g>
	<path style="fill:#63842F;" d="M230.772,416.701c-10.434,0-18.923-8.489-18.923-18.923c0-2.688,0.572-5.242,1.586-7.56
		c-6.679,2.924-11.363,9.589-11.363,17.337c0,10.434,8.489,18.923,18.923,18.923c7.746,0,14.412-4.683,17.337-11.363
		C236.014,416.129,233.46,416.701,230.772,416.701z"/>
	<path style="fill:#63842F;" d="M287.029,429.998c-11.562,0-20.969-9.406-20.969-20.969c0-3.26,0.769-6.336,2.102-9.09
		c-7.016,3.395-11.879,10.564-11.879,18.867c0,11.563,9.406,20.969,20.969,20.969c8.303,0,15.472-4.863,18.867-11.879
		C293.365,429.229,290.289,429.998,287.029,429.998z"/>
</g>
<g>
</g>
<g>
</g>
<g>
</g>
<g>
</g>
<g>
</g>
<g>
</g>
<g>
</g>
<g>
</g>
<g>
</g>
<g>
</g>
<g>
</g>
<g>
</g>
<g>
</g>
<g>
</g>
<g>
</g>
</svg>
