<?xml version="1.0" encoding="iso-8859-1"?>
<!-- Generator: Adobe Illustrator 19.0.0, SVG Export Plug-In . SVG Version: 6.00 Build 0)  -->
<svg version="1.1" id="Capa_1" xmlns="http://www.w3.org/2000/svg" xmlns:xlink="http://www.w3.org/1999/xlink" x="0px" y="0px"
	 viewBox="0 0 512.001 512.001" style="enable-background:new 0 0 512.001 512.001;" xml:space="preserve">
<path style="fill:#C5C5C4;" d="M182.761,107.768h-15.049c-0.001,28.065,0.002,53.94,0.01,75.776h15.049
	C182.763,164.506,182.759,139.683,182.761,107.768z"/>
<path style="fill:#848484;" d="M175.242,107.768h-7.53c-0.001,28.065,0.002,53.94,0.01,75.776h7.53
	C175.243,161.708,175.24,135.834,175.242,107.768z"/>
<path style="fill:#E4E4E4;" d="M130.382,314.441c-5.943,0-11.399-0.215-16.679-0.657l-7.356-0.616v-56.319
	c0-2.776,1.435-5.355,3.793-6.819l0,0c8.922-5.538,33.833-19.906,72.362-33.696c40.675-14.557,106.85-31.91,191.117-31.91
	c5.946,0,11.986,0.087,17.951,0.26c5.667,0.166,10.295,4.547,10.764,10.192c0.95,11.42,1.861,33.974-2.704,56.722
	c-5.497,27.387-17.13,47.131-34.577,58.686l-2.7,3.616l-4.556-0.495c-18.216-1.977-30.081-6.583-41.555-11.038
	c-15.903-6.174-30.922-12.006-61.834-12.006c-30.911,0-45.929,5.832-61.828,12.005C177.287,308.304,161.481,314.441,130.382,314.441
	z"/>
<path style="fill:#C4C6C5;" d="M378.44,293.373c-27.154,0-39.255-4.698-54.581-10.648c-16.217-6.296-34.597-13.431-69.452-13.431
	c-34.856,0-53.238,7.136-69.46,13.435c-7.962,3.091-15.057,5.844-23.848,7.775c-7.929,1.742-15.422-4.368-15.422-12.486V231.3
	c-17.842,8.19-29.893,15.229-35.538,18.732c-2.359,1.464-3.793,4.043-3.793,6.819v34.9v21.42l7.357,0.615
	c5.279,0.442,10.735,0.657,16.679,0.657c0.996,0,1.976-0.007,2.943-0.019c0.231-0.003,0.453-0.009,0.682-0.013
	c0.736-0.012,1.471-0.025,2.189-0.043c0.212-0.006,0.417-0.014,0.627-0.02c0.729-0.021,1.456-0.044,2.168-0.072
	c0.172-0.007,0.339-0.016,0.51-0.023c0.747-0.032,1.488-0.066,2.216-0.105c0.119-0.007,0.235-0.014,0.353-0.021
	c0.775-0.043,1.541-0.09,2.294-0.142c0.074-0.005,0.146-0.011,0.221-0.016c0.796-0.056,1.58-0.115,2.354-0.181
	c0.033-0.003,0.066-0.006,0.099-0.009c0.809-0.068,1.604-0.141,2.389-0.219c0.01-0.001,0.02-0.002,0.03-0.003
	c0.803-0.08,1.593-0.165,2.372-0.254h0.002l0,0c17.844-2.047,29.441-6.543,40.748-10.933c15.9-6.173,30.918-12.005,61.828-12.005
	c30.913,0,45.932,5.832,61.834,12.006c11.474,4.454,23.34,9.06,41.555,11.038l4.556,0.495l2.7-3.616
	c6.712-4.445,12.555-10.115,17.528-16.953C381.237,293.357,379.864,293.373,378.44,293.373z"/>
<path style="fill:#F95948;" d="M133.893,192.74c0-5.384,2.953-10.281,7.706-12.784c19.937-10.49,92.345-44.823,187.102-46.183
	l0.157-0.001c5.325,0.027,10.072,3.199,12.092,8.081c0.675,1.633,1.431,3.42,2.229,5.312l0.088,0.208
	c3.4,8.047,8.537,20.203,10.724,28.638l2.487,9.593l-9.899,0.439c-72.443,3.219-129.349,18.878-164.331,31.448
	c-12.824,4.609-25.261,9.68-36.969,15.072l-11.384,5.245v-45.07H133.893z"/>
<path style="fill:#E23C30;" d="M353.991,176.011c-0.364-1.404-0.816-2.917-1.321-4.492c-76.111,2.137-136.102,18.107-173.976,31.662
	c-2.622,0.938-5.178,1.879-7.67,2.82c-3.084,1.164-6.374-1.12-6.374-4.416v-14.782c0-5.384,2.953-10.281,7.706-12.784
	c13.02-6.851,48.425-23.87,97.815-35.234c-65.331,10.199-112.986,32.971-128.572,41.172c-4.752,2.502-7.706,7.4-7.706,12.784v29.168
	v15.901l11.384-5.245c1.539-0.709,3.091-1.412,4.655-2.109c0.219-0.097,0.441-0.194,0.66-0.291c1.386-0.615,2.776-1.226,4.18-1.831
	c0.093-0.04,0.187-0.079,0.28-0.119c3.158-1.359,6.359-2.696,9.597-4.004l0,0c5.761-2.329,11.635-4.576,17.597-6.718
	c34.983-12.569,91.889-28.229,164.331-31.448l9.899-0.439L353.991,176.011z"/>
<path style="fill:#FF7A66;" d="M200.468,243.891c34.129-11.739,86.518-25.733,142.284-25.733c17.608,0,34.763,1.396,50.989,4.145
	l9.144,1.55c0.157-3.502,0.223-6.869,0.223-10.043c0-0.154,0-0.306,0-0.458c-0.001-0.385-0.003-0.765-0.005-1.145
	c-0.001-0.191-0.003-0.383-0.004-0.572c-0.003-0.308-0.007-0.611-0.011-0.915c-0.003-0.247-0.006-0.496-0.01-0.74
	c-0.002-0.145-0.006-0.287-0.008-0.431c-0.095-5.115-0.344-9.542-0.594-12.891c-0.002-0.02-0.003-0.04-0.005-0.061
	c-0.045-0.61-0.091-1.185-0.135-1.721c-0.294-3.528-2.211-6.563-4.991-8.383c-1.668-1.092-3.647-1.747-5.773-1.809
	c-5.965-0.173-12.005-0.26-17.951-0.26c-84.267,0-150.442,17.352-191.117,31.91c-38.529,13.79-63.441,28.158-72.362,33.696
	c-2.359,1.464-3.793,4.043-3.793,6.819v29.174l11.835-6.38C132.438,271.957,162.087,257.093,200.468,243.891z"/>
<path style="fill:#F95948;" d="M145.678,231.299c-17.843,8.19-29.894,15.229-35.539,18.732c-2.359,1.464-3.793,4.043-3.793,6.819
	v29.174l11.835-6.38c6.327-3.411,15.69-8.237,27.498-13.703V231.299z"/>
<path style="fill:#77D8B1;" d="M5.35,459.915v-166.05c0-2.547,2.109-4.589,4.655-4.506l3.634,0.118
	c26.339,0.861,40.864,6.5,54.91,11.953c15.903,6.174,30.922,12.006,61.832,12.006s45.93-5.832,61.829-12.005
	c15.291-5.936,31.097-12.073,62.197-12.073c31.1,0,46.907,6.137,62.194,12.071c15.906,6.175,30.925,12.007,61.838,12.007
	c30.913,0,45.932-5.832,61.832-12.005c14.234-5.526,28.95-11.239,55.955-11.986l0,0c4.518-0.125,8.248,3.503,8.248,8.023v162.445
	H5.35V459.915z"/>
<path style="fill:#C3FFF9;" d="M378.939,355.575c-31.101,0-46.909-6.137-62.197-12.072c-15.904-6.174-30.923-12.006-61.835-12.006
	c-30.911,0-45.929,5.832-61.828,12.005c-15.292,5.936-31.098,12.073-62.197,12.073c-31.1,0-46.907-6.137-62.193-12.072
	c-14.782-5.739-28.745-11.159-55.537-11.916l-7.799-0.221v-37.5c0-2.547,2.109-4.589,4.655-4.506l3.634,0.118
	c26.339,0.861,40.864,6.5,54.91,11.953c15.903,6.174,30.922,12.006,61.832,12.006s45.93-5.832,61.829-12.005
	c15.291-5.936,31.097-12.073,62.197-12.073c31.1,0,46.907,6.137,62.194,12.071c15.906,6.175,30.925,12.007,61.838,12.007
	c30.913,0,45.932-5.832,61.832-12.005c14.234-5.526,28.95-11.239,55.955-11.986l8.248-0.229v42.148l-7.799,0.221
	c-26.793,0.755-40.757,6.176-55.54,11.916C425.846,349.438,410.039,355.575,378.939,355.575z"/>
<path style="fill:#9CE8C9;" d="M379.818,397.712c-31.133,0-46.958-6.137-62.261-12.072c-15.916-6.174-30.95-12.006-61.897-12.006
	c-30.944,0-45.978,5.832-61.894,12.006c-15.301,5.935-31.123,12.072-62.257,12.072c-31.132,0-46.956-6.137-62.258-12.072
	c-14.888-5.776-28.951-11.23-56.083-11.933l-7.818-0.202v-43.159l8.268,0.25c26.673,0.805,41.291,6.48,55.429,11.969
	c15.903,6.174,30.922,12.006,61.832,12.006s45.93-5.832,61.829-12.005c15.291-5.936,31.098-12.073,62.198-12.073
	c31.101,0,46.909,6.137,62.196,12.072c15.905,6.174,30.924,12.006,61.836,12.006c30.914,0,45.933-5.832,61.833-12.005
	c14.141-5.49,28.762-11.165,55.435-11.97l8.268-0.25V373.5l-7.762,0.256c-26.218,0.861-40.022,6.215-54.636,11.885
	C426.775,391.575,410.952,397.712,379.818,397.712z"/>
<g>
	<circle style="fill:#848484;" cx="330.576" cy="247.727" r="9.531"/>
	<circle style="fill:#848484;" cx="245.299" cy="259.766" r="9.531"/>
	<circle style="fill:#848484;" cx="160.021" cy="285.851" r="9.531"/>
</g>
<g>
	<path style="fill:#77D8B1;" d="M449.283,95.004h-62.704c-4.156,0-7.525-3.368-7.525-7.524c0-4.157,3.369-7.525,7.525-7.525h62.704
		c3.535,0,6.41-2.875,6.41-6.41s-2.875-6.41-6.41-6.41c-1.884,0-3.666,0.825-4.888,2.263c-2.692,3.165-7.44,3.551-10.607,0.86
		c-3.166-2.692-3.552-7.44-0.86-10.607c4.087-4.808,10.048-7.566,16.355-7.566c11.833,0,21.459,9.626,21.459,21.459
		S461.115,95.004,449.283,95.004z"/>
	<path style="fill:#77D8B1;" d="M99.323,174.987H36.619c-4.156,0-7.524-3.368-7.524-7.524c0-4.157,3.369-7.525,7.524-7.525h62.704
		c3.535,0,6.41-2.875,6.41-6.41c0-3.535-2.875-6.41-6.41-6.41c-1.884,0-3.666,0.825-4.889,2.263
		c-2.692,3.166-7.441,3.552-10.607,0.859c-3.166-2.692-3.551-7.44-0.859-10.606c4.087-4.809,10.049-7.566,16.354-7.566
		c11.833,0,21.459,9.626,21.459,21.459C120.782,165.361,111.156,174.987,99.323,174.987z"/>
	<path style="fill:#77D8B1;" d="M490.542,155.701c-6.642,0-12.802-3.001-16.9-8.233c-2.562-3.273-1.987-8.002,1.284-10.563
		c3.272-2.563,8.001-1.987,10.563,1.283c1.227,1.566,3.068,2.464,5.052,2.464c3.535,0,6.41-2.875,6.41-6.41s-2.875-6.41-6.41-6.41
		H420.87c-4.156,0-7.525-3.368-7.525-7.524s3.369-7.524,7.525-7.524h69.672c11.833,0,21.459,9.626,21.459,21.459
		C512.001,146.075,502.375,155.701,490.542,155.701z"/>
	<path style="fill:#77D8B1;" d="M69.672,237.969c-6.175,0-11.903-2.79-15.714-7.655c-2.563-3.272-1.988-8.001,1.283-10.563
		c3.27-2.562,8.001-1.988,10.563,1.283c0.939,1.198,2.349,1.886,3.868,1.886c2.705,0,4.905-2.2,4.905-4.905s-2.2-4.905-4.905-4.905
		H7.524c-4.156,0-7.524-3.368-7.524-7.525s3.369-7.524,7.524-7.524h62.147c11.003,0,19.954,8.951,19.954,19.954
		S80.675,237.969,69.672,237.969z"/>
	<path style="fill:#77D8B1;" d="M340.609,94.726h-42.137c-4.156,0-7.525-3.368-7.525-7.524s3.369-7.524,7.525-7.524h42.137
		c4.156,0,7.525,3.368,7.525,7.524S344.764,94.726,340.609,94.726z"/>
	<path style="fill:#77D8B1;" d="M391.776,127.834h-21.069c-4.156,0-7.524-3.368-7.524-7.524c0-4.157,3.369-7.524,7.524-7.524h21.069
		c4.156,0,7.525,3.368,7.525,7.524C399.3,124.466,395.931,127.834,391.776,127.834z"/>
	<path style="fill:#77D8B1;" d="M481.066,245.216h-31.101c-4.156,0-7.524-3.368-7.524-7.524c0-4.157,3.369-7.525,7.524-7.525h31.101
		c4.156,0,7.525,3.368,7.525,7.525C488.591,241.848,485.222,245.216,481.066,245.216z"/>
	<path style="fill:#77D8B1;" d="M69.727,107.768H31.603c-4.156,0-7.524-3.368-7.524-7.524s3.369-7.524,7.524-7.524h38.124
		c4.156,0,7.524,3.368,7.524,7.524S73.883,107.768,69.727,107.768z"/>
</g>
<path style="fill:#F95948;" d="M145.455,118.935l32.618-19.746c2.059-1.246,4.686,0.238,4.678,2.644
	c-0.025,7.299-0.067,19.699-0.076,23.291l-0.018,6.727c-0.006,2.08-2.028,3.558-4.01,2.931l-32.524-10.27
	C143.595,123.712,143.187,120.307,145.455,118.935z"/>
<g>
</g>
<g>
</g>
<g>
</g>
<g>
</g>
<g>
</g>
<g>
</g>
<g>
</g>
<g>
</g>
<g>
</g>
<g>
</g>
<g>
</g>
<g>
</g>
<g>
</g>
<g>
</g>
<g>
</g>
</svg>
