<?xml version="1.0" encoding="iso-8859-1"?>
<!-- Generator: Adobe Illustrator 19.0.0, SVG Export Plug-In . SVG Version: 6.00 Build 0)  -->
<svg version="1.1" id="Capa_1" xmlns="http://www.w3.org/2000/svg" xmlns:xlink="http://www.w3.org/1999/xlink" x="0px" y="0px"
	 viewBox="0 0 512.002 512.002" style="enable-background:new 0 0 512.002 512.002;" xml:space="preserve">
<path style="fill:#EFE162;" d="M0.71,502.14V335.767c0-4.645,3.847-8.369,8.49-8.218h0.001c26.981,0.882,41.86,6.659,56.248,12.244
	c16.29,6.325,31.675,12.299,63.339,12.299s47.049-5.974,63.336-12.298c15.663-6.081,31.855-12.368,63.713-12.368
	c31.858,0,48.05,6.287,63.71,12.366c16.293,6.326,31.678,12.3,63.346,12.3c31.666,0,47.051-5.974,63.339-12.298
	c14.581-5.661,29.656-11.513,57.319-12.278l0,0c4.628-0.128,8.449,3.589,8.449,8.219V502.14L0.71,502.14L0.71,502.14z"/>
<path style="fill:#C3FFF9;" d="M383.404,395.257c-31.859,0-48.052-6.287-63.712-12.367c-16.291-6.325-31.676-12.299-63.343-12.299
	c-31.664,0-47.048,5.974-63.335,12.298c-15.665,6.081-31.856,12.368-63.714,12.368c-31.858,0-48.05-6.287-63.709-12.367
	c-15.142-5.879-29.445-11.431-56.89-12.206l-7.989-0.226v-34.691c0-4.645,3.847-8.369,8.49-8.218h0.001
	c26.981,0.882,41.86,6.659,56.248,12.244c16.29,6.325,31.675,12.299,63.339,12.299s47.049-5.974,63.336-12.298
	c15.663-6.081,31.855-12.368,63.713-12.368c31.858,0,48.05,6.287,63.71,12.366c16.293,6.326,31.678,12.3,63.346,12.3
	c31.666,0,47.051-5.974,63.339-12.298c14.581-5.661,29.656-11.513,57.319-12.278l0,0c4.628-0.128,8.449,3.589,8.449,8.219v34.723
	l-7.989,0.226c-27.446,0.774-41.75,6.327-56.894,12.206C431.454,388.97,415.262,395.257,383.404,395.257z"/>
<path style="fill:#9CE8C9;" d="M384.304,438.421c-31.892,0-48.102-6.287-63.778-12.367c-16.304-6.325-31.704-12.299-63.405-12.299
	c-31.698,0-47.098,5.974-63.402,12.299c-15.674,6.08-31.882,12.367-63.774,12.367c-31.891,0-48.1-6.287-63.775-12.367
	c-15.251-5.917-29.657-11.503-57.45-12.224l-8.009-0.207v-44.21l8.469,0.256c27.323,0.824,42.298,6.638,56.781,12.261
	c16.29,6.325,31.675,12.299,63.339,12.299s47.049-5.974,63.336-12.298c15.663-6.081,31.856-12.368,63.714-12.368
	c31.859,0,48.052,6.287,63.711,12.367c16.292,6.325,31.677,12.299,63.344,12.299c31.667,0,47.052-5.974,63.34-12.298
	c14.486-5.624,29.463-11.438,56.787-12.262l8.469-0.256v44.204l-7.952,0.262c-26.857,0.882-40.998,6.367-55.968,12.174
	C432.406,432.135,416.198,438.421,384.304,438.421z"/>
<path style="fill:#FFE44C;" d="M436.043,130.105c-33.151,0-60.122-26.97-60.122-60.122s26.97-60.122,60.122-60.122
	s60.122,26.97,60.122,60.122S469.193,130.105,436.043,130.105z"/>
<path style="fill:#FFC84D;" d="M470.746,103.384c-33.151,0-60.122-26.97-60.122-60.122c0-11.333,3.155-21.94,8.628-30.997
	C394.25,19.551,375.92,42.66,375.92,69.983c0,33.151,26.97,60.122,60.122,60.122c21.819,0,40.957-11.685,51.494-29.125
	C482.204,102.534,476.574,103.384,470.746,103.384z"/>
<path style="fill:#A88D68;" d="M186.301,434.312c-3.445,0-6.582-2.326-7.466-5.816L127.98,227.832
	c-1.046-4.127,1.451-8.32,5.578-9.366c4.126-1.045,8.319,1.453,9.365,5.578l50.855,200.664c1.046,4.127-1.451,8.32-5.578,9.366
	C187.565,434.235,186.928,434.312,186.301,434.312z"/>
<g>
	<path style="fill:#FFC84D;" d="M378.483,183.548c-1.256,0-2.529-0.307-3.707-0.956c-3.73-2.051-5.091-6.739-3.04-10.468
		l11.305-20.554c2.052-3.732,6.739-5.089,10.468-3.039c3.73,2.051,5.091,6.739,3.04,10.468l-11.305,20.554
		C383.841,182.106,381.203,183.548,378.483,183.548z"/>
	<path style="fill:#FFC84D;" d="M325.05,133.19c-3.106,0-6.033-1.891-7.204-4.966c-1.516-3.978,0.481-8.431,4.459-9.947
		l21.582-8.222c3.978-1.518,8.43,0.481,9.947,4.459c1.516,3.978-0.481,8.431-4.459,9.947l-21.582,8.222
		C326.89,133.028,325.962,133.19,325.05,133.19z"/>
	<path style="fill:#FFC84D;" d="M449.403,196.907c-4.257,0-7.708-3.45-7.708-7.708v-22.61c0-4.258,3.451-7.708,7.708-7.708
		s7.708,3.45,7.708,7.708v22.61C457.111,193.457,453.66,196.907,449.403,196.907z"/>
</g>
<path style="fill:#E4E4E4;" d="M2.183,266.319c-6.188-34.548,0.879-69.947,19.899-99.674c19.117-29.88,48.532-51.173,82.827-59.957
	c11.44-2.931,23.161-4.416,34.837-4.416c24.787,0,49.288,6.751,70.857,19.524c28.818,17.066,50.527,43.88,61.127,75.499v0.001
	c1.747,5.213-2.014,10.637-7.509,10.829h-0.001c-87.688,3.063-171.883,24.625-250.247,64.089l0,0
	C9.062,274.687,3.154,271.733,2.183,266.319L2.183,266.319z"/>
<path style="fill:#C4C6C5;" d="M38.171,179.389c14.758-32.256,40.913-57.448,73.645-70.933c5.492-2.263,11.106-4.173,16.8-5.72
	c-7.964,0.641-15.902,1.951-23.708,3.951c-34.296,8.784-63.711,30.077-82.827,59.957C3.063,196.372-4.003,231.771,2.183,266.319l0,0
	c0.969,5.414,6.879,8.368,11.791,5.894c4.735-2.384,9.492-4.7,14.269-6.954C22.37,236.491,25.754,206.529,38.171,179.389z"/>
<path style="fill:#F95948;" d="M70.368,236.927c-5.383-30.511-5.315-60.298,0.191-83.875c6.017-25.767,18.217-42.233,34.352-46.365
	c2.647-0.678,5.41-1.022,8.211-1.022c14.248,0,29.627,8.756,44.473,25.323c15.988,17.84,30.267,43.876,40.206,73.312l3.121,9.244
	l-9.639,1.509c-37.402,5.854-74.419,15.336-110.027,28.18l-9.189,3.315L70.368,236.927z"/>
<g>
</g>
<g>
</g>
<g>
</g>
<g>
</g>
<g>
</g>
<g>
</g>
<g>
</g>
<g>
</g>
<g>
</g>
<g>
</g>
<g>
</g>
<g>
</g>
<g>
</g>
<g>
</g>
<g>
</g>
</svg>
