<?xml version="1.0" encoding="iso-8859-1"?>
<!-- Generator: Adobe Illustrator 19.0.0, SVG Export Plug-In . SVG Version: 6.00 Build 0)  -->
<svg version="1.1" id="Capa_1" xmlns="http://www.w3.org/2000/svg" xmlns:xlink="http://www.w3.org/1999/xlink" x="0px" y="0px"
	 viewBox="0 0 512 512" style="enable-background:new 0 0 512 512;" xml:space="preserve">
<path style="fill:#8EC155;" d="M377.382,428.407c-2.128,0-4.127-0.202-5.941-0.599c-24.069-5.259-39.669-27.774-34.772-50.19
	c2.374-10.867,9.15-20.088,19.081-25.964c6.936-4.104,14.948-6.273,23.172-6.273c3.428,0,6.889,0.376,10.286,1.119
	c19.504,4.262,43.23,37.513,50.038,47.603l4.688,6.947l-7.157,4.359C430.471,409.25,397.977,428.407,377.382,428.407
	C377.382,428.407,377.383,428.407,377.382,428.407z"/>
<path style="fill:#84AB4F;" d="M364.03,391.799c2.374-10.867,9.15-20.088,19.081-25.964c6.936-4.104,14.948-6.273,23.172-6.273
	c1.486,0,2.977,0.084,4.468,0.225c-7.079-6.54-14.579-11.765-21.543-13.287c-3.397-0.743-6.858-1.119-10.286-1.119
	c-8.224,0-16.236,2.169-23.172,6.273c-9.931,5.876-16.707,15.097-19.081,25.964c-4.896,22.416,10.703,44.932,34.772,50.19
	c0.981,0.214,2.02,0.367,3.1,0.466C365.465,418.522,361.115,405.143,364.03,391.799z"/>
<path style="fill:#8EC155;" d="M148.217,420.266c-2.752,0-5.542-0.182-8.294-0.541c-26.68-3.484-62.435-46.063-72.758-59.03
	l-5.152-6.471l6.64-4.934c12.2-9.063,54.1-38.637,81.052-38.637c1.529,0,3.02,0.093,4.429,0.277
	c32.214,4.209,55.236,32.035,51.318,62.028c-1.899,14.537-9.767,27.407-22.152,36.24c-10.149,7.239-22.281,11.066-35.079,11.066
	C148.218,420.266,148.219,420.266,148.217,420.266z"/>
<path style="fill:#84AB4F;" d="M179.008,397.826c-0.002,0-0.001,0-0.003,0c-2.752,0-5.542-0.182-8.294-0.541
	c-26.68-3.484-62.435-46.063-72.758-59.03l-4.538-5.699C82.459,339.268,73.35,345.8,68.652,349.29l-6.64,4.934l5.152,6.471
	c10.323,12.967,46.078,55.546,72.758,59.03c2.752,0.359,5.542,0.541,8.294,0.541c0.002,0,0.001,0,0.003,0
	c12.798,0,24.93-3.827,35.079-11.066c5.533-3.946,10.157-8.703,13.758-14.049C191.298,396.913,185.233,397.826,179.008,397.826z"/>
<path style="fill:#8EC155;" d="M244.523,230.317c-17.253-1.031-104.694-7.703-131.887-37.845
	c-15.041-16.672-23.142-37.8-22.809-59.49c0.333-21.703,9.07-41.372,24.602-55.384c13.632-12.298,31.572-19.07,50.516-19.07
	c23.962,0,47.266,10.597,63.935,29.072c27.167,30.114,24.854,117.802,24.113,135.073l-0.348,8.13L244.523,230.317z"/>
<path style="fill:#84AB4F;" d="M167.329,173.252c-15.041-16.672-23.142-37.8-22.809-59.49c0.331-21.577,8.976-41.138,24.338-55.134
	c-1.302-0.063-2.606-0.1-3.913-0.1c-18.943,0-36.884,6.772-50.516,19.07C98.898,91.61,90.16,111.279,89.827,132.982
	c-0.333,21.69,7.768,42.818,22.809,59.49c27.192,30.142,114.634,36.813,131.887,37.845l8.122,0.486l0.348-8.13
	c0.141-3.287,0.338-9.128,0.379-16.632C221.812,201.013,183.679,191.377,167.329,173.252z"/>
<g>
	<path style="fill:#77D8B1;" d="M439.5,216.35h-90c-4.143,0-7.5-3.357-7.5-7.5s3.357-7.5,7.5-7.5h90c6.893,0,12.5-5.607,12.5-12.5
		s-5.607-12.5-12.5-12.5s-12.5,5.607-12.5,12.5c0,4.143-3.357,7.5-7.5,7.5s-7.5-3.357-7.5-7.5c0-15.163,12.337-27.5,27.5-27.5
		s27.5,12.337,27.5,27.5S454.663,216.35,439.5,216.35z"/>
	<path style="fill:#77D8B1;" d="M484.5,289.35c-15.163,0-27.5-12.337-27.5-27.5c0-4.143,3.357-7.5,7.5-7.5s7.5,3.357,7.5,7.5
		c0,6.893,5.607,12.5,12.5,12.5s12.5-5.607,12.5-12.5s-5.607-12.5-12.5-12.5h-100c-4.143,0-7.5-3.357-7.5-7.5s3.357-7.5,7.5-7.5h100
		c15.163,0,27.5,12.337,27.5,27.5S499.663,289.35,484.5,289.35z"/>
	<path style="fill:#77D8B1;" d="M300,490.85c-15.163,0-27.5-12.337-27.5-27.5c0-4.143,3.357-7.5,7.5-7.5s7.5,3.357,7.5,7.5
		c0,6.893,5.607,12.5,12.5,12.5s12.5-5.607,12.5-12.5s-5.607-12.5-12.5-12.5H200c-4.143,0-7.5-3.357-7.5-7.5s3.357-7.5,7.5-7.5h100
		c15.163,0,27.5,12.337,27.5,27.5S315.163,490.85,300,490.85z"/>
</g>
<g>
	<path style="fill:#A88D68;" d="M208.876,189.791c-1.827,0-3.658-0.663-5.103-2.005C199.297,183.628,93.959,85.319,77.89,30.77
		c-1.171-3.973,1.102-8.143,5.075-9.313c3.976-1.17,8.144,1.102,9.313,5.075c14.912,50.619,120.638,149.273,121.704,150.264
		c3.034,2.819,3.209,7.565,0.39,10.6C212.895,188.986,210.889,189.791,208.876,189.791z"/>
	<path style="fill:#A88D68;" d="M409.722,401.075c-0.316,0-0.637-0.021-0.959-0.062c-3.242-0.413-79.702-10.35-104.156-29.431
		c-3.266-2.548-3.848-7.261-1.3-10.526s7.263-3.848,10.526-1.3c17.63,13.756,75.873,23.705,96.828,26.378
		c4.108,0.523,7.015,4.279,6.49,8.389C416.669,398.309,413.44,401.075,409.722,401.075z"/>
	<path style="fill:#A88D68;" d="M214.293,381.438c-44.771,0-105.073-13.218-108.327-13.939c-4.044-0.896-6.595-4.9-5.699-8.944
		c0.896-4.045,4.912-6.595,8.944-5.7c0.988,0.218,99.103,21.731,133.553,10.407c3.934-1.295,8.173,0.847,9.467,4.783
		c1.294,3.935-0.848,8.173-4.783,9.467C238.857,380.336,227.222,381.438,214.293,381.438z"/>
</g>
<g>
	<path style="fill:#77D8B1;" d="M60.5,249.35h-53c-4.143,0-7.5-3.357-7.5-7.5s3.357-7.5,7.5-7.5h53c4.143,0,7.5,3.357,7.5,7.5
		S64.643,249.35,60.5,249.35z"/>
	<path style="fill:#77D8B1;" d="M32,76.35H7.5c-4.143,0-7.5-3.357-7.5-7.5s3.357-7.5,7.5-7.5H32c4.143,0,7.5,3.357,7.5,7.5
		S36.143,76.35,32,76.35z"/>
	<path style="fill:#77D8B1;" d="M359,113.35h-51.5c-4.143,0-7.5-3.357-7.5-7.5s3.357-7.5,7.5-7.5H359c4.143,0,7.5,3.357,7.5,7.5
		S363.143,113.35,359,113.35z"/>
</g>
<g>
</g>
<g>
</g>
<g>
</g>
<g>
</g>
<g>
</g>
<g>
</g>
<g>
</g>
<g>
</g>
<g>
</g>
<g>
</g>
<g>
</g>
<g>
</g>
<g>
</g>
<g>
</g>
<g>
</g>
</svg>
