<?xml version="1.0" encoding="iso-8859-1"?>
<!-- Generator: Adobe Illustrator 19.0.0, SVG Export Plug-In . SVG Version: 6.00 Build 0)  -->
<svg version="1.1" id="Capa_1" xmlns="http://www.w3.org/2000/svg" xmlns:xlink="http://www.w3.org/1999/xlink" x="0px" y="0px"
	 viewBox="0 0 512 512" style="enable-background:new 0 0 512 512;" xml:space="preserve">
<path style="fill:#E4E4E4;" d="M170.741,69.747l279.479,46.33c2.69,0.445,4.807,2.534,5.291,5.216l0,0
	c4.906,27.211,4.906,55.079,0,82.29l0,0c-0.484,2.682-2.603,4.771-5.291,5.216l-277.527,46.109L170.741,69.747z"/>
<path style="fill:#C4C6C5;" d="M210.033,162.257V76.261l-38.851-6.39l1.304,185.038L450.22,208.8
	c2.69-0.445,4.807-2.534,5.291-5.216l0,0c2.221-12.319,3.426-24.773,3.637-37.24l-204.386,33.845
	C231.338,204.066,210.033,185.999,210.033,162.257z"/>
<path style="fill:#F95948;" d="M390.008,208.754c1.806-30.754,1.807-61.919,0.004-92.63l-0.594-10.117l39.854,6.601l0.357,6.481
	c1.58,28.742,1.577,57.911-0.004,86.698l-0.357,6.482l-39.854,6.598L390.008,208.754z"/>
<path style="fill:#E8372A;" d="M391.201,177.595c-0.199,10.411-0.585,20.809-1.192,31.159l-0.594,10.116l39.854-6.599l0.357-6.482
	c0.633-11.537,1.002-23.135,1.128-34.743L391.201,177.595z"/>
<path style="fill:#F95948;" d="M268.173,228.727c3.697-43.986,3.697-88.591,0-132.577l-0.871-10.362l59.539,9.86l0.485,6.33
	c3.075,40.121,3.075,80.806,0.001,120.924l-0.485,6.33l-59.54,9.859L268.173,228.727z"/>
<path style="fill:#E8372A;" d="M270.159,197.638c-0.46,10.387-1.117,20.755-1.986,31.089l-0.871,10.362l56.68-9.385l2.859-0.474
	l0.485-6.33c0.892-11.642,1.517-23.332,1.891-35.043L270.159,197.638z"/>
<rect x="42.498" y="29.587" style="fill:#C1C1C1;" width="29.344" height="474.824"/>
<rect x="42.498" y="29.587" style="fill:#909392;" width="16.19" height="474.824"/>
<path style="fill:#FFF873;" d="M57.17,46.04c-12.553,0-22.767-10.214-22.767-22.767S44.617,0.506,57.17,0.506
	S79.937,10.72,79.937,23.273S69.723,46.04,57.17,46.04z"/>
<path style="fill:#FFE44C;" d="M54.64,23.273c0-8.92,5.159-16.654,12.648-20.386c-3.051-1.521-6.485-2.381-10.119-2.381
	c-12.553,0-22.767,10.214-22.767,22.767S44.617,46.04,57.17,46.04c3.634,0,7.068-0.86,10.119-2.381
	C59.8,39.927,54.64,32.192,54.64,23.273z"/>
<path style="fill:#C1C1C1;" d="M106.751,511.494H7.589c-4.192,0-7.589-3.397-7.589-7.589s3.397-7.589,7.589-7.589h99.162
	c4.192,0,7.589,3.397,7.589,7.589S110.943,511.494,106.751,511.494z"/>
<g>
	<path style="fill:#77D8B1;" d="M438.64,316.206h-91.067c-4.192,0-7.589-3.397-7.589-7.589s3.397-7.589,7.589-7.589h91.067
		c6.975,0,12.648-5.673,12.648-12.648s-5.673-12.648-12.648-12.648c-6.975,0-12.648,5.673-12.648,12.648
		c0,4.192-3.397,7.589-7.589,7.589c-4.192,0-7.589-3.397-7.589-7.589c0-15.343,12.483-27.826,27.826-27.826
		c15.343,0,27.826,12.483,27.826,27.826S453.983,316.206,438.64,316.206z"/>
	<path style="fill:#77D8B1;" d="M484.174,390.071c-15.343,0-27.826-12.483-27.826-27.826c0-4.192,3.397-7.589,7.589-7.589
		c4.192,0,7.589,3.397,7.589,7.589c0,6.975,5.673,12.648,12.648,12.648c6.975,0,12.648-5.673,12.648-12.648
		c0-6.975-5.673-12.648-12.648-12.648H382.988c-4.192,0-7.589-3.397-7.589-7.589c0-4.192,3.397-7.589,7.589-7.589h101.186
		c15.343,0,27.826,12.483,27.826,27.826C512,377.588,499.517,390.071,484.174,390.071z"/>
</g>
<g>
	<path style="fill:#A88D68;" d="M148.052,250.447c-2.232,0-4.442-0.979-5.941-2.861l-64.064-80.418
		c-2.253-2.827-2.198-6.851,0.132-9.618l64.064-76.056c2.699-3.206,7.487-3.614,10.693-0.915c3.206,2.701,3.614,7.488,0.915,10.693
		l-60.058,71.302l60.189,75.555c2.612,3.277,2.071,8.052-1.207,10.664C151.379,249.907,149.709,250.447,148.052,250.447z"/>
	<path style="fill:#A88D68;" d="M148.048,170.498H87.02c-4.192,0-7.589-3.397-7.589-7.589c0-4.192,3.397-7.589,7.589-7.589h61.028
		c4.192,0,7.589,3.397,7.589,7.589C155.637,167.101,152.239,170.498,148.048,170.498z"/>
</g>
<g>
	<path style="fill:#77D8B1;" d="M318.229,316.206h-83.984c-4.192,0-7.589-3.397-7.589-7.589s3.397-7.589,7.589-7.589h83.984
		c4.192,0,7.589,3.397,7.589,7.589S322.421,316.206,318.229,316.206z"/>
	<path style="fill:#77D8B1;" d="M312.158,434.593H167.462c-4.192,0-7.589-3.397-7.589-7.589s3.397-7.589,7.589-7.589h144.696
		c4.192,0,7.589,3.397,7.589,7.589S316.35,434.593,312.158,434.593z"/>
	<path style="fill:#77D8B1;" d="M377.929,434.593H356.68c-4.192,0-7.589-3.397-7.589-7.589s3.397-7.589,7.589-7.589h21.249
		c4.192,0,7.589,3.397,7.589,7.589S382.121,434.593,377.929,434.593z"/>
</g>
<path style="fill:#F95948;" d="M162.141,262.071c-8.05,0-14.6-6.55-14.6-14.6V78.347c0-8.05,6.55-14.6,14.6-14.6
	c8.05,0,14.6,6.55,14.6,14.6v169.125C176.741,255.521,170.191,262.071,162.141,262.071z"/>
<path style="fill:#FFF873;" d="M45.429,199.842c-7.754,0-14.062-6.308-14.062-14.062v-41.694c0-7.754,6.308-14.062,14.062-14.062
	h23.48c7.754,0,14.062,6.308,14.062,14.062v41.694c0,7.754-6.308,14.062-14.062,14.062H45.429z"/>
<path style="fill:#FFE44C;" d="M54.134,185.78v-41.694c0-7.754,6.308-14.062,14.062-14.062H45.429
	c-7.754-0.001-14.062,6.307-14.062,14.061v41.694c0,7.754,6.308,14.062,14.062,14.062h22.767
	C60.442,199.842,54.134,193.534,54.134,185.78z"/>
<g>
</g>
<g>
</g>
<g>
</g>
<g>
</g>
<g>
</g>
<g>
</g>
<g>
</g>
<g>
</g>
<g>
</g>
<g>
</g>
<g>
</g>
<g>
</g>
<g>
</g>
<g>
</g>
<g>
</g>
</svg>
