<?xml version="1.0" encoding="iso-8859-1"?>
<!-- Generator: Adobe Illustrator 19.0.0, SVG Export Plug-In . SVG Version: 6.00 Build 0)  -->
<svg version="1.1" id="Capa_1" xmlns="http://www.w3.org/2000/svg" xmlns:xlink="http://www.w3.org/1999/xlink" x="0px" y="0px"
	 viewBox="0 0 512 512" style="enable-background:new 0 0 512 512;" xml:space="preserve">
<path style="fill:#C3FFF9;" d="M381.964,340.355c-9.628,0-19.027-3.29-26.465-9.264l-108.345-87.005l6.595-6.384
	c1.805-1.748,3.449-3.708,4.887-5.828l4.927-7.265l16.856,13.536c3.398-4,8.33-6.283,13.612-6.283c4.049,0,8.017,1.396,11.171,3.931
	l76.657,61.559c10.322,8.288,16.076,20.777,15.785,34.263l-0.138,6.389l-6.245,1.351
	C388.195,340.019,385.066,340.355,381.964,340.355z"/>
<path style="fill:#8BF2E6;" d="M381.858,297.352l-76.657-61.559c-3.155-2.535-7.122-3.931-11.171-3.931
	c-5.282,0-10.214,2.283-13.612,6.283l-16.856-13.536l-3.783,5.578l137.728,107.817l0.138-6.389
	C397.934,318.129,392.18,305.64,381.858,297.352z"/>
<path style="fill:#C3FFF9;" d="M72.207,330.806c-5.515,0-10.959-1.061-16.181-3.151l-5.933-2.374l0.931-6.322
	c1.901-12.908,9.304-24.052,20.31-30.573l119.506-70.822l3.667,8.395c1.013,2.32,2.273,4.542,3.745,6.607l5.11,7.174l-18.618,11.034
	c2.226,4.006,2.826,8.633,1.686,13.09c-1.183,4.622-4.094,8.505-8.197,10.937l-84.58,50.123
	C87.16,328.773,79.744,330.806,72.207,330.806z"/>
<path style="fill:#8BF2E6;" d="M50.094,325.281l5.933,2.374c5.222,2.09,10.666,3.151,16.181,3.151
	c7.538,0,14.953-2.034,21.446-5.883l84.58-50.123c4.103-2.431,7.014-6.314,8.197-10.937c1.14-4.456,0.539-9.084-1.686-13.09
	l18.618-11.034l-2.54-3.567L50.167,324.779L50.094,325.281z"/>
<path style="fill:#C3FFF9;" d="M232.791,174.871c-1.607-0.199-3.107-0.298-4.585-0.298c-0.91,0-1.898,0.045-3.019,0.138
	l-8.759,0.719v-21.609c-9.614-0.27-17.351-8.173-17.351-17.851V37.655c0-13.238,6.136-25.543,16.833-33.761L220.978,0l4.964,4.024
	c10.136,8.215,15.948,20.265,15.948,33.059v138.923L232.791,174.871z"/>
<path style="fill:#8BF2E6;" d="M220.483,175.097V0.38l-4.574,3.514c-10.698,8.218-16.833,20.524-16.833,33.761v98.317
	c0,9.677,7.738,17.581,17.351,17.851v21.609L220.483,175.097z"/>
<path style="fill:#C1C1C1;" d="M214.919,504.916V227.104l9.025,1.121c1.493,0.185,2.887,0.275,4.262,0.275
	c1.621,0,3.311-0.128,5.025-0.381l9.196-1.357v278.153H214.919z"/>
<path style="fill:#909392;" d="M242.428,226.763l-9.196,1.357c-1.551,0.23-3.078,0.341-4.558,0.362l0,0
	c-0.154,0.002-0.315,0.018-0.468,0.018c-1.375,0-2.769-0.09-4.262-0.275l-9.025-1.121v38.173v239.638h13.754V274.301
	c0-3.995,2.955-7.373,6.915-7.902c2.328-0.311,4.61-0.766,6.839-1.357L242.428,226.763L242.428,226.763z"/>
<path style="fill:#87CEB7;" d="M228.207,249.086c-20.822,0-37.762-16.94-37.762-37.762s16.94-37.763,37.762-37.763
	s37.763,16.94,37.763,37.763C265.969,232.146,249.029,249.086,228.207,249.086z"/>
<path style="fill:#5AB795;" d="M255.177,233.682c-20.822,0-37.762-16.94-37.762-37.762c0-8.287,2.689-15.953,7.232-22.186
	c-19.158,1.8-34.203,17.968-34.203,37.59c0,20.821,16.94,37.762,37.762,37.762c12.536,0,23.658-6.145,30.531-15.576
	C257.565,233.621,256.379,233.682,255.177,233.682z"/>
<path style="fill:#909392;" d="M277.253,512h-99.182c-4.192,0-7.59-3.397-7.59-7.59c0-4.193,3.399-7.59,7.59-7.59h99.182
	c4.193,0,7.59,3.397,7.59,7.59C284.844,508.603,281.445,512,277.253,512z"/>
<g>
	<path style="fill:#77D8B1;" d="M391.617,145.633h-91.086c-4.193,0-7.59-3.397-7.59-7.59c0-4.193,3.397-7.59,7.59-7.59h91.086
		c6.976,0,12.651-5.675,12.651-12.651s-5.675-12.651-12.651-12.651s-12.651,5.675-12.651,12.651c0,4.193-3.397,7.59-7.59,7.59
		s-7.59-3.397-7.59-7.59c0-15.346,12.486-27.832,27.832-27.832s27.832,12.486,27.832,27.832S406.962,145.633,391.617,145.633z"/>
	<path style="fill:#77D8B1;" d="M451.328,233.682c-15.346,0-27.832-12.486-27.832-27.832c0-4.193,3.397-7.59,7.59-7.59
		s7.59,3.397,7.59,7.59c0,6.976,5.675,12.651,12.651,12.651s12.651-5.675,12.651-12.651c0-6.976-5.675-12.651-12.651-12.651H350.122
		c-4.193,0-7.59-3.397-7.59-7.59c0-4.193,3.397-7.59,7.59-7.59h101.206c15.346,0,27.832,12.486,27.832,27.832
		S466.674,233.682,451.328,233.682z"/>
	<path style="fill:#77D8B1;" d="M141.637,478.602c-15.347,0-27.832-12.486-27.832-27.832c0-4.193,3.399-7.59,7.59-7.59
		c4.192,0,7.59,3.397,7.59,7.59c0,6.976,5.675,12.651,12.651,12.651c6.976,0,12.651-5.675,12.651-12.651
		c0-6.976-5.675-12.651-12.651-12.651H40.43c-4.192,0-7.59-3.397-7.59-7.59c0-4.193,3.399-7.59,7.59-7.59h101.206
		c15.347,0,27.832,12.486,27.832,27.832S156.983,478.602,141.637,478.602z"/>
	<path style="fill:#77D8B1;" d="M118.359,145.633H67.756c-4.192,0-7.59-3.397-7.59-7.59c0-4.193,3.399-7.59,7.59-7.59h50.603
		c4.192,0,7.59,3.397,7.59,7.59C125.95,142.235,122.551,145.633,118.359,145.633z"/>
	<path style="fill:#77D8B1;" d="M438.171,407.757h-95.134c-4.193,0-7.59-3.397-7.59-7.59c0-4.193,3.397-7.59,7.59-7.59h95.134
		c4.193,0,7.59,3.397,7.59,7.59C445.762,404.36,442.363,407.757,438.171,407.757z"/>
</g>
<g>
</g>
<g>
</g>
<g>
</g>
<g>
</g>
<g>
</g>
<g>
</g>
<g>
</g>
<g>
</g>
<g>
</g>
<g>
</g>
<g>
</g>
<g>
</g>
<g>
</g>
<g>
</g>
<g>
</g>
</svg>
