<?xml version="1.0" encoding="iso-8859-1"?>
<!-- Generator: Adobe Illustrator 19.0.0, SVG Export Plug-In . SVG Version: 6.00 Build 0)  -->
<svg version="1.1" id="Capa_1" xmlns="http://www.w3.org/2000/svg" xmlns:xlink="http://www.w3.org/1999/xlink" x="0px" y="0px"
	 viewBox="0 0 512 512" style="enable-background:new 0 0 512 512;" xml:space="preserve">
<path style="fill:#C5C5C4;" d="M225.081,320.013c-1.919,0-3.839-0.732-5.303-2.196c-2.929-2.93-2.929-7.678,0-10.607
	l100.574-100.574c2.929-2.928,7.678-2.928,10.606,0c2.929,2.93,2.929,7.678,0,10.607L230.384,317.817
	C228.92,319.281,227,320.013,225.081,320.013z"/>
<path style="fill:#FF7A66;" d="M421.763,332.889c-56.02-88.014-129.048-161.041-217.055-217.056l-4.095-2.606
	c-2.434-1.549-2.708-4.998-0.548-6.911l3.633-3.219c29.828-26.43,68.31-40.985,108.357-40.985
	c43.719,0,84.778,16.981,115.612,47.815c30.881,30.881,47.888,71.938,47.888,115.611c0,40.04-14.582,78.524-41.06,108.364
	l-3.219,3.628c-1.914,2.157-5.361,1.883-6.909-0.55L421.763,332.889z"/>
<path style="fill:#EF6152;" d="M328.659,89.72c43.719,0,84.778,16.981,115.612,47.815c5.722,5.722,10.965,11.795,15.714,18.167
	c-7.938-16.786-18.798-32.256-32.318-45.775c-30.834-30.834-71.893-47.815-115.612-47.815c-40.047,0-78.529,14.556-108.357,40.985
	l-3.633,3.219c-2.16,1.913-1.886,5.362,0.548,6.911l4.095,2.606c6.283,3.999,12.481,8.095,18.611,12.267
	C252.702,103.322,289.949,89.72,328.659,89.72z"/>
<g>
	<path style="fill:#F95948;" d="M371.232,263.114c-28.942-35.259-61.495-67.811-96.752-96.753l-7.316-6.006l7.14-6.213
		c28.016-24.378,58.48-42.545,85.781-51.152c11.838-3.731,22.811-5.624,32.614-5.624c14.659,0,26.751,4.344,34.969,12.562
		c13.901,13.901,16.33,38.014,6.838,67.895c-8.646,27.215-26.777,57.567-51.055,85.468l-6.213,7.14L371.232,263.114z"/>
	<path style="fill:#F95948;" d="M170.634,366.599c-11.139,0-22.278-4.24-30.759-12.72c0,0,0,0,0-0.001
		c-16.96-16.96-16.96-44.558,0-61.518l32.527-32.527c2.929-2.928,7.678-2.928,10.606,0l7.071,7.07
		c1.406,1.406,2.197,3.314,2.197,5.304s-0.79,3.896-2.197,5.304l-32.527,32.527c-7.213,7.213-7.213,18.949,0,26.163
		c3.486,3.486,8.132,5.406,13.082,5.406s9.595-1.92,13.082-5.406l32.527-32.527c2.929-2.928,7.678-2.928,10.606,0l7.071,7.07
		c1.406,1.406,2.197,3.314,2.197,5.304s-0.79,3.896-2.197,5.304l-32.527,32.527C192.913,362.359,181.773,366.599,170.634,366.599z"
		/>
</g>
<g>
	<path style="fill:#77D8B1;" d="M347.5,359.888h-90c-4.142,0-7.5-3.357-7.5-7.5s3.358-7.5,7.5-7.5h90c6.893,0,12.5-5.607,12.5-12.5
		s-5.607-12.5-12.5-12.5s-12.5,5.607-12.5,12.5c0,4.143-3.358,7.5-7.5,7.5s-7.5-3.357-7.5-7.5c0-15.163,12.336-27.5,27.5-27.5
		s27.5,12.337,27.5,27.5S362.664,359.888,347.5,359.888z"/>
	<path style="fill:#77D8B1;" d="M191.5,207.888c-15.164,0-27.5-12.337-27.5-27.5c0-4.143,3.358-7.5,7.5-7.5s7.5,3.357,7.5,7.5
		c0,6.893,5.607,12.5,12.5,12.5s12.5-5.607,12.5-12.5s-5.607-12.5-12.5-12.5h-100c-4.142,0-7.5-3.357-7.5-7.5s3.358-7.5,7.5-7.5h100
		c15.164,0,27.5,12.337,27.5,27.5S206.664,207.888,191.5,207.888z"/>
	<path style="fill:#77D8B1;" d="M455.5,449.888c-15.164,0-27.5-12.337-27.5-27.5c0-4.143,3.358-7.5,7.5-7.5s7.5,3.357,7.5,7.5
		c0,6.893,5.607,12.5,12.5,12.5s12.5-5.607,12.5-12.5s-5.607-12.5-12.5-12.5h-100c-4.142,0-7.5-3.357-7.5-7.5s3.358-7.5,7.5-7.5h100
		c15.164,0,27.5,12.337,27.5,27.5S470.664,449.888,455.5,449.888z"/>
	<path style="fill:#77D8B1;" d="M504.5,120.888h-34c-4.142,0-7.5-3.357-7.5-7.5s3.358-7.5,7.5-7.5h34c4.142,0,7.5,3.357,7.5,7.5
		S508.642,120.888,504.5,120.888z"/>
	<path style="fill:#77D8B1;" d="M63.5,324.888h-56c-4.142,0-7.5-3.357-7.5-7.5s3.358-7.5,7.5-7.5h56c4.142,0,7.5,3.357,7.5,7.5
		S67.642,324.888,63.5,324.888z"/>
	<path style="fill:#77D8B1;" d="M161.5,418.888h-65c-4.142,0-7.5-3.357-7.5-7.5s3.358-7.5,7.5-7.5h65c4.142,0,7.5,3.357,7.5,7.5
		S165.642,418.888,161.5,418.888z"/>
</g>
<g>
</g>
<g>
</g>
<g>
</g>
<g>
</g>
<g>
</g>
<g>
</g>
<g>
</g>
<g>
</g>
<g>
</g>
<g>
</g>
<g>
</g>
<g>
</g>
<g>
</g>
<g>
</g>
<g>
</g>
</svg>
