<?xml version="1.0" encoding="iso-8859-1"?>
<!-- Generator: Adobe Illustrator 19.0.0, SVG Export Plug-In . SVG Version: 6.00 Build 0)  -->
<svg version="1.1" id="Capa_1" xmlns="http://www.w3.org/2000/svg" xmlns:xlink="http://www.w3.org/1999/xlink" x="0px" y="0px"
	 viewBox="0 0 512 512" style="enable-background:new 0 0 512 512;" xml:space="preserve">
<g>
	<path style="fill:#8EC155;" d="M442.168,441.822c-1.326,0-2.585-0.128-3.741-0.381c-7.11-1.554-13.236-5.593-17.247-11.375
		c-4.018-5.795-5.432-12.642-3.982-19.284c1.451-6.642,5.591-12.277,11.66-15.867c4.232-2.504,9.125-3.829,14.148-3.829
		c2.088,0,4.199,0.229,6.272,0.682c10.326,2.256,22.334,17.387,28.572,26.206l5.075,7.173l-7.612,4.389
		c-6.408,3.695-22.466,12.287-33.143,12.287C442.169,441.822,442.168,441.822,442.168,441.822z"/>
	<path style="fill:#8EC155;" d="M302.273,101.343c-2.469,0-4.741-0.274-6.754-0.818c-20.598-5.565-33.138-25.697-27.957-44.878
		c4.157-15.388,18.951-26.136,35.975-26.136c3.617,0,7.241,0.483,10.773,1.437c15.935,4.305,33.738,31.001,40.653,42.278l4.43,7.227
		l-7.466,4.013C344.56,88.425,319.206,101.343,302.273,101.343C302.272,101.343,302.274,101.343,302.273,101.343z"/>
	<path style="fill:#8EC155;" d="M75.109,353.548c-6.125,0-13.605-0.704-21.063-1.982l-8.643-1.48l2.257-8.473
		c2.782-10.441,8.778-28.808,17.673-34.515c4.677-3,10.002-4.584,15.4-4.584c1.621,0,3.247,0.145,4.836,0.431
		c6.946,1.258,12.787,5.102,16.457,10.823c3.671,5.721,4.727,12.632,2.975,19.462c-1.749,6.818-6.087,12.736-12.215,16.666
		C88.902,352.387,83.285,353.548,75.109,353.548C75.11,353.548,75.11,353.548,75.109,353.548z"/>
</g>
<g>
	<path style="fill:#77D8B1;" d="M455.8,55.014h-67.421c-4.146,0-7.507-3.36-7.507-7.507S384.233,40,388.379,40h51.738
		c-3.817-0.354-6.807-3.565-6.807-7.475c0-12.401,10.089-22.49,22.49-22.49c12.401,0,22.49,10.089,22.49,22.49
		S468.201,55.014,455.8,55.014z M441.518,40H455.8c4.122,0,7.475-3.353,7.475-7.475s-3.353-7.475-7.475-7.475
		c-4.122,0-7.475,3.353-7.475,7.475C448.325,36.435,445.336,39.646,441.518,40z"/>
	<path style="fill:#77D8B1;" d="M489.51,109.701c-12.401,0-22.49-10.089-22.49-22.49c0-3.91,2.989-7.121,6.807-7.475h-59.229
		c-4.146,0-7.507-3.36-7.507-7.507s3.361-7.507,7.507-7.507h74.912c12.401,0,22.49,10.089,22.49,22.49
		S501.911,109.701,489.51,109.701z M475.229,79.737c3.817,0.354,6.807,3.565,6.807,7.475c0,4.122,3.353,7.475,7.475,7.475
		s7.475-3.353,7.475-7.475s-3.353-7.475-7.475-7.475H475.229z"/>
</g>
<g>
	<path style="fill:#A88D68;" d="M454.076,426.759c-0.299,0-0.603-0.019-0.908-0.055c-4.235-0.51-41.816-5.33-57.034-17.204
		c-3.269-2.551-3.851-7.268-1.3-10.536c2.55-3.268,7.267-3.853,10.537-1.301c10.143,7.914,39.238,12.886,49.593,14.134
		c4.116,0.496,7.051,4.235,6.555,8.352C461.061,423.96,457.821,426.759,454.076,426.759z"/>
	<path style="fill:#A88D68;" d="M69.974,341.353c-2.227,0-4.43-0.986-5.912-2.874c-2.559-3.261-1.991-7.98,1.27-10.538
		c3.356-2.635,33.337-25.8,52.493-28.165c4.119-0.517,7.863,2.416,8.37,6.53c0.507,4.115-2.416,7.863-6.53,8.37
		c-12.743,1.573-36.85,18.634-45.064,25.075C73.229,340.831,71.595,341.353,69.974,341.353z"/>
	<path style="fill:#A88D68;" d="M319.282,77.721c-0.418,0-0.843-0.035-1.269-0.107c-2.356-0.4-57.937-10.031-78.476-27.733
		c-3.141-2.707-3.492-7.446-0.786-10.587c2.708-3.14,7.448-3.492,10.588-0.785c14.447,12.451,56.29,21.765,71.195,24.304
		c4.087,0.696,6.837,4.573,6.14,8.66C326.049,75.133,322.874,77.721,319.282,77.721z"/>
</g>
<g>
	<path style="fill:#77D8B1;" d="M166.663,427.227H75.574c-4.146,0-7.507-3.36-7.507-7.507s3.361-7.507,7.507-7.507h91.089
		c4.146,0,7.507,3.36,7.507,7.507S170.809,427.227,166.663,427.227z"/>
	<path style="fill:#77D8B1;" d="M390.882,462.261h-51.05c-4.146,0-7.507-3.36-7.507-7.507s3.361-7.507,7.507-7.507h51.05
		c4.146,0,7.507,3.36,7.507,7.507S395.028,462.261,390.882,462.261z"/>
	<path style="fill:#77D8B1;" d="M137.634,64.873H7.507C3.361,64.873,0,61.513,0,57.366s3.361-7.507,7.507-7.507h130.127
		c4.146,0,7.507,3.36,7.507,7.507S141.78,64.873,137.634,64.873z"/>
</g>
<path style="fill:#EDEDEB;" d="M243.834,434.234l25.778,66.618c0.584,1.508,2.729,1.476,3.267-0.048l23.901-67.206L243.834,434.234z
	"/>
<path style="fill:#B2B2A6;" d="M281.883,475.319l-15.897-41.085h-22.152l0.43,1.113l0,0l25.348,65.505
	c0.584,1.508,2.729,1.476,3.267-0.048l7.195-20.363L281.883,475.319z"/>
<g>
	<path style="fill:#EDEDEB;" d="M433.58,144.951H79.921c-10.676,0-19.362,11.001-19.362,24.524c0,13.08,8.126,23.798,18.319,24.487
		h355.744c10.193-0.689,18.319-11.407,18.319-24.487C452.942,155.953,444.257,144.951,433.58,144.951z"/>
	<path style="fill:#EDEDEB;" d="M296.399,434.234h2.79c10.676,0,19.362-11.001,19.362-24.524c0-11.112-5.865-20.521-13.88-23.523
		l-70.677-0.001c-8.016,3.006-13.897,12.444-13.897,23.524c0,13.523,8.686,24.524,19.363,24.524h4.373l0.092,0.238h52.389
		L296.399,434.234z"/>
	<path style="fill:#EDEDEB;" d="M197.021,337.139c-10.578,0-19.197,10.801-19.355,24.152c0.158,13.263,8.164,24.079,18.208,24.849
		c0.004,0,0.008,0.001,0.012,0.001h150.806c0.004,0,0.008-0.001,0.012-0.001c10.02-0.769,18.013-11.535,18.207-24.756
		c-0.098-10.989-5.924-20.267-13.872-23.244L197.021,337.139z"/>
	<path style="fill:#EDEDEB;" d="M400.929,338.094c10.146-0.752,18.22-11.441,18.22-24.478c0-13.523-8.685-24.524-19.362-24.524
		h-6.306c0.008-0.003,0.015-0.007,0.022-0.01l-179.957,1.011c-8.015,3.002-13.881,12.411-13.881,23.523
		c0,11.112,5.865,20.521,13.881,23.523L400.929,338.094z"/>
	<path style="fill:#EDEDEB;" d="M120.094,193.999c-8.029,3.002-13.952,12.493-13.952,23.523c0,12.917,7.926,23.524,17.94,24.451
		l226.96-0.928c8.015-3.002,13.881-12.411,13.881-23.523c0-11.072-5.917-20.52-13.996-23.523H120.094z"/>
	<path style="fill:#EDEDEB;" d="M393.48,289.092c8.015-3.002,13.88-12.411,13.88-23.523c0-13.523-8.685-24.524-19.362-24.524
		h-36.957c0.058-0.021-176.005,1.001-176.005,1.001c-8.015,3.002-13.88,12.411-13.88,23.523c0,13.523,8.685,24.524,19.362,24.524
		L393.48,289.092z"/>
</g>
<g>
	<path style="fill:#B2B2A6;" d="M434.623,169.82H78.878c-6.775-0.457-12.632-5.348-15.801-12.414
		c-1.6,3.566-2.517,7.684-2.517,12.07c0,13.08,8.126,23.798,18.319,24.487h355.744c10.193-0.689,18.319-11.407,18.319-24.487
		c0-4.386-0.918-8.504-2.517-12.07C447.255,164.472,441.397,169.362,434.623,169.82z"/>
	<path style="fill:#B2B2A6;" d="M299.189,410.091l-2.874,0.238l-52.481-0.238h-4.373c-7.205,0-13.499-5.014-16.833-12.429
		c-1.602,3.566-2.528,7.674-2.528,12.048c0,13.523,8.686,24.524,19.363,24.524h4.373l0.092,0.238h52.389l2.874-0.238
		c10.676,0,19.362-11.001,19.362-24.524c0-4.385-0.924-8.495-2.522-12.062C312.696,405.071,306.399,410.091,299.189,410.091z"/>
	<path style="fill:#B2B2A6;" d="M346.705,361.997c-0.004,0-0.008,0.001-0.012,0.001H195.887c-0.004,0-0.008-0.001-0.012-0.001
		c-6.668-0.511-12.435-5.453-15.606-12.596c-1.607,3.509-2.55,7.564-2.602,11.891c0.158,13.263,8.164,24.079,18.208,24.849
		c0.004,0,0.008,0.001,0.012,0.001h150.806c0.004,0,0.008-0.001,0.012-0.001c10.02-0.769,18.013-11.535,18.207-24.756
		c-0.039-4.358-0.99-8.438-2.606-11.972C359.133,356.55,353.369,361.487,346.705,361.997z"/>
	<path style="fill:#B2B2A6;" d="M400.929,313.951l-187.384-0.955c-4.849-1.816-8.9-5.987-11.353-11.451
		c-1.602,3.568-2.527,7.682-2.527,12.072c0,11.112,5.865,20.521,13.881,23.523l187.384,0.955
		c10.146-0.752,18.22-11.441,18.22-24.478c0-4.386-0.918-8.504-2.517-12.07C413.476,308.577,407.66,313.452,400.929,313.951z"/>
	<path style="fill:#B2B2A6;" d="M351.041,216.903l-226.96,0.928c-6.599-0.611-12.274-5.439-15.389-12.349
		c-1.615,3.572-2.55,7.682-2.55,12.041c0,12.917,7.926,23.524,17.94,24.451l226.96-0.928c8.015-3.002,13.881-12.411,13.881-23.523
		c0-4.367-0.932-8.473-2.542-12.04C359.924,210.932,355.881,215.09,351.041,216.903z"/>
	<path style="fill:#B2B2A6;" d="M393.48,264.949l-212.962,1.001c-7.21,0-13.507-5.02-16.839-12.442
		c-1.599,3.565-2.522,7.677-2.522,12.062c0,13.523,8.685,24.524,19.362,24.524l212.962-1.001c8.015-3.002,13.88-12.411,13.88-23.523
		c0-4.391-0.92-8.512-2.522-12.082C402.385,258.958,398.332,263.133,393.48,264.949z"/>
</g>
<g>
</g>
<g>
</g>
<g>
</g>
<g>
</g>
<g>
</g>
<g>
</g>
<g>
</g>
<g>
</g>
<g>
</g>
<g>
</g>
<g>
</g>
<g>
</g>
<g>
</g>
<g>
</g>
<g>
</g>
</svg>
