<?xml version="1.0" encoding="iso-8859-1"?>
<!-- Generator: Adobe Illustrator 19.0.0, SVG Export Plug-In . SVG Version: 6.00 Build 0)  -->
<svg version="1.1" id="Capa_1" xmlns="http://www.w3.org/2000/svg" xmlns:xlink="http://www.w3.org/1999/xlink" x="0px" y="0px"
	 viewBox="0 0 511.999 511.999" style="enable-background:new 0 0 511.999 511.999;" xml:space="preserve">
<path style="fill:#FFA000;" d="M124.488,413.721c-0.071-0.087-0.182-0.141-0.297-0.143l-48.804-1.017l-11.813-47.368
	c-0.028-0.113-0.105-0.207-0.209-0.26L19.797,342.91l9.906-47.797c0.024-0.113-0.003-0.231-0.072-0.323L0,256.002l29.629-38.788
	c0.069-0.091,0.097-0.209,0.072-0.323l-9.906-47.796l43.57-22.027c0.102-0.052,0.178-0.145,0.205-0.256l11.818-47.37l48.801-1.017
	c0.115-0.002,0.225-0.056,0.299-0.146l31.196-37.543l44.394,20.337c0.053,0.024,0.108,0.036,0.166,0.036
	c0.057,0,0.112-0.012,0.165-0.036l44.393-20.337l31.201,37.546c0.072,0.088,0.182,0.141,0.297,0.143l48.803,1.017l4.643,18.622
	l-7.238,2.439c-12.666,4.269-24.642,10.272-35.593,17.845l-4.601,3.182l-4.67-3.082c-22.998-15.18-49.761-23.202-77.399-23.202
	c-77.611,0-140.753,63.141-140.753,140.753s63.142,140.753,140.753,140.753c27.676,0,54.447-8.019,77.415-23.189l4.67-3.084
	l4.603,3.182c10.943,7.566,22.913,13.566,35.574,17.833l7.238,2.439l-4.643,18.623l-48.802,1.017
	c-0.115,0.002-0.225,0.055-0.298,0.144l-31.2,37.544l-44.393-20.337c-0.053-0.024-0.108-0.036-0.166-0.036
	c-0.058,0-0.112,0.012-0.165,0.036l-44.395,20.337L124.488,413.721z"/>
<path style="fill:#FFC200;" d="M200.245,397.791c-78.182,0-141.788-63.606-141.788-141.788s63.606-141.788,141.788-141.788
	c25.855,0,51.163,7.035,73.187,20.347l9.749,5.892l-8.612,7.456c-31.463,27.238-49.509,66.637-49.509,108.094
	c0,41.464,18.051,80.868,49.525,108.107l8.611,7.453l-9.745,5.894C251.454,390.76,226.14,397.791,200.245,397.791z"/>
<circle style="fill:#FFE44C;" cx="201.718" cy="254.447" r="109.46"/>
<circle style="fill:#FFFD80;" cx="201.718" cy="254.447" r="68.999"/>
<path style="fill:#C5C5C4;" d="M368.011,399.99c-79.394,0-143.987-64.592-143.987-143.988s64.592-143.988,143.987-143.988
	c79.395,0,143.988,64.592,143.988,143.988S447.407,399.99,368.011,399.99z"/>
<path style="fill:#A5A5A0;" d="M391.232,376.769c-79.394,0-143.987-64.592-143.987-143.988c0-33.795,11.709-64.902,31.274-89.492
	c-33.182,26.401-54.495,67.113-54.495,112.714c0,79.395,64.592,143.988,143.987,143.988c45.601,0,86.313-21.312,112.715-54.495
	C456.134,365.061,425.027,376.769,391.232,376.769z"/>
<g>
	<path style="fill:#A0A0A0;" d="M347.416,346.572c-7.135,0-12.939-5.804-12.939-12.939c0-7.135,5.804-12.939,12.939-12.939
		c7.135,0,12.939,5.804,12.939,12.939C360.355,340.768,354.55,346.572,347.416,346.572z"/>
	<path style="fill:#A0A0A0;" d="M317.399,279.292c-13.984,0-25.36-11.377-25.36-25.36s11.376-25.36,25.36-25.36
		c13.984,0,25.36,11.377,25.36,25.36S331.382,279.292,317.399,279.292z"/>
	<path style="fill:#A0A0A0;" d="M388.502,256.002c0,48.843,24.451,92.075,61.748,118.121
		c37.298-26.047,61.749-69.279,61.749-118.121s-24.451-92.075-61.749-118.121C412.953,163.928,388.502,207.161,388.502,256.002z"/>
</g>
<path style="fill:#707070;" d="M447.82,253.414c-9.988,0-18.114-8.126-18.114-18.114c0-9.988,8.126-18.114,18.114-18.114
	c9.988,0,18.114,8.126,18.114,18.114C465.934,245.288,457.807,253.414,447.82,253.414z"/>
<circle style="fill:#A0A0A0;" cx="344.311" cy="169.053" r="13.974"/>
<g>
	<path style="fill:#898988;" d="M347.416,320.695c-5.006,0-9.348,2.863-11.498,7.032c1.773-0.915,3.778-1.441,5.906-1.441
		c7.135,0,12.939,5.804,12.939,12.939c0,2.128-0.526,4.133-1.441,5.906c4.169-2.151,7.032-6.492,7.032-11.498
		C360.355,326.5,354.55,320.695,347.416,320.695z"/>
	<path style="fill:#898988;" d="M317.399,228.572c-8.415,0-15.882,4.124-20.498,10.453c4.188-3.053,9.339-4.862,14.906-4.862
		c13.984,0,25.36,11.377,25.36,25.36c0,5.568-1.808,10.718-4.862,14.906c6.33-4.615,10.453-12.083,10.453-20.498
		C342.758,239.949,331.382,228.572,317.399,228.572z"/>
</g>
<path style="fill:#595958;" d="M447.82,217.186c-6.424,0-12.063,3.37-15.279,8.427c2.805-1.786,6.124-2.835,9.687-2.835
	c9.988,0,18.114,8.126,18.114,18.114c0,3.565-1.05,6.882-2.835,9.687c5.055-3.217,8.427-8.856,8.427-15.279
	C465.934,225.313,457.807,217.186,447.82,217.186z"/>
<path style="fill:#898988;" d="M344.311,155.081c-5.297,0-9.904,2.948-12.274,7.291c1.985-1.084,4.261-1.7,6.683-1.7
	c7.718,0,13.974,6.256,13.974,13.974c0,2.421-0.617,4.697-1.7,6.683c4.344-2.37,7.291-6.978,7.291-12.274
	C358.285,161.337,352.027,155.081,344.311,155.081z"/>
<g>
	<circle style="fill:#A0A0A0;" cx="289.451" cy="189.755" r="6.728"/>
	<circle style="fill:#A0A0A0;" cx="289.451" cy="318.105" r="8.798"/>
</g>
<g>
</g>
<g>
</g>
<g>
</g>
<g>
</g>
<g>
</g>
<g>
</g>
<g>
</g>
<g>
</g>
<g>
</g>
<g>
</g>
<g>
</g>
<g>
</g>
<g>
</g>
<g>
</g>
<g>
</g>
</svg>
