<?xml version="1.0" encoding="iso-8859-1"?>
<!-- Generator: Adobe Illustrator 19.0.0, SVG Export Plug-In . SVG Version: 6.00 Build 0)  -->
<svg version="1.1" id="Capa_1" xmlns="http://www.w3.org/2000/svg" xmlns:xlink="http://www.w3.org/1999/xlink" x="0px" y="0px"
	 viewBox="0 0 512.001 512.001" style="enable-background:new 0 0 512.001 512.001;" xml:space="preserve">
<g>
	<path style="fill:#FFE44C;" d="M358.595,62.576c-1.315-1.762-2.874-3.32-4.633-4.631l-9.097-6.788l9.097-6.788
		c1.758-1.313,3.318-2.871,4.633-4.631l6.786-9.09l6.786,9.09c1.315,1.762,2.874,3.32,4.633,4.631l9.097,6.788l-9.097,6.788
		c-1.758,1.313-3.318,2.871-4.633,4.631l-6.786,9.09L358.595,62.576z"/>
	<path style="fill:#FFE44C;" d="M14.541,62.576c-1.315-1.762-2.874-3.32-4.633-4.631l-9.097-6.788l9.097-6.788
		c1.758-1.313,3.318-2.871,4.633-4.631l6.786-9.09l6.786,9.09c1.315,1.762,2.874,3.32,4.633,4.631l9.097,6.788l-9.097,6.788
		c-1.758,1.313-3.318,2.871-4.633,4.631l-6.786,9.09L14.541,62.576z"/>
	<path style="fill:#FFE44C;" d="M57.945,472.264c-1.315-1.762-2.874-3.32-4.633-4.632l-9.097-6.788l9.097-6.788
		c1.758-1.313,3.318-2.871,4.633-4.632l6.786-9.09l6.786,9.09c1.315,1.762,2.874,3.32,4.633,4.632l9.097,6.788l-9.097,6.788
		c-1.758,1.313-3.318,2.871-4.633,4.632l-6.786,9.09L57.945,472.264z"/>
</g>
<path style="fill:#FF977B;" d="M415.665,350.218v-47.109c0-32.397-26.357-58.754-58.754-58.754c-5.79,0-11.511,0.844-17.006,2.51
	l-5.417,1.641l-19.406-23.668l10.02-41.153l-41.058-19.011l19.089-7.073c17.157-6.357,35.251-9.581,53.778-9.581
	c85.516,0,155.089,69.573,155.089,155.089v47.109h-96.336V350.218z"/>
<path style="fill:#F95948;" d="M340.945,212.594l7.382-30.321c1.568-6.44-1.638-13.09-7.652-15.875l-26.685-12.356
	c-3.655,1.052-7.278,2.234-10.856,3.56l-19.089,7.073l41.058,19.011l-10.02,41.153l19.406,23.668l5.417-1.641
	c5.494-1.665,11.217-2.51,17.006-2.51c1,0,1.996,0.026,2.984,0.076l-16.199-19.757C340.932,221.303,339.914,216.829,340.945,212.594
	z"/>
<path style="fill:#FFF873;" d="M415.665,350.218v-47.109c0-32.397-26.357-58.754-58.754-58.754c-5.79,0-11.511,0.844-17.006,2.51
	l-5.417,1.641l-19.406-23.668l9.982-40.995l5.149-1.14c8.763-1.939,17.746-2.923,26.699-2.923c68.004,0,123.33,55.326,123.33,123.33
	v47.109h-64.577V350.218z"/>
<path style="fill:#FFC200;" d="M339.307,219.32l9.56-39.265c-6.268,0.411-12.515,1.289-18.653,2.648l-5.149,1.14l-9.982,40.995
	l19.406,23.668l5.417-1.641c5.494-1.665,11.217-2.51,17.006-2.51c1,0,1.996,0.026,2.984,0.076L339.307,219.32z"/>
<path style="fill:#AEEF66;" d="M415.665,350.218v-47.109c0-32.397-26.357-58.754-58.754-58.754c-5.79,0-11.511,0.844-17.006,2.51
	l-5.417,1.641l-21.688-26.453l10.842-4.249c10.608-4.158,21.801-6.266,33.269-6.266c50.492,0,91.571,41.079,91.571,91.571v47.109
	H415.665z"/>
<g>
	<path style="fill:#8EC155;" d="M372.138,244.401c-0.24-0.01-0.48-0.017-0.72-0.023c-1.049-0.029-1.25,1.486-0.232,1.741
		c25.521,6.393,44.48,29.517,44.48,56.991v47.109h12.913v-46.086C428.578,272.407,403.84,245.633,372.138,244.401z"/>
	<path style="fill:#8EC155;" d="M339.307,219.32l1.548-6.356c-5.868,1.044-11.623,2.649-17.212,4.84l-7.569,2.966l-0.991,4.067
		l19.406,23.669l5.417-1.641c5.494-1.665,11.217-2.51,17.006-2.51c0.01,0,0.02,0,0.03,0c1.157,0.001,1.803-1.329,1.069-2.223
		L339.307,219.32z"/>
</g>
<polygon style="fill:#FFA000;" points="171.652,405.859 133.457,424.974 107.313,391.212 64.62,391.793 55.719,350.03 
	16.968,332.087 27.068,290.602 0,257.588 27.068,224.576 16.968,183.089 55.72,165.147 64.621,123.383 107.314,123.966 
	133.457,90.204 171.652,109.318 209.848,90.204 235.992,123.966 278.685,123.384 287.586,165.147 326.337,183.091 316.237,224.576 
	343.305,257.588 316.237,290.602 326.337,332.088 287.585,350.03 278.684,391.795 235.991,391.212 209.848,424.974 "/>
<path style="fill:#FFC200;" d="M171.652,370.513c-62.266,0-112.925-50.658-112.925-112.925s50.658-112.925,112.925-112.925
	s112.925,50.658,112.925,112.925S233.919,370.513,171.652,370.513z"/>
<path style="fill:#FFE44C;" d="M171.652,335.397c-42.904,0-77.809-34.905-77.809-77.809s34.905-77.809,77.809-77.809
	s77.809,34.905,77.809,77.809S214.556,335.397,171.652,335.397z"/>
<path style="fill:#FFFD80;" d="M171.652,299.228c-22.959,0-41.639-18.679-41.639-41.639c0-22.959,18.679-41.639,41.639-41.639
	s41.639,18.679,41.639,41.639C213.291,280.549,194.612,299.228,171.652,299.228z"/>
<g>
</g>
<g>
</g>
<g>
</g>
<g>
</g>
<g>
</g>
<g>
</g>
<g>
</g>
<g>
</g>
<g>
</g>
<g>
</g>
<g>
</g>
<g>
</g>
<g>
</g>
<g>
</g>
<g>
</g>
</svg>
