<?xml version="1.0" encoding="iso-8859-1"?>
<!-- Generator: Adobe Illustrator 19.0.0, SVG Export Plug-In . SVG Version: 6.00 Build 0)  -->
<svg version="1.1" id="Capa_1" xmlns="http://www.w3.org/2000/svg" xmlns:xlink="http://www.w3.org/1999/xlink" x="0px" y="0px"
	 viewBox="0 0 512.001 512.001" style="enable-background:new 0 0 512.001 512.001;" xml:space="preserve">
<path style="fill:#FF977B;" d="M459.046,274.142c-9.935-46.724-35.835-89.004-72.933-119.048
	c-37.178-30.112-84.101-46.694-132.126-46.694c-48.119,0-95.08,16.58-132.231,46.686c-37.056,30.03-62.927,72.333-72.847,119.116
	l-2.209,10.419v42.965l71.418,3.035h19.45l0.601-5.676c0,0-0.097-6.993-0.1-7.055c0.102-63.831,52.063-115.727,115.917-115.727
	c63.658,0,115.656,51.79,115.911,115.448l0.029,7.374v18.338h91.202v-59.385L459.046,274.142z"/>
<g>
	<path style="fill:#F95948;" d="M381.41,304.477c-2.717-0.378-5.467-0.57-8.231-0.57c-1.391,0-2.767,0.065-4.134,0.159
		c0.54,4.444,0.835,8.963,0.853,13.545l0.029,7.374v18.338h91.202v-59.385l-2.082-9.797c-0.828-3.898-1.778-7.762-2.827-11.593
		c-1.385-0.071-2.779-0.108-4.181-0.108C422.298,262.44,395.327,279.211,381.41,304.477z"/>
	<path style="fill:#F95948;" d="M138.821,303.907c-2.764,0-5.514,0.192-8.231,0.57c-13.917-25.265-40.889-42.037-70.628-42.037
		c-2.804,0-5.573,0.146-8.304,0.429c-1.017,3.746-1.941,7.524-2.749,11.333l-2.209,10.419v42.965l71.418,3.035h19.45l0.601-5.676
		c0,0-0.097-6.993-0.1-7.055c0.007-4.731,0.307-9.396,0.869-13.98C138.899,303.91,138.86,303.907,138.821,303.907z"/>
	<path style="fill:#F95948;" d="M70.216,327.587v-42.965l2.209-10.419c9.919-46.783,35.791-89.086,72.847-119.116
		c34.114-27.645,76.501-43.874,120.461-46.344c-3.905-0.219-7.822-0.342-11.746-0.342c-48.119,0-95.08,16.58-132.231,46.686
		c-37.056,30.03-62.927,72.333-72.847,119.116L46.7,284.622v42.965l71.418,3.035h19.45l0.019-0.172L70.216,327.587z"/>
</g>
<path id="SVGCleanerId_0" style="fill:#FFF873;" d="M398.939,294.591c-11.334-70.315-73.65-123.339-144.953-123.339
	c-36.634,0-71.743,13.623-98.86,38.36c-24.055,21.943-39.823,50.361-45.599,82.181l-2.45,13.496l-10.767-8.497
	c-3.82-3.014-7.973-5.544-12.345-7.522l-6.075-2.746l1.416-6.515c8.612-39.634,30.775-75.518,62.406-101.041
	c31.693-25.573,71.567-39.656,112.275-39.656c41.097,0,81.243,14.281,113.04,40.211c31.749,25.891,53.784,62.247,62.047,102.37
	l1.25,6.069l-5.484,2.887c-4.423,2.329-8.539,5.203-12.232,8.544l-10.923,14.453L398.939,294.591z"/>
<g>
	<path id="SVGCleanerId_0_1_" style="fill:#FFF873;" d="M398.939,294.591c-11.334-70.315-73.65-123.339-144.953-123.339
		c-36.634,0-71.743,13.623-98.86,38.36c-24.055,21.943-39.823,50.361-45.599,82.181l-2.45,13.496l-10.767-8.497
		c-3.82-3.014-7.973-5.544-12.345-7.522l-6.075-2.746l1.416-6.515c8.612-39.634,30.775-75.518,62.406-101.041
		c31.693-25.573,71.567-39.656,112.275-39.656c41.097,0,81.243,14.281,113.04,40.211c31.749,25.891,53.784,62.247,62.047,102.37
		l1.25,6.069l-5.484,2.887c-4.423,2.329-8.539,5.203-12.232,8.544l-10.923,14.453L398.939,294.591z"/>
</g>
<path style="fill:#AEEF66;" d="M386.157,327.821c-2.836-1.028-5.829-1.717-8.897-2.046l-7.333-0.788l-0.029-7.375
	c-0.255-63.658-52.252-115.448-115.911-115.448c-63.854,0-115.815,51.898-115.917,115.728c0.002,0.065,0.092,7.055,0.092,7.055
	l-6.731,1.33c-1.941,0.383-3.821,0.903-5.588,1.543l-7.725,2.802l-2.826-7.715c-1.741-4.753-4.115-9.294-7.056-13.495l-1.879-2.684
	l0.501-3.393c7.543-75.896,70.763-133.113,147.129-133.113c77.837,0,142.633,60.782,147.56,138.395l0.138,5.228l-1.023,0.499
	c-1.556,2.767-2.886,5.647-3.955,8.563l-2.826,7.715L386.157,327.821z"/>
<path style="fill:#8EC155;" d="M393.412,317.612c-0.255-63.658-52.252-115.448-115.911-115.448c-3.972,0-7.898,0.202-11.768,0.593
	c58.187,5.903,103.924,55.161,104.163,114.855l0.029,7.374v18.338h23.515v-18.338L393.412,317.612z"/>
<g>
	<path style="fill:#FFC200;" d="M96.31,296.79l10.767,8.497l2.45-13.496c0.627-3.455,1.38-6.867,2.24-10.239
		c-8.379-7.071-18.165-12.449-28.768-15.672c-1.421,4.647-2.657,9.359-3.694,14.126l-1.416,6.515l6.075,2.746
		C88.337,291.246,92.491,293.777,96.31,296.79z"/>
	<path style="fill:#FFC200;" d="M398.939,294.591l2.746,19.255l10.923-14.453c3.693-3.34,7.808-6.215,12.232-8.544l5.484-2.887
		l-1.25-6.069c-1.029-5-2.274-9.942-3.724-14.813c-10.602,3.787-20.276,9.766-28.415,17.424
		C397.718,287.821,398.39,291.185,398.939,294.591z"/>
</g>
<g>
	<path style="fill:#8EC155;" d="M138.821,303.907c-2.764,0-5.514,0.192-8.231,0.57c-5.032-9.135-11.778-17.153-19.739-23.676
		c-1.874,7.292-3.227,14.815-3.995,22.534l-0.501,3.393l1.879,2.684c2.941,4.201,5.315,8.741,7.056,13.495l2.826,7.715l7.725-2.802
		c1.767-0.641,3.646-1.16,5.588-1.543l6.731-1.33c0,0-0.09-6.991-0.092-7.055c0.007-4.732,0.307-9.397,0.869-13.981
		C138.899,303.91,138.86,303.907,138.821,303.907z"/>
	<path style="fill:#8EC155;" d="M381.41,304.477c-2.717-0.378-5.467-0.57-8.231-0.57c-1.391,0-2.767,0.065-4.134,0.159
		c0.54,4.444,0.835,8.962,0.853,13.545l0.029,7.375l7.333,0.788c3.068,0.33,6.062,1.018,8.897,2.046l7.724,2.802l2.826-7.715
		c1.068-2.916,2.399-5.797,3.955-8.563l1.023-0.499l-0.138-5.228c-0.542-8.536-1.809-16.867-3.737-24.937
		C391.294,289.632,385.724,296.645,381.41,304.477z"/>
</g>
<path style="fill:#C3FFF9;" d="M373.179,403.601c-21.691,0-39.339-17.739-39.339-39.543s17.647-39.543,39.339-39.543
	c7.186,0,14.196,1.966,20.326,5.693c6.045-27.372,30.543-47.16,58.533-47.16c33.064,0,59.963,27.04,59.963,60.277
	s-26.899,60.277-59.963,60.277h-78.859V403.601z"/>
<path style="fill:#8BF2E6;" d="M375.006,364.058c0-14.144,7.43-26.569,18.567-33.56c-0.045-0.105-0.08-0.215-0.124-0.321
	c-6.116-3.705-13.106-5.662-20.271-5.662c-21.691,0-39.339,17.739-39.339,39.543s17.647,39.543,39.339,39.543h41.165
	C392.653,403.601,375.006,385.862,375.006,364.058z"/>
<path style="fill:#C3FFF9;" d="M59.962,403.601C26.899,403.601,0,376.561,0,343.324s26.899-60.277,59.962-60.277
	c27.99,0,52.487,19.789,58.533,47.16c6.129-3.726,13.14-5.692,20.326-5.692c21.691,0,39.339,17.739,39.339,39.543
	s-17.647,39.543-39.339,39.543L59.962,403.601L59.962,403.601z"/>
<path style="fill:#8BF2E6;" d="M111.777,403.601c-29.855,0-54.684-22.046-59.222-50.794c-0.802-5.076,3.181-9.654,8.319-9.654
	h18.782c6.921,0,12.53-5.61,12.53-12.53l0,0c0-6.921-5.61-12.53-12.53-12.53h-7.084c-7.106,0-11.076-8.331-6.488-13.757
	c3.746-4.431,8.118-8.312,12.977-11.504c2.72-1.788,2.186-5.906-0.911-6.909c-5.772-1.868-11.889-2.875-18.187-2.875
	C26.899,283.047,0,310.087,0,343.324s26.899,60.277,59.962,60.277H111.777z"/>
<g>
</g>
<g>
</g>
<g>
</g>
<g>
</g>
<g>
</g>
<g>
</g>
<g>
</g>
<g>
</g>
<g>
</g>
<g>
</g>
<g>
</g>
<g>
</g>
<g>
</g>
<g>
</g>
<g>
</g>
</svg>
