<?xml version="1.0" encoding="iso-8859-1"?>
<!-- Generator: Adobe Illustrator 19.0.0, SVG Export Plug-In . SVG Version: 6.00 Build 0)  -->
<svg version="1.1" id="Capa_1" xmlns="http://www.w3.org/2000/svg" xmlns:xlink="http://www.w3.org/1999/xlink" x="0px" y="0px"
	 viewBox="0 0 512.001 512.001" style="enable-background:new 0 0 512.001 512.001;" xml:space="preserve">
<path style="fill:#FFE783;" d="M109.225,348.842l-2.385-3.481c-17.824-26.01-27.245-56.478-27.245-88.108
	c0-86.103,70.049-156.152,156.152-156.152S391.9,171.15,391.9,257.253c0,31.621-9.419,62.088-27.238,88.107l-2.385,3.482H109.225z"
	/>
<path style="fill:#FFA000;" d="M325.977,345.568c22.836-23.068,36.943-54.792,36.943-89.817
	c0-70.512-57.161-127.672-127.672-127.672S107.575,185.24,107.575,255.751c0,35.023,14.107,66.749,36.943,89.817H325.977z"/>
<path style="fill:#FFC84D;" d="M147.191,348.199h176.111c24.407-23.255,39.617-56.075,39.617-92.447
	c0-70.512-57.161-127.672-127.672-127.672S107.574,185.24,107.574,255.751C107.575,292.125,122.785,324.944,147.191,348.199z"/>
<path style="fill:#FFA300;" d="M211.761,348.199h46.972c41.311-10.463,71.879-47.884,71.879-92.447
	c0-52.668-42.697-95.365-95.365-95.365s-95.365,42.697-95.365,95.365C139.882,300.315,170.45,337.735,211.761,348.199z"/>
<circle style="fill:#FF7F00;" cx="235.25" cy="255.75" r="57.506"/>
<g>
	<path style="fill:#DB6505;" d="M409.917,355.849H63.58c-4.146,0-7.507-3.361-7.507-7.507c0-4.146,3.361-7.507,7.507-7.507h346.338
		c4.146,0,7.507,3.361,7.507,7.507C417.425,352.488,414.063,355.849,409.917,355.849z"/>
	<path style="fill:#DB6505;" d="M243.755,406.899H124.639c-4.146,0-7.507-3.361-7.507-7.507c0-4.146,3.361-7.507,7.507-7.507
		h119.116c4.146,0,7.507,3.361,7.507,7.507C251.263,403.538,247.902,406.899,243.755,406.899z"/>
	<path style="fill:#DB6505;" d="M347.857,406.899h-62.561c-4.146,0-7.507-3.361-7.507-7.507c0-4.146,3.361-7.507,7.507-7.507h62.561
		c4.146,0,7.507,3.361,7.507,7.507C355.364,403.538,352.003,406.899,347.857,406.899z"/>
</g>
<g>
	<path style="fill:#B25008;" d="M297.308,456.948h-72.571c-4.146,0-7.507-3.361-7.507-7.507c0-4.146,3.361-7.507,7.507-7.507h72.571
		c4.146,0,7.507,3.361,7.507,7.507C304.815,453.586,301.454,456.948,297.308,456.948z"/>
	<path style="fill:#B25008;" d="M191.204,456.948h-15.515c-4.146,0-7.507-3.361-7.507-7.507c0-4.146,3.361-7.507,7.507-7.507h15.515
		c4.146,0,7.507,3.361,7.507,7.507C198.712,453.586,195.35,456.948,191.204,456.948z"/>
</g>
<path style="fill:#8E3C04;" d="M269.28,512.001h-62.06c-4.146,0-7.507-3.361-7.507-7.507c0-4.146,3.361-7.507,7.507-7.507h62.06
	c4.146,0,7.507,3.361,7.507,7.507C276.788,508.64,273.426,512.001,269.28,512.001z"/>
<g>
	<path style="fill:#DB6505;" d="M356.459,37.887c-0.074,0-0.148-0.001-0.224-0.003c-2.927-0.086-5.536-1.868-6.684-4.562
		c-2.627-6.164-9.351-12.717-19.989-19.476c-3.499-2.223-4.534-6.863-2.311-10.363c2.224-3.499,6.861-4.534,10.363-2.311
		c8.076,5.131,14.341,10.281,18.899,15.558c4.614-5.477,10.527-10.277,17.852-14.514c3.588-2.074,8.181-0.85,10.258,2.74
		c2.076,3.588,0.85,8.181-2.74,10.258c-8.966,5.187-15.085,11.243-18.705,18.514C361.907,36.281,359.3,37.887,356.459,37.887z"/>
	<path style="fill:#DB6505;" d="M391.772,113.112c-0.074,0-0.149-0.001-0.224-0.003c-2.927-0.087-5.536-1.868-6.685-4.562
		c-0.87-2.042-3.372-5.406-10.36-9.846c-3.499-2.224-4.534-6.863-2.311-10.363c2.224-3.499,6.863-4.533,10.363-2.311
		c3.652,2.32,6.717,4.67,9.218,7.071c2.467-2.401,5.384-4.569,8.782-6.535c3.588-2.075,8.18-0.852,10.258,2.739
		c2.076,3.589,0.851,8.181-2.739,10.258c-4.638,2.684-7.773,5.756-9.583,9.392C397.219,111.506,394.612,113.112,391.772,113.112z"/>
	<path style="fill:#DB6505;" d="M435.879,66.143c-0.074,0-0.148-0.001-0.223-0.003c-2.927-0.086-5.536-1.868-6.685-4.561
		c-0.87-2.042-3.373-5.408-10.36-9.847c-3.5-2.223-4.534-6.863-2.311-10.363c2.223-3.499,6.864-4.534,10.362-2.311
		c3.653,2.32,6.717,4.669,9.218,7.07c2.467-2.401,5.384-4.569,8.781-6.534c3.588-2.077,8.181-0.85,10.258,2.739
		c2.076,3.588,0.851,8.181-2.739,10.258c-4.638,2.683-7.772,5.756-9.582,9.392C441.326,64.536,438.719,66.143,435.879,66.143z"/>
</g>
<g>
</g>
<g>
</g>
<g>
</g>
<g>
</g>
<g>
</g>
<g>
</g>
<g>
</g>
<g>
</g>
<g>
</g>
<g>
</g>
<g>
</g>
<g>
</g>
<g>
</g>
<g>
</g>
<g>
</g>
</svg>
