<?xml version="1.0" encoding="iso-8859-1"?>
<!-- Generator: Adobe Illustrator 19.0.0, SVG Export Plug-In . SVG Version: 6.00 Build 0)  -->
<svg version="1.1" id="Capa_1" xmlns="http://www.w3.org/2000/svg" xmlns:xlink="http://www.w3.org/1999/xlink" x="0px" y="0px"
	 viewBox="0 0 511.999 511.999" style="enable-background:new 0 0 511.999 511.999;" xml:space="preserve">
<g>
	<path style="fill:#FFE44C;" d="M32.073,497.333c-2.008-3.743-4.496-7.11-7.396-10.01c-2.9-2.9-6.267-5.389-10.01-7.396L0,472.055
		l14.667-7.871c3.743-2.008,7.11-4.496,10.01-7.396c2.9-2.9,5.389-6.267,7.396-10.01l7.871-14.667l7.871,14.667
		c2.008,3.743,4.496,7.11,7.396,10.01c2.9,2.9,6.267,5.389,10.01,7.396l14.667,7.871l-14.667,7.871
		c-3.743,2.008-7.11,4.496-10.01,7.396c-2.9,2.9-5.389,6.267-7.396,10.01l-7.871,14.667L32.073,497.333z"/>
	<path style="fill:#FFE44C;" d="M464.184,65.222c-2.008-3.743-4.496-7.11-7.396-10.01c-2.9-2.9-6.267-5.389-10.01-7.396
		l-14.667-7.872l14.667-7.871c3.743-2.008,7.11-4.496,10.01-7.396c2.9-2.9,5.389-6.267,7.396-10.01L472.055,0l7.871,14.667
		c2.008,3.743,4.496,7.11,7.396,10.01c2.9,2.9,6.267,5.389,10.01,7.396l14.667,7.871l-14.667,7.871
		c-3.743,2.008-7.11,4.496-10.01,7.396c-2.9,2.9-5.389,6.267-7.396,10.01l-7.871,14.667L464.184,65.222z"/>
</g>
<polygon style="fill:#FFA000;" points="256.558,448.092 208.702,467.389 173.929,429.281 122.462,425.818 107.67,376.395 
	62.757,351.011 70.874,300.07 41.498,257.674 70.874,215.279 62.757,164.338 107.672,138.954 122.463,89.532 173.93,86.067 
	208.702,47.961 256.558,67.256 304.415,47.961 339.187,86.068 390.655,89.532 405.446,138.954 450.36,164.338 442.243,215.279 
	471.618,257.674 442.243,300.07 450.36,351.011 405.445,376.395 390.654,425.818 339.187,429.283 304.415,467.389 "/>
<path style="fill:#FFC200;" d="M256.558,410.085c-84.041,0-152.411-68.371-152.411-152.411s68.371-152.411,152.411-152.411
	s152.411,68.371,152.411,152.411S340.598,410.085,256.558,410.085z"/>
<path style="fill:#FFE44C;" d="M256.558,365.297c-59.343,0-107.621-48.279-107.621-107.621s48.279-107.621,107.621-107.621
	s107.621,48.279,107.621,107.621S315.901,365.297,256.558,365.297z"/>
<path style="fill:#FFFD80;" d="M256.558,318.865c-33.74,0-61.19-27.45-61.19-61.19s27.45-61.19,61.19-61.19s61.19,27.45,61.19,61.19
	S290.299,318.865,256.558,318.865z"/>
<path style="fill:#FFE44C;" d="M58.467,51.988c-1.386-1.856-3.029-3.499-4.885-4.885l-9.592-7.158l9.592-7.158
	c1.856-1.386,3.499-3.029,4.885-4.885l7.158-9.592l7.158,9.592c1.386,1.856,3.029,3.499,4.885,4.885l9.592,7.158l-9.592,7.158
	c-1.856,1.386-3.499,3.029-4.885,4.885l-7.158,9.592L58.467,51.988z"/>
<path style="fill:#FFFFFF;" d="M327.922,289.006c-0.673-0.789-1.415-1.531-2.204-2.204l-7.969-6.797l7.969-6.797
	c0.789-0.673,1.531-1.415,2.204-2.204l6.797-7.969l6.797,7.969c0.673,0.789,1.415,1.531,2.204,2.204l7.969,6.797l-7.969,6.797
	c-0.789,0.673-1.531,1.415-2.204,2.204l-6.797,7.969L327.922,289.006z"/>
<path style="fill:#FFE44C;" d="M466.376,476.589c-0.673-0.789-1.415-1.531-2.204-2.204l-7.969-6.797l7.969-6.797
	c0.789-0.673,1.531-1.415,2.204-2.204l6.797-7.969l6.797,7.969c0.673,0.789,1.415,1.531,2.204,2.204l7.969,6.797l-7.969,6.797
	c-0.789,0.673-1.531,1.415-2.204,2.204l-6.797,7.969L466.376,476.589z"/>
<g>
</g>
<g>
</g>
<g>
</g>
<g>
</g>
<g>
</g>
<g>
</g>
<g>
</g>
<g>
</g>
<g>
</g>
<g>
</g>
<g>
</g>
<g>
</g>
<g>
</g>
<g>
</g>
<g>
</g>
</svg>
