<?xml version="1.0" encoding="iso-8859-1"?>
<!-- Generator: Adobe Illustrator 19.0.0, SVG Export Plug-In . SVG Version: 6.00 Build 0)  -->
<svg version="1.1" id="Capa_1" xmlns="http://www.w3.org/2000/svg" xmlns:xlink="http://www.w3.org/1999/xlink" x="0px" y="0px"
	 viewBox="0 0 512 512" style="enable-background:new 0 0 512 512;" xml:space="preserve">
<g>
	<path style="fill:#C3FFF9;" d="M70.683,201.51c-9.638,0-17.478-7.84-17.478-17.478c0-9.638,7.84-17.478,17.478-17.478h55.49
		l-6.965,12.283c-3.228,5.691-6.123,11.611-8.607,17.6l-2.106,5.073H70.683z"/>
	<path style="fill:#C3FFF9;" d="M358.04,512c-10.488,0-19.02-8.532-19.02-19.02s8.532-19.02,19.02-19.02h23.2
		c-0.046-0.537-0.068-1.047-0.068-1.542c0-10.488,8.532-19.02,19.02-19.02h74.024c10.488,0,19.02,8.532,19.02,19.02
		s-8.532,19.02-19.02,19.02h-23.2c0.046,0.537,0.068,1.047,0.068,1.542c0,10.488-8.532,19.02-19.02,19.02H358.04z"/>
	<path style="fill:#C3FFF9;" d="M386.827,179.92c-15.589,0-28.273-12.683-28.273-28.273c0-4.131,0.871-8.104,2.591-11.823h-13.386
		c-15.589,0-28.273-12.683-28.273-28.273s12.684-28.273,28.273-28.273h13.883c-2.022-3.958-3.087-8.382-3.087-12.851
		c0-4.879,1.254-9.659,3.635-13.88H252.145c-15.589,0-28.273-12.683-28.273-28.273S236.555,0,252.145,0h183.004
		c15.589,0,28.273,12.683,28.273,28.273c0,4.888-1.258,9.674-3.647,13.899c15.13,0.52,27.293,13.014,27.293,28.254
		c0,15.59-12.684,28.273-28.273,28.273H424.35c2.022,3.958,3.087,8.383,3.087,12.851c0,4.131-0.871,8.104-2.591,11.823h58.623
		c15.589,0,28.273,12.683,28.273,28.273s-12.684,28.273-28.273,28.273H386.827z"/>
</g>
<g>
	<path style="fill:#8BF2E6;" d="M271.026,28.273C271.026,12.683,283.71,0,299.299,0h-47.154c-15.589,0-28.273,12.683-28.273,28.273
		s12.684,28.273,28.273,28.273h47.154C283.71,56.546,271.026,43.863,271.026,28.273z"/>
	<path style="fill:#8BF2E6;" d="M405.709,151.647c0-4.131,0.871-8.104,2.591-11.823h-13.386c-15.589,0-28.273-12.683-28.273-28.273
		s12.684-28.273,28.273-28.273h13.883c-2.022-3.958-3.087-8.382-3.087-12.851c0-4.879,1.254-9.659,3.635-13.88H362.19
		c-2.381,4.22-3.635,9-3.635,13.88c0,4.469,1.065,8.893,3.087,12.851h-13.883c-15.589,0-28.273,12.683-28.273,28.273
		s12.684,28.273,28.273,28.273h13.386c-1.72,3.72-2.591,7.692-2.591,11.823c0,15.59,12.684,28.273,28.273,28.273h47.154
		C418.392,179.92,405.709,167.237,405.709,151.647z"/>
	<path style="fill:#8BF2E6;" d="M126.173,166.554h-24.798c-6.414,11.084-11.641,22.813-15.593,34.956h22.713l2.105-5.074
		c2.484-5.988,5.379-11.91,8.607-17.6L126.173,166.554z"/>
</g>
<path style="fill:#FFE44C;" d="M258.313,418.442c-88.72,0-160.9-72.18-160.9-160.9c0-36.129,12.394-71.643,34.897-100.002
	c22.343-28.157,53.773-48.223,88.499-56.503l0,0c6.875-1.64,12.479,5.585,9.183,11.837l0,0
	c-10.202,19.349-15.374,40.349-15.374,62.419c0,73.981,60.188,134.169,134.169,134.169c17.529,0,34.636-3.362,50.848-9.991l0,0
	c6.545-2.676,13.193,3.607,10.89,10.291l0,0c-10.855,31.51-31.103,58.588-58.557,78.309
	C324.309,407.941,291.923,418.442,258.313,418.442z"/>
<path style="fill:#FFC200;" d="M197.655,250.859h40.328c-13.555-19.813-21.942-43.424-23.197-68.884h-17.13
	c-18.991,0-34.442,15.45-34.442,34.442S178.663,250.859,197.655,250.859z"/>
<path style="fill:#C3FFF9;" d="M197.655,235.438c-10.488,0-19.02-8.532-19.02-19.02s8.532-19.02,19.02-19.02h140.851
	c10.488,0,19.02,8.532,19.02,19.02s-8.532,19.02-19.02,19.02H197.655z"/>
<path style="fill:#8BF2E6;" d="M232.099,216.418c0-10.488,8.532-19.02,19.02-19.02h-53.465c-10.488,0-19.02,8.532-19.02,19.02
	s8.532,19.02,19.02,19.02h53.465C240.632,235.438,232.099,226.905,232.099,216.418z"/>
<path style="fill:#FFC200;" d="M310.464,405.878c-7.7,1.142-15.512,1.721-23.392,1.721c-38.263,0-73.447-13.43-101.093-35.819
	c-2.804-2.27-1.22-6.8,2.387-6.8H200.4c27.867,0,51.207-22.046,51.737-49.908c0.54-28.511-22.495-51.875-50.883-51.875h-58.742
	c-9.02,0-16.334-7.31-16.338-16.329v-0.167c0-36.129,12.394-71.643,34.897-100.002c9.98-12.577,21.774-23.536,34.865-32.553
	c2.288-1.576,0.333-5.099-2.21-3.981c-23.827,10.489-45.056,26.762-61.414,47.375c-22.503,28.359-34.897,63.874-34.897,100.002
	c0,7.434,0.518,14.748,1.499,21.917c0.041,0.303,0.1,0.598,0.024,0.985c-0.214,1.096,0.063,2.179,0.534,3.191
	c0.124,0.268,0.162,0.557,0.211,0.844c1.084,6.401,2.547,12.672,4.364,18.795c0.027,0.091,0.054,0.182,0.081,0.273
	c0.448,1.499,0.915,2.989,1.405,4.469c0.001,0.002,0.001,0.005,0.002,0.008c1.505,4.544,3.209,8.997,5.098,13.353
	c0.043,0.1,0.087,0.199,0.132,0.299c0.581,1.331,1.177,2.655,1.796,3.969c0.05,0.107,0.101,0.215,0.151,0.323
	c2.011,4.263,4.202,8.423,6.567,12.472c0.029,0.049,0.059,0.098,0.087,0.147c0.738,1.261,1.495,2.511,2.267,3.751
	c0.088,0.142,0.177,0.284,0.266,0.426c0.765,1.22,1.545,2.43,2.342,3.629c0.046,0.07,0.091,0.14,0.138,0.21
	c2.575,3.861,5.314,7.603,8.204,11.219c0.102,0.127,0.205,0.254,0.306,0.38c0.828,1.028,1.662,2.051,2.519,3.056
	c0.156,0.183,0.31,0.368,0.467,0.551c2.989,3.505,6.124,6.881,9.398,10.118c0.098,0.097,0.196,0.191,0.294,0.287
	c0.976,0.96,1.965,1.907,2.965,2.843c0.163,0.152,0.327,0.304,0.49,0.456c1.003,0.93,2.018,1.849,3.045,2.753
	c0.104,0.091,0.207,0.185,0.31,0.277c2.335,2.046,4.726,4.027,7.176,5.938c0.007,0.005,0.014,0.011,0.023,0.017
	c1.167,0.909,2.347,1.8,3.54,2.677c0.176,0.13,0.354,0.258,0.531,0.387c1.066,0.778,2.143,1.544,3.228,2.297
	c0.178,0.123,0.356,0.249,0.536,0.371c25.881,17.784,57.195,28.211,90.903,28.211c18.212,0,36.063-3.087,52.999-9.075
	C313.375,408.638,312.628,405.557,310.464,405.878z"/>
<path style="fill:#C3FFF9;" d="M35.727,401.992c-19.558,0-35.47-15.912-35.47-35.47c0-19.558,15.912-35.47,35.47-35.47h42.59
	c-2.831-5.189-4.323-11.035-4.323-16.964c0-19.558,15.912-35.47,35.47-35.47h91.79c19.558,0,35.47,15.912,35.47,35.47
	s-15.912,35.47-35.47,35.47h-42.59c2.831,5.189,4.323,11.035,4.323,16.964c0,19.558-15.912,35.47-35.47,35.47H35.727z"/>
<g>
	<path style="fill:#8BF2E6;" d="M36.428,366.522c0-19.558,15.912-35.47,35.47-35.47H35.727c-19.558,0-35.47,15.912-35.47,35.47
		c0,19.558,15.912,35.47,35.47,35.47h36.171C52.339,401.992,36.428,386.08,36.428,366.522z"/>
	<path style="fill:#8BF2E6;" d="M161.355,315.101h-51.16c-0.01-0.337-0.032-0.674-0.032-1.013c0-19.558,15.912-35.47,35.47-35.47
		h-36.17c-19.558,0-35.47,15.912-35.47,35.47c0,5.929,1.492,11.775,4.323,16.964h15.441h20.73h46.869
		c4.404,0,7.976-3.571,7.976-7.976C169.331,318.672,165.76,315.101,161.355,315.101z"/>
</g>
<g>
</g>
<g>
</g>
<g>
</g>
<g>
</g>
<g>
</g>
<g>
</g>
<g>
</g>
<g>
</g>
<g>
</g>
<g>
</g>
<g>
</g>
<g>
</g>
<g>
</g>
<g>
</g>
<g>
</g>
</svg>
