<?xml version="1.0" encoding="iso-8859-1"?>
<!-- Generator: Adobe Illustrator 19.0.0, SVG Export Plug-In . SVG Version: 6.00 Build 0)  -->
<svg version="1.1" id="Capa_1" xmlns="http://www.w3.org/2000/svg" xmlns:xlink="http://www.w3.org/1999/xlink" x="0px" y="0px"
	 viewBox="0 0 512 512" style="enable-background:new 0 0 512 512;" xml:space="preserve">
<path style="fill:#FFF873;" d="M30.782,93.468c-1.928-3.591-4.315-6.823-7.1-9.607c-2.783-2.782-6.015-5.171-9.607-7.099L0,69.208
	l14.075-7.554c3.592-1.928,6.824-4.317,9.608-7.1c2.783-2.783,5.171-6.016,7.099-9.606l7.554-14.077l7.554,14.077
	c1.928,3.591,4.315,6.823,7.1,9.607c2.783,2.782,6.015,5.171,9.607,7.099l14.075,7.554l-14.076,7.553
	c-3.592,1.928-6.824,4.317-9.608,7.1c-2.783,2.783-5.171,6.016-7.099,9.606l-7.554,14.077L30.782,93.468z"/>
<path style="fill:#FFA000;" d="M168.001,440.736l-49.396-3.324l-14.197-47.435L61.3,365.615l7.792-48.891l-28.194-40.689
	l28.194-40.689L61.3,186.453l43.109-24.363l14.196-47.434l49.396-3.325l33.374-36.573l45.931,18.519l45.931-18.519l33.374,36.573
	l49.396,3.324l14.197,47.435l43.108,24.362l-7.792,48.891l28.194,40.689l-28.194,40.689l4.294,26.944l-15.528,6.209
	c-6.414-9.319-14.497-17.131-24.026-23.22l-5.424-3.465l1.813-6.175c3.891-13.251,5.865-27.04,5.865-40.983
	c0-80.068-65.14-145.207-145.207-145.207s-145.207,65.14-145.207,145.207s65.14,145.207,145.207,145.207
	c3.744,0,7.685-0.163,11.713-0.483l6.412-0.511l2.284,6.012c4.497,11.839,11.816,22.705,21.165,31.422l-9.052,14.222l-32.521-13.112
	l-45.931,18.519L168.001,440.736z"/>
<path style="fill:#FFC200;" d="M247.305,422.314c-80.659,0-146.279-65.62-146.279-146.279s65.62-146.279,146.279-146.279
	s146.279,65.62,146.279,146.279c0,12.832-1.69,25.626-5.023,38.028l-2.528,9.412l-9.014-3.709
	c-10.058-4.14-20.639-6.238-31.447-6.238c-45.912,0-83.264,37.352-83.264,83.265c0,4.993,0.474,10.092,1.409,15.156l1.765,9.561
	l-9.708,0.554C252.877,422.229,250.027,422.314,247.305,422.314z"/>
<g>
	<circle style="fill:#FFE44C;" cx="249.703" cy="276.569" r="106.95"/>
	<circle style="fill:#FFE44C;" cx="249.703" cy="276.569" r="67.414"/>
</g>
<circle style="fill:#FFFD80;" cx="249.703" cy="276.569" r="67.414"/>
<path style="fill:#FFFFFF;" d="M183.075,240.032c-0.495-0.556-1.021-1.082-1.577-1.576l-6.22-5.524
	c-0.499-0.444-0.499-1.224,0-1.667l6.229-5.533c0.55-0.489,1.071-1.008,1.559-1.558l5.538-6.226c0.444-0.498,1.223-0.498,1.666,0
	l5.53,6.217c0.495,0.556,1.021,1.082,1.577,1.576l6.22,5.524c0.499,0.444,0.499,1.224,0,1.667l-6.229,5.533
	c-0.55,0.489-1.071,1.008-1.559,1.558l-5.538,6.226c-0.444,0.498-1.223,0.498-1.666,0L183.075,240.032z"/>
<path style="fill:#C3FFF9;" d="M345.573,481.129c-46.504,0-84.336-37.833-84.336-84.337s37.833-84.337,84.336-84.337
	c39.456,0,73.979,27.811,82.383,66.241c8.662-5.297,18.597-8.094,28.781-8.094c30.472,0,55.262,24.79,55.262,55.262
	s-24.791,55.263-55.262,55.263H345.573V481.129z"/>
<path style="fill:#8BF2E6;" d="M328.329,396.793c0-31.075,16.901-58.268,41.989-72.895c3.315-1.932,2.641-6.906-1.038-7.997
	c-7.565-2.242-15.528-3.445-23.707-3.445c-45.997,0-83.511,37.014-84.323,82.821c-0.839,47.348,38.129,85.852,85.485,85.852h65.931
	C366.163,481.129,328.329,443.296,328.329,396.793z"/>
<g>
</g>
<g>
</g>
<g>
</g>
<g>
</g>
<g>
</g>
<g>
</g>
<g>
</g>
<g>
</g>
<g>
</g>
<g>
</g>
<g>
</g>
<g>
</g>
<g>
</g>
<g>
</g>
<g>
</g>
</svg>
