<?xml version="1.0" encoding="iso-8859-1"?>
<!-- Generator: Adobe Illustrator 19.0.0, SVG Export Plug-In . SVG Version: 6.00 Build 0)  -->
<svg version="1.1" id="Capa_1" xmlns="http://www.w3.org/2000/svg" xmlns:xlink="http://www.w3.org/1999/xlink" x="0px" y="0px"
	 viewBox="0 0 512 512" style="enable-background:new 0 0 512 512;" xml:space="preserve">
<path style="fill:#FFE44C;" d="M213.552,415.128h-30.371c-1.211,0-2.113-1.118-1.858-2.301l11.134-51.629h74.66l-14.083,45.276
	c-0.38,1.223,0.534,2.465,1.815,2.465h17.526c1.655,0,2.519,1.969,1.399,3.187l-69.225,75.273c-1.306,1.419-3.651,0.217-3.26-1.672
	l14.123-68.316C215.657,416.234,214.756,415.128,213.552,415.128z"/>
<g>
	<path style="fill:#FFC200;" d="M235.693,415.128h-22.141c1.204,0,2.105,1.106,1.861,2.285l-14.123,68.314
		c-0.391,1.889,1.954,3.091,3.26,1.671l23.911-26l9.094-43.986C237.798,416.234,236.898,415.128,235.693,415.128z"/>
	<path style="fill:#FFC200;" d="M214.598,361.199h-22.141l-11.134,51.629c-0.255,1.183,0.647,2.301,1.858,2.301h22.141
		c-1.211,0-2.113-1.118-1.858-2.301l4.137-19.184c1.474-6.837,7.521-11.718,14.516-11.718h38.554l6.447-20.726h-52.52V361.199z"/>
</g>
<path style="fill:#C3FFF9;" d="M432.051,195.673l-0.742-7.404c-3.029-30.221-19.52-57.034-45.245-73.561l-11.375-7.309l11.72-6.741
	c7.699-4.427,16.465-6.768,25.35-6.768c23.719,0,44.484,16.657,49.655,39.711c5.183-3.112,11.105-4.755,17.173-4.755
	c18.425,0,33.414,14.99,33.414,33.414s-14.989,33.414-33.414,33.414h-46.535V195.673z"/>
<g>
	<path style="fill:#8BF2E6;" d="M64.542,428.315c-2.639,0-5.148-0.799-7.256-2.311c-5.771-4.14-6.929-12.439-2.586-18.501
		l0.156-0.219l0.171-0.208c0.844-1.028,2.821-3.437,12.701-7.768l8.351-3.66c1.958-0.857,4.119,0.693,3.934,2.821l-0.789,9.083
		c-0.926,10.673-2.557,13.327-3.253,14.46l-0.165,0.267l-0.184,0.255c-2.109,2.911-5.165,4.879-8.606,5.543
		C66.199,428.236,65.368,428.315,64.542,428.315L64.542,428.315z"/>
	<path style="fill:#8BF2E6;" d="M83.047,482.805c-2.64,0-5.15-0.8-7.257-2.312c-5.769-4.139-6.927-12.438-2.584-18.5l0.156-0.219
		l0.171-0.208c0.844-1.028,2.821-3.437,12.701-7.768l8.351-3.66c1.958-0.857,4.119,0.693,3.934,2.821l-0.789,9.083
		c-0.926,10.673-2.557,13.327-3.253,14.46l-0.164,0.267l-0.184,0.255c-2.109,2.911-5.165,4.879-8.606,5.543
		C84.702,482.726,83.872,482.805,83.047,482.805L83.047,482.805z"/>
	<path style="fill:#8BF2E6;" d="M376.06,482.805c-2.639,0-5.149-0.799-7.256-2.31c-5.772-4.14-6.931-12.439-2.586-18.502
		l0.155-0.218l0.17-0.208c0.844-1.028,2.82-3.437,12.699-7.767l8.352-3.66c1.958-0.857,4.119,0.693,3.934,2.822l-0.79,9.084
		c-0.928,10.682-2.554,13.328-3.249,14.459l-0.163,0.266l-0.185,0.254c-2.108,2.91-5.163,4.877-8.603,5.543
		C377.72,482.726,376.888,482.805,376.06,482.805L376.06,482.805z"/>
	<path style="fill:#8BF2E6;" d="M397.025,96.1c-3.687,1.116-7.256,2.625-10.615,4.557l-11.72,6.741l11.375,7.309
		c25.724,16.528,42.216,43.34,45.245,73.561l0.742,7.404h21.315C452.487,153.799,430.197,117.1,397.025,96.1z"/>
</g>
<path style="fill:#FF977B;" d="M410.226,243.203c-12.871-12.393-29.753-19.219-47.538-19.219c-10.93,0-21.321,2.462-30.887,7.319
	l-11.618,5.898l-0.328-13.025c-0.914-36.219-21.55-69.121-53.856-85.865l-10.345-5.362l8.516-7.952
	c18.645-17.41,42.944-26.997,68.424-26.997c55.273,0,100.241,44.968,100.241,100.241c0,14.618-3.27,29.323-9.458,42.526
	l-4.875,10.404L410.226,243.203z"/>
<path style="fill:#F95948;" d="M362.688,202.394c-7.872,0-15.622,1.01-23.092,2.982c-6.91-38.687-32.256-71.065-66.59-87.701
	c-3.059,2.267-6.018,4.694-8.834,7.324l-8.516,7.952l10.345,5.362c32.305,16.744,52.942,49.645,53.856,85.865l0.328,13.025
	l11.618-5.898c9.566-4.857,19.957-7.319,30.887-7.319c17.785,0,34.668,6.826,47.538,19.219l8.277,7.97l4.875-10.404
	c1.626-3.47,3.045-7.046,4.262-10.693C411.221,213.022,388.173,202.394,362.688,202.394z"/>
<path style="fill:#FFF873;" d="M319.855,224.178c-0.629-24.967-10.594-48.637-28.055-66.65l-6.48-6.685l7.432-5.606
	c11.543-8.705,25.32-13.307,39.842-13.307c36.565,0,66.313,29.748,66.313,66.313c0,8.413-1.565,16.621-4.652,24.396l-2.858,7.199
	l-7.357-2.421c-6.916-2.276-14.1-3.431-21.353-3.431c-10.93,0-21.321,2.462-30.887,7.319l-11.618,5.898L319.855,224.178z"/>
<path style="fill:#FFC200;" d="M362.688,202.394c-7.872,0-15.622,1.01-23.092,2.982c-4.654-26.058-17.676-49.251-36.171-66.704
	c-3.722,1.832-7.294,4.017-10.672,6.563l-7.432,5.606l6.48,6.685c17.461,18.014,27.426,41.684,28.055,66.65l0.328,13.025
	l11.618-5.898c9.566-4.857,19.957-7.319,30.887-7.319c7.253,0,14.437,1.155,21.353,3.431l7.357,2.421l2.858-7.199
	c1.684-4.24,2.898-8.613,3.669-13.073C387.095,204.951,375.184,202.394,362.688,202.394z"/>
<path style="fill:#AEEF66;" d="M319.855,224.178c-0.378-15.017-4.037-29.386-10.874-42.705l-3.079-6l5.28-4.196
	c6.067-4.821,13.673-7.476,21.414-7.476c18.991,0,34.442,15.45,34.442,34.442c0,8.276-2.977,16.272-8.384,22.523l-1.997,3.341
	l-3.898,0.584c-7.336,1.052-14.386,3.278-20.957,6.614l-11.619,5.899L319.855,224.178z"/>
<g>
	<path style="fill:#8BF2E6;" d="M139.594,428.315c-2.638,0-5.148-0.799-7.255-2.31c-5.772-4.141-6.931-12.44-2.587-18.502
		l0.156-0.219l0.171-0.208c0.844-1.028,2.821-3.437,12.701-7.768l8.351-3.66c1.958-0.857,4.119,0.693,3.934,2.821l-0.789,9.083
		c-0.926,10.673-2.557,13.327-3.253,14.46l-0.164,0.267l-0.184,0.255c-2.109,2.911-5.165,4.879-8.606,5.543
		C141.252,428.236,140.422,428.315,139.594,428.315L139.594,428.315z"/>
	<path style="fill:#8BF2E6;" d="M353.44,428.315c-2.638,0-5.148-0.799-7.255-2.31c-5.772-4.14-6.931-12.439-2.586-18.502
		l0.155-0.218l0.17-0.208c0.844-1.028,2.82-3.437,12.699-7.767l8.352-3.66c1.958-0.857,4.119,0.693,3.934,2.822l-0.79,9.084
		c-0.928,10.682-2.554,13.328-3.249,14.459l-0.163,0.266l-0.185,0.254c-2.108,2.91-5.163,4.877-8.603,5.543
		C355.096,428.236,354.266,428.315,353.44,428.315L353.44,428.315z"/>
	<path style="fill:#8BF2E6;" d="M307.176,482.805c-2.639,0-5.149-0.799-7.256-2.31c-5.772-4.14-6.931-12.439-2.586-18.502
		l0.155-0.218l0.17-0.208c0.844-1.028,2.82-3.437,12.699-7.767l8.352-3.66c1.958-0.857,4.119,0.693,3.934,2.822l-0.79,9.084
		c-0.928,10.682-2.554,13.328-3.249,14.459l-0.163,0.266l-0.185,0.254c-2.108,2.91-5.163,4.877-8.603,5.543
		C308.837,482.726,308.004,482.805,307.176,482.805L307.176,482.805z"/>
</g>
<path style="fill:#C3FFF9;" d="M50.893,125.761c-28.061,0-50.892-22.83-50.892-50.892s22.83-50.892,50.892-50.892
	c23.719,0,44.484,16.657,49.654,39.711c5.184-3.113,11.105-4.755,17.174-4.755c18.424,0,33.414,14.99,33.414,33.414
	s-14.99,33.414-33.414,33.414H50.893z"/>
<path style="fill:#8EC155;" d="M362.688,202.394c-7.872,0-15.622,1.01-23.092,2.982c-2.606-14.592-7.84-28.282-15.185-40.574
	c-4.796,1.179-9.33,3.377-13.229,6.475l-5.28,4.196l3.079,6c6.837,13.32,10.496,27.688,10.874,42.705l0.327,13.025l11.619-5.899
	c6.571-3.336,13.621-5.562,20.957-6.614l3.898-0.584l1.997-3.341c4.475-5.172,7.279-11.542,8.116-18.274
	C365.415,202.43,364.056,202.394,362.688,202.394z"/>
<path style="fill:#AFF2D8;" d="M365.871,362.227H129.563c-41.216,0-75.811-33.72-75.585-74.936
	c0.21-38.179,28.791-69.748,66.716-73.686c6.498-49.866,49.281-87.416,99.686-87.416c55.436,0,100.536,45.1,100.536,100.536
	c0,2.005-0.062,4.028-0.184,6.056c-0.107,1.775,1.845,2.875,3.322,1.883c11.442-7.677,24.685-11.706,38.634-11.706
	c38.397,0,69.634,31.238,69.634,69.635c0,36.4-28.423,66.902-64.708,69.442l-0.9,0.205L365.871,362.227z"/>
<path style="fill:#87CEB7;" d="M104.211,287.713c0-36.929,26.548-67.75,62.479-73.535h47.85c8.549,0,15.479-6.931,15.479-15.479l0,0
	c0-8.549-6.93-15.479-15.479-15.479h-18.429c-7.531,0-11.851-8.506-7.484-14.64c9.512-13.36,22.19-24.254,36.865-31.648
	c5.201-2.621,3.554-10.469-2.266-10.674c-1.047-0.037-2.097-0.058-3.151-0.063c-50.273,0.152-92.897,37.644-99.381,87.409
	c-38.065,3.953-66.717,35.741-66.717,74.109c0,25.022,12.411,47.186,31.386,60.707c12.376,8.677,27.408,13.806,43.457,13.806h49.904
	C137.638,362.227,104.211,328.8,104.211,287.713z"/>
<path style="fill:#8BF2E6;" d="M39.081,74.869c0-0.732,0.015-1.461,0.045-2.186c0.137-3.276,2.858-5.851,6.137-5.851h15.566
	c5.346,0,9.681-4.335,9.681-9.681V56.25c0-5.482-4.471-9.477-9.952-9.433c-5.705,0.046-8.34-6.964-4.108-10.761
	c0.706-0.634,1.43-1.249,2.17-1.843c3.943-3.168,2.059-9.531-2.976-10.009c-1.568-0.149-3.152-0.225-4.751-0.225
	c-28.389,0-51.423,23.365-50.882,51.875c0.528,27.862,23.87,49.908,51.736,49.908h28.152
	C56.576,120.572,39.081,99.731,39.081,74.869z"/>
<g>
</g>
<g>
</g>
<g>
</g>
<g>
</g>
<g>
</g>
<g>
</g>
<g>
</g>
<g>
</g>
<g>
</g>
<g>
</g>
<g>
</g>
<g>
</g>
<g>
</g>
<g>
</g>
<g>
</g>
</svg>
