<?xml version="1.0" encoding="iso-8859-1"?>
<!-- Generator: Adobe Illustrator 19.0.0, SVG Export Plug-In . SVG Version: 6.00 Build 0)  -->
<svg version="1.1" id="Capa_1" xmlns="http://www.w3.org/2000/svg" xmlns:xlink="http://www.w3.org/1999/xlink" x="0px" y="0px"
	 viewBox="0 0 512 512" style="enable-background:new 0 0 512 512;" xml:space="preserve">
<g>
	<path style="fill:#8BF2E6;" d="M139.593,419.759c-2.638,0-5.146-0.798-7.254-2.309c-5.773-4.142-6.932-12.441-2.588-18.503
		l0.156-0.219l0.171-0.208c0.844-1.028,2.821-3.437,12.701-7.768l7.284-3.192c2.438-1.068,5.13,0.863,4.9,3.514l-0.688,7.923
		c-0.926,10.673-2.557,13.327-3.253,14.46l-0.165,0.267l-0.184,0.255c-2.109,2.911-5.165,4.879-8.606,5.543
		C141.251,419.681,140.421,419.759,139.593,419.759L139.593,419.759z"/>
	<path style="fill:#8BF2E6;" d="M64.541,419.759c-2.638,0-5.147-0.799-7.255-2.31c-5.772-4.141-6.931-12.44-2.587-18.502
		l0.156-0.219l0.171-0.208c0.844-1.028,2.821-3.437,12.701-7.768l7.284-3.192c2.438-1.068,5.13,0.863,4.9,3.514l-0.688,7.923
		c-0.926,10.673-2.557,13.327-3.253,14.46l-0.165,0.267l-0.184,0.255c-2.109,2.911-5.165,4.879-8.606,5.543
		C66.198,419.681,65.367,419.759,64.541,419.759L64.541,419.759z"/>
	<path style="fill:#8BF2E6;" d="M83.046,474.249c-2.639,0-5.149-0.8-7.257-2.312c-5.769-4.139-6.927-12.438-2.584-18.5l0.156-0.219
		l0.171-0.208c0.844-1.028,2.821-3.437,12.701-7.768l7.284-3.192c2.438-1.068,5.13,0.863,4.9,3.514l-0.688,7.923
		c-0.926,10.673-2.557,13.327-3.253,14.46l-0.165,0.267l-0.184,0.255c-2.109,2.911-5.165,4.879-8.606,5.543
		C84.7,474.171,83.87,474.249,83.046,474.249L83.046,474.249z"/>
</g>
<path style="fill:#FFE44C;" d="M212.237,406.572h-27.732c-1.893,0-3.303-1.747-2.903-3.597l10.855-50.332h74.659l-13.65,43.887
	c-0.594,1.912,0.834,3.853,2.837,3.853h13.636c2.587,0,3.938,3.077,2.187,4.981l-64.956,70.63c-2.04,2.219-5.706,0.339-5.095-2.612
	l13.075-63.238C215.527,408.3,214.12,406.572,212.237,406.572z"/>
<path style="fill:#C3FFF9;" d="M456.671,194.313l3.247-10.628c0.876-2.868,1.616-5.703,2.198-8.423
	c1.199-5.6,1.924-11.324,2.158-17.027c-14.163,8.898-29.492,13.597-44.39,13.598c-0.001,0-0.003,0-0.004,0
	c-9.469,0-18.549-1.875-26.988-5.573c-12.032-5.274-22.41-14.292-30.011-26.08l-1.76-2.73l0.58-3.196
	c4.389-24.177,25.442-41.724,50.058-41.724c23.719,0,44.484,16.657,49.654,39.711c5.184-3.113,11.105-4.755,17.174-4.755
	c18.424,0,33.414,14.99,33.414,33.414s-14.99,33.414-33.414,33.414H456.671z"/>
<path style="fill:#8BF2E6;" d="M409.224,173.467c-6-8.505-9.531-18.868-9.531-30.046c0-0.757,0.016-1.51,0.048-2.259
	c0.14-3.258,2.888-5.798,6.149-5.798h14.922c5.478,0,10.212-4.238,10.382-9.714c0.177-5.684-4.377-10.349-10.021-10.352
	c-5.643-0.004-8.246-7.046-4.044-10.813c2.492-2.234,5.204-4.225,8.094-5.948c1.824-1.087,1.452-3.791-0.6-4.333
	c-4.13-1.093-8.445-1.676-12.865-1.676c-27.175,0-49.501,21.251-50.828,48.381l-0.144,2.927l1.74,2.357
	c7.351,9.965,16.53,17.407,27.282,22.12C395.97,171.015,402.476,172.733,409.224,173.467z"/>
<path style="fill:#FFE44C;" d="M411.75,236.155c-13.047-13.365-30.471-20.727-49.063-20.727c-10.93,0-21.322,2.462-30.885,7.319
	l-11.618,5.899l-0.329-13.025c-0.867-34.372-19.118-65.427-48.821-83.073l-5.643-3.353l2.017-6.246
	c11.077-34.309,39.84-60.329,75.064-67.905l5.501-1.183c3.238-0.696,6.118,2.172,5.436,5.412l-1.16,5.507
	c-4.146,19.693-3.258,39.208,2.57,56.436c6.975,20.617,20.642,36.279,38.486,44.1c8.337,3.655,17.287,5.508,26.6,5.508
	c10.761,0,21.638-2.447,32.327-7.273l6.355-2.868c3.362-1.517,7.045,1.365,6.378,4.993l-1.258,6.858
	c-0.181,0.985-0.376,1.968-0.586,2.947c-5.354,25.015-19.826,46.912-40.748,61.655l-5.729,4.036L411.75,236.155z"/>
<path style="fill:#FFC200;" d="M362.687,193.839c-7.865,0-15.619,1.012-23.092,2.985c-6.907-38.671-32.236-71.041-66.55-87.684
	c-2.197,4.427-4.094,9.035-5.635,13.812l-2.017,6.246l5.643,3.353c29.703,17.645,47.954,48.701,48.821,83.072l0.329,13.025
	l11.618-5.899c9.564-4.857,19.956-7.319,30.886-7.319c18.591,0,36.016,7.361,49.063,20.727l4.895,5.015l5.729-4.036
	c3.914-2.758,7.602-5.768,11.047-9C416.886,207.257,391.325,193.839,362.687,193.839z"/>
<path style="fill:#AFF2D8;" d="M365.87,353.671H129.562c-41.216,0-75.811-33.72-75.585-74.936
	c0.21-38.179,28.791-69.748,66.716-73.686c6.498-49.866,49.281-87.416,99.686-87.416c55.436,0,100.536,45.1,100.536,100.536
	c0,1.706-0.044,3.424-0.134,5.147c-0.109,2.116,2.253,3.449,4.027,2.292c11.267-7.351,24.235-11.206,37.878-11.206
	c38.397,0,69.634,31.238,69.634,69.635c0,36.4-28.423,66.902-64.708,69.442l-0.9,0.205L365.87,353.671z"/>
<g>
	<path style="fill:#FFC200;" d="M234.462,406.572h-22.225c1.882,0,3.29,1.728,2.91,3.572l-13.075,63.239
		c-0.611,2.952,3.056,4.831,5.095,2.612l21.4-23.27l8.804-42.581C237.752,408.3,236.345,406.572,234.462,406.572z"/>
	<path style="fill:#FFC200;" d="M214.681,352.643h-22.225l-4.382,20.315l0,0l-6.474,30.018c-0.399,1.851,1.011,3.597,2.903,3.597
		h22.226c-1.893,0-3.303-1.747-2.904-3.597l5.413-25.097c0.619-2.87,3.157-4.921,6.095-4.921h45.464l6.319-20.315L214.681,352.643
		L214.681,352.643z"/>
</g>
<path style="fill:#C3FFF9;" d="M50.892,117.205C22.83,117.205,0,94.375,0,66.313s22.83-50.892,50.892-50.892
	c23.719,0,44.484,16.657,49.654,39.711c5.182-3.112,11.104-4.755,17.174-4.755c18.424,0,33.414,14.99,33.414,33.414
	s-14.99,33.414-33.414,33.414H50.892z"/>
<path style="fill:#8BF2E6;" d="M68.951,117.205c2.082,0,2.726-2.86,0.826-3.71c-18.04-8.068-30.643-26.176-30.643-47.181
	c0-0.726,0.015-1.448,0.045-2.166c0.136-3.246,2.832-5.798,6.081-5.798H60.01c5.437,0,10.126-4.226,10.264-9.66
	c0.141-5.593-4.35-10.171-9.91-10.173c-5.6-0.002-8.227-6.88-4.063-10.625c2.227-2.003,4.629-3.811,7.179-5.405
	c2.338-1.46,1.842-5.034-0.838-5.676c-3.79-0.909-7.727-1.389-11.75-1.389c-28.389,0-51.423,23.365-50.882,51.875
	c0.528,27.862,23.87,49.908,51.737,49.908H68.951z"/>
<g>
	<path style="fill:#87CEB7;" d="M103.84,280.233c0-37.842,27.204-69.423,64.023-75.351h49.033c8.761,0,15.862-7.101,15.862-15.862
		l0,0c0-8.761-7.101-15.862-15.862-15.862h-18.884c-7.661,0-12.175-8.657-7.739-14.904c10.267-14.456,24.154-26.087,40.246-33.674
		c3.171-1.495,2.379-6.228-1.112-6.543c-2.973-0.267-5.985-0.404-9.027-0.404c-50.405,0-93.189,37.55-99.686,87.416
		c-37.925,3.938-66.507,35.507-66.716,73.686c-0.227,41.215,34.368,74.935,75.584,74.935h16.912c2.496,0,3.284-3.394,1.029-4.466
		C121.714,336.937,103.84,310.64,103.84,280.233z"/>
	<path style="fill:#87CEB7;" d="M453.912,426.667H351.1c-15.59,0-28.273-12.683-28.273-28.273c0-15.59,12.683-28.273,28.273-28.273
		s28.273,12.683,28.273,28.273c0,4.258-3.452,7.711-7.711,7.711c-4.258,0-7.711-3.452-7.711-7.711
		c0-7.087-5.765-12.851-12.851-12.851s-12.851,5.765-12.851,12.851c0,7.087,5.765,12.851,12.851,12.851h102.811
		c4.258,0,7.711,3.452,7.711,7.711C461.623,423.214,458.17,426.667,453.912,426.667z"/>
	<path style="fill:#87CEB7;" d="M290.442,496.578c-15.59,0-28.273-12.683-28.273-28.273s12.683-28.273,28.273-28.273h102.811
		c4.258,0,7.711,3.452,7.711,7.711c0,4.258-3.452,7.711-7.711,7.711H290.442c-7.087,0-12.851,5.765-12.851,12.851
		s5.765,12.851,12.851,12.851s12.851-5.765,12.851-12.851c0-4.258,3.452-7.711,7.711-7.711c4.258,0,7.711,3.452,7.711,7.711
		C318.715,483.896,306.032,496.578,290.442,496.578z"/>
</g>
<g>
</g>
<g>
</g>
<g>
</g>
<g>
</g>
<g>
</g>
<g>
</g>
<g>
</g>
<g>
</g>
<g>
</g>
<g>
</g>
<g>
</g>
<g>
</g>
<g>
</g>
<g>
</g>
<g>
</g>
</svg>
