<?xml version="1.0" encoding="iso-8859-1"?>
<!-- Generator: Adobe Illustrator 19.0.0, SVG Export Plug-In . SVG Version: 6.00 Build 0)  -->
<svg version="1.1" id="Capa_1" xmlns="http://www.w3.org/2000/svg" xmlns:xlink="http://www.w3.org/1999/xlink" x="0px" y="0px"
	 viewBox="0 0 512 512" style="enable-background:new 0 0 512 512;" xml:space="preserve">
<path style="fill:#C3FFF9;" d="M478.586,125.43c-6.068,0-11.99,1.642-17.174,4.755c-5.169-23.053-25.935-39.711-49.654-39.711
	c-27.175,0-49.501,21.251-50.828,48.381l-0.144,2.927l1.74,2.357c7.351,9.965,16.53,17.407,27.282,22.12
	c8.353,3.661,17.336,5.529,26.701,5.567l37.894,20.431h24.182c18.424,0,33.414-14.99,33.414-33.414S497.01,125.43,478.586,125.43z"
	/>
<g>
	<path style="fill:#8BF2E6;" d="M409.224,171.411c-6-8.505-9.531-18.868-9.531-30.046c0-0.757,0.016-1.51,0.048-2.259
		c0.14-3.258,2.888-5.798,6.149-5.798h14.922c5.478,0,10.212-4.238,10.382-9.714c0.177-5.684-4.377-10.349-10.021-10.352
		c-5.643-0.004-8.246-7.046-4.044-10.813c2.492-2.234,5.204-4.225,8.094-5.948c1.824-1.087,1.452-3.791-0.6-4.333
		c-4.13-1.093-8.445-1.676-12.865-1.676c-27.175,0-49.501,21.251-50.828,48.381l-0.144,2.927l1.74,2.357
		c7.351,9.965,16.53,17.407,27.282,22.12C395.97,168.959,402.476,170.677,409.224,171.411z"/>
	<path style="fill:#8BF2E6;" d="M68.951,117.205c2.082,0,2.726-2.86,0.826-3.71c-18.04-8.068-30.643-26.176-30.643-47.181
		c0-0.726,0.015-1.448,0.045-2.166c0.136-3.246,2.832-5.798,6.081-5.798H60.01c5.437,0,10.126-4.226,10.264-9.66
		c0.141-5.593-4.35-10.171-9.91-10.173c-5.6-0.002-8.227-6.88-4.063-10.625c2.227-2.003,4.629-3.811,7.179-5.405
		c2.338-1.46,1.842-5.034-0.838-5.676c-3.79-0.909-7.727-1.389-11.75-1.389c-28.389,0-51.423,23.365-50.882,51.875
		c0.528,27.862,23.87,49.908,51.737,49.908H68.951z"/>
</g>
<path style="fill:#FFE44C;" d="M410.594,234.999c-12.914-12.62-29.927-19.57-47.907-19.57c-10.93,0-21.322,2.462-30.886,7.319
	l-9.046,4.594c-1.193,0.606-2.61-0.24-2.643-1.577l-0.256-10.143c-0.882-34.975-20.503-67.332-51.206-84.442l-4.671-2.603
	c-0.769-0.429-1.121-1.345-0.837-2.178l1.727-5.06c11.422-33.461,39.976-58.863,74.519-66.292l0,0
	c5.823-1.252,11.005,3.908,9.777,9.736l0,0c-4.146,19.693-3.258,39.208,2.57,56.436c6.975,20.617,20.642,36.279,38.486,44.1
	c8.337,3.655,17.287,5.508,26.6,5.508c10.761,0,21.638-2.447,32.327-7.273l7.106-3.208c3.044-1.375,6.378,1.236,5.776,4.521
	l-1.407,7.669c-0.181,0.985-0.376,1.968-0.586,2.946c-5.171,24.157-18.951,45.554-38.801,60.248l-4.385,3.247
	c-0.719,0.532-1.716,0.464-2.355-0.161L410.594,234.999z"/>
<path style="fill:#FFC200;" d="M432.06,226.458c-16.558-19.917-41.509-32.619-69.374-32.619c-7.905,0-15.646,1.003-23.096,2.967
	c-7.075-39.593-33.461-72.575-69.028-88.837c-2.201,4.287-4.117,8.748-5.695,13.369l-1.727,5.06
	c-0.284,0.833,0.068,1.75,0.837,2.178l4.671,2.603c30.704,17.111,50.324,49.467,51.206,84.442l0.256,10.143
	c0.034,1.338,1.451,2.183,2.643,1.577l9.046-4.595c9.564-4.857,19.956-7.319,30.886-7.319c17.98,0,34.993,6.95,47.907,19.57
	l3.902,3.813c0.639,0.625,1.637,0.693,2.355,0.161l4.385-3.247C425.08,232.881,428.69,229.778,432.06,226.458z"/>
<path style="fill:#AFF2D8;" d="M365.87,353.671H129.562c-41.216,0-75.811-33.72-75.585-74.936
	c0.21-38.179,28.791-69.748,66.716-73.686c6.498-49.866,49.281-87.416,99.686-87.416c55.436,0,100.536,45.1,100.536,100.536
	c0,1.12-0.02,2.245-0.058,3.374c-0.096,2.815,2.959,4.655,5.353,3.173c10.936-6.771,23.395-10.315,36.475-10.315
	c38.397,0,69.634,31.238,69.634,69.635c0,36.4-28.423,66.902-64.708,69.442l-0.9,0.205L365.87,353.671z"/>
<path style="fill:#C3FFF9;" d="M50.892,117.205C22.83,117.205,0,94.375,0,66.313s22.83-50.892,50.892-50.892
	c23.719,0,44.484,16.657,49.654,39.711c5.183-3.112,11.105-4.755,17.174-4.755c18.424,0,33.414,14.99,33.414,33.414
	s-14.99,33.414-33.414,33.414H50.892z"/>
<path style="fill:#8BF2E6;" d="M68.951,117.205c2.082,0,2.726-2.86,0.826-3.71c-18.04-8.068-30.643-26.176-30.643-47.181
	c0-0.726,0.015-1.448,0.045-2.166c0.136-3.246,2.832-5.798,6.081-5.798H60.01c5.437,0,10.126-4.226,10.264-9.66
	c0.141-5.593-4.35-10.171-9.91-10.173c-5.6-0.002-8.227-6.88-4.063-10.625c2.227-2.003,4.629-3.811,7.179-5.405
	c2.338-1.46,1.842-5.034-0.838-5.676c-3.79-0.909-7.727-1.389-11.75-1.389c-28.389,0-51.423,23.365-50.882,51.875
	c0.528,27.862,23.87,49.908,51.737,49.908H68.951z"/>
<path style="fill:#87CEB7;" d="M103.84,280.233c0-37.842,27.204-69.423,64.023-75.351h49.033c8.761,0,15.862-7.101,15.862-15.862
	l0,0c0-8.761-7.101-15.862-15.862-15.862h-18.884c-7.661,0-12.175-8.657-7.739-14.904c10.267-14.456,24.154-26.087,40.246-33.674
	c3.171-1.495,2.379-6.228-1.112-6.543c-2.973-0.267-5.985-0.404-9.027-0.404c-50.405,0-93.189,37.55-99.686,87.416
	c-37.925,3.938-66.507,35.507-66.716,73.686c-0.227,41.215,34.368,74.935,75.584,74.935h16.912c2.496,0,3.284-3.394,1.029-4.466
	C121.714,336.937,103.84,310.64,103.84,280.233z"/>
<g>
	<path style="fill:#8BF2E6;" d="M317.457,419.759c-2.638,0-5.148-0.799-7.255-2.31c-5.772-4.141-6.93-12.44-2.587-18.502
		l0.156-0.219l0.171-0.208c0.844-1.028,2.821-3.437,12.701-7.768l8.915-3.907c1.704-0.746,3.584,0.602,3.424,2.455l-0.842,9.696
		c-0.926,10.673-2.557,13.327-3.253,14.46l-0.164,0.267l-0.184,0.255c-2.109,2.911-5.165,4.879-8.606,5.543
		C319.115,419.681,318.284,419.759,317.457,419.759L317.457,419.759z"/>
	<path style="fill:#8BF2E6;" d="M340.074,474.249c-2.639,0-5.149-0.8-7.257-2.312c-5.769-4.139-6.927-12.438-2.584-18.5l0.156-0.219
		l0.171-0.208c0.844-1.028,2.821-3.437,12.701-7.768l8.915-3.907c1.704-0.746,3.584,0.602,3.424,2.455l-0.842,9.696
		c-0.926,10.673-2.557,13.327-3.253,14.46l-0.164,0.267l-0.184,0.255c-2.109,2.911-5.165,4.879-8.606,5.543
		C341.728,474.171,340.898,474.249,340.074,474.249L340.074,474.249z"/>
	<path style="fill:#8BF2E6;" d="M271.19,474.249c-2.639,0-5.149-0.8-7.257-2.312c-5.769-4.139-6.927-12.438-2.584-18.5l0.156-0.219
		l0.171-0.208c0.844-1.028,2.821-3.437,12.701-7.768l8.915-3.907c1.704-0.746,3.584,0.602,3.424,2.455l-0.842,9.696
		c-0.926,10.673-2.557,13.327-3.253,14.46l-0.165,0.267l-0.184,0.255c-2.109,2.911-5.165,4.879-8.606,5.543
		C272.844,474.171,272.015,474.249,271.19,474.249L271.19,474.249z"/>
</g>
<g>
	<path style="fill:#87CEB7;" d="M241.137,414.268l-6.584-4.22l6.48-4.38c3.528-2.384,4.455-7.177,2.071-10.707
		c-2.384-3.528-7.177-4.455-10.707-2.071l-4.156,2.809v-5.016c0-4.258-3.452-7.711-7.711-7.711c-4.258,0-7.711,3.452-7.711,7.711
		v5.433l-4.573-2.932c-3.584-2.298-8.353-1.255-10.652,2.331c-2.298,3.585-1.255,8.354,2.331,10.652l6.584,4.22l-6.48,4.38
		c-3.528,2.384-4.455,7.177-2.071,10.707c1.49,2.205,3.92,3.394,6.396,3.394c1.486,0,2.987-0.429,4.311-1.323l4.156-2.809v5.016
		c0,4.258,3.452,7.711,7.711,7.711c4.258,0,7.711-3.452,7.711-7.711v-5.433l4.573,2.932c1.288,0.826,2.73,1.22,4.155,1.22
		c2.539,0,5.026-1.253,6.499-3.551C245.765,421.335,244.722,416.565,241.137,414.268z"/>
	<path style="fill:#87CEB7;" d="M142.438,414.782l-6.584-4.22l6.48-4.38c3.528-2.384,4.455-7.177,2.071-10.707
		c-2.384-3.529-7.176-4.455-10.707-2.071l-4.156,2.809v-5.016c0-4.258-3.452-7.711-7.711-7.711s-7.711,3.452-7.711,7.711v5.433
		l-4.573-2.932c-3.583-2.298-8.354-1.255-10.652,2.331c-2.298,3.585-1.255,8.354,2.331,10.652l6.584,4.22l-6.48,4.38
		c-3.528,2.384-4.455,7.177-2.071,10.707c1.49,2.205,3.92,3.394,6.396,3.394c1.486,0,2.987-0.429,4.311-1.323l4.156-2.809v5.016
		c0,4.258,3.452,7.711,7.711,7.711s7.711-3.452,7.711-7.711v-5.433l4.573,2.932c1.288,0.826,2.73,1.22,4.155,1.22
		c2.539,0,5.026-1.253,6.499-3.551C147.066,421.849,146.023,417.08,142.438,414.782z"/>
	<path style="fill:#87CEB7;" d="M190.759,473.384l-6.584-4.22l6.48-4.38c3.528-2.384,4.455-7.177,2.071-10.707
		c-2.384-3.528-7.177-4.456-10.707-2.071l-4.156,2.809v-5.016c0-4.258-3.452-7.711-7.711-7.711s-7.711,3.452-7.711,7.711v5.433
		l-4.573-2.932c-3.584-2.297-8.353-1.255-10.652,2.331c-2.298,3.585-1.255,8.354,2.331,10.652l6.584,4.22l-6.48,4.38
		c-3.528,2.384-4.455,7.177-2.071,10.707c1.49,2.205,3.92,3.394,6.396,3.394c1.486,0,2.987-0.429,4.311-1.323l4.156-2.809v5.016
		c0,4.258,3.452,7.711,7.711,7.711s7.711-3.452,7.711-7.711v-5.433l4.573,2.932c1.288,0.826,2.73,1.22,4.155,1.22
		c2.539,0,5.026-1.253,6.499-3.551C195.388,480.451,194.344,475.682,190.759,473.384z"/>
</g>
<g>
</g>
<g>
</g>
<g>
</g>
<g>
</g>
<g>
</g>
<g>
</g>
<g>
</g>
<g>
</g>
<g>
</g>
<g>
</g>
<g>
</g>
<g>
</g>
<g>
</g>
<g>
</g>
<g>
</g>
</svg>
