<?xml version="1.0" encoding="iso-8859-1"?>
<!-- Generator: Adobe Illustrator 19.0.0, SVG Export Plug-In . SVG Version: 6.00 Build 0)  -->
<svg version="1.1" id="Capa_1" xmlns="http://www.w3.org/2000/svg" xmlns:xlink="http://www.w3.org/1999/xlink" x="0px" y="0px"
	 viewBox="0 0 512.001 512.001" style="enable-background:new 0 0 512.001 512.001;" xml:space="preserve">
<path style="fill:#FFE44C;" d="M408.065,245.631c-12.595-11.269-28.807-17.474-45.653-17.474c-10.922,0-21.305,2.46-30.863,7.314
	l-11.609,5.894l-0.328-13.015c-0.894-35.434-20.895-67.983-52.199-84.946l-5.87-3.181l1.911-6.397
	c10.545-35.299,39.53-62.128,75.646-70.015l6.984-1.525c2.548-0.556,4.821,1.7,4.284,4.251l-1.471,6.995
	c-4.139,19.673-3.25,39.167,2.571,56.374c6.969,20.602,20.627,36.251,38.458,44.066c8.33,3.652,17.273,5.502,26.579,5.502
	c10.753,0,21.621-2.444,32.301-7.266l8.051-3.634c2.643-1.194,5.539,1.075,5.013,3.926l-1.6,8.686
	c-0.182,0.983-0.375,1.962-0.585,2.939c-5.43,25.363-20.16,47.432-41.475,62.143l-5.326,3.676L408.065,245.631z"/>
<path style="fill:#FFC200;" d="M362.413,206.583c-7.898,0-15.635,1.003-23.079,2.965c-7.179-40.172-34.252-73.532-70.624-89.506
	c-2.065,4.426-3.832,9.025-5.254,13.785l-1.911,6.397l5.87,3.181c31.304,16.962,51.304,49.512,52.199,84.946l0.328,13.015
	l11.609-5.894c9.558-4.853,19.942-7.314,30.863-7.314c16.844,0,33.058,6.206,45.653,17.474l4.822,4.315l5.326-3.676
	c4.12-2.843,7.986-5.968,11.594-9.331C413.285,218.331,389.197,206.583,362.413,206.583z"/>
<g>
	<path style="fill:#C3FFF9;" d="M437.257,126.925c-20.959,0-38.011-17.052-38.011-38.011s17.053-38.011,38.011-38.011
		c17.657,0,33.12,12.356,37.049,29.484c3.841-2.269,8.215-3.465,12.694-3.465c13.786,0,25.002,11.215,25.002,25.001
		s-11.216,25.002-25.002,25.002H437.257z"/>
	<path style="fill:#C3FFF9;" d="M50.854,130.007c-28.04,0-50.853-22.813-50.853-50.853s22.813-50.853,50.853-50.853
		c23.701,0,44.451,16.645,49.617,39.681c5.179-3.111,11.097-4.751,17.16-4.751c18.411,0,33.388,14.979,33.388,33.388
		s-14.977,33.388-33.388,33.388H50.854z"/>
</g>
<path style="fill:#AFF2D8;" d="M365.593,366.293H129.465c-41.186,0-75.753-33.695-75.527-74.88
	c0.21-38.149,28.769-69.694,66.666-73.629c6.491-49.828,49.241-87.35,99.61-87.35c55.393,0,100.459,45.066,100.459,100.46
	c0,2.551-0.1,5.131-0.297,7.708c-0.084,1.102,1.161,1.804,2.065,1.166c11.741-8.282,25.475-12.638,39.972-12.638
	c38.368,0,69.581,31.214,69.581,69.582c0,36.373-28.402,66.852-64.659,69.389l-0.899,0.204L365.593,366.293z"/>
<path style="fill:#8BF2E6;" d="M68.9,130.007c2.08,0,2.723-2.858,0.825-3.708c-18.027-8.061-30.62-26.156-30.62-47.145
	c0-0.725,0.015-1.446,0.045-2.165c0.136-3.243,2.83-5.793,6.077-5.793h14.738c5.433,0,10.118-4.222,10.256-9.653
	c0.141-5.589-4.347-10.163-9.902-10.165c-5.596-0.002-8.221-6.875-4.06-10.616c2.225-2.001,4.625-3.808,7.174-5.401
	c2.336-1.459,1.841-5.03-0.837-5.672c-3.788-0.908-7.722-1.388-11.742-1.388c-28.368,0-51.384,23.347-50.844,51.836
	c0.528,27.841,23.852,49.87,51.696,49.87H68.9z"/>
<path style="fill:#87CEB7;" d="M103.763,292.911c0-37.813,27.183-69.371,63.974-75.294h48.996c8.754,0,15.85-7.096,15.85-15.85l0,0
	c0-8.754-7.096-15.85-15.85-15.85h-18.87c-7.656,0-12.166-8.65-7.733-14.892c10.259-14.445,24.136-26.068,40.216-33.648
	c3.168-1.494,2.377-6.224-1.112-6.538c-2.971-0.267-5.98-0.404-9.02-0.404c-50.367,0-93.118,37.521-99.61,87.35
	c-37.896,3.935-66.456,35.48-66.666,73.63c-0.226,41.185,34.343,74.879,75.527,74.879h16.9c2.494,0,3.281-3.391,1.028-4.463
	C121.623,349.573,103.763,323.296,103.763,292.911z"/>
<g>
	<path style="fill:#C3FFF9;" d="M231.686,408.03l-0.17,0.208l-0.155,0.218c-4.343,6.057-3.185,14.351,2.585,18.488
		c2.106,1.509,4.612,2.307,7.249,2.307c0.822,0,1.649-0.078,2.477-0.235c3.437-0.664,6.491-2.631,8.597-5.538l0.185-0.254
		l0.163-0.266c0.694-1.13,2.319-3.774,3.246-14.448l1.2-13.8l-12.688,5.561C234.504,404.595,232.53,407.001,231.686,408.03z"/>
	<path style="fill:#C3FFF9;" d="M339.917,400.268c-9.871,4.327-11.845,6.734-12.69,7.761l-0.169,0.208l-0.155,0.218
		c-4.343,6.057-3.185,14.351,2.582,18.486c2.106,1.511,4.614,2.309,7.252,2.309c0.823,0,1.65-0.078,2.477-0.235
		c3.437-0.664,6.491-2.631,8.597-5.538l0.185-0.254l0.163-0.266c0.694-1.13,2.319-3.774,3.246-14.448l1.2-13.8L339.917,400.268z"/>
	<path style="fill:#C3FFF9;" d="M143.336,408.03l-0.17,0.208l-0.155,0.218c-4.343,6.057-3.185,14.351,2.585,18.488
		c2.106,1.509,4.612,2.307,7.249,2.307c0.824,0,1.65-0.078,2.477-0.235c3.437-0.664,6.491-2.631,8.597-5.538l0.185-0.254
		l0.163-0.266c0.694-1.13,2.319-3.774,3.246-14.448l1.2-13.8l-12.688,5.561C146.154,404.595,144.179,407.001,143.336,408.03z"/>
	<path style="fill:#C3FFF9;" d="M175.183,462.478l-0.17,0.208l-0.155,0.218c-4.343,6.057-3.185,14.351,2.586,18.489
		c2.107,1.509,4.613,2.306,7.248,2.306c0.001,0,0.001,0,0.001,0c0.824,0,1.652-0.079,2.476-0.236
		c3.437-0.664,6.491-2.631,8.597-5.538l0.185-0.254l0.163-0.266c0.694-1.13,2.319-3.774,3.246-14.448l1.2-13.8l-12.688,5.561
		C178.001,459.044,176.026,461.45,175.183,462.478z"/>
	<path style="fill:#C3FFF9;" d="M271.752,462.478l-0.17,0.208l-0.155,0.218c-4.343,6.057-3.185,14.351,2.584,18.488
		c2.106,1.509,4.613,2.307,7.25,2.308c0,0,0,0,0.001,0c0.824,0,1.652-0.079,2.476-0.236c3.437-0.664,6.491-2.631,8.597-5.538
		l0.185-0.254l0.163-0.266c0.694-1.13,2.319-3.774,3.246-14.448l1.2-13.8l-12.688,5.561
		C274.57,459.044,272.596,461.45,271.752,462.478z"/>
</g>
<path style="fill:#8BF2E6;" d="M470.006,126.925c-18.588,0-34.102-13.411-37.375-31.066c-0.691-3.731,2.21-7.17,6.005-7.17h10.414
	c3.455,0,6.467-2.662,6.571-6.115c0.107-3.573-2.757-6.503-6.306-6.503h-4.269c-5.388,0-8.354-6.192-5.05-10.447
	c2.799-3.606,6.232-6.695,10.133-9.098c1.389-0.856,1.165-2.943-0.374-3.485c-3.94-1.387-8.152-2.139-12.499-2.139
	c-21.264,0-38.505,17.551-38.001,38.927c0.49,20.751,17.957,37.096,38.714,37.096h32.037V126.925z"/>
<g>
</g>
<g>
</g>
<g>
</g>
<g>
</g>
<g>
</g>
<g>
</g>
<g>
</g>
<g>
</g>
<g>
</g>
<g>
</g>
<g>
</g>
<g>
</g>
<g>
</g>
<g>
</g>
<g>
</g>
</svg>
