<?xml version="1.0" encoding="iso-8859-1"?>
<!-- Generator: Adobe Illustrator 19.0.0, SVG Export Plug-In . SVG Version: 6.00 Build 0)  -->
<svg version="1.1" id="Capa_1" xmlns="http://www.w3.org/2000/svg" xmlns:xlink="http://www.w3.org/1999/xlink" x="0px" y="0px"
	 viewBox="0 0 512.001 512.001" style="enable-background:new 0 0 512.001 512.001;" xml:space="preserve">
<path style="fill:#FFE44C;" d="M228.167,416.326h-30.386c-1.216,0-2.123-1.123-1.866-2.311l11.588-53.731h74.931l-14.733,47.371
	c-0.382,1.229,0.536,2.476,1.823,2.476h17.519c1.663,0,2.531,1.978,1.405,3.202l-69.268,75.319
	c-1.311,1.425-3.667,0.218-3.275-1.679l14.131-68.351C230.281,417.438,229.376,416.326,228.167,416.326z"/>
<path style="fill:#FFC200;" d="M250.351,418.622c0.245-1.185-0.66-2.296-1.87-2.296h-20.314c1.21,0,2.115,1.11,1.87,2.296
	l-14.131,68.351c-0.392,1.897,1.964,3.105,3.275,1.679l21.533-23.415L250.351,418.622z"/>
<path style="fill:#C3FFF9;" d="M430.016,228.554l1.371-9.42c0.568-3.895,0.855-7.825,0.855-11.678
	c0-19.041-6.787-37.546-19.109-52.108l-9.138-10.798l13.902-2.613c2.694-0.506,5.427-0.764,8.122-0.764
	c20.328,0,38.129,14.252,42.605,33.992c4.435-2.641,9.489-4.033,14.667-4.033c15.831,0,28.71,12.88,28.71,28.71
	c0,15.831-12.88,28.71-28.71,28.71h-53.275V228.554z"/>
<path style="fill:#8BF2E6;" d="M430.016,228.554h21.635c1.449-6.893,2.203-13.954,2.203-21.097c0-25.188-9.147-48.276-24.287-66.132
	c-1.173-0.097-2.357-0.15-3.55-0.15c-2.694,0-5.427,0.257-8.122,0.764l-13.902,2.613l9.138,10.798
	c12.323,14.561,19.11,33.066,19.11,52.108c0,3.854-0.287,7.783-0.855,11.678L430.016,228.554z"/>
<path style="fill:#FFA000;" d="M407.324,254.61c-12.382-10.473-28.104-16.24-44.271-16.24c-10.941,0-21.343,2.465-30.917,7.326
	l-11.629,5.905l-0.329-13.038c-0.683-27.081-12.077-52.165-32.083-70.632l-5.596-5.166l4.715-5.981
	c15.604-19.794,39.018-31.145,64.24-31.145c45.114,0,81.817,36.703,81.817,81.817c0,16.213-4.766,31.925-13.783,45.437l-5.121,7.674
	L407.324,254.61z"/>
<circle style="fill:#FFC200;" cx="351.279" cy="208.938" r="63.738"/>
<circle style="fill:#FFE44C;" cx="351.279" cy="208.938" r="42.013"/>
<circle style="fill:#FFFD80;" cx="351.279" cy="208.938" r="23.712"/>
<path style="fill:#C3FFF9;" d="M50.944,124.61c-28.09,0-50.943-22.852-50.943-50.943s22.853-50.943,50.943-50.943
	c23.742,0,44.529,16.674,49.704,39.751c5.189-3.116,11.116-4.76,17.191-4.76c18.442,0,33.447,15.005,33.447,33.447
	s-15.005,33.447-33.447,33.447H50.944z"/>
<path style="fill:#AFF2D8;" d="M366.238,361.313H129.693c-41.257,0-75.887-33.754-75.661-75.011
	c0.21-38.217,28.82-69.818,66.783-73.76c6.504-49.916,49.33-87.504,99.786-87.504c55.491,0,100.636,45.146,100.636,100.637
	c0,1.989-0.061,3.996-0.181,6.006c-0.108,1.799,1.87,2.914,3.367,1.91c11.444-7.665,24.683-11.687,38.627-11.687
	c38.435,0,69.704,31.27,69.704,69.705c0,36.437-28.452,66.97-64.773,69.512l-0.901,0.205L366.238,361.313z"/>
<path style="fill:#FFC200;" d="M238.156,376.531h39.226l5.053-16.246h-54.617h-20.314l-3.504,16.246l0,0l-8.084,37.484
	c-0.256,1.189,0.649,2.311,1.866,2.311h20.314c-1.216,0-2.123-1.123-1.866-2.311l5.166-23.953
	C223.098,382.167,230.079,376.531,238.156,376.531z"/>
<path style="fill:#8BF2E6;" d="M69.022,124.61c2.084,0,2.728-2.863,0.826-3.714C51.79,112.82,39.175,94.694,39.175,73.667
	c0-0.727,0.015-1.449,0.045-2.168c0.136-3.249,2.835-5.803,6.087-5.803h14.764c5.442,0,10.136-4.23,10.274-9.67
	c0.141-5.599-4.354-10.181-9.92-10.183c-5.606-0.002-8.235-6.887-4.067-10.635c2.229-2.005,4.633-3.815,7.187-5.41
	c2.34-1.461,1.844-5.039-0.839-5.682c-3.794-0.91-7.736-1.39-11.763-1.39c-28.418,0-51.475,23.388-50.933,51.928
	c0.529,27.89,23.894,49.958,51.788,49.958H69.022z"/>
<path style="fill:#87CEB7;" d="M103.946,287.801c0-37.88,27.231-69.493,64.087-75.427h49.082c8.769,0,15.878-7.108,15.878-15.878
	l0,0c0-8.769-7.108-15.878-15.878-15.878h-18.903c-7.669,0-12.187-8.665-7.746-14.918c10.277-14.471,24.179-26.114,40.287-33.708
	c3.174-1.496,2.381-6.235-1.114-6.549c-2.976-0.268-5.991-0.404-9.036-0.404c-50.456,0-93.283,37.587-99.786,87.504
	c-37.963,3.942-66.573,35.543-66.783,73.76c-0.226,41.257,34.403,75.011,75.661,75.011h16.929c2.499,0,3.287-3.397,1.03-4.471
	C121.838,344.563,103.946,318.24,103.946,287.801z"/>
<g>
	<circle style="fill:#FFA000;" cx="362.26" cy="89.619" r="13.379"/>
	<circle style="fill:#FFA000;" cx="418.863" cy="109.173" r="13.379"/>
	<circle style="fill:#FFA000;" cx="299.483" cy="102.998" r="13.379"/>
</g>
<g>
</g>
<g>
</g>
<g>
</g>
<g>
</g>
<g>
</g>
<g>
</g>
<g>
</g>
<g>
</g>
<g>
</g>
<g>
</g>
<g>
</g>
<g>
</g>
<g>
</g>
<g>
</g>
<g>
</g>
</svg>
