<?xml version="1.0" encoding="iso-8859-1"?>
<!-- Generator: Adobe Illustrator 19.0.0, SVG Export Plug-In . SVG Version: 6.00 Build 0)  -->
<svg version="1.1" id="Capa_1" xmlns="http://www.w3.org/2000/svg" xmlns:xlink="http://www.w3.org/1999/xlink" x="0px" y="0px"
	 viewBox="0 0 512.001 512.001" style="enable-background:new 0 0 512.001 512.001;" xml:space="preserve">
<g>
	<path style="fill:#C3FFF9;" d="M50.893,199.705c-28.061,0-50.892-22.83-50.892-50.892s22.83-50.892,50.892-50.892
		c23.719,0,44.484,16.657,49.654,39.711c5.184-3.113,11.105-4.755,17.174-4.755c18.424,0,33.414,14.99,33.414,33.414
		s-14.99,33.414-33.414,33.414H50.893z"/>
	<path style="fill:#C3FFF9;" d="M411.76,332.332c-28.061,0-50.892-22.83-50.892-50.892s22.83-50.892,50.892-50.892
		c23.719,0,44.484,16.657,49.654,39.711c5.184-3.113,11.105-4.755,17.174-4.755c18.424,0,33.414,14.99,33.414,33.414
		s-14.99,33.414-33.414,33.414H411.76z"/>
</g>
<path style="fill:#AFF2D8;" d="M365.871,436.171H128.49c-41.086,0-74.513-33.427-74.513-74.513
	c0-38.368,28.652-70.156,66.717-74.108c6.498-49.866,49.281-87.416,99.686-87.416c55.436,0,100.536,45.1,100.536,100.536
	c0,3.501-0.188,7.059-0.559,10.596c11.014-8.452,24.105-13.361,37.937-14.215l5.666-0.35l2.336,5.173
	c8.073,17.878,25.918,29.43,45.463,29.43h11.223l2.257,4.608c4.634,9.463,7.083,20.052,7.083,30.625
	c0,36.4-28.423,66.902-64.708,69.442l-0.9,0.205L365.871,436.171z"/>
<path style="fill:#8BF2E6;" d="M68.952,199.705c2.082,0,2.726-2.86,0.826-3.71c-18.04-8.068-30.643-26.176-30.643-47.181
	c0-0.726,0.015-1.448,0.045-2.166c0.136-3.246,2.832-5.798,6.081-5.798h14.749c5.437,0,10.126-4.226,10.264-9.66
	c0.141-5.593-4.35-10.171-9.91-10.173c-5.6-0.002-8.227-6.88-4.063-10.625c2.227-2.003,4.629-3.811,7.179-5.405
	c2.338-1.46,1.842-5.034-0.838-5.676c-3.791-0.909-7.728-1.389-11.751-1.389c-28.389,0-51.423,23.365-50.882,51.875
	c0.528,27.862,23.87,49.908,51.736,49.908L68.952,199.705L68.952,199.705z"/>
<path style="fill:#87CEB7;" d="M103.841,362.733c0-37.842,27.204-69.423,64.023-75.351h49.033c8.761,0,15.862-7.101,15.862-15.862
	l0,0c0-8.761-7.101-15.862-15.862-15.862h-18.884c-7.661,0-12.175-8.657-7.739-14.904c10.267-14.456,24.154-26.087,40.246-33.674
	c3.171-1.495,2.379-6.228-1.112-6.543c-2.973-0.267-5.985-0.404-9.027-0.404c-50.405,0-93.189,37.55-99.686,87.416
	c-37.925,3.938-66.507,35.507-66.716,73.686c-0.226,41.216,34.369,74.936,75.585,74.936h16.912c2.496,0,3.284-3.394,1.029-4.466
	C121.715,419.437,103.841,393.14,103.841,362.733z"/>
<path style="fill:#C3FFF9;" d="M330.12,196.107c-33.164,0-60.145-26.981-60.145-60.145s26.981-60.145,60.145-60.145
	c28.076,0,52.649,19.746,58.71,47.059c6.149-3.721,13.183-5.682,20.391-5.682c21.757,0,39.456,17.7,39.456,39.456
	s-17.7,39.456-39.456,39.456H330.12V196.107z"/>
<g>
	<path style="fill:#8BF2E6;" d="M316.499,135.962c0-2.56,0.17-5.08,0.482-7.557h24.57c5.58,0,10.102-4.523,10.102-10.102l0,0
		c0-5.58-4.523-10.102-10.102-10.102h-7.06c-5.072,0-7.926-5.879-4.751-9.834c5.667-7.06,12.89-12.82,21.148-16.749
		c0.908-0.432,0.843-1.747-0.1-2.094c-6.489-2.398-13.461-3.705-20.667-3.705c-33.459,0-60.624,27.463-60.138,61.031
		c0.478,33.028,28.067,59.258,61.1,59.258h45.563C343.48,196.107,316.499,169.126,316.499,135.962z"/>
	<path style="fill:#8BF2E6;" d="M446.716,332.332c-24.422,0-44.88-17.291-49.777-40.273c-1.276-5.988,3.355-11.617,9.477-11.617
		h15.079c5.771,0,10.72-4.514,10.826-10.284c0.108-5.878-4.624-10.677-10.479-10.677h-10.818c-4.743,0-7.423-5.459-4.513-9.205
		c4.439-5.715,10.067-10.462,16.511-13.866c2.11-1.114,1.61-4.244-0.722-4.744c-3.415-0.732-6.944-1.118-10.54-1.118
		c-28.389,0-51.423,23.365-50.882,51.875c0.528,27.862,23.87,49.908,51.737,49.908H446.716z"/>
</g>
<g>
</g>
<g>
</g>
<g>
</g>
<g>
</g>
<g>
</g>
<g>
</g>
<g>
</g>
<g>
</g>
<g>
</g>
<g>
</g>
<g>
</g>
<g>
</g>
<g>
</g>
<g>
</g>
<g>
</g>
</svg>
