<?xml version="1.0" encoding="iso-8859-1"?>
<!-- Generator: Adobe Illustrator 19.0.0, SVG Export Plug-In . SVG Version: 6.00 Build 0)  -->
<svg version="1.1" id="Capa_1" xmlns="http://www.w3.org/2000/svg" xmlns:xlink="http://www.w3.org/1999/xlink" x="0px" y="0px"
	 viewBox="0 0 512.001 512.001" style="enable-background:new 0 0 512.001 512.001;" xml:space="preserve">
<path style="fill:#FFE44C;" d="M213.626,415.058h-30.522c-1.172,0-2.046-1.082-1.798-2.228l11.151-51.702h74.659l-14.107,45.354
	c-0.368,1.184,0.516,2.386,1.757,2.386h17.748c1.602,0,2.439,1.906,1.354,3.085l-69.469,75.537c-1.264,1.374-3.534,0.21-3.155-1.618
	l14.183-68.603C215.664,416.128,214.792,415.058,213.626,415.058z"/>
<g>
	<path style="fill:#FFC200;" d="M234.901,415.058h-21.275c1.166,0,2.038,1.07,1.801,2.212l-14.183,68.603
		c-0.378,1.828,1.892,2.992,3.155,1.617l22.941-24.946l9.36-45.275C236.939,416.128,236.067,415.058,234.901,415.058z"/>
	<path style="fill:#FFC200;" d="M213.732,361.128h-21.275l-11.151,51.702c-0.247,1.146,0.626,2.228,1.798,2.228h21.275
		c-1.172,0-2.046-1.082-1.798-2.228l5.357-24.843c0.949-4.402,4.842-7.544,9.346-7.544h43.825l6.007-19.314L213.732,361.128
		L213.732,361.128z"/>
</g>
<g>
	<path style="fill:#8BF2E6;" d="M353.443,428.245c-2.638,0-5.147-0.799-7.255-2.31c-5.772-4.141-6.93-12.44-2.587-18.502
		l0.156-0.219l0.171-0.208c0.844-1.028,2.821-3.437,12.701-7.768l5.561-2.438c3.214-1.409,6.765,1.137,6.461,4.634l-0.525,6.048
		c-0.926,10.673-2.557,13.327-3.253,14.46l-0.164,0.267l-0.184,0.255c-2.109,2.911-5.165,4.879-8.606,5.543
		C355.107,428.165,354.273,428.245,353.443,428.245L353.443,428.245z"/>
	<path style="fill:#8BF2E6;" d="M376.06,482.735c-2.637,0-5.146-0.799-7.253-2.309c-5.774-4.142-6.933-12.441-2.589-18.503
		l0.156-0.219l0.171-0.208c0.844-1.028,2.821-3.437,12.701-7.768l5.561-2.438c3.214-1.409,6.765,1.137,6.461,4.634l-0.525,6.048
		c-0.926,10.673-2.557,13.327-3.253,14.46l-0.164,0.267l-0.184,0.255c-2.109,2.911-5.165,4.879-8.606,5.543
		C377.725,482.655,376.891,482.735,376.06,482.735C376.061,482.735,376.061,482.735,376.06,482.735z"/>
	<path style="fill:#8BF2E6;" d="M307.177,482.735c-2.637,0-5.145-0.798-7.253-2.308c-5.775-4.143-6.934-12.442-2.59-18.504
		l0.156-0.219l0.171-0.208c0.844-1.028,2.821-3.437,12.701-7.768l5.561-2.438c3.214-1.409,6.765,1.137,6.461,4.634l-0.525,6.048
		c-0.926,10.673-2.557,13.327-3.253,14.46l-0.165,0.267l-0.184,0.255c-2.109,2.911-5.165,4.879-8.606,5.543
		C308.843,482.655,308.008,482.735,307.177,482.735L307.177,482.735z"/>
	<path style="fill:#8BF2E6;" d="M139.595,428.245c-2.638,0-5.147-0.799-7.255-2.31c-5.772-4.141-6.931-12.44-2.587-18.502
		l0.156-0.219l0.171-0.208c0.844-1.028,2.821-3.437,12.701-7.768l5.561-2.438c3.214-1.409,6.765,1.137,6.461,4.634l-0.525,6.048
		c-0.926,10.673-2.557,13.327-3.253,14.46l-0.165,0.267l-0.184,0.255c-2.109,2.911-5.165,4.879-8.606,5.543
		C141.26,428.165,140.426,428.245,139.595,428.245L139.595,428.245z"/>
	<path style="fill:#8BF2E6;" d="M83.049,482.735c-2.637,0-5.146-0.799-7.254-2.309c-5.774-4.142-6.933-12.441-2.589-18.503
		l0.156-0.219l0.171-0.208c0.844-1.028,2.821-3.437,12.701-7.768l5.561-2.438c3.214-1.409,6.765,1.137,6.461,4.634l-0.525,6.048
		c-0.926,10.673-2.557,13.327-3.253,14.46l-0.164,0.267l-0.184,0.255c-2.109,2.911-5.165,4.879-8.606,5.543
		C84.713,482.655,83.88,482.735,83.049,482.735L83.049,482.735z"/>
	<path style="fill:#8BF2E6;" d="M64.542,428.245c-2.637,0-5.146-0.799-7.253-2.309c-5.774-4.142-6.933-12.441-2.589-18.503
		l0.156-0.219l0.171-0.208c0.844-1.028,2.821-3.437,12.701-7.768l5.561-2.438c3.214-1.409,6.765,1.137,6.461,4.634l-0.525,6.048
		c-0.926,10.673-2.557,13.327-3.253,14.46l-0.165,0.267l-0.184,0.255c-2.109,2.911-5.165,4.879-8.606,5.543
		C66.207,428.165,65.373,428.245,64.542,428.245C64.543,428.245,64.543,428.245,64.542,428.245z"/>
</g>
<path style="fill:#A3A3A0;" d="M50.893,125.691c-28.061,0-50.892-22.83-50.892-50.892s22.83-50.892,50.892-50.892
	c23.719,0,44.484,16.657,49.654,39.711c5.184-3.113,11.105-4.755,17.174-4.755c18.424,0,33.414,14.99,33.414,33.414
	s-14.99,33.414-33.414,33.414H50.893z"/>
<path style="fill:#8C8C8C;" d="M68.952,125.691c2.082,0,2.726-2.86,0.826-3.71c-18.04-8.068-30.643-26.176-30.643-47.181
	c0-0.726,0.015-1.448,0.045-2.166c0.136-3.246,2.832-5.798,6.081-5.798h14.749c5.437,0,10.126-4.226,10.264-9.66
	c0.141-5.593-4.35-10.171-9.91-10.173c-5.6-0.002-8.227-6.88-4.063-10.625c2.227-2.003,4.629-3.811,7.179-5.405
	c2.338-1.46,1.842-5.034-0.838-5.676c-3.791-0.909-7.728-1.389-11.751-1.389c-28.389,0-51.423,23.365-50.882,51.875
	c0.528,27.862,23.87,49.908,51.736,49.908H68.952z"/>
<path style="fill:#A3A3A0;" d="M411.76,195.602c-28.061,0-50.892-22.83-50.892-50.892s22.83-50.892,50.892-50.892
	c23.719,0,44.484,16.657,49.654,39.711c5.184-3.113,11.105-4.755,17.174-4.755c18.424,0,33.414,14.99,33.414,33.414
	s-14.99,33.414-33.414,33.414H411.76z"/>
<path style="fill:#8C8C8C;" d="M429.82,195.602c2.082,0,2.726-2.86,0.826-3.71c-18.04-8.068-30.643-26.176-30.643-47.181
	c0-0.726,0.015-1.448,0.045-2.166c0.136-3.246,2.832-5.798,6.081-5.798h14.749c5.437,0,10.126-4.226,10.264-9.66
	c0.141-5.593-4.35-10.171-9.91-10.173c-5.6-0.002-8.227-6.88-4.063-10.625c2.227-2.003,4.629-3.811,7.179-5.405
	c2.338-1.46,1.842-5.034-0.838-5.676c-3.791-0.909-7.728-1.389-11.751-1.389c-28.389,0-51.423,23.365-50.882,51.875
	c0.528,27.862,23.87,49.908,51.736,49.908H429.82z"/>
<path style="fill:#A3A3A0;" d="M365.871,362.157H128.49c-41.086,0-74.513-33.427-74.513-74.513
	c0-38.368,28.652-70.156,66.717-74.108c6.498-49.866,49.281-87.416,99.686-87.416c55.436,0,100.536,45.1,100.536,100.536
	c0,3.501-0.188,7.059-0.559,10.596c12.244-9.401,26.852-14.363,42.33-14.363c38.397,0,69.634,31.238,69.634,69.635
	c0,36.4-28.423,66.902-64.708,69.442l-0.9,0.205L365.871,362.157z"/>
<path style="fill:#8C8C8C;" d="M103.841,288.717c0-37.842,27.204-69.423,64.023-75.351h49.033c8.761,0,15.862-7.101,15.862-15.862
	l0,0c0-8.761-7.101-15.862-15.862-15.862h-18.884c-7.661,0-12.175-8.657-7.739-14.904c10.267-14.456,24.154-26.087,40.246-33.674
	c3.171-1.495,2.379-6.228-1.112-6.543c-2.973-0.267-5.985-0.404-9.027-0.404c-50.405,0-93.189,37.55-99.686,87.416
	c-37.925,3.938-66.507,35.507-66.716,73.686c-0.226,41.216,34.369,74.936,75.585,74.936h16.912c2.496,0,3.284-3.394,1.029-4.466
	C121.715,345.423,103.841,319.126,103.841,288.717z"/>
<g>
</g>
<g>
</g>
<g>
</g>
<g>
</g>
<g>
</g>
<g>
</g>
<g>
</g>
<g>
</g>
<g>
</g>
<g>
</g>
<g>
</g>
<g>
</g>
<g>
</g>
<g>
</g>
<g>
</g>
</svg>
