<?xml version="1.0" encoding="iso-8859-1"?>
<!-- Generator: Adobe Illustrator 19.0.0, SVG Export Plug-In . SVG Version: 6.00 Build 0)  -->
<svg version="1.1" id="Capa_1" xmlns="http://www.w3.org/2000/svg" xmlns:xlink="http://www.w3.org/1999/xlink" x="0px" y="0px"
	 viewBox="0 0 512 512" style="enable-background:new 0 0 512 512;" xml:space="preserve">
<path style="fill:#C3FFF9;" d="M389.859,123.624l-2.373-4.996c-5.023-10.571-8.126-22.315-9.224-34.906l-0.585-6.714l6.342-2.281
	c2.756-0.991,5.628-1.494,8.534-1.494c4.5,0,8.894,1.198,12.757,3.471c1.702-7.397,5.532-14.053,11.109-19.29
	c7.124-6.688,16.429-10.37,26.202-10.37c21.113,0,38.289,17.177,38.289,38.291s-17.176,38.291-38.289,38.291h-52.762V123.624z"/>
<path style="fill:#8BF2E6;" d="M387.487,118.628l2.373,4.996h23.49c1.733,0,2.734-1.936,1.756-3.368
	c-4.316-6.32-7.861-13.436-10.497-21.228c-2.485-7.344-4.12-15.081-4.91-23.064c-0.106-1.077-0.892-1.958-1.95-2.183
	c-1.699-0.361-3.438-0.549-5.197-0.549c-2.907,0-5.779,0.502-8.534,1.494l-6.342,2.281l0.585,6.714
	C379.361,96.313,382.465,108.056,387.487,118.628z"/>
<path style="fill:#FFE44C;" d="M487.989,153.25c-11.373,5.135-22.948,7.738-34.398,7.738c-9.911,0-19.434-1.971-28.304-5.86
	c-18.988-8.322-33.532-24.987-40.955-46.927c-6.2-18.324-7.146-39.083-2.738-60.033l1.549-7.365c0.58-2.757-1.876-5.194-4.629-4.593
	l-7.353,1.606c-38.46,8.399-69.328,36.969-80.556,74.559l-2.035,6.812v116.844h161.166l5.671-3.914
	c22.699-15.665,38.385-39.168,44.168-66.177c0.223-1.04,0.43-2.083,0.622-3.13l1.684-9.146c0.568-3.082-2.561-5.531-5.416-4.243
	L487.989,153.25z"/>
<path style="fill:#FFC200;" d="M395.986,189.855c-8.411,0-16.65,1.068-24.577,3.157c-7.645-42.779-36.476-78.306-75.208-95.317
	c-2.199,4.713-4.081,9.611-5.595,14.681l-2.035,6.812v116.844h161.166l5.671-3.914c4.387-3.027,8.505-6.355,12.347-9.937
	C450.159,202.365,424.508,189.855,395.986,189.855z"/>
<path style="fill:#AFF2D8;" d="M399.373,359.932H147.917c-43.859,0-80.671-35.883-80.43-79.741
	c0.223-40.625,30.637-74.218,70.993-78.408c6.912-53.062,52.437-93.02,106.076-93.02c58.988,0,106.98,47.991,106.98,106.981
	c0,3.29-0.155,6.623-0.464,9.944c-0.048,0.514,0.523,0.833,0.938,0.525c12.808-9.481,27.953-14.477,43.975-14.477
	c40.858,0,74.098,33.241,74.098,74.099c0,38.734-30.245,71.191-68.856,73.893l-0.957,0.218L399.373,359.932z"/>
<path style="fill:#87CEB7;" d="M228.642,166.233h-14.676c-4.929,0-7.949-5.495-5.217-9.598
	c12.231-18.371,29.962-32.668,50.686-40.68c3.129-1.21,2.602-5.817-0.724-6.259c-4.632-0.615-9.356-0.932-14.153-0.932
	c-53.636,0-99.163,39.957-106.076,93.02c-40.356,4.19-70.77,37.783-70.993,78.409c-0.241,43.857,36.571,79.739,80.43,79.739h52.198
	c-43.72,0-79.29-35.57-79.29-79.29c0-40.545,30.075-74.171,70.16-78.753h38.159c10.132,0,18.29-8.452,17.807-18.69
	C246.502,173.61,238.242,166.233,228.642,166.233z"/>
<path style="fill:#C3FFF9;" d="M64.204,108.308c-29.86,0-54.154-24.294-54.154-54.154S34.344,0,64.204,0
	c25.239,0,47.336,17.725,52.838,42.256c5.516-3.313,11.816-5.06,18.273-5.06c19.606,0,35.556,15.951,35.556,35.556
	s-15.951,35.556-35.556,35.556H64.204z"/>
<path style="fill:#8BF2E6;" d="M84.56,108.308c1.468,0,2.025-2.049,0.694-2.669c-0.011-0.005-0.023-0.011-0.035-0.015
	c-19.679-8.8-33.428-28.554-33.428-51.469c0-0.791,0.016-1.579,0.049-2.362c0.148-3.541,3.09-6.326,6.634-6.326h16.09
	c5.923,0,11.035-4.596,11.195-10.517c0.166-6.109-4.735-11.114-10.807-11.118c-6.139-0.004-8.93-7.563-4.359-11.659
	c3.402-3.049,7.18-5.682,11.25-7.838c0.579-0.306,0.535-1.157-0.084-1.371C76.218,1.045,70.305,0,64.204,0
	C33.995,0,9.484,24.863,10.06,55.201c0.562,29.648,25.399,53.107,55.052,53.107H84.56z"/>
<g>
	<path style="fill:#87CEB7;" d="M299.418,437.607H190.016c-16.589,0-30.085-13.496-30.085-30.085
		c0-16.59,13.497-30.085,30.085-30.085s30.085,13.496,30.085,30.085c0,4.531-3.673,8.205-8.205,8.205s-8.205-3.674-8.205-8.205
		c0-7.541-6.134-13.675-13.675-13.675s-13.675,6.134-13.675,13.675c0,7.541,6.134,13.675,13.675,13.675h109.402
		c4.533,0,8.205,3.674,8.205,8.205C307.623,433.933,303.949,437.607,299.418,437.607z"/>
	<path style="fill:#87CEB7;" d="M125.469,512c-16.589,0-30.085-13.496-30.085-30.085c0-16.59,13.497-30.085,30.085-30.085h109.402
		c4.533,0,8.205,3.674,8.205,8.205s-3.673,8.205-8.205,8.205H125.469c-7.541,0-13.675,6.134-13.675,13.675
		s6.134,13.675,13.675,13.675s13.675-6.134,13.675-13.675c0-4.531,3.673-8.205,8.205-8.205s8.205,3.674,8.205,8.205
		C155.555,498.504,142.058,512,125.469,512z"/>
	<path style="fill:#87CEB7;" d="M411.008,437.607h-68.923c-4.533,0-8.205-3.674-8.205-8.205c0-4.531,3.673-8.205,8.205-8.205h68.923
		c4.533,0,8.205,3.674,8.205,8.205C419.213,433.933,415.539,437.607,411.008,437.607z"/>
	<path style="fill:#87CEB7;" d="M463.521,468.239H305.982c-4.533,0-8.205-3.674-8.205-8.205s3.673-8.205,8.205-8.205h157.538
		c4.533,0,8.205,3.674,8.205,8.205S468.052,468.239,463.521,468.239z"/>
</g>
<g>
</g>
<g>
</g>
<g>
</g>
<g>
</g>
<g>
</g>
<g>
</g>
<g>
</g>
<g>
</g>
<g>
</g>
<g>
</g>
<g>
</g>
<g>
</g>
<g>
</g>
<g>
</g>
<g>
</g>
</svg>
