<?xml version="1.0" encoding="iso-8859-1"?>
<!-- Generator: Adobe Illustrator 19.0.0, SVG Export Plug-In . SVG Version: 6.00 Build 0)  -->
<svg version="1.1" id="Capa_1" xmlns="http://www.w3.org/2000/svg" xmlns:xlink="http://www.w3.org/1999/xlink" x="0px" y="0px"
	 viewBox="0 0 512 512" style="enable-background:new 0 0 512 512;" xml:space="preserve">
<g>
	<path style="fill:#8BF2E6;" d="M255.486,431.036c-8.504,0-15.422-7.66-15.422-17.076c0-1.598,0-6.459,9.087-17.427l3.8-4.586
		c1.314-1.585,3.745-1.586,5.06-0.002l3.803,4.584c9.093,10.961,9.093,15.83,9.093,17.431
		C270.908,423.376,263.99,431.036,255.486,431.036z"/>
	<path style="fill:#8BF2E6;" d="M346.988,431.036c-8.504,0-15.422-7.66-15.422-17.076c0-1.598,0-6.459,9.087-17.427l3.8-4.586
		c1.314-1.585,3.745-1.586,5.06-0.002l3.803,4.584c9.093,10.961,9.093,15.83,9.093,17.431
		C362.41,423.376,355.492,431.036,346.988,431.036z"/>
	<path style="fill:#8BF2E6;" d="M158.843,431.036c-8.504,0-15.422-7.66-15.422-17.076c0-1.598,0-6.459,9.087-17.427l3.8-4.586
		c1.314-1.585,3.745-1.586,5.06-0.002l3.803,4.584c9.093,10.961,9.093,15.83,9.093,17.431
		C174.265,423.376,167.347,431.036,158.843,431.036z"/>
	<path style="fill:#8BF2E6;" d="M205.109,490.667c-8.504,0-15.422-7.66-15.422-17.076c0-1.598,0-6.459,9.087-17.427l3.8-4.586
		c1.314-1.585,3.745-1.586,5.06-0.002l3.803,4.584c9.093,10.961,9.093,15.83,9.093,17.431
		C220.53,483.006,213.612,490.667,205.109,490.667z"/>
	<path style="fill:#8BF2E6;" d="M300.723,490.667c-8.504,0-15.422-7.66-15.422-17.076c0-1.598,0-6.459,9.087-17.427l3.8-4.586
		c1.314-1.585,3.745-1.586,5.06-0.002l3.803,4.584c9.093,10.961,9.093,15.83,9.093,17.431
		C316.145,483.006,309.226,490.667,300.723,490.667z"/>
</g>
<g>
	<path id="SVGCleanerId_0" style="fill:#FF977B;" d="M319.854,221.534c-1.216-48.202-38.142-89.486-85.892-96.03l-12.875-1.764
		l7.105-10.881c18.506-28.34,49.848-45.26,83.839-45.26c25.409,0,49.664,9.547,68.299,26.882l6.853,6.376l-7.205,5.976
		c-11.492,9.532-18.083,23.523-18.083,38.387c0,22.918,15.53,42.809,37.766,48.372l9.099,2.276l-3.445,8.724
		c-2.435,6.167-5.516,12.137-9.159,17.745l-3.582,5.515l-6.168-2.28c-7.593-2.807-15.572-4.231-23.719-4.231
		c-10.93,0-21.321,2.462-30.887,7.319l-11.618,5.898L319.854,221.534z"/>
</g>
<path style="fill:#AEEF66;" d="M315.252,194.093c-4.877-15.391-13.597-29.555-25.214-40.962l-6.661-6.54l7.327-5.784
	c6.051-4.778,13.627-7.41,21.329-7.41c18.991,0,34.442,15.45,34.442,34.442c0,13.361-7.82,25.62-19.922,31.23l-8.478,3.93
	L315.252,194.093z"/>
<g>
	<path id="SVGCleanerId_1" style="fill:#FFF873;" d="M319.854,221.535c-0.113-4.477-0.535-8.991-1.25-13.414l-1.076-6.648
		l6.305-2.367c12.927-4.853,21.613-17.417,21.613-31.267c0-18.424-14.989-33.414-33.414-33.414c-8.374,0-16.386,3.12-22.564,8.785
		l-4.975,4.563l-5.446-3.99c-4.17-3.056-8.639-5.818-13.285-8.211l-9.669-4.98l7.426-7.947
		c12.542-13.422,30.223-21.119,48.514-21.119c19.143,0,37.355,8.29,49.964,22.745l2.915,3.341l-1.188,4.271
		c-1.212,4.355-1.826,8.843-1.826,13.339c0,12.03,4.37,23.658,12.306,32.742l2.917,3.34l-1.186,4.272
		c-3.606,12.983-11.325,24.863-21.735,33.449l-3.776,3.365l-2.132,0.452c-5.733,1.217-11.281,3.174-16.488,5.818l-11.618,5.897
		L319.854,221.535z"/>
</g>
<g>
	<path id="SVGCleanerId_0_1_" style="fill:#FF977B;" d="M319.854,221.534c-1.216-48.202-38.142-89.486-85.892-96.03l-12.875-1.764
		l7.105-10.881c18.506-28.34,49.848-45.26,83.839-45.26c25.409,0,49.664,9.547,68.299,26.882l6.853,6.376l-7.205,5.976
		c-11.492,9.532-18.083,23.523-18.083,38.387c0,22.918,15.53,42.809,37.766,48.372l9.099,2.276l-3.445,8.724
		c-2.435,6.167-5.516,12.137-9.159,17.745l-3.582,5.515l-6.168-2.28c-7.593-2.807-15.572-4.231-23.719-4.231
		c-10.93,0-21.321,2.462-30.887,7.319l-11.618,5.898L319.854,221.534z"/>
</g>
<path style="fill:#AEEF66;" d="M315.252,194.093c-4.877-15.391-13.597-29.555-25.214-40.962l-6.661-6.54l7.327-5.784
	c6.051-4.778,13.627-7.41,21.329-7.41c18.991,0,34.442,15.45,34.442,34.442c0,13.361-7.82,25.62-19.922,31.23l-8.478,3.93
	L315.252,194.093z"/>
<g>
	<path id="SVGCleanerId_1_1_" style="fill:#FFF873;" d="M319.854,221.535c-0.113-4.477-0.535-8.991-1.25-13.414l-1.076-6.648
		l6.305-2.367c12.927-4.853,21.613-17.417,21.613-31.267c0-18.424-14.989-33.414-33.414-33.414c-8.374,0-16.386,3.12-22.564,8.785
		l-4.975,4.563l-5.446-3.99c-4.17-3.056-8.639-5.818-13.285-8.211l-9.669-4.98l7.426-7.947
		c12.542-13.422,30.223-21.119,48.514-21.119c19.143,0,37.355,8.29,49.964,22.745l2.915,3.341l-1.188,4.271
		c-1.212,4.355-1.826,8.843-1.826,13.339c0,12.03,4.37,23.658,12.306,32.742l2.917,3.34l-1.186,4.272
		c-3.606,12.983-11.325,24.863-21.735,33.449l-3.776,3.365l-2.132,0.452c-5.733,1.217-11.281,3.174-16.488,5.818l-11.618,5.897
		L319.854,221.535z"/>
</g>
<g>
	<path id="SVGCleanerId_0_2_" style="fill:#FF977B;" d="M319.854,221.534c-1.216-48.202-38.142-89.486-85.892-96.03l-12.875-1.764
		l7.105-10.881c18.506-28.34,49.848-45.26,83.839-45.26c25.409,0,49.664,9.547,68.299,26.882l6.853,6.376l-7.205,5.976
		c-11.492,9.532-18.083,23.523-18.083,38.387c0,22.918,15.53,42.809,37.766,48.372l9.099,2.276l-3.445,8.724
		c-2.435,6.167-5.516,12.137-9.159,17.745l-3.582,5.515l-6.168-2.28c-7.593-2.807-15.572-4.231-23.719-4.231
		c-10.93,0-21.321,2.462-30.887,7.319l-11.618,5.898L319.854,221.534z"/>
</g>
<g>
	<path style="fill:#F95948;" d="M408.663,196.112l0.097-0.244l-9.099-2.276c-22.236-5.563-37.766-25.454-37.766-48.372
		c0-14.863,6.591-28.855,18.083-38.388l7.205-5.976l-5.335-4.964c-22.024,5.595-38.367,25.587-38.367,49.328
		c0,28.061,22.83,50.892,50.892,50.892H408.663z"/>
	<path style="fill:#F95948;" d="M362.687,199.751c-7.904,0-15.647,1.003-23.097,2.967c-9.286-51.966-51.835-92.548-104.755-98.872
		c-2.361,2.861-4.585,5.861-6.643,9.012l-7.105,10.881l12.875,1.764c47.75,6.544,84.675,47.829,85.892,96.03l0.328,13.025
		l11.618-5.898c9.566-4.857,19.957-7.319,30.887-7.319c8.147,0,16.127,1.424,23.719,4.231l6.168,2.28l3.582-5.515
		c2.686-4.135,5.064-8.469,7.105-12.931C391.058,203.234,377.272,199.751,362.687,199.751z"/>
</g>
<path style="fill:#AEEF66;" d="M315.252,194.093c-4.877-15.391-13.597-29.555-25.214-40.962l-6.661-6.54l7.327-5.784
	c6.051-4.778,13.627-7.41,21.329-7.41c18.991,0,34.442,15.45,34.442,34.442c0,13.361-7.82,25.62-19.922,31.23l-8.478,3.93
	L315.252,194.093z"/>
<g>
	<path id="SVGCleanerId_1_2_" style="fill:#FFF873;" d="M319.854,221.535c-0.113-4.477-0.535-8.991-1.25-13.414l-1.076-6.648
		l6.305-2.367c12.927-4.853,21.613-17.417,21.613-31.267c0-18.424-14.989-33.414-33.414-33.414c-8.374,0-16.386,3.12-22.564,8.785
		l-4.975,4.563l-5.446-3.99c-4.17-3.056-8.639-5.818-13.285-8.211l-9.669-4.98l7.426-7.947
		c12.542-13.422,30.223-21.119,48.514-21.119c19.143,0,37.355,8.29,49.964,22.745l2.915,3.341l-1.188,4.271
		c-1.212,4.355-1.826,8.843-1.826,13.339c0,12.03,4.37,23.658,12.306,32.742l2.917,3.34l-1.186,4.272
		c-3.606,12.983-11.325,24.863-21.735,33.449l-3.776,3.365l-2.132,0.452c-5.733,1.217-11.281,3.174-16.488,5.818l-11.618,5.897
		L319.854,221.535z"/>
</g>
<path style="fill:#FFC200;" d="M362.112,149.822c-0.004-0.045-0.01-0.089-0.014-0.135c-0.057-0.642-0.099-1.287-0.132-1.934
	c-0.005-0.105-0.015-0.209-0.02-0.313c-0.032-0.736-0.05-1.475-0.05-2.219c0-1.053,0.042-2.098,0.107-3.141
	c0.017-0.269,0.045-0.537,0.067-0.805c0.064-0.807,0.145-1.611,0.247-2.411c0.034-0.259,0.07-0.518,0.108-0.777
	c0.126-0.872,0.275-1.739,0.446-2.599c0.032-0.16,0.061-0.322,0.095-0.481c0.259-1.239,0.558-2.466,0.91-3.677l1.035-3.718
	l-2.915-3.341c-2.76-3.165-5.803-6.014-9.05-8.565c-5.953,8.33-9.465,18.518-9.465,29.515c0,20.763,12.505,38.65,30.372,46.556
	c0.793-2.034,1.495-4.101,2.078-6.202l1.186-4.272l-1.501-1.719C368.043,171.619,363.156,161.21,362.112,149.822z"/>
<path style="fill:#C3FFF9;" d="M50.892,123.117C22.83,123.117,0,100.286,0,72.225s22.83-50.892,50.892-50.892
	c23.719,0,44.484,16.657,49.655,39.711c5.183-3.112,11.105-4.755,17.173-4.755c18.425,0,33.414,14.99,33.414,33.414
	s-14.989,33.414-33.414,33.414H50.892z"/>
<path style="fill:#8BF2E6;" d="M70.021,123.117c1.38,0,1.903-1.926,0.652-2.509c-0.01-0.005-0.022-0.01-0.033-0.014
	c-18.494-8.27-31.414-26.834-31.414-48.369c0-0.743,0.015-1.484,0.046-2.22c0.139-3.328,2.903-5.945,6.234-5.945h15.12
	c5.566,0,10.371-4.319,10.521-9.883c0.156-5.741-4.45-10.445-10.156-10.449c-5.769-0.004-8.392-7.107-4.096-10.957
	c3.197-2.865,6.748-5.34,10.572-7.365c0.544-0.288,0.503-1.088-0.079-1.288c-5.207-1.803-10.764-2.785-16.497-2.785
	c-28.389,0-51.423,23.365-50.882,51.875c0.528,27.862,23.87,49.908,51.736,49.908H70.021z"/>
<path style="fill:#C3FFF9;" d="M411.759,196.112c-28.061,0-50.892-22.83-50.892-50.892s22.83-50.892,50.892-50.892
	c23.719,0,44.484,16.657,49.655,39.711c5.184-3.113,11.106-4.755,17.173-4.755c18.425,0,33.414,14.99,33.414,33.414
	s-14.989,33.414-33.414,33.414H411.759z"/>
<path style="fill:#8BF2E6;" d="M493.674,132.9c0.095,0.379,0.196,0.757,0.282,1.14c0.298-0.179,0.608-0.336,0.91-0.506
	C494.474,133.314,494.076,133.105,493.674,132.9z"/>
<g>
	<path style="fill:#FFC200;" d="M362.687,199.751c-7.904,0-15.647,1.003-23.097,2.967c-0.752-4.204-1.725-8.331-2.899-12.374
		c-3.478,3.828-7.843,6.88-12.858,8.763l-6.305,2.367l1.076,6.648c0.716,4.423,1.136,8.935,1.25,13.414l0.328,13.023l11.618-5.897
		c5.206-2.644,10.755-4.602,16.488-5.818l2.132-0.452l3.776-3.365c6.375-5.258,11.734-11.754,15.764-18.979
		C367.561,199.853,365.135,199.751,362.687,199.751z"/>
	<path style="fill:#FFC200;" d="M279.047,143.785l5.446,3.99l4.975-4.563c3.911-3.587,8.558-6.149,13.566-7.549
		c-9.032-8.449-19.351-15.538-30.633-20.926c-3.17,2.358-6.154,4.99-8.884,7.91l-7.426,7.947l9.669,4.98
		C270.408,137.966,274.877,140.728,279.047,143.785z"/>
</g>
<path style="fill:#8EC155;" d="M315.252,194.093l2.822,8.908l8.478-3.93c4.006-1.857,7.529-4.455,10.468-7.567
	c-6.167-22.052-18.43-41.582-34.854-56.65c-4.139,1.242-8.045,3.255-11.463,5.954l-7.327,5.784l6.661,6.54
	C301.655,164.538,310.375,178.701,315.252,194.093z"/>
<path style="fill:#AFF2D8;" d="M365.869,359.582H129.562c-41.217,0-75.811-33.721-75.585-74.937
	c0.21-38.178,28.791-69.747,66.716-73.685c6.496-49.866,49.278-87.416,99.686-87.416c55.435,0,100.535,45.1,100.535,100.536
	c0,2.691-0.111,5.413-0.33,8.131c-0.076,0.939,0.966,1.559,1.732,1.011c11.83-8.458,25.709-12.909,40.37-12.909
	c38.397,0,69.634,31.238,69.634,69.635c0,36.4-28.423,66.902-64.708,69.442l-0.9,0.205L365.869,359.582z"/>
<path style="fill:#87CEB7;" d="M205.423,177.552h-13.792c-4.632,0-7.47-5.164-4.903-9.02c11.494-17.264,28.157-30.7,47.632-38.229
	c2.94-1.137,2.445-5.466-0.681-5.882c-4.353-0.578-8.792-0.876-13.301-0.876c-50.405,0-93.189,37.55-99.686,87.416
	c-37.925,3.938-66.507,35.507-66.716,73.686c-0.226,41.216,34.369,74.936,75.585,74.936h49.053
	c-41.086,0-74.513-33.427-74.513-74.513c0-38.103,28.263-69.703,65.934-74.009h35.861c9.521,0,17.188-7.943,16.735-17.564
	C222.208,184.485,214.445,177.552,205.423,177.552z"/>
<path style="fill:#8BF2E6;" d="M393.409,145.221c0-0.244,0.002-0.487,0.006-0.731c0.026-1.51,1.271-2.718,2.781-2.718h13.456
	c4.725,0,8.851-3.565,9.156-8.281c0.334-5.167-3.758-9.463-8.853-9.463h-7.35c-2.127,0-3.48-2.306-2.417-4.148
	c5.344-9.261,13.521-16.692,23.339-21.1c1.439-0.646,1.268-2.752-0.268-3.113c-3.715-0.874-7.567-1.337-11.504-1.337
	c-28.388,0-51.423,23.365-50.882,51.875c0.528,27.862,23.87,49.908,51.737,49.908h31.688
	C416.241,196.112,393.409,173.282,393.409,145.221z"/>
<g>
</g>
<g>
</g>
<g>
</g>
<g>
</g>
<g>
</g>
<g>
</g>
<g>
</g>
<g>
</g>
<g>
</g>
<g>
</g>
<g>
</g>
<g>
</g>
<g>
</g>
<g>
</g>
<g>
</g>
</svg>
