<?xml version="1.0" encoding="iso-8859-1"?>
<!-- Generator: Adobe Illustrator 19.0.0, SVG Export Plug-In . SVG Version: 6.00 Build 0)  -->
<svg version="1.1" id="Capa_1" xmlns="http://www.w3.org/2000/svg" xmlns:xlink="http://www.w3.org/1999/xlink" x="0px" y="0px"
	 viewBox="0 0 512 512" style="enable-background:new 0 0 512 512;" xml:space="preserve">
<path style="fill:#FFA000;" d="M404.857,231.652c-12.369-10.462-28.076-16.224-44.226-16.224c-10.93,0-21.322,2.462-30.886,7.319
	l-11.618,5.899l-0.329-13.025c-0.683-27.054-12.065-52.113-32.05-70.561l-5.591-5.161l4.71-5.975
	c15.588-19.773,38.98-31.113,64.177-31.113c45.068,0,81.735,36.667,81.735,81.735c0,16.197-4.761,31.893-13.77,45.391l-5.116,7.667
	L404.857,231.652z"/>
<circle style="fill:#FFC200;" cx="348.869" cy="186.027" r="63.674"/>
<circle style="fill:#FFE44C;" cx="348.869" cy="186.027" r="41.971"/>
<circle style="fill:#FFFD80;" cx="348.869" cy="186.027" r="23.688"/>
<g>
	<path style="fill:#8BF2E6;" d="M155.015,417.703c-2.637,0-5.146-0.798-7.253-2.309c-5.774-4.142-6.933-12.441-2.589-18.503
		l0.156-0.219l0.171-0.208c0.844-1.028,2.821-3.437,12.701-7.768l5.161-2.262c3.394-1.488,7.143,1.201,6.823,4.893l-0.487,5.613
		c-0.926,10.673-2.557,13.327-3.253,14.46l-0.165,0.267l-0.184,0.255c-2.109,2.911-5.165,4.879-8.606,5.543
		C156.672,417.624,155.841,417.703,155.015,417.703C155.016,417.703,155.016,417.703,155.015,417.703z"/>
	<path style="fill:#8BF2E6;" d="M250.63,417.703c-2.638,0-5.148-0.799-7.255-2.309c-5.772-4.141-6.93-12.44-2.587-18.502
		l0.156-0.218l0.171-0.208c0.843-1.028,2.819-3.437,12.699-7.767l4.972-2.18c3.479-1.525,7.322,1.232,6.993,5.016l-0.47,5.409
		c-0.928,10.679-2.554,13.326-3.248,14.457l-0.165,0.268l-0.185,0.255c-2.109,2.911-5.165,4.879-8.605,5.543
		C252.288,417.623,251.457,417.703,250.63,417.703L250.63,417.703z"/>
	<path style="fill:#8BF2E6;" d="M98.469,472.193c-2.638,0-5.147-0.798-7.255-2.309c-5.772-4.141-6.931-12.44-2.587-18.502
		l0.156-0.219l0.171-0.208c0.844-1.028,2.821-3.437,12.701-7.768l5.161-2.262c3.394-1.488,7.143,1.201,6.823,4.893l-0.487,5.613
		c-0.926,10.673-2.557,13.327-3.253,14.46l-0.164,0.267l-0.184,0.255c-2.109,2.911-5.165,4.879-8.606,5.543
		C100.122,472.114,99.293,472.193,98.469,472.193L98.469,472.193z"/>
	<path style="fill:#8BF2E6;" d="M195.112,472.193c-2.638,0-5.147-0.798-7.254-2.308c-5.774-4.142-6.933-12.441-2.589-18.503
		l0.156-0.219l0.171-0.208c0.844-1.028,2.821-3.437,12.701-7.768l5.161-2.262c3.394-1.488,7.143,1.201,6.823,4.893l-0.487,5.613
		c-0.926,10.673-2.557,13.327-3.253,14.46l-0.164,0.267l-0.184,0.255c-2.109,2.911-5.165,4.879-8.606,5.543
		C196.764,472.114,195.937,472.193,195.112,472.193L195.112,472.193z"/>
	<path style="fill:#8BF2E6;" d="M66.598,417.703c-2.638,0-5.148-0.799-7.255-2.309c-5.772-4.141-6.931-12.44-2.587-18.502
		l0.156-0.219l0.171-0.208c0.844-1.028,2.821-3.437,12.701-7.768l5.161-2.262c3.394-1.488,7.143,1.201,6.823,4.893l-0.487,5.613
		c-0.926,10.673-2.557,13.327-3.253,14.46l-0.165,0.267l-0.184,0.255c-2.109,2.911-5.165,4.879-8.606,5.543
		C68.255,417.623,67.425,417.703,66.598,417.703L66.598,417.703z"/>
</g>
<path id="SVGCleanerId_0" style="fill:#C3FFF9;" d="M411.759,192.257c-28.061,0-50.892-22.83-50.892-50.892
	s22.83-50.892,50.892-50.892c23.719,0,44.484,16.657,49.655,39.711c5.183-3.112,11.105-4.755,17.173-4.755
	c18.425,0,33.414,14.99,33.414,33.414s-14.989,33.414-33.414,33.414H411.759z"/>
<g>
	<path id="SVGCleanerId_0_1_" style="fill:#C3FFF9;" d="M411.759,192.257c-28.061,0-50.892-22.83-50.892-50.892
		s22.83-50.892,50.892-50.892c23.719,0,44.484,16.657,49.655,39.711c5.183-3.112,11.105-4.755,17.173-4.755
		c18.425,0,33.414,14.99,33.414,33.414s-14.989,33.414-33.414,33.414H411.759z"/>
</g>
<path style="fill:#AFF2D8;" d="M365.869,353.671h-237.38c-41.086,0-74.513-33.427-74.513-74.513
	c0-38.368,28.652-70.156,66.717-74.108c6.498-49.866,49.281-87.416,99.686-87.416c55.435,0,100.535,45.1,100.535,100.536
	c0,3.505-0.188,7.063-0.559,10.596c12.246-9.402,26.853-14.363,42.332-14.363c38.397,0,69.634,31.238,69.634,69.635
	c0,36.4-28.423,66.902-64.708,69.442l-0.9,0.205L365.869,353.671z"/>
<polygon style="fill:#87CEB7;" points="365.869,353.671 366.713,353.682 366.764,353.671 "/>
<path style="fill:#C3FFF9;" d="M50.892,117.205C22.83,117.205,0,94.375,0,66.313s22.83-50.892,50.892-50.892
	c23.719,0,44.484,16.657,49.654,39.711c5.184-3.113,11.106-4.755,17.174-4.755c18.424,0,33.414,14.99,33.414,33.414
	s-14.99,33.414-33.414,33.414H50.892z"/>
<path style="fill:#8BF2E6;" d="M71.658,117.205c0.344-0.904,0.072-2.036-1.018-2.523c-18.494-8.27-31.414-26.834-31.414-48.369
	c0-0.743,0.015-1.484,0.046-2.22c0.139-3.328,2.903-5.945,6.234-5.945h15.12c5.566,0,10.371-4.319,10.521-9.883
	c0.155-5.741-4.45-10.445-10.156-10.449c-5.769-0.004-8.392-7.107-4.096-10.957c3.197-2.865,6.748-5.34,10.571-7.365
	c0.544-0.288,0.503-1.088-0.079-1.289c-5.207-1.802-10.764-2.784-16.497-2.784c-28.389,0-51.423,23.365-50.882,51.875
	c0.528,27.862,23.87,49.908,51.737,49.908H71.658z"/>
<g>
	<circle style="fill:#FFA000;" cx="361.896" cy="66.827" r="13.365"/>
	<circle style="fill:#FFA000;" cx="299.181" cy="80.193" r="13.365"/>
</g>
<g>
	<path style="fill:#87CEB7;" d="M461.108,431.807H358.297c-15.589,0-28.273-12.683-28.273-28.273s12.684-28.273,28.273-28.273
		s28.273,12.683,28.273,28.273c0,4.258-3.451,7.711-7.711,7.711c-4.259,0-7.711-3.452-7.711-7.711
		c0-7.087-5.765-12.851-12.851-12.851c-7.087,0-12.851,5.765-12.851,12.851c0,7.087,5.765,12.851,12.851,12.851h102.811
		c4.259,0,7.711,3.452,7.711,7.711C468.819,428.355,465.368,431.807,461.108,431.807z"/>
	<path style="fill:#87CEB7;" d="M296.611,496.578c-15.589,0-28.273-12.683-28.273-28.273s12.684-28.273,28.273-28.273h102.811
		c4.259,0,7.711,3.452,7.711,7.711c0,4.258-3.451,7.711-7.711,7.711H296.611c-7.087,0-12.851,5.765-12.851,12.851
		s5.765,12.851,12.851,12.851s12.851-5.765,12.851-12.851c0-4.258,3.451-7.711,7.711-7.711c4.259,0,7.711,3.452,7.711,7.711
		C324.884,483.896,312.2,496.578,296.611,496.578z"/>
</g>
<path style="fill:#8BF2E6;" d="M397.458,141.365c0-2.377,0.173-4.713,0.49-7.005c0.177,0.011,0.352,0.027,0.53,0.027h16.016
	c4.462,0,8.359-3.367,8.646-7.82c0.316-4.879-3.548-8.935-8.36-8.935h-5.647c-2.634,0-4.164-2.96-2.666-5.126
	c4.835-6.993,11.374-12.723,19.013-16.583c1.593-0.805,1.396-3.154-0.324-3.63c-4.293-1.184-8.788-1.819-13.398-1.819
	c-28.388,0-51.423,23.365-50.882,51.875c0.528,27.862,23.87,49.908,51.737,49.908h35.737
	C420.288,192.257,397.458,169.427,397.458,141.365z"/>
<path style="fill:#87CEB7;" d="M205.423,171.64h-13.792c-4.632,0-7.47-5.164-4.903-9.02c11.494-17.264,28.157-30.7,47.632-38.229
	c2.94-1.137,2.445-5.466-0.681-5.882c-4.353-0.578-8.792-0.876-13.301-0.876c-50.405,0-93.189,37.55-99.686,87.416
	c-37.925,3.938-66.507,35.507-66.716,73.686c-0.226,41.215,34.369,74.935,75.585,74.935h49.053
	c-41.086,0-74.513-33.427-74.513-74.513c0-38.103,28.263-69.703,65.934-74.009h35.861c9.521,0,17.188-7.943,16.735-17.564
	C222.208,178.573,214.445,171.64,205.423,171.64z"/>
<g>
</g>
<g>
</g>
<g>
</g>
<g>
</g>
<g>
</g>
<g>
</g>
<g>
</g>
<g>
</g>
<g>
</g>
<g>
</g>
<g>
</g>
<g>
</g>
<g>
</g>
<g>
</g>
<g>
</g>
</svg>
