<?xml version="1.0" encoding="iso-8859-1"?>
<!-- Generator: Adobe Illustrator 19.0.0, SVG Export Plug-In . SVG Version: 6.00 Build 0)  -->
<svg version="1.1" id="Capa_1" xmlns="http://www.w3.org/2000/svg" xmlns:xlink="http://www.w3.org/1999/xlink" x="0px" y="0px"
	 viewBox="0 0 512.001 512.001" style="enable-background:new 0 0 512.001 512.001;" xml:space="preserve">
<path style="fill:#AFF2D8;" d="M365.504,356.655H128.362c-41.045,0-74.439-33.393-74.439-74.439c0-38.33,28.624-70.086,66.65-74.034
	c6.491-49.815,49.231-87.329,99.586-87.329c55.38,0,100.435,45.055,100.435,100.435c0,3.497-0.188,7.052-0.559,10.585
	c12.23-9.392,26.825-14.348,42.288-14.348c38.358,0,69.564,31.207,69.564,69.565c0,36.364-28.395,66.835-64.643,69.372l-0.899,0.204
	L365.504,356.655z"/>
<path style="fill:#87CEB7;" d="M103.737,283.29c0-37.804,27.177-69.354,63.958-75.276h48.984c8.752,0,15.846-7.094,15.846-15.846
	l0,0c0-8.752-7.094-15.846-15.846-15.846h-18.865c-7.654,0-12.163-8.648-7.731-14.889c10.28-14.475,24.194-26.115,40.316-33.692
	c3.139-1.476,2.354-6.158-1.1-6.473c-3.01-0.274-6.059-0.415-9.139-0.415c-50.355,0-93.096,37.512-99.586,87.329
	c-37.887,3.934-66.44,35.471-66.649,73.612c-0.226,41.175,34.334,74.861,75.509,74.861h16.895c2.494,0,3.28-3.39,1.028-4.462
	C121.593,339.938,103.737,313.667,103.737,283.29z"/>
<path style="fill:#C3FFF9;" d="M50.842,120.426c-28.033,0-50.841-22.807-50.841-50.841s22.807-50.841,50.841-50.841
	c23.695,0,44.44,16.641,49.604,39.671c5.178-3.11,11.094-4.75,17.156-4.75c18.405,0,33.38,14.975,33.38,33.38
	s-14.975,33.38-33.38,33.38H50.842z"/>
<path style="fill:#8BF2E6;" d="M68.883,120.426c2.08,0,2.723-2.857,0.825-3.707c-18.022-8.06-30.612-26.149-30.612-47.134
	c0-0.725,0.015-1.446,0.045-2.164c0.136-3.242,2.83-5.792,6.075-5.792h14.735c5.431,0,10.116-4.221,10.253-9.65
	c0.141-5.587-4.346-10.161-9.9-10.163c-5.595-0.002-8.219-6.873-4.059-10.614c2.225-2.001,4.624-3.807,7.172-5.399
	c2.336-1.458,1.841-5.029-0.837-5.671c-3.787-0.908-7.721-1.388-11.74-1.388c-28.361,0-51.372,23.341-50.831,51.823
	c0.528,27.834,23.846,49.858,51.684,49.858H68.883z"/>
<path style="fill:#87CEB7;" d="M451.225,102.635l-9.532-2.985l3.425-10.94c1.271-4.06-0.99-8.382-5.05-9.653
	c-4.061-1.272-8.381,0.99-9.652,5.05l-4.332,13.839l-32.709,17.112V80.229l11.297-11.297c3.008-3.008,3.008-7.886,0-10.893
	c-3.008-3.008-7.886-3.008-10.893,0l-7.063,7.063l-8.106-8.106c-3.008-3.008-7.886-3.008-10.893,0
	c-3.008,3.008-3.008,7.886,0,10.893l10.252,10.254v36.914l-32.708-17.111l-4.332-13.839c-1.272-4.06-5.591-6.322-9.653-5.05
	c-4.06,1.271-6.321,5.592-5.05,9.653l3.425,10.94l-9.532,2.985c-4.06,1.271-6.321,5.592-5.05,9.653
	c1.031,3.294,4.07,5.403,7.349,5.403c0.762,0,1.538-0.114,2.304-0.354l15.246-4.773l29.088,15.217l-32.462,16.983l-13.839-4.332
	c-4.062-1.274-8.382,0.99-9.653,5.05c-1.272,4.06,0.989,8.382,5.05,9.653l10.939,3.424l-2.984,9.533
	c-1.272,4.06,0.989,8.382,5.05,9.653c0.766,0.24,1.541,0.354,2.304,0.354c3.278,0,6.318-2.11,7.349-5.403l4.773-15.246
	l32.386-16.945v38.637l-10.253,10.253c-3.008,3.008-3.008,7.886,0,10.893c1.504,1.504,3.476,2.257,5.447,2.257
	s3.943-0.752,5.447-2.257l8.106-8.106l7.063,7.063c3.008,3.008,7.886,3.008,10.893,0c3.008-3.008,3.008-7.886,0-10.893
	l-11.296-11.297v-36.551l20.292,10.616c1.14,0.597,2.36,0.879,3.564,0.879c2.775,0,5.457-1.505,6.832-4.134
	c1.972-3.769,0.515-8.424-3.255-10.396l-18.519-9.688l29.088-15.217l15.246,4.773c0.766,0.24,1.541,0.354,2.304,0.354
	c3.278,0,6.318-2.11,7.349-5.403C457.545,108.228,455.285,103.906,451.225,102.635z"/>
<g>
	<path style="fill:#8BF2E6;" d="M276.844,411.028l-6.577-4.216l6.474-4.375c3.525-2.382,4.45-7.17,2.069-10.696
		c-2.382-3.525-7.17-4.451-10.696-2.069l-4.151,2.806v-5.011c0-4.254-3.449-7.703-7.703-7.703c-4.254,0-7.703,3.449-7.703,7.703
		v5.427l-4.568-2.929c-3.58-2.295-8.345-1.255-10.642,2.328c-2.296,3.581-1.254,8.346,2.328,10.642l6.577,4.216l-6.474,4.375
		c-3.525,2.382-4.45,7.17-2.069,10.696c1.488,2.203,3.916,3.39,6.389,3.39c1.484,0,2.984-0.428,4.307-1.322l4.151-2.806v5.011
		c0,4.254,3.449,7.703,7.703,7.703c4.254,0,7.703-3.449,7.703-7.703v-5.427l4.568,2.929c1.287,0.825,2.727,1.219,4.15,1.219
		c2.537,0,5.021-1.252,6.492-3.548C281.468,418.088,280.425,413.324,276.844,411.028z"/>
	<path style="fill:#8BF2E6;" d="M178.244,411.542l-6.577-4.216l6.474-4.375c3.525-2.382,4.45-7.17,2.069-10.696
		c-2.382-3.525-7.169-4.451-10.696-2.069l-4.151,2.806v-5.011c0-4.254-3.449-7.703-7.703-7.703c-4.254,0-7.703,3.449-7.703,7.703
		v5.427l-4.568-2.929c-3.58-2.294-8.346-1.254-10.642,2.328c-2.296,3.581-1.254,8.346,2.328,10.642l6.577,4.216l-6.474,4.375
		c-3.525,2.382-4.45,7.17-2.069,10.696c1.488,2.203,3.916,3.39,6.389,3.39c1.484,0,2.984-0.428,4.307-1.322l4.151-2.806v5.011
		c0,4.254,3.449,7.703,7.703,7.703c4.254,0,7.703-3.449,7.703-7.703v-5.427l4.568,2.929c1.287,0.825,2.727,1.219,4.15,1.219
		c2.537,0,5.021-1.252,6.492-3.548C182.868,418.602,181.825,413.837,178.244,411.542z"/>
	<path style="fill:#8BF2E6;" d="M226.517,470.085l-6.577-4.216l6.474-4.375c3.525-2.382,4.45-7.17,2.069-10.696
		c-2.382-3.525-7.17-4.451-10.696-2.069l-4.151,2.806v-5.011c0-4.254-3.449-7.703-7.703-7.703s-7.703,3.449-7.703,7.703v5.427
		l-4.568-2.929c-3.58-2.296-8.346-1.254-10.642,2.328c-2.296,3.581-1.254,8.346,2.328,10.642l6.577,4.216l-6.474,4.375
		c-3.525,2.382-4.45,7.17-2.069,10.696c1.488,2.203,3.916,3.39,6.389,3.39c1.484,0,2.984-0.428,4.307-1.322l4.151-2.806v5.011
		c0,4.254,3.449,7.703,7.703,7.703s7.703-3.449,7.703-7.703v-5.427l4.568,2.929c1.287,0.825,2.727,1.219,4.15,1.219
		c2.537,0,5.021-1.252,6.492-3.548C231.141,477.146,230.098,472.381,226.517,470.085z"/>
	<path style="fill:#8BF2E6;" d="M323.062,470.085l-6.577-4.216l6.474-4.375c3.525-2.382,4.45-7.17,2.069-10.696
		c-2.382-3.525-7.17-4.451-10.696-2.069l-4.151,2.806v-5.011c0-4.254-3.449-7.703-7.703-7.703s-7.703,3.449-7.703,7.703v5.427
		l-4.568-2.929c-3.579-2.296-8.345-1.254-10.642,2.328c-2.296,3.581-1.254,8.346,2.328,10.642l6.577,4.216l-6.474,4.375
		c-3.525,2.382-4.45,7.17-2.069,10.696c1.488,2.203,3.916,3.39,6.389,3.39c1.484,0,2.984-0.428,4.307-1.322l4.151-2.806v5.011
		c0,4.254,3.449,7.703,7.703,7.703c4.254,0,7.703-3.449,7.703-7.703v-5.427l4.568,2.929c1.287,0.825,2.727,1.219,4.15,1.219
		c2.537,0,5.021-1.252,6.492-3.548C327.686,477.146,326.644,472.381,323.062,470.085z"/>
	<path style="fill:#8BF2E6;" d="M368.254,411.542l-6.577-4.216l6.474-4.375c3.525-2.382,4.45-7.17,2.069-10.696
		c-2.382-3.525-7.169-4.451-10.696-2.069l-4.151,2.806v-5.011c0-4.254-3.449-7.703-7.703-7.703c-4.254,0-7.703,3.449-7.703,7.703
		v5.427l-4.568-2.929c-3.58-2.294-8.346-1.254-10.642,2.328c-2.296,3.581-1.254,8.346,2.328,10.642l6.577,4.216l-6.474,4.375
		c-3.525,2.382-4.45,7.17-2.069,10.696c1.488,2.203,3.916,3.39,6.389,3.39c1.484,0,2.984-0.428,4.307-1.322l4.151-2.806v5.011
		c0,4.254,3.449,7.703,7.703,7.703c4.254,0,7.703-3.449,7.703-7.703v-5.427l4.568,2.929c1.287,0.825,2.727,1.219,4.15,1.219
		c2.537,0,5.021-1.252,6.492-3.548C372.878,418.602,371.835,413.837,368.254,411.542z"/>
</g>
<path style="fill:#C3FFF9;" d="M445.297,196.43c-18.721,0-33.95-15.23-33.95-33.95s15.23-33.95,33.95-33.95
	c15.744,0,29.537,11,33.072,26.259c3.418-2.004,7.303-3.06,11.282-3.06c12.324,0,22.349,10.026,22.349,22.349
	s-10.026,22.349-22.349,22.349h-44.354V196.43z"/>
<path style="fill:#8BF2E6;" d="M431.889,162.48c0-1.467,0.096-2.911,0.277-4.328c0.198,0.027,0.394,0.061,0.6,0.061h8.622
	c2.344,0,4.437-1.713,4.66-4.047c0.256-2.677-1.843-4.928-4.467-4.928h-3.721c-1.566,0-2.548-1.682-1.793-3.055
	c3.462-6.299,8.866-11.386,15.4-14.452c1.276-0.599,1.034-2.447-0.352-2.691c-1.897-0.334-3.84-0.508-5.816-0.508
	c-18.524,0-33.631,14.912-33.945,33.363c-0.324,18.993,15.626,34.537,34.621,34.537h19.866
	C447.118,196.43,431.889,181.2,431.889,162.48z"/>
<g>
</g>
<g>
</g>
<g>
</g>
<g>
</g>
<g>
</g>
<g>
</g>
<g>
</g>
<g>
</g>
<g>
</g>
<g>
</g>
<g>
</g>
<g>
</g>
<g>
</g>
<g>
</g>
<g>
</g>
</svg>
