<?xml version="1.0" encoding="iso-8859-1"?>
<!-- Generator: Adobe Illustrator 19.0.0, SVG Export Plug-In . SVG Version: 6.00 Build 0)  -->
<svg version="1.1" id="Capa_1" xmlns="http://www.w3.org/2000/svg" xmlns:xlink="http://www.w3.org/1999/xlink" x="0px" y="0px"
	 viewBox="0 0 512.001 512.001" style="enable-background:new 0 0 512.001 512.001;" xml:space="preserve">
<g>
	<path style="fill:#FFE44C;" d="M347.698,394.046h-14.379c-1.587,0-2.769-1.464-2.435-3.015l6.262-29.038h30.725l14.867-4.588
		l-9.535,30.656c-0.381,1.224,0.229,2.536,1.41,3.034l5.008,2.113c1.588,0.67,2.032,2.712,0.866,3.981l-33.097,35.989
		c-1.71,1.86-4.783,0.284-4.272-2.19l7.019-33.947C350.457,395.495,349.277,394.046,347.698,394.046z"/>
	<path style="fill:#FFE44C;" d="M232.598,415.976h-28.952c-1.587,0-2.769-1.464-2.435-3.015l10.992-50.968h74.734l-13.86,44.558
		c-0.498,1.603,0.699,3.23,2.378,3.23h15.406c2.168,0,3.302,2.58,1.833,4.176l-66.949,72.798c-1.71,1.86-4.783,0.284-4.272-2.19
		l13.561-65.594C235.356,417.426,234.177,415.976,232.598,415.976z"/>
	<path style="fill:#FFE44C;" d="M134.665,394.046h-14.379c-1.587,0-2.769-1.464-2.435-3.015l6.262-29.038h44.167l-8.11,26.07
		c-0.381,1.224,0.23,2.536,1.409,3.034l5.008,2.115c1.587,0.67,2.031,2.712,0.864,3.98l-33.094,35.986
		c-1.71,1.86-4.783,0.284-4.272-2.19l7.018-33.946C137.424,395.495,136.244,394.046,134.665,394.046z"/>
</g>
<g>
	<path style="fill:#FFC200;" d="M251.087,418.971c0.319-1.546-0.86-2.995-2.439-2.995h-16.05c1.578,0,2.758,1.449,2.439,2.995
		l-13.561,65.594c-0.511,2.474,2.562,4.05,4.272,2.19l14.609-15.886L251.087,418.971z"/>
	<path style="fill:#FFC200;" d="M367.873,361.992h-14.676h-16.05l-3.78,17.526l0,0l-2.482,11.512
		c-0.334,1.551,0.848,3.015,2.434,3.015h14.379c1.578,0,2.758,1.449,2.439,2.995l-7.019,33.947c-0.512,2.474,2.562,4.05,4.272,2.19
		l14.61-15.886l4.187-20.252c0.319-1.546-0.86-2.995-2.439-2.995h-14.379c-1.587,0-2.769-1.464-2.434-3.015l1.252-5.806
		c0.718-3.329,3.662-5.706,7.067-5.706h10.985l0.844,0.012l0.901-0.205c2.814-0.197,5.572-0.58,8.282-1.103l6.474-20.818
		L367.873,361.992z"/>
	<path style="fill:#FFC200;" d="M212.205,361.992l-3.78,17.526l0,0l-7.212,33.442c-0.334,1.551,0.848,3.015,2.435,3.015h16.05
		c-1.587,0-2.769-1.464-2.434-3.015l4.97-23.046c1.308-6.066,6.673-10.396,12.878-10.396h46.377l5.451-17.526h-58.685H212.205z"/>
	<path style="fill:#FFC200;" d="M124.114,361.992l-6.262,29.038c-0.334,1.551,0.848,3.015,2.434,3.015h14.379
		c1.578,0,2.758,1.449,2.439,2.995l-7.018,33.946c-0.511,2.474,2.562,4.05,4.272,2.19l14.61-15.886l4.187-20.25
		c0.319-1.546-0.86-2.995-2.439-2.995h-14.379c-1.587,0-2.769-1.464-2.435-3.015l0.509-2.362c1.152-5.339,5.872-9.15,11.334-9.15
		h17.084l5.451-17.526h-28.116H124.114z"/>
</g>
<path id="SVGCleanerId_0" style="fill:#A3A3A0;" d="M50.944,126.317c-28.09,0-50.943-22.853-50.943-50.943
	s22.853-50.943,50.943-50.943c23.742,0,44.529,16.674,49.704,39.751c5.189-3.116,11.116-4.76,17.191-4.76
	c18.442,0,33.447,15.005,33.447,33.447s-15.005,33.447-33.447,33.447H50.944z"/>
<path id="SVGCleanerId_1" style="fill:#A3A3A0;" d="M442.428,199.796c-19.52,0-35.4-15.881-35.4-35.4s15.881-35.4,35.4-35.4
	c16.425,0,30.814,11.484,34.491,27.41c3.571-2.099,7.629-3.204,11.786-3.204c12.846,0,23.297,10.451,23.297,23.297
	c0,12.846-10.451,23.297-23.297,23.297h-46.277V199.796z"/>
<path id="SVGCleanerId_2" style="fill:#A3A3A0;" d="M366.239,363.021H128.62c-41.128,0-74.588-33.461-74.588-74.588
	c0-38.407,28.681-70.227,66.784-74.183c6.504-49.916,49.33-87.504,99.786-87.504c55.492,0,100.637,45.146,100.637,100.637
	c0,3.504-0.188,7.066-0.56,10.606c12.256-9.411,26.879-14.377,42.373-14.377c38.436,0,69.704,31.27,69.704,69.705
	c0,36.437-28.452,66.97-64.773,69.512l-0.901,0.205L366.239,363.021z"/>
<g>
	<path id="SVGCleanerId_2_1_" style="fill:#A3A3A0;" d="M366.239,363.021H128.62c-41.128,0-74.588-33.461-74.588-74.588
		c0-38.407,28.681-70.227,66.784-74.183c6.504-49.916,49.33-87.504,99.786-87.504c55.492,0,100.637,45.146,100.637,100.637
		c0,3.504-0.188,7.066-0.56,10.606c12.256-9.411,26.879-14.377,42.373-14.377c38.436,0,69.704,31.27,69.704,69.705
		c0,36.437-28.452,66.97-64.773,69.512l-0.901,0.205L366.239,363.021z"/>
</g>
<g>
	<path id="SVGCleanerId_0_1_" style="fill:#A3A3A0;" d="M50.944,126.317c-28.09,0-50.943-22.853-50.943-50.943
		s22.853-50.943,50.943-50.943c23.742,0,44.529,16.674,49.704,39.751c5.189-3.116,11.116-4.76,17.191-4.76
		c18.442,0,33.447,15.005,33.447,33.447s-15.005,33.447-33.447,33.447H50.944z"/>
</g>
<path style="fill:#8C8C8C;" d="M69.022,126.317c2.084,0,2.728-2.863,0.826-3.714c-18.058-8.076-30.674-26.202-30.674-47.229
	c0-0.727,0.015-1.449,0.045-2.168c0.136-3.249,2.835-5.803,6.087-5.803h14.764c5.442,0,10.136-4.23,10.274-9.67
	c0.141-5.599-4.354-10.181-9.92-10.183c-5.606-0.002-8.235-6.887-4.067-10.635c2.229-2.005,4.633-3.815,7.187-5.41
	c2.34-1.461,1.844-5.039-0.839-5.682c-3.794-0.91-7.736-1.39-11.763-1.39c-28.418,0-51.475,23.388-50.933,51.928
	c0.529,27.89,23.894,49.958,51.788,49.958H69.022z"/>
<g>
	<path id="SVGCleanerId_1_1_" style="fill:#A3A3A0;" d="M442.428,199.796c-19.52,0-35.4-15.881-35.4-35.4s15.881-35.4,35.4-35.4
		c16.425,0,30.814,11.484,34.491,27.41c3.571-2.099,7.629-3.204,11.786-3.204c12.846,0,23.297,10.451,23.297,23.297
		c0,12.846-10.451,23.297-23.297,23.297h-46.277V199.796z"/>
</g>
<g>
	<path style="fill:#8C8C8C;" d="M103.946,289.509c0-37.88,27.231-69.493,64.087-75.427h49.082c8.769,0,15.878-7.108,15.878-15.878
		l0,0c0-8.769-7.108-15.878-15.878-15.878h-18.903c-7.669,0-12.187-8.665-7.746-14.918c10.277-14.471,24.179-26.114,40.287-33.708
		c3.174-1.496,2.381-6.235-1.114-6.549c-2.976-0.268-5.991-0.404-9.036-0.404c-50.456,0-93.283,37.587-99.786,87.504
		c-37.963,3.942-66.573,35.543-66.783,73.76c-0.226,41.257,34.403,75.011,75.661,75.011h16.929c2.499,0,3.287-3.397,1.03-4.471
		C121.838,346.271,103.946,319.948,103.946,289.509z"/>
	<path style="fill:#8C8C8C;" d="M432.757,164.396c0-1.056,0.05-2.1,0.144-3.133c0.145-1.582,1.507-2.775,3.095-2.775h11.508
		c2.726,0,5.161-1.993,5.421-4.707c0.297-3.113-2.144-5.733-5.196-5.733h-5.286c-2.555,0-4.045-2.929-2.503-4.968
		c2.994-3.957,6.795-7.27,11.161-9.685c1.485-0.821,1.213-3.016-0.435-3.416c-2.656-0.643-5.415-0.984-8.236-0.984
		c-19.315,0-35.067,15.549-35.394,34.788c-0.338,19.804,16.293,36.012,36.1,36.012h25.024
		C448.638,199.796,432.757,183.916,432.757,164.396z"/>
</g>
<g>
</g>
<g>
</g>
<g>
</g>
<g>
</g>
<g>
</g>
<g>
</g>
<g>
</g>
<g>
</g>
<g>
</g>
<g>
</g>
<g>
</g>
<g>
</g>
<g>
</g>
<g>
</g>
<g>
</g>
</svg>
