<?xml version="1.0" encoding="iso-8859-1"?>
<!-- Generator: Adobe Illustrator 19.0.0, SVG Export Plug-In . SVG Version: 6.00 Build 0)  -->
<svg version="1.1" id="Capa_1" xmlns="http://www.w3.org/2000/svg" xmlns:xlink="http://www.w3.org/1999/xlink" x="0px" y="0px"
	 viewBox="0 0 512.001 512.001" style="enable-background:new 0 0 512.001 512.001;" xml:space="preserve">
<path style="fill:#C3FFF9;" d="M395.719,197.292l-2.472-5.206c-5.233-11.014-8.467-23.249-9.61-36.368l-0.61-6.995l6.608-2.377
	c2.871-1.033,5.863-1.557,8.892-1.557c4.688,0,9.267,1.248,13.292,3.617c1.774-7.706,5.764-14.641,11.574-20.098
	c7.423-6.968,17.117-10.805,27.299-10.805c21.998,0,39.893,17.897,39.893,39.894s-17.895,39.894-39.893,39.894h-54.972V197.292z"/>
<path style="fill:#8BF2E6;" d="M405.614,168.018c-2.496-7.377-4.165-15.136-5.021-23.136c-0.686-0.054-1.375-0.09-2.068-0.09
	c-3.029,0-6.021,0.523-8.892,1.557l-6.608,2.377l0.61,6.995c1.143,13.117,4.377,25.353,9.61,36.368l2.472,5.206h26.305
	C414.993,189.104,409.407,179.227,405.614,168.018z"/>
<path style="fill:#FFE44C;" d="M452.754,309.621c-13.974-12.503-31.962-19.388-50.652-19.388c-12.118,0-23.638,2.73-34.243,8.115
	l-12.88,6.539l-0.364-14.441c-0.992-39.314-23.183-75.428-57.915-94.248l-6.513-3.529l2.12-7.098
	c11.698-39.166,43.859-68.932,83.93-77.682l5.352-1.168c3.951-0.863,7.477,2.636,6.645,6.594l-1.127,5.361
	c-4.592,21.828-3.606,43.456,2.853,62.548c7.733,22.858,22.886,40.222,42.67,48.892c9.242,4.051,19.164,6.105,29.49,6.105
	c11.931,0,23.989-2.713,35.839-8.062l6.17-2.785c4.1-1.851,8.591,1.666,7.777,6.091l-1.225,6.657
	c-0.202,1.091-0.416,2.177-0.649,3.261c-6.025,28.14-22.368,52.626-46.018,68.949l-5.909,4.078L452.754,309.621z"/>
<path style="fill:#FFC200;" d="M402.103,266.297c-8.763,0-17.347,1.112-25.607,3.29c-7.965-44.571-38.003-81.586-78.358-99.31
	c-2.291,4.91-4.252,10.013-5.829,15.296l-2.12,7.098l6.513,3.529c34.732,18.82,56.922,54.933,57.915,94.248l0.364,14.441
	l12.88-6.539c10.605-5.385,22.125-8.115,34.243-8.115c18.689,0,36.678,6.886,50.652,19.388l5.35,4.787l5.909-4.078
	c4.571-3.154,8.861-6.621,12.864-10.353C458.545,279.332,431.819,266.297,402.103,266.297z"/>
<path style="fill:#AFF2D8;" d="M405.63,443.498H143.643c-45.696,0-84.049-37.386-83.799-83.081
	c0.233-42.327,31.92-77.327,73.966-81.692c7.202-55.284,54.634-96.916,110.519-96.916c61.459,0,111.46,50.001,111.46,111.462
	c0,2.977-0.122,5.989-0.365,8.996c-0.084,1.049,1.079,1.739,1.934,1.128c13.113-9.371,28.495-14.3,44.741-14.3
	c42.57,0,77.201,34.633,77.201,77.202c0,40.356-31.512,74.173-71.74,76.988l-0.997,0.227L405.63,443.498z"/>
<path style="fill:#87CEB7;" d="M115.105,362.322c0-42.159,30.308-77.346,71.329-83.95h54.629c9.759,0,17.672-7.912,17.672-17.672
	l0,0c0-9.759-7.912-17.672-17.672-17.672h-21.039c-8.524,0-13.571-9.631-8.638-16.581c11.602-16.345,27.353-29.468,45.611-37.921
	c0.024-0.011,0.049-0.023,0.073-0.034c2.876-1.376,2.002-5.748-1.169-6.079c-3.804-0.397-7.662-0.603-11.569-0.603
	c-55.885,0-103.317,41.63-110.519,96.916c-42.046,4.367-73.734,39.366-73.966,81.692c-0.251,45.695,38.103,83.081,83.799,83.081
	h31.081C140.211,432.654,115.105,400.367,115.105,362.322z"/>
<path style="fill:#C3FFF9;" d="M56.423,181.335c-31.111,0-56.422-25.311-56.422-56.422s25.311-56.422,56.422-56.422
	c26.296,0,49.319,18.468,55.051,44.026c5.747-3.451,12.313-5.272,19.039-5.272c20.427,0,37.045,16.619,37.045,37.045
	s-16.618,37.045-37.045,37.045H56.423z"/>
<path style="fill:#8BF2E6;" d="M75.771,181.335c1.756,0,2.337-2.385,0.76-3.16c-19.662-9.676-33.23-29.907-33.23-53.262
	c0-0.833,0.017-1.662,0.051-2.486c0.155-3.73,3.252-6.662,6.986-6.662h17.717c6.086,0,11.019-4.933,11.019-11.019v-1.027
	c0-6.239-5.089-10.787-11.328-10.737c-6.494,0.052-9.493-7.928-4.677-12.249c2.52-2.261,5.236-4.31,8.118-6.118
	c1.752-1.099,1.366-3.781-0.635-4.304c-4.54-1.189-9.278-1.821-14.131-1.821c-32.151,0-58.109,27.032-56.337,59.562
	c1.638,30.058,27.145,53.282,57.247,53.282h18.438V181.335z"/>
<g>
</g>
<g>
</g>
<g>
</g>
<g>
</g>
<g>
</g>
<g>
</g>
<g>
</g>
<g>
</g>
<g>
</g>
<g>
</g>
<g>
</g>
<g>
</g>
<g>
</g>
<g>
</g>
<g>
</g>
</svg>
