<?xml version="1.0" encoding="iso-8859-1"?>
<!-- Generator: Adobe Illustrator 19.0.0, SVG Export Plug-In . SVG Version: 6.00 Build 0)  -->
<svg version="1.1" id="Capa_1" xmlns="http://www.w3.org/2000/svg" xmlns:xlink="http://www.w3.org/1999/xlink" x="0px" y="0px"
	 viewBox="0 0 512.001 512.001" style="enable-background:new 0 0 512.001 512.001;" xml:space="preserve">
<g>
	<path style="fill:#8BF2E6;" d="M241.292,441.655c-2.635,0-5.143-0.798-7.251-2.307c-5.772-4.14-6.93-12.437-2.587-18.496
		l0.155-0.218l0.17-0.208c0.844-1.028,2.819-3.436,12.695-7.765l9.582-4.199c1.401-0.615,2.949,0.496,2.816,2.021l-0.906,10.422
		c-0.928,10.678-2.553,13.324-3.248,14.454l-0.163,0.266l-0.185,0.254c-2.107,2.909-5.161,4.876-8.6,5.541
		C242.947,441.576,242.117,441.655,241.292,441.655C241.293,441.655,241.293,441.655,241.292,441.655z"/>
	<path style="fill:#8BF2E6;" d="M336.874,441.655c-2.638,0-5.147-0.799-7.254-2.309c-5.77-4.139-6.928-12.435-2.585-18.495
		l0.155-0.218l0.17-0.208c0.844-1.028,2.819-3.436,12.695-7.765l9.582-4.199c1.401-0.615,2.949,0.496,2.816,2.021l-0.906,10.422
		c-0.928,10.678-2.553,13.324-3.248,14.454l-0.163,0.266l-0.185,0.254c-2.107,2.909-5.161,4.876-8.6,5.541
		C338.53,441.576,337.699,441.655,336.874,441.655L336.874,441.655z"/>
	<path style="fill:#8BF2E6;" d="M184.765,496.125c-2.636,0-5.144-0.798-7.251-2.307c-5.772-4.14-6.93-12.437-2.587-18.496
		l0.155-0.218l0.17-0.208c0.844-1.028,2.819-3.436,12.695-7.765l9.582-4.199c1.401-0.615,2.949,0.496,2.816,2.021l-0.906,10.422
		c-0.928,10.678-2.553,13.324-3.248,14.454l-0.163,0.266l-0.185,0.254c-2.107,2.909-5.161,4.876-8.6,5.541
		C186.416,496.047,185.589,496.125,184.765,496.125C184.766,496.125,184.766,496.125,184.765,496.125z"/>
	<path style="fill:#8BF2E6;" d="M281.374,496.125c-2.637,0-5.146-0.799-7.253-2.308c-5.77-4.139-6.928-12.435-2.585-18.495
		l0.155-0.218l0.17-0.208c0.844-1.028,2.819-3.436,12.695-7.765l9.582-4.199c1.401-0.615,2.949,0.496,2.816,2.021l-0.906,10.422
		c-0.928,10.678-2.553,13.324-3.248,14.454l-0.163,0.266l-0.185,0.254c-2.107,2.909-5.161,4.876-8.6,5.541
		C283.025,496.047,282.198,496.125,281.374,496.125L281.374,496.125z"/>
	<path style="fill:#8BF2E6;" d="M152.906,441.655c-2.636,0-5.144-0.798-7.252-2.307c-5.772-4.14-6.93-12.437-2.587-18.496
		l0.155-0.218l0.17-0.208c0.844-1.028,2.819-3.436,12.695-7.765l9.582-4.199c1.401-0.615,2.949,0.496,2.816,2.021l-0.906,10.422
		c-0.928,10.678-2.553,13.324-3.248,14.454l-0.163,0.266l-0.185,0.254c-2.107,2.909-5.161,4.876-8.6,5.541
		C154.562,441.576,153.731,441.655,152.906,441.655L152.906,441.655z"/>
	<path style="fill:#8BF2E6;" d="M456.742,192.141c-2.851,0-5.584-0.878-7.901-2.54c-6.079-4.362-7.501-12.826-3.173-18.873
		l0.207-0.289l0.231-0.27c0.829-0.969,3.031-3.544,13.759-7.833l11.959-4.781l-0.697,12.86c-0.619,11.421-2.31,14.339-2.947,15.438
		l-0.219,0.377l-0.258,0.353C465.159,190.064,461.061,192.141,456.742,192.141L456.742,192.141z"/>
	<path style="fill:#8BF2E6;" d="M389.943,201.391c-1.581,0-3.167-0.226-4.642-0.79c-8.742-3.345-11.455-13.61-6.436-20.621
		l0.207-0.289l0.231-0.27c0.829-0.969,3.031-3.544,13.759-7.833l11.959-4.781l-0.697,12.86c-0.619,11.421-2.31,14.339-2.947,15.438
		l-0.219,0.377l-0.258,0.353C398.342,199.327,394.272,201.391,389.943,201.391L389.943,201.391z"/>
</g>
<path style="fill:#A3A3A0;" d="M50.875,146.401c-28.052,0-50.874-22.822-50.874-50.874s22.822-50.874,50.874-50.874
	c23.71,0,44.469,16.652,49.637,39.697c5.181-3.111,11.101-4.753,17.167-4.753c18.418,0,33.402,14.985,33.402,33.402
	s-14.984,33.402-33.402,33.402H50.875z"/>
<path style="fill:#8C8C8C;" d="M39.067,95.527c0-0.732,0.015-1.46,0.045-2.185c0.137-3.274,2.857-5.849,6.135-5.849h15.56
	c5.344,0,9.677-4.333,9.677-9.677v-0.901c0-5.48-4.47-9.474-9.949-9.43c-5.703,0.046-8.337-6.962-4.107-10.757
	c0.706-0.634,1.43-1.249,2.17-1.843c3.941-3.167,2.059-9.527-2.975-10.006c-1.567-0.149-3.151-0.225-4.749-0.225
	c-28.379,0-51.405,23.357-50.865,51.857c0.528,27.852,23.861,49.89,51.718,49.89h28.142C56.556,141.214,39.067,120.38,39.067,95.527
	z"/>
<path style="fill:#A3A3A0;" d="M396.535,133.04c-32.302,0-58.582-26.28-58.582-58.582s26.28-58.582,58.582-58.582
	c27.34,0,51.269,19.225,57.182,45.818c5.986-3.618,12.831-5.525,19.848-5.525c21.193,0,38.436,17.243,38.436,38.436
	s-17.243,38.436-38.436,38.436h-77.03V133.04z"/>
<path style="fill:#8C8C8C;" d="M491.914,60.838c0.068,0.286,0.146,0.567,0.21,0.855c0.213-0.128,0.433-0.237,0.647-0.362
	C492.485,61.167,492.203,60.997,491.914,60.838z"/>
<path style="fill:#A3A3A0;" d="M378.076,382.784H140.78c-41.073,0-74.488-33.415-74.488-74.487
	c0-38.355,28.642-70.131,66.695-74.083c6.493-49.848,49.261-87.386,99.651-87.386c55.415,0,100.5,45.084,100.5,100.501
	c0,3.504-0.188,7.061-0.559,10.592c12.242-9.399,26.844-14.358,42.317-14.358c38.383,0,69.61,31.227,69.61,69.611
	c0,36.388-28.413,66.879-64.686,69.418l-0.899,0.205L378.076,382.784z"/>
<g>
	<path style="fill:#8C8C8C;" d="M237.349,155.292c4.135-2.032,2.819-8.288-1.786-8.421c-0.972-0.028-1.948-0.042-2.926-0.042
		c-50.39,0-93.158,37.537-99.651,87.386c-38.668,4.015-67.62,36.765-66.672,75.951c0.966,39.959,35.533,72.619,75.503,72.619h29.595
		c-33.379-7.922-58.293-37.958-58.293-73.726c0-37.562,27.003-68.912,63.551-74.796h48.671c8.696,0,15.744-7.049,15.744-15.744l0,0
		c0-8.696-7.049-15.744-15.744-15.744h-18.745c-7.632,0-12.069-8.623-7.646-14.843C208.814,174.059,222.038,162.817,237.349,155.292
		z"/>
	<path style="fill:#8C8C8C;" d="M376.359,74.458c0-2.689,0.188-5.333,0.541-7.926c0.14,0.008,0.277,0.022,0.419,0.022h18.4
		c3.984,0,7.456-3.069,7.576-7.05c0.123-4.119-3.179-7.498-7.27-7.498h-6.211c-4.289,0-6.928-4.717-4.665-8.361
		c5.575-8.972,13.506-16.335,22.923-21.217c2.49-1.291,1.897-5.039-0.859-5.556c-3.476-0.653-7.046-0.994-10.677-0.994
		c-32.604,0-59.074,26.775-58.575,59.493c0.49,32.144,27.317,57.671,59.465,57.671h37.517
		C402.64,133.04,376.359,106.759,376.359,74.458z"/>
</g>
<g>
</g>
<g>
</g>
<g>
</g>
<g>
</g>
<g>
</g>
<g>
</g>
<g>
</g>
<g>
</g>
<g>
</g>
<g>
</g>
<g>
</g>
<g>
</g>
<g>
</g>
<g>
</g>
<g>
</g>
</svg>
