<?xml version="1.0" encoding="iso-8859-1"?>
<!-- Generator: Adobe Illustrator 19.0.0, SVG Export Plug-In . SVG Version: 6.00 Build 0)  -->
<svg version="1.1" id="Capa_1" xmlns="http://www.w3.org/2000/svg" xmlns:xlink="http://www.w3.org/1999/xlink" x="0px" y="0px"
	 viewBox="0 0 512 512" style="enable-background:new 0 0 512 512;" xml:space="preserve">
<path style="fill:#C3FFF9;" d="M409.035,254.453l1.086-9.182c0.472-3.996,0.713-7.991,0.713-11.873
	c0-16.708-4.26-33.239-12.32-47.809l-4.105-7.419l13.304-6.824l0.147-0.068c5.761-2.673,11.929-4.029,18.331-4.029
	c20.287,0,38.052,14.223,42.519,33.923c4.424-2.635,9.469-4.025,14.638-4.025c15.8,0,28.652,12.854,28.652,28.652
	c0,15.8-12.854,28.652-28.652,28.652L409.035,254.453L409.035,254.453z"/>
<path style="fill:#8BF2E6;" d="M409.035,254.453h24.554c0.772-5.616,1.176-11.305,1.176-17.039c0-25.287-7.606-48.828-20.639-68.469
	c-2.134,0.614-4.226,1.388-6.266,2.334l-0.147,0.068l-13.304,6.824l4.105,7.419c8.059,14.57,12.319,31.102,12.319,47.81
	c0,3.882-0.239,7.877-0.713,11.873L409.035,254.453z"/>
<path style="fill:#C3FFF9;" d="M50.842,188.72c-28.033,0-50.841-22.807-50.841-50.841s22.807-50.841,50.841-50.841
	c23.695,0,44.44,16.641,49.604,39.671c5.179-3.11,11.094-4.75,17.156-4.75c18.405,0,33.38,14.975,33.38,33.38
	s-14.975,33.38-33.38,33.38H50.842z"/>
<path style="fill:#FF977B;" d="M319.535,287.039c-0.112-4.447-0.534-8.955-1.253-13.399l-1.074-6.641l6.298-2.363
	c12.917-4.848,21.594-17.401,21.594-31.238c0-18.405-14.975-33.38-33.38-33.38c-8.357,0-16.358,3.113-22.528,8.765l-4.97,4.553
	l-5.436-3.984c-13.254-9.714-28.834-16.023-45.056-18.246l-12.862-1.762l7.098-10.87c18.487-28.312,49.797-45.214,83.755-45.214
	c55.218,0,100.14,44.922,100.14,100.14c0,19.424-5.567,38.252-16.099,54.449l-3.579,5.504l-6.158-2.277
	c-7.586-2.805-15.559-4.228-23.699-4.228c-10.919,0-21.301,2.46-30.855,7.312l-11.605,5.893L319.535,287.039z"/>
<path style="fill:#FFF873;" d="M319.535,287.039c-0.112-4.447-0.534-8.955-1.253-13.399l-1.074-6.641l6.299-2.363
	c12.916-4.848,21.593-17.401,21.593-31.238c0-18.405-14.975-33.38-33.38-33.38c-8.357,0-16.358,3.113-22.528,8.765l-4.971,4.553
	l-5.436-3.984c-4.171-3.057-8.636-5.817-13.272-8.203l-9.666-4.977l7.426-7.94c12.527-13.395,30.186-21.078,48.447-21.078
	c36.528,0,66.247,29.719,66.247,66.247c0,19.814-8.761,38.42-24.04,51.063l-1.827,3.038l-3.546,0.718
	c-5.945,1.204-11.693,3.202-17.084,5.941l-11.605,5.893L319.535,287.039z"/>
<path style="fill:#AEEF66;" d="M314.947,259.619c-4.878-15.391-13.584-29.545-25.18-40.932l-6.66-6.54l7.331-5.776
	c6.04-4.76,13.599-7.381,21.281-7.381c18.972,0,34.407,15.435,34.407,34.407c0,13.342-7.807,25.586-19.888,31.192l-8.47,3.932
	L314.947,259.619z"/>
<g>
	<path style="fill:#F95948;" d="M362.325,265.278c-7.897,0-15.63,1.002-23.072,2.964c-0.751-4.2-1.723-8.323-2.897-12.362
		c-3.476,3.825-7.837,6.875-12.848,8.756l-6.298,2.363l1.074,6.641c0.719,4.444,1.14,8.953,1.253,13.399l0.329,13.012l11.605-5.893
		c9.554-4.852,19.936-7.312,30.855-7.312c8.139,0,16.113,1.423,23.699,4.229l6.158,2.277l3.579-5.504
		c2.696-4.145,5.061-8.466,7.096-12.923C390.666,268.757,376.895,265.278,362.325,265.278z"/>
	<path style="fill:#F95948;" d="M278.785,209.351l5.436,3.984l4.97-4.553c3.904-3.576,8.543-6.133,13.54-7.531
		c-18.32-17.137-41.954-28.656-68.131-31.784c-2.358,2.858-4.581,5.855-6.636,9.003l-7.098,10.87l12.862,1.762
		C249.951,193.328,265.53,199.638,278.785,209.351z"/>
</g>
<g>
	<path style="fill:#FFC200;" d="M362.325,265.278c-7.897,0-15.63,1.002-23.072,2.964c-0.751-4.2-1.723-8.322-2.896-12.362
		c-3.476,3.825-7.837,6.875-12.848,8.755l-6.299,2.363l1.074,6.641c0.719,4.444,1.14,8.953,1.253,13.399l0.329,13.012l11.605-5.893
		c5.392-2.738,11.14-4.736,17.084-5.941l3.546-0.718l1.827-3.038c6.461-5.346,11.742-11.767,15.702-18.887
		C367.219,265.38,364.783,265.278,362.325,265.278z"/>
	<path style="fill:#FFC200;" d="M278.785,209.351l5.436,3.984l4.971-4.553c3.904-3.576,8.543-6.133,13.54-7.531
		c-9.023-8.441-19.332-15.522-30.603-20.906c-3.159,2.351-6.135,4.973-8.857,7.883l-7.426,7.94l9.666,4.977
		C270.149,203.534,274.615,206.294,278.785,209.351z"/>
</g>
<path style="fill:#8EC155;" d="M314.947,259.619l2.821,8.902l8.47-3.932c3.996-1.855,7.512-4.447,10.445-7.553
	c-6.16-22.029-18.411-41.54-34.819-56.592c-4.125,1.238-8.016,3.241-11.425,5.927l-7.331,5.776l6.66,6.54
	C301.363,230.075,310.07,244.23,314.947,259.619z"/>
<path style="fill:#AFF2D8;" d="M365.504,424.949H129.433c-41.175,0-75.735-33.686-75.509-74.861
	c0.21-38.141,28.762-69.678,66.649-73.612c6.491-49.815,49.231-87.329,99.586-87.329c55.38,0,100.435,45.055,100.435,100.435
	c0,2.003-0.062,4.024-0.184,6.05c-0.107,1.773,1.844,2.872,3.318,1.882c11.43-7.669,24.66-11.694,38.596-11.694
	c38.358,0,69.564,31.207,69.564,69.565c0,36.364-28.395,66.835-64.643,69.372l-0.899,0.204L365.504,424.949z"/>
<path style="fill:#87CEB7;" d="M104.106,350.51c0-36.892,26.521-67.682,62.417-73.461h47.802c8.54,0,15.464-6.924,15.464-15.464l0,0
	c0-8.54-6.924-15.464-15.464-15.464h-18.41c-7.523,0-11.839-8.497-7.476-14.626c9.503-13.347,22.168-24.23,36.828-31.617
	c5.196-2.618,3.551-10.459-2.264-10.663c-1.046-0.037-2.095-0.058-3.148-0.063c-50.222,0.152-92.804,37.607-99.282,87.321
	c-38.027,3.949-66.65,35.705-66.65,74.035c0,24.997,12.399,47.139,31.355,60.646c12.364,8.669,27.381,13.793,43.414,13.793h49.854
	C137.5,424.949,104.106,391.555,104.106,350.51z"/>
<path style="fill:#8BF2E6;" d="M39.041,137.88c0-0.731,0.015-1.459,0.045-2.184c0.137-3.272,2.855-5.845,6.131-5.845h15.55
	c5.341,0,9.671-4.33,9.671-9.671v-0.901c0-5.476-4.467-9.468-9.942-9.423c-5.699,0.046-8.332-6.957-4.104-10.75
	c0.706-0.634,1.429-1.248,2.168-1.842c3.939-3.164,2.057-9.521-2.973-9.999c-1.566-0.149-3.149-0.225-4.746-0.225
	c-28.361,0-51.372,23.341-50.831,51.823c0.528,27.834,23.846,49.858,51.684,49.858h28.124
	C56.519,183.536,39.041,162.716,39.041,137.88z"/>
<g>
</g>
<g>
</g>
<g>
</g>
<g>
</g>
<g>
</g>
<g>
</g>
<g>
</g>
<g>
</g>
<g>
</g>
<g>
</g>
<g>
</g>
<g>
</g>
<g>
</g>
<g>
</g>
<g>
</g>
</svg>
