<?xml version="1.0" encoding="iso-8859-1"?>
<!-- Generator: Adobe Illustrator 19.0.0, SVG Export Plug-In . SVG Version: 6.00 Build 0)  -->
<svg version="1.1" id="Capa_1" xmlns="http://www.w3.org/2000/svg" xmlns:xlink="http://www.w3.org/1999/xlink" x="0px" y="0px"
	 viewBox="0 0 511.999 511.999" style="enable-background:new 0 0 511.999 511.999;" xml:space="preserve">
<path style="fill:#C3FFF9;" d="M429.985,277.091l-28.303-83.601l16.212-3.015c2.695-0.506,5.428-0.764,8.122-0.764
	c20.328,0,38.129,14.252,42.605,33.992c4.433-2.641,9.488-4.033,14.667-4.033c15.831,0,28.71,12.88,28.71,28.71
	c0,15.831-12.88,28.71-28.71,28.71h-53.304V277.091z"/>
<path style="fill:#8BF2E6;" d="M429.985,277.091h18.276c1.825-6.837,2.764-13.917,2.764-21.098
	c0-26.794-12.947-50.621-32.912-65.553c-0.072,0.013-0.145,0.022-0.217,0.036l-16.212,3.015L429.985,277.091z"/>
<path style="fill:#FFA000;" d="M407.323,303.148c-12.382-10.473-28.104-16.24-44.271-16.24c-10.941,0-21.343,2.465-30.917,7.326
	l-11.629,5.905l-0.329-13.038c-0.683-27.081-12.077-52.165-32.083-70.632l-5.596-5.166l4.715-5.981
	c15.604-19.794,39.018-31.145,64.24-31.145c45.114,0,81.817,36.703,81.817,81.817c0,16.213-4.766,31.925-13.783,45.437l-5.121,7.674
	L407.323,303.148z"/>
<circle style="fill:#FFC200;" cx="351.278" cy="257.481" r="63.738"/>
<circle style="fill:#FFE44C;" cx="351.278" cy="257.481" r="42.013"/>
<circle style="fill:#FFFD80;" cx="351.278" cy="257.481" r="23.712"/>
<path style="fill:#F9B13D;" d="M411.546,306.72l2.82,2.386l0.652-0.979C413.873,307.629,412.717,307.154,411.546,306.72z"/>
<path style="fill:#C3FFF9;" d="M50.943,188.584C22.853,188.584,0,165.731,0,137.642s22.853-50.943,50.943-50.943
	c23.742,0,44.529,16.674,49.704,39.751c5.189-3.116,11.116-4.76,17.191-4.76c18.442,0,33.447,15.005,33.447,33.447
	s-15.005,33.447-33.447,33.447H50.943z"/>
<g>
	<path style="fill:#AFF2D8;" d="M366.238,425.288H128.619c-41.128,0-74.588-33.461-74.588-74.588
		c0-38.407,28.681-70.227,66.784-74.183c6.504-49.916,49.33-87.504,99.786-87.504c55.492,0,100.637,45.146,100.637,100.637
		c0,3.504-0.188,7.066-0.56,10.606c12.256-9.411,26.879-14.377,42.373-14.377c38.436,0,69.704,31.27,69.704,69.705
		c0,36.437-28.452,66.97-64.773,69.512l-0.9,0.205L366.238,425.288z"/>
	<polygon style="fill:#AFF2D8;" points="366.238,425.288 367.082,425.3 367.134,425.288 	"/>
</g>
<g>
	<circle style="fill:#F9B13D;" cx="362.259" cy="138.152" r="13.379"/>
	<circle style="fill:#F9B13D;" cx="418.862" cy="157.706" r="13.379"/>
	<circle style="fill:#F9B13D;" cx="299.481" cy="151.531" r="13.379"/>
</g>
<path style="fill:#87CEB7;" d="M215.498,246.101h-18.447c-7.538,0-11.863-8.514-7.491-14.655
	c10.166-14.278,23.944-25.742,39.91-33.133c4.465-2.068,3.222-8.697-1.686-9.046c-2.372-0.169-4.767-0.254-7.181-0.254
	c-50.456,0-93.283,37.587-99.786,87.504c-37.963,3.942-66.573,35.543-66.783,73.76c-0.226,41.257,34.403,75.011,75.661,75.011
	h49.954c-41.128,0-74.588-33.461-74.588-74.588c0-36.966,26.575-67.818,62.542-73.609H215.5c8.557,0,15.495-6.937,15.495-15.495l0,0
	C230.993,253.039,224.055,246.101,215.498,246.101z"/>
<path style="fill:#8BF2E6;" d="M39.263,137.642c0-0.738,0.015-1.472,0.047-2.202c0.137-3.175,2.815-5.649,5.993-5.649H60.19
	c5.4,0,9.777-4.377,9.777-9.777l0,0c0-5.4-4.377-9.777-9.777-9.777l0,0c-5.536,0-8.08-6.816-3.959-10.514
	c2.189-1.964,4.547-3.742,7.052-5.307c2.677-1.674,1.939-5.752-1.14-6.455c-3.621-0.826-7.371-1.262-11.199-1.262
	c-28.418,0-51.475,23.388-50.933,51.928c0.529,27.89,23.894,49.958,51.788,49.958h38.409
	C62.116,188.584,39.263,165.732,39.263,137.642z"/>
<g>
</g>
<g>
</g>
<g>
</g>
<g>
</g>
<g>
</g>
<g>
</g>
<g>
</g>
<g>
</g>
<g>
</g>
<g>
</g>
<g>
</g>
<g>
</g>
<g>
</g>
<g>
</g>
<g>
</g>
</svg>
