<?xml version="1.0" encoding="utf-8"?>
<!-- Generator: Adobe Illustrator 19.2.0, SVG Export Plug-In . SVG Version: 6.00 Build 0)  -->
<svg version="1.1" id="Layer_1" xmlns="http://www.w3.org/2000/svg" xmlns:xlink="http://www.w3.org/1999/xlink" x="0px" y="0px"
	 viewBox="0 0 240 320" style="enable-background:new 0 0 240 320;" xml:space="preserve">
<style type="text/css">
	.st0{fill:#E64C3B;}
	.st1{display:none;}
	.st2{display:inline;}
	.st3{fill:#FFFFFF;}
	.st4{display:inline;fill:none;stroke:#FFFFFF;stroke-width:2;stroke-linecap:round;stroke-miterlimit:10;}
	.st5{display:inline;fill:#ED6129;}
	.st6{opacity:0.6;}
	.st7{fill:#607D8B;}
	.st8{fill:#455A64;}
	.st9{fill:#546DE5;}
	.st10{fill:#4EB96F;}
	.st11{fill:#F5CD79;}
	.st12{fill:#C44569;}
	.st13{font-family:'Montserrat-SemiBold';}
	.st14{font-size:13.3339px;}
	.st15{fill:#666666;}
	.st16{enable-background:new    ;}
</style>
<rect y="24" width="240" height="296"/>
<rect y="0" class="st0" width="240" height="24"/>
<g id="XMLID_11_" class="st1">
	<g id="XMLID_14_" class="st2">
		<path id="XMLID_21_" class="st3" d="M32,78.1c-0.3,0-0.5,0.1-0.8,0.2c0,0,0,0-0.1,0L24.3,84H19c-0.3,0-0.5,0.2-0.5,0.5V94
			c0,0.3,0.2,0.5,0.5,0.5h5.3l6.8,6.2c0,0,0.1,0,0.1,0.1c0.2,0.1,0.5,0.2,0.8,0.2c0.9,0,1.6-0.7,1.6-1.6V79.7
			C33.5,78.8,32.8,78.1,32,78.1z M25,93.6c0,0.3-0.2,0.5-0.5,0.5S24,93.9,24,93.6v-2c0-0.3,0.2-0.5,0.5-0.5s0.5,0.2,0.5,0.5V93.6z
			 M25,87.1c0,0.3-0.2,0.5-0.5,0.5S24,87.4,24,87.1v-2c0-0.3,0.2-0.5,0.5-0.5s0.5,0.2,0.5,0.5V87.1z"/>
	</g>
	<line id="XMLID_13_" class="st4" x1="53.9" y1="91.7" x2="229" y2="91.7"/>
	<circle id="XMLID_12_" class="st5" cx="92.3" cy="91.7" r="6.7"/>
</g>
<g class="st6">
	<path class="st7" d="M184.2,181.1c0.4-2.9,0.8-5.8,0.8-9.1s-0.4-6.2-0.8-9.1l18.6-13.2c1.7-1.2,2.5-3.7,1.2-5.8l-18.2-30.5
		c-1.2-2.1-3.3-2.9-5.4-1.7l-20.6,9.5c-5-3.7-9.9-6.6-15.7-9.1L142,89.4c-0.4-2.1-2.1-3.7-4.1-3.7h-35.5c-2.1,0-4.1,1.7-4.1,3.7
		l-2.1,22.7c-5.8,2.5-11.1,5.4-15.7,9.1L60,111.8c-2.1-0.8-4.5,0-5.4,1.7L36.9,144c-1.2,2.1-0.4,4.5,1.2,5.8L56.7,163
		c-0.4,2.9-0.8,5.8-0.8,9.1s0.4,6.2,0.8,9.1l-19.4,13.2c-1.7,1.2-2.5,3.7-1.2,5.8l17.7,30.5c1.2,2.1,3.3,2.9,5.4,1.7l20.6-9.5
		c5,3.7,9.9,6.6,15.7,9.1l2.1,22.7c0.4,2.1,2.1,3.7,4.1,3.7h35.5c2.1,0,4.1-1.7,4.1-3.7l2.1-22.7c5.8-2.5,11.1-5.4,15.7-9.1
		l20.6,9.5c2.1,0.8,4.5,0,5.4-1.7l17.7-30.5c1.2-2.1,0.4-4.5-1.2-5.8L184.2,181.1z M119.8,213.3c-22.7,0-41.3-18.6-41.3-41.3
		s18.6-41.3,41.3-41.3S161,149.3,161,172S142.5,213.3,119.8,213.3z"/>
	<path class="st8" d="M119.8,122.5c-27.2,0-49.5,22.3-49.5,49.5s22.3,49.5,49.5,49.5s49.5-22.3,49.5-49.5S147,122.5,119.8,122.5z
		 M119.8,192.6c-11.6,0-20.6-9.1-20.6-20.6s9.1-20.6,20.6-20.6s20.6,9.1,20.6,20.6S131.3,192.6,119.8,192.6z"/>
</g>
<g>
	<g>
		<path class="st9" d="M202,57.5c4.5,0,7.6-2.2,7.6-10.7s-3.1-10.7-7.6-10.7s-7.6,2.2-7.6,10.7S197.5,57.5,202,57.5L202,57.5z"/>
		<path class="st3" d="M206.6,43.2l-5.4-5.4V45l-3-3l-1.1,1.1l3.7,3.8l-3.7,3.8l1.1,1.1l3-3v7.1l5.4-5.4l-3.6-3.6L206.6,43.2z
			 M202.8,41.3l1.7,1.7l-1.7,1.7V41.3z M204.5,50.3l-1.7,1.7v-3.5L204.5,50.3z"/>
	</g>
	<g>
		<path class="st10" d="M42.7,36c-4.8,0-9.1,1.9-12.3,5.1l2.2,2.2c2.7-2.4,6.2-3.9,10-3.9s7.4,1.5,10,3.9l2.2-2.2
			C51.8,38,47.5,36,42.7,36z M42.7,41.8c-3.2,0-6.2,1.2-8.4,3.2l2.5,2.5c1.6-1.3,3.7-2.2,5.9-2.2s4.3,0.8,5.9,2.2l2.5-2.5
			C48.8,43,45.9,41.8,42.7,41.8z M42.7,47.6c-1.6,0-3.1,0.6-4.3,1.5l4.3,4.3l4.3-4.3C45.8,48.2,44.3,47.6,42.7,47.6z M49.5,49.3
			L47.8,51l2.5,2.5L47.8,56l1.6,1.6l2.5-2.5l2.5,2.5L56,56l-2.5-2.5L56,51l-1.6-1.6l-2.5,2.5L49.5,49.3z"/>
	</g>
	<g id="surface1">
		<path class="st11" d="M147.4,36c-1.4,0-2.5,1.1-2.5,2.5v6.6h-2.7c-1.2,0-1.3,0.2-0.4,1.2l5.5,5.4c1.8,1.8,1.8,1.8,3.6,0l5.5-5.4
			c1-1.1,0.7-1.2-0.4-1.2h-2.7v-6.6c0-1.4-1.1-2.5-2.5-2.5H147.4z M138.4,51.7V55c0,1.4,1.1,2.5,2.5,2.5h16.5c1.4,0,2.5-1.1,2.5-2.5
			v-3.3h-1.7V55c0,0.5-0.3,0.8-0.8,0.8h-16.5c-0.5,0-0.8-0.3-0.8-0.8v-3.3H138.4z"/>
	</g>
	<g>
		<path class="st3" d="M98.7,47.2c-0.8,0.8-2.2,0.8-3,0s-0.8-2.2,0-3l2.4-2.4c-1.1-0.4-2.3-0.5-3.6-0.1c-1.2,0.4-2.1,1.2-2.8,2.2
			c-1.2,1.8-1.1,3.4-0.6,4.7L88.7,51c0.8,1.3,1.9,2.4,3.2,3.2l2.4-2.4c1.4,0.5,3,0.6,4.7-0.6c1-0.7,1.8-1.6,2.2-2.8
			c0.4-1.3,0.3-2.5-0.1-3.6L98.7,47.2z"/>
		<path class="st12" d="M96.1,36c-5.9,0-10.7,4.8-10.7,10.7s4.8,10.7,10.7,10.7c5.9,0,10.7-4.8,10.7-10.7S102.1,36,96.1,36z
			 M101.2,48.4c-0.4,1.2-1.2,2.1-2.2,2.8c-1.8,1.2-3.4,1.1-4.7,0.6l-2.4,2.4c-1.3-0.8-2.4-1.9-3.2-3.2l2.4-2.4
			c-0.5-1.4-0.6-3,0.6-4.7c0.7-1,1.6-1.8,2.8-2.2c1.3-0.4,2.5-0.3,3.6,0.1l-2.4,2.4c-0.8,0.8-0.8,2.2,0,3s2.2,0.8,3,0l2.4-2.4
			C101.5,45.9,101.7,47.1,101.2,48.4z"/>
	</g>
</g>
<g>
	<path class="st9" d="M219.8,99.4h-55c-6.1,0-11-4.9-11-11l0,0c0-6.1,4.9-11,11-11h55c6.1,0,11,4.9,11,11l0,0
		C230.8,94.4,225.9,99.4,219.8,99.4z"/>
	<g>
		<text transform="matrix(1 0 0 1 158.2501 93.4216)" class="st3 st13 st14">BT Pairing</text>
	</g>
</g>
<g>
	<path class="st10" d="M79.6,99.4H20.9c-6.5,0-11.7-4.9-11.7-11l0,0c0-6.1,5.2-11,11.7-11h58.7c6.5,0,11.7,4.9,11.7,11l0,0
		C91.4,94.4,86.1,99.4,79.6,99.4z"/>
	<g>
		<text transform="matrix(1 0 0 1 14.4865 93.4216)" class="st3 st13 st14">Reset WiFi</text>
	</g>
</g>
<g>
	<path class="st12" d="M88.6,139.7H20.2c-6.1,0-11-4.9-11-11l0,0c0-6.1,4.9-11,11-11h68.4c6.1,0,11,4.9,11,11l0,0
		C99.6,134.8,94.7,139.7,88.6,139.7z"/>
	<g>
		<text transform="matrix(1 0 0 1 13.1751 133.8098)" class="st3 st13 st14">Setup Mode</text>
	</g>
</g>
<g>
	<path class="st11" d="M219.8,139.7H118.2c-6.1,0-11-4.9-11-11l0,0c0-6.1,4.9-11,11-11h101.6c6.1,0,11,4.9,11,11l0,0
		C230.8,134.8,225.9,139.7,219.8,139.7z"/>
	<text transform="matrix(1 0 0 1 112.5581 133.8098)" class="st3 st13 st14">Software Update</text>
</g>
<g>
	<path class="st15" d="M208.5,239.7H31.5c-12.3,0-22.3-10-22.3-22.3v0c0-12.3,10-22.3,22.3-22.3h176.9c12.3,0,22.3,10,22.3,22.3v0
		C230.8,229.7,220.8,239.7,208.5,239.7z"/>
	<g>
		<text transform="matrix(1 0 0 1 67.5719 213.5038)" class="st16"><tspan x="0" y="0" class="st3 st13 st14">Hold 3 seconds </tspan><tspan x="-23.5" y="16" class="st3 st13 st14">and release to activate</tspan></text>
	</g>
</g>
<rect x="148.4" y="56.6" class="st11" width="2" height="66.7"/>
<rect x="201.2" y="56.6" class="st9" width="2" height="22.3"/>
<rect x="42" y="50.5" class="st10" width="2" height="29.5"/>
<rect x="94.4" y="55" class="st12" width="2" height="66.7"/>
</svg>
